<svg width="50" height="25" viewBox="0 0 50 25" fill="none" xmlns="http://www.w3.org/2000/svg">
    <rect y="0.5" width="50" height="24" rx="12" fill="#161616"/>
    <path d="M20.4675 9.55V16.5H19.3275V11.74L17.2075 16.5H16.4175L14.2875 11.74V16.5H13.1475V9.55H14.3775L16.8175 15L19.2475 9.55H20.4675ZM26.9558 10.99V16.5H25.8158V15.85C25.6358 16.0767 25.3992 16.2567 25.1058 16.39C24.8192 16.5167 24.5125 16.58 24.1858 16.58C23.7525 16.58 23.3625 16.49 23.0158 16.31C22.6758 16.13 22.4058 15.8633 22.2058 15.51C22.0125 15.1567 21.9158 14.73 21.9158 14.23V10.99H23.0458V14.06C23.0458 14.5533 23.1692 14.9333 23.4158 15.2C23.6625 15.46 23.9992 15.59 24.4258 15.59C24.8525 15.59 25.1892 15.46 25.4358 15.2C25.6892 14.9333 25.8158 14.5533 25.8158 14.06V10.99H26.9558ZM29.79 11.92V14.97C29.79 15.1767 29.8366 15.3267 29.93 15.42C30.03 15.5067 30.1966 15.55 30.43 15.55H31.13V16.5H30.23C29.7166 16.5 29.3233 16.38 29.05 16.14C28.7766 15.9 28.64 15.51 28.64 14.97V11.92H27.99V10.99H28.64V9.62H29.79V10.99H31.13V11.92H29.79ZM37.2307 13.61C37.2307 13.8167 37.2173 14.0033 37.1907 14.17H32.9807C33.014 14.61 33.1773 14.9633 33.4707 15.23C33.764 15.4967 34.124 15.63 34.5507 15.63C35.164 15.63 35.5973 15.3733 35.8507 14.86H37.0807C36.914 15.3667 36.6107 15.7833 36.1707 16.11C35.7373 16.43 35.1973 16.59 34.5507 16.59C34.024 16.59 33.5507 16.4733 33.1307 16.24C32.7173 16 32.3907 15.6667 32.1507 15.24C31.9173 14.8067 31.8007 14.3067 31.8007 13.74C31.8007 13.1733 31.914 12.6767 32.1407 12.25C32.374 11.8167 32.6973 11.4833 33.1107 11.25C33.5307 11.0167 34.0107 10.9 34.5507 10.9C35.0707 10.9 35.534 11.0133 35.9407 11.24C36.3473 11.4667 36.664 11.7867 36.8907 12.2C37.1173 12.6067 37.2307 13.0767 37.2307 13.61ZM36.0407 13.25C36.034 12.83 35.884 12.4933 35.5907 12.24C35.2973 11.9867 34.934 11.86 34.5007 11.86C34.1073 11.86 33.7707 11.9867 33.4907 12.24C33.2107 12.4867 33.044 12.8233 32.9907 13.25H36.0407Z" fill="#C2C2C2"/>
</svg>
