<svg width="40" height="40" viewBox="0 0 40 40" fill="none" xmlns="http://www.w3.org/2000/svg">
<path d="M14.8177 15.4688L8.12132 29.6561C7.4101 31.0466 8.83149 32.5631 10.2668 31.9452L24.3359 26.9792" stroke="#ACDDF9" stroke-width="2.5" stroke-linecap="round" stroke-linejoin="round"/>
<path d="M22.1995 18.2953C24.9326 21.4488 26.1634 25.1414 24.9487 26.5429C23.7341 27.9445 20.5338 26.5242 17.8008 23.3707C15.0678 20.2173 13.8369 16.5247 15.0516 15.1231C16.2663 13.7216 19.4665 15.1418 22.1995 18.2953Z" stroke="#ACDDF9" stroke-width="2.5" stroke-linecap="round" stroke-linejoin="round"/>
<path d="M15.8338 29.3941C14.8391 28.7585 13.7896 27.8447 12.8011 26.7042C12.1502 25.9531 11.5845 25.1715 11.1167 24.3975" stroke="#ACDDF9" stroke-width="2.5" stroke-linecap="round" stroke-linejoin="round"/>
<path d="M19.1667 8.33333C19.1667 8.79357 18.7936 9.16667 18.3333 9.16667C17.8731 9.16667 17.5 8.79357 17.5 8.33333C17.5 7.8731 17.8731 7.5 18.3333 7.5C18.7936 7.5 19.1667 7.8731 19.1667 8.33333Z" stroke="#ACDDF9" stroke-width="1.66667" stroke-linecap="round" stroke-linejoin="round"/>
<path d="M26.25 15.417L26.4645 15.2025C28.4171 13.2499 28.4171 10.0841 26.4645 8.13146L26.25 7.91699" stroke="#ACDDF9" stroke-width="2.5" stroke-linecap="round" stroke-linejoin="round"/>
<path d="M28.3335 21.6667L28.8217 21.1786C29.4725 20.5277 30.5278 20.5277 31.1787 21.1786L31.6668 21.6667" stroke="#ACDDF9" stroke-width="2.5" stroke-linecap="round" stroke-linejoin="round"/>
</svg>
