<svg width="65" height="67" viewBox="0 0 65 67" fill="none" xmlns="http://www.w3.org/2000/svg">
<path d="M51.7475 66.0562C51.9858 66.1958 52.2921 66.1157 52.4316 65.8774L54.7051 61.9939C54.8446 61.7556 54.7645 61.4493 54.5262 61.3098C54.2879 61.1703 53.9816 61.2504 53.8421 61.4887L51.8212 64.9406L48.3693 62.9198C48.131 62.7802 47.8247 62.8603 47.6852 63.0986C47.5457 63.3369 47.6258 63.6432 47.8641 63.7827L51.7475 66.0562ZM63.6681 0.250959C49.6842 12.6741 38.4485 20.7821 29.5668 25.7449C20.6748 30.7135 14.1878 32.5036 9.68798 32.3594C7.44542 32.2875 5.71113 31.7361 4.41218 30.8735C3.11542 30.0124 2.22555 28.8237 1.69602 27.4296C0.631047 24.626 1.02211 20.973 2.57943 17.5835C4.13339 14.2014 6.81491 11.159 10.2182 9.56382C13.6022 7.97764 17.7378 7.80254 22.2819 10.2073C26.8454 12.6224 31.8443 17.6543 36.8637 26.5329C41.8805 35.407 46.8981 48.0893 51.5164 65.7512L52.4839 65.4983C47.8522 47.7852 42.8073 35.0144 37.7342 26.0408C32.6637 17.0718 27.5455 11.8615 22.7496 9.32346C17.9343 6.77511 13.4684 6.93595 9.79376 8.65836C6.13843 10.3717 3.30431 13.6107 1.67076 17.166C0.040572 20.7141 -0.427744 24.6548 0.761189 27.7847C1.3586 29.3575 2.37401 30.7205 3.859 31.7066C5.34178 32.6912 7.2657 33.2823 9.65596 33.3589C14.4217 33.5116 21.0989 31.622 30.0546 26.6179C39.0205 21.608 50.316 13.4504 64.3322 0.998553L63.6681 0.250959Z" fill="#FDFFB0"/>
</svg>
