<svg width="32" height="32" viewBox="0 0 32 32" fill="none" xmlns="http://www.w3.org/2000/svg">
<path d="M23.9998 16.3333H22.3332M23.9998 16.3333L23.021 23.3689C22.8232 24.7906 21.5355 25.8006 20.1077 25.6542L10.8638 24.7061C10.1837 24.6363 9.6665 24.0634 9.6665 23.3797L9.6665 12.9999C12.3658 12.9999 12.9399 9.64628 13.0279 7.46517C13.0602 6.66566 13.9235 6.09719 14.6392 6.45503C15.6774 6.97412 16.3332 8.03521 16.3332 9.19592V12.9999H23.9998C24.9203 12.9999 25.6665 13.7461 25.6665 14.6666C25.6665 15.5871 24.9203 16.3333 23.9998 16.3333Z" stroke="#FAF9F8" stroke-width="2" stroke-linecap="round" stroke-linejoin="round"/>
<path d="M6.3335 13.0001C6.3335 12.2637 6.93045 11.6667 7.66683 11.6667H8.3335C9.06988 11.6667 9.66683 12.2637 9.66683 13.0001V24.3334C9.66683 25.0698 9.06988 25.6667 8.3335 25.6667H7.66683C6.93045 25.6667 6.3335 25.0698 6.3335 24.3334V13.0001Z" stroke="#FAF9F8" stroke-width="2" stroke-linecap="round" stroke-linejoin="round"/>
</svg>
