<svg width="31" height="50" viewBox="0 0 31 50" fill="none" xmlns="http://www.w3.org/2000/svg">
<path d="M4.55097 46.78C4.4295 47.028 4.53207 47.3275 4.78007 47.449L8.82135 49.4284C9.06934 49.5499 9.36885 49.4473 9.49031 49.1993C9.61178 48.9513 9.50921 48.6518 9.26122 48.5303L5.66896 46.7709L7.42843 43.1786C7.5499 42.9306 7.44733 42.6311 7.19934 42.5097C6.95134 42.3882 6.65184 42.4908 6.53037 42.7388L4.55097 46.78ZM1.04975 1.49749C9.71391 0.631068 16.4996 2.27594 21.2504 5.37199C25.9968 8.46511 28.7395 13.0219 29.3157 18.0568C30.4671 28.1165 22.9547 40.3226 4.838 46.5269L5.162 47.473C23.5453 41.1773 31.5329 28.6335 30.3093 17.9431C29.698 12.603 26.7845 7.78482 21.7964 4.53419C16.8129 1.28649 9.78609 -0.381137 0.950248 0.50245L1.04975 1.49749Z" fill="#F988B7"/>
</svg>
