<svg width="32" height="28" viewBox="0 0 32 28" fill="none" xmlns="http://www.w3.org/2000/svg">
<path d="M15.9996 11.0001V16.3334M15.9996 21.6667H16.013M14.1534 4.18903L3.18688 23.1312C2.5786 24.1818 2.27447 24.7072 2.31942 25.1383C2.35862 25.5144 2.55565 25.8561 2.86146 26.0785C3.21207 26.3334 3.81909 26.3334 5.03312 26.3334H26.9661C28.1802 26.3334 28.7872 26.3334 29.1378 26.0785C29.4436 25.8561 29.6406 25.5144 29.6798 25.1383C29.7248 24.7072 29.4207 24.1818 28.8124 23.1312L17.8459 4.18902C17.2398 3.14214 16.9367 2.6187 16.5414 2.44289C16.1965 2.28954 15.8028 2.28954 15.4579 2.44289C15.0625 2.6187 14.7595 3.14214 14.1534 4.18903Z" stroke="#B7B7B7" stroke-width="2.66667" stroke-linecap="round" stroke-linejoin="round"/>
</svg>
