<svg width="16" height="16" viewBox="0 0 16 16" fill="none" xmlns="http://www.w3.org/2000/svg">
<path fill-rule="evenodd" clip-rule="evenodd" d="M8.00008 0.666748C3.94999 0.666748 0.666748 3.94999 0.666748 8.00008C0.666748 12.0502 3.94999 15.3334 8.00008 15.3334C12.0502 15.3334 15.3334 12.0502 15.3334 8.00008C15.3334 3.94999 12.0502 0.666748 8.00008 0.666748ZM7 8C7 7.44772 7.44772 7 8 7C8.55228 7 9 7.44772 9 8V11C9 11.5523 8.55228 12 8 12C7.44772 12 7 11.5523 7 11V8ZM8 6C8.55228 6 9 5.55228 9 5C9 4.44772 8.55228 4 8 4C7.44772 4 7 4.44772 7 5C7 5.55228 7.44772 6 8 6Z" fill="#BACAED"/>
</svg>
