<svg width="73" height="26" viewBox="0 0 73 26" fill="none" xmlns="http://www.w3.org/2000/svg">
<path d="M71.8461 10.3674L71.8475 10.3689C72.2136 10.7808 72.4996 11.2876 72.7086 11.8847L72.7094 11.8868L72.7101 11.889C72.9054 12.4901 73.001 13.1821 73.001 13.9618L73.001 20.2599C73.001 20.427 72.8655 20.5625 72.6984 20.5625L71.2139 20.5625C71.0468 20.5625 70.9113 20.427 70.9113 20.2599L70.9113 14.178C70.9113 13.0745 70.6837 12.3125 70.2705 11.8476C69.8602 11.386 69.2185 11.1371 68.3027 11.1371C67.3301 11.1371 66.5907 11.4629 66.0581 12.1021L66.0578 12.1024C65.5047 12.7635 65.2185 13.6503 65.2185 14.7833L65.2185 20.2599C65.2185 20.427 65.083 20.5625 64.9159 20.5625L63.4314 20.5625C63.2643 20.5625 63.1288 20.427 63.1288 20.2599L63.1288 5.124C63.1288 5.06213 63.1789 5.01198 63.2408 5.01198L65.1065 5.01198C65.1683 5.01198 65.2185 5.06213 65.2185 5.124L65.2185 10.7149C65.2185 10.7563 65.235 10.7961 65.2643 10.8254C65.3344 10.8954 65.4511 10.8831 65.5084 10.8023C65.7958 10.3975 66.1329 10.0552 66.5204 9.77699C67.1245 9.34327 67.882 9.13382 68.7783 9.13382C69.392 9.13382 69.9649 9.2386 70.4947 9.45032C71.0134 9.64888 71.464 9.95465 71.8448 10.3659L71.8461 10.3674Z" fill="white"/>
<path fill-rule="evenodd" clip-rule="evenodd" d="M56.7403 13.9228L56.741 13.9229C58.0135 14.0253 59.0084 14.3339 59.7003 14.8712C60.4218 15.4055 60.7746 16.1907 60.7746 17.1937V17.3235C60.7746 17.8706 60.6604 18.3708 60.4285 18.8199C60.2127 19.251 59.905 19.6196 59.5083 19.925C59.1236 20.2325 58.6521 20.459 58.0993 20.6087C57.5597 20.7732 56.9714 20.8544 56.3357 20.8544C55.4832 20.8544 54.7385 20.7443 54.106 20.5184L54.1033 20.5174L54.1005 20.5163C53.491 20.2784 52.9721 19.9713 52.5479 19.5925L52.545 19.59L52.5423 19.5873C52.1355 19.1957 51.8242 18.7562 51.6111 18.269L51.6106 18.268L51.6102 18.267C51.4126 17.8012 51.2936 17.3327 51.2549 16.862C51.2426 16.7118 51.343 16.5798 51.4843 16.5454L52.888 16.204C53.07 16.1597 53.2411 16.2883 53.2621 16.4654C53.3477 17.1878 53.6395 17.7652 54.1346 18.21C54.6511 18.6598 55.3489 18.8944 56.2492 18.8944C57.018 18.8944 57.61 18.7474 58.0426 18.4724C58.4774 18.1908 58.6848 17.8138 58.6848 17.3235C58.6848 16.7814 58.4786 16.4228 58.0766 16.2035C57.6411 15.9659 56.9068 15.8021 55.8465 15.7305L55.846 15.7304C54.5864 15.6425 53.5923 15.3483 52.8866 14.8267C52.1646 14.2931 51.8103 13.515 51.8103 12.5243V12.3946C51.8103 11.8613 51.9247 11.3863 52.1607 10.9765C52.3912 10.5621 52.6991 10.2158 53.0832 9.93932L53.0847 9.93823L53.0862 9.93717C53.4802 9.6644 53.9187 9.46059 54.4003 9.32514C54.8802 9.19018 55.3814 9.12305 55.9033 9.12305C56.6273 9.12305 57.2714 9.22629 57.8316 9.4379C58.3832 9.63196 58.8522 9.89534 59.2343 10.231C59.6142 10.5506 59.9058 10.9256 60.106 11.3557C60.3 11.7443 60.4314 12.1357 60.4982 12.5298C60.5251 12.6887 60.4222 12.8351 60.2721 12.8716L58.8736 13.2118C58.6933 13.2557 58.5244 13.13 58.4998 12.9567C58.4163 12.3658 58.1634 11.912 57.7451 11.5797L57.7439 11.5788L57.7428 11.5779C57.312 11.2254 56.7342 11.0398 55.9898 11.0398C55.7033 11.0398 55.4243 11.0739 55.1524 11.1419L55.1487 11.1428L55.145 11.1436C54.8907 11.1971 54.6672 11.2832 54.4722 11.4002C54.2812 11.5148 54.1314 11.6591 54.0193 11.8335L54.0174 11.8364L54.0155 11.8392C53.9123 11.9883 53.8568 12.1703 53.8568 12.3946C53.8568 12.8449 54.0381 13.1761 54.4102 13.4123C54.8123 13.6581 55.5753 13.8365 56.7397 13.9228L56.7403 13.9228Z" fill="white"/>
<path d="M42.6816 2.79231C42.6816 2.29082 42.8546 1.86714 43.2004 1.52129C43.5636 1.15814 43.9959 0.976562 44.4974 0.976562C44.9989 0.976562 45.4225 1.15814 45.7684 1.52129C46.1316 1.86714 46.3131 2.29082 46.3131 2.79231C46.3131 3.2938 46.1316 3.72612 45.7684 4.08927C45.4225 4.43512 44.9989 4.60805 44.4974 4.60805C43.9959 4.60805 43.5636 4.43512 43.2004 4.08927C42.8546 3.72612 42.6816 3.2938 42.6816 2.79231Z" fill="white"/>
<path d="M48.9525 12.923V13.9463C48.9525 14.1153 48.8176 14.243 48.6612 14.2515C48.3831 14.2667 48.0197 14.35 47.7328 14.518C47.4492 14.6841 47.2663 14.9144 47.2663 15.2289V18.6838C47.2663 19.221 47.0908 19.6771 46.7333 20.0354C46.3881 20.3961 45.9371 20.5717 45.4 20.5717H43.5048C43.3376 20.5717 43.2021 20.4363 43.2021 20.2691V18.9144C43.2021 18.7472 43.3376 18.6118 43.5048 18.6118H44.7947C44.9523 18.6118 45.0352 18.5689 45.0825 18.5164C45.1334 18.4598 45.1766 18.355 45.1766 18.165V15.2506C45.1766 14.8854 45.3093 14.5434 45.5011 14.2312C45.6764 13.9459 45.9068 13.6762 46.1479 13.4253C45.6477 12.9073 45.1766 12.3056 45.1766 11.6187V8.80522C45.1766 8.6152 45.1334 8.51036 45.0825 8.45378C45.0352 8.40125 44.9523 8.35843 44.7947 8.35843H43.5048C43.3376 8.35843 43.2021 8.22294 43.2021 8.05581V6.70106C43.2021 6.53393 43.3376 6.39844 43.5048 6.39844H45.4C45.9371 6.39844 46.3881 6.57408 46.7333 6.93479C47.0908 7.29314 47.2663 7.74917 47.2663 8.28639V11.6404C47.2663 11.9549 47.4492 12.1852 47.7328 12.3513C48.0197 12.5194 48.3831 12.6026 48.6612 12.6178C48.8176 12.6264 48.9525 12.754 48.9525 12.923Z" fill="white"/>
<path d="M21.7496 19.6219L21.7482 19.6204C21.3821 19.2085 21.0961 18.7016 20.8871 18.1046L20.8863 18.1024L20.8856 18.1003C20.6903 17.4992 20.5947 16.8072 20.5947 16.0274V9.72938C20.5947 9.56225 20.7302 9.42676 20.8974 9.42676H22.3818C22.5489 9.42676 22.6844 9.56225 22.6844 9.72938V15.8113C22.6844 16.9148 22.912 17.6768 23.3252 18.1417C23.7355 18.6032 24.3772 18.8522 25.293 18.8522C26.2656 18.8522 27.005 18.5263 27.5376 17.8871L27.5379 17.8868C28.091 17.2258 28.3772 16.339 28.3772 15.206V9.72938C28.3772 9.56225 28.5127 9.42676 28.6798 9.42676H30.1643C30.3314 9.42676 30.4669 9.56225 30.4669 9.72938V23.1397C30.4669 23.677 30.2914 24.133 29.9339 24.4914C29.5887 24.8521 29.1377 25.0277 28.6006 25.0277H24.4472C24.28 25.0277 24.1446 24.8922 24.1446 24.7251V23.3703C24.1446 23.2032 24.28 23.0677 24.4472 23.0677H27.9953C28.1529 23.0677 28.2358 23.0249 28.2831 22.9724C28.334 22.9158 28.3772 22.8109 28.3772 22.6209V19.2743C28.3772 19.2329 28.3607 19.1932 28.3314 19.1639C28.2613 19.0939 28.1446 19.1062 28.0873 19.187C27.7999 19.5917 27.4628 19.9341 27.0753 20.2123C26.4712 20.646 25.7137 20.8554 24.8174 20.8554C24.2037 20.8554 23.6308 20.7507 23.101 20.5389C22.5823 20.3404 22.1317 20.0346 21.751 19.6234L21.7496 19.6219Z" fill="white"/>
<path d="M33.1152 11.4243V10.4009C33.1152 10.2319 33.2501 10.1043 33.4066 10.0957C33.6847 10.0805 34.048 9.99728 34.335 9.82923C34.6186 9.66312 34.8014 9.43278 34.8014 9.11828V3.24245C34.8014 2.70523 34.977 2.24919 35.3345 1.89084C35.6797 1.53014 36.1306 1.35449 36.6678 1.35449H38.563C38.7301 1.35449 38.8656 1.48998 38.8656 1.65712V3.01186C38.8656 3.179 38.7301 3.31449 38.563 3.31449H37.2731C37.1154 3.31449 37.0326 3.3573 36.9853 3.40984C36.9344 3.46641 36.8911 3.57126 36.8911 3.76128V9.09666C36.8911 9.78349 36.4201 10.3852 35.9199 10.9032C36.161 11.1541 36.3913 11.4238 36.5666 11.7091C36.7584 12.0213 36.8911 12.3633 36.8911 12.7285V18.1648C36.8911 18.3548 36.9344 18.4596 36.9853 18.5162C37.0326 18.5687 37.1154 18.6115 37.2731 18.6115H38.563C38.7301 18.6115 38.8656 18.747 38.8656 18.9142V20.2689C38.8656 20.436 38.7301 20.5715 38.563 20.5715H36.6678C36.1306 20.5715 35.6797 20.3959 35.3345 20.0352C34.977 19.6768 34.8014 19.2208 34.8014 18.6836V12.7069C34.8014 12.3924 34.6186 12.162 34.335 11.9959C34.048 11.8279 33.6847 11.7446 33.4066 11.7294C33.2501 11.7209 33.1152 11.5932 33.1152 11.4243Z" fill="white"/>
<path d="M12.3835 20.0164L12.3819 20.0147C12.039 19.6555 11.8721 19.2 11.8721 18.6647V5.31923C11.8721 5.15209 12.0076 5.0166 12.1747 5.0166H13.6591C13.8263 5.0166 13.9618 5.15209 13.9618 5.31923V9.42667H17.8098C17.9769 9.42667 18.1124 9.56216 18.1124 9.7293V11.084C18.1124 11.2512 17.9769 11.3867 17.8098 11.3867H13.9618V18.1459C13.9618 18.3359 14.005 18.4408 14.0559 18.4974C14.1032 18.5499 14.1861 18.5927 14.3437 18.5927H17.291C17.4581 18.5927 17.5936 18.7282 17.5936 18.8953V20.2501C17.5936 20.4172 17.4581 20.5527 17.291 20.5527H13.7384C13.2004 20.5527 12.7437 20.3766 12.3851 20.018L12.3835 20.0164Z" fill="white"/>
<path d="M5.48643 13.9248L5.48707 13.9248C6.75958 14.0272 7.75446 14.3358 8.44638 14.8731C9.16786 15.4074 9.52064 16.1927 9.52064 17.1957V17.3254C9.52064 17.8726 9.4065 18.3729 9.17444 18.8221C8.95869 19.2531 8.65099 19.6216 8.25441 19.927C7.86965 20.2344 7.39813 20.4609 6.8454 20.6107C6.30582 20.7752 5.71744 20.8563 5.08176 20.8563C4.22932 20.8563 3.48463 20.7462 2.85211 20.5203L2.84935 20.5193L2.84662 20.5183C2.23711 20.2804 1.71824 19.9733 1.29395 19.5945L1.29112 19.5919L1.28838 19.5893C0.881622 19.1976 0.570271 18.7581 0.357151 18.271L0.356698 18.27L0.356258 18.2689C0.158674 17.8032 0.0396426 17.3347 0.00102304 16.864C-0.0113022 16.7137 0.0890686 16.5817 0.230363 16.5474L1.63407 16.2059C1.81604 16.1617 1.98723 16.2903 2.00821 16.4674C2.09379 17.1898 2.38556 17.7672 2.8807 18.212C3.39723 18.6617 4.09499 18.8963 4.99529 18.8963C5.7641 18.8963 6.35616 18.7493 6.7887 18.4743C7.22348 18.1928 7.43094 17.8157 7.43094 17.3254C7.43094 16.7834 7.22469 16.4247 6.82269 16.2054C6.38717 15.9679 5.65286 15.804 4.59257 15.7324L4.59213 15.7324C3.33251 15.6445 2.3384 15.3503 1.63267 14.8286C0.91071 14.295 0.556415 13.517 0.556415 12.5262V12.3965C0.556415 11.8632 0.670805 11.3882 0.906862 10.9784C1.13733 10.564 1.44525 10.2178 1.82927 9.94127L1.83078 9.94018L1.83232 9.93912C2.22632 9.66635 2.6648 9.46254 3.14638 9.3271C3.62625 9.19213 4.1275 9.125 4.64941 9.125C5.37341 9.125 6.01746 9.22825 6.57772 9.43986C7.12929 9.63393 7.59839 9.89732 7.98041 10.233C8.36034 10.5526 8.65194 10.9276 8.8521 11.3577C9.04609 11.7462 9.17745 12.1377 9.24426 12.5317C9.2712 12.6907 9.16828 12.8371 9.01819 12.8736L7.61964 13.2138C7.43938 13.2576 7.27045 13.132 7.24593 12.9586C7.16236 12.3677 6.90952 11.9139 6.49118 11.5817L6.49003 11.5808L6.48889 11.5798C6.05806 11.2273 5.48023 11.0418 4.73588 11.0418C4.44941 11.0418 4.17041 11.0758 3.89847 11.1438L3.8948 11.1447L3.8911 11.1455C3.63683 11.1991 3.41327 11.2852 3.21833 11.4021C3.02734 11.5167 2.87749 11.6611 2.7654 11.8354L2.76354 11.8383L2.76157 11.8412C2.65836 11.9903 2.60288 12.1722 2.60288 12.3965C2.60288 12.8469 2.78423 13.1781 3.15636 13.4143C3.55844 13.6601 4.32143 13.8385 5.48579 13.9247L5.48643 13.9248Z" fill="white"/>
</svg>
