<svg width="24" height="24" viewBox="0 0 24 24" fill="none" xmlns="http://www.w3.org/2000/svg">
<path d="M12.25 9.75044H11.5C11.5 10.1646 11.8358 10.5004 12.25 10.5004V9.75044ZM18 9.75044V9.00044V9.75044ZM12.25 6.89743H11.5H12.25ZM9.77107 5.59937L9.02168 5.56913V5.56913L9.77107 5.59937ZM7.25 9.75044L7.25 9.00044C7.05109 9.00044 6.86032 9.07945 6.71967 9.22011C6.57902 9.36076 6.5 9.55152 6.5 9.75044H7.25ZM18 12.2504V11.5004V12.2504ZM16.75 11.5004C16.3358 11.5004 16 11.8362 16 12.2504C16 12.6646 16.3358 13.0004 16.75 13.0004V11.5004ZM17.2658 17.5271L16.523 17.4238L17.2658 17.5271ZM15.0809 19.2411L15.0044 19.9872H15.0044L15.0809 19.2411ZM8.14797 18.53L8.22449 17.7839H8.22449L8.14797 18.53ZM7.25 17.5353H8H7.25ZM10.9795 4.84176L10.6441 5.51258L10.6441 5.51258L10.9795 4.84176ZM12.25 10.5004H18V9.00044H12.25V10.5004ZM13 9.75044V6.89743H11.5V9.75044H13ZM9.02168 5.56913C8.98986 6.35779 8.87029 7.28205 8.55917 7.98469C8.25916 8.66225 7.85682 9.00044 7.25 9.00044L7.25 10.5004C8.66762 10.5004 9.49282 9.581 9.93074 8.59199C10.3575 7.62805 10.4863 6.47677 10.5205 5.6296L9.02168 5.56913ZM18 11.5004H16.75V13.0004H18V11.5004ZM17.2572 12.1471L16.523 17.4238L18.0087 17.6305L18.7428 12.3538L17.2572 12.1471ZM15.1574 18.495L8.22449 17.7839L8.07145 19.2761L15.0044 19.9872L15.1574 18.495ZM8 17.5353L8 9.75044H6.5L6.5 17.5353H8ZM8.22449 17.7839C8.09697 17.7709 8 17.6634 8 17.5353H6.5C6.5 18.4326 7.17877 19.1846 8.07145 19.2761L8.22449 17.7839ZM18.5 11.0004C18.5 11.2766 18.2761 11.5004 18 11.5004V13.0004C19.1046 13.0004 20 12.105 20 11.0004H18.5ZM16.523 17.4238C16.4303 18.0902 15.8267 18.5637 15.1574 18.495L15.0044 19.9872C16.4769 20.1382 17.8047 19.0966 18.0087 17.6305L16.523 17.4238ZM11.3149 4.17094C10.2352 3.63106 9.06523 4.48962 9.02168 5.56913L10.5205 5.6296C10.5217 5.59865 10.5406 5.55663 10.5864 5.52736C10.6071 5.51421 10.6234 5.51055 10.6311 5.5099C10.6361 5.50948 10.6385 5.50975 10.6441 5.51258L11.3149 4.17094ZM13 6.89743C13 5.74282 12.3477 4.6873 11.3149 4.17094L10.6441 5.51258C11.1687 5.77485 11.5 6.31097 11.5 6.89743H13ZM18 10.5004C18.2761 10.5004 18.5 10.7243 18.5 11.0004H20C20 9.89587 19.1046 9.00044 18 9.00044V10.5004Z" fill="#323232"/>
<path d="M5.75 9.5H6.25V8H5.75V9.5ZM6.5 9.75V18.25H8V9.75H6.5ZM6.25 18.5H5.75V20H6.25V18.5ZM5.5 18.25V9.75H4V18.25H5.5ZM5.75 18.5C5.61193 18.5 5.5 18.3881 5.5 18.25H4C4 19.2165 4.7835 20 5.75 20V18.5ZM6.5 18.25C6.5 18.3881 6.38807 18.5 6.25 18.5V20C7.2165 20 8 19.2165 8 18.25H6.5ZM6.25 9.5C6.38807 9.5 6.5 9.61193 6.5 9.75H8C8 8.7835 7.2165 8 6.25 8V9.5ZM5.75 8C4.7835 8 4 8.7835 4 9.75H5.5C5.5 9.61193 5.61193 9.5 5.75 9.5V8Z" fill="#323232"/>
</svg>
