<svg width="25" height="24" viewBox="0 0 25 24" fill="none" xmlns="http://www.w3.org/2000/svg">
<path d="M19.75 12C19.75 16.0041 16.5041 19.25 12.5 19.25C8.49594 19.25 5.25 16.0041 5.25 12C5.25 7.99594 8.49594 4.75 12.5 4.75C16.5041 4.75 19.75 7.99594 19.75 12Z" stroke="#C2C2C2" stroke-width="1.5" stroke-linecap="round" stroke-linejoin="round"/>
<path d="M10.25 15.25C10.25 15.25 10.5 13.75 12.5 13.75C14.5 13.75 14.75 15.25 14.75 15.25" stroke="#C2C2C2" stroke-width="1.5" stroke-linecap="round" stroke-linejoin="round"/>
<path d="M11 10C11 10.2761 10.7761 10.5 10.5 10.5C10.2239 10.5 10 10.2761 10 10C10 9.72386 10.2239 9.5 10.5 9.5C10.7761 9.5 11 9.72386 11 10Z" stroke="#C2C2C2"/>
<path d="M15 10C15 10.2761 14.7761 10.5 14.5 10.5C14.2239 10.5 14 10.2761 14 10C14 9.72386 14.2239 9.5 14.5 9.5C14.7761 9.5 15 9.72386 15 10Z" stroke="#C2C2C2"/>
</svg>
