<svg width="109" height="56" viewBox="0 0 109 56" fill="none" xmlns="http://www.w3.org/2000/svg">
<path d="M89.3632 45.2583C89.3632 40.0357 93.5969 35.8019 98.8195 35.8019C104.042 35.8019 108.276 40.0357 108.276 45.2583C108.276 50.4809 104.042 54.7146 98.8195 54.7146C93.5969 54.7146 89.3632 50.4809 89.3632 45.2583Z" stroke="#F988B7" stroke-width="1.38531" stroke-linecap="round" stroke-linejoin="round"/>
<path d="M100.605 48.1013C100.605 48.1013 99.1195 48.7726 97.4052 47.8296C95.691 46.8866 95.4626 45.2723 95.4626 45.2723" stroke="#F988B7" stroke-width="1.38531" stroke-linecap="round" stroke-linejoin="round"/>
<path d="M101.791 43.9157C101.965 43.6001 102.361 43.485 102.677 43.6586C102.992 43.8322 103.108 44.2288 102.934 44.5443C102.76 44.8599 102.364 44.975 102.048 44.8014C101.733 44.6278 101.618 44.2312 101.791 43.9157Z" stroke="#F988B7" stroke-width="1.38531" stroke-linecap="round" stroke-linejoin="round"/>
<path d="M97.2204 41.4009C97.394 41.0854 97.7905 40.9703 98.1061 41.1439C98.4217 41.3175 98.5368 41.714 98.3632 42.0296C98.1896 42.3452 97.793 42.4603 97.4774 42.2867C97.1618 42.1131 97.0467 41.7165 97.2204 41.4009Z" stroke="#F988B7" stroke-width="1.38531" stroke-linecap="round" stroke-linejoin="round"/>
<path d="M90.1062 34.2661C90.1062 44.6886 81.6571 53.1376 71.2347 53.1376C60.8123 53.1376 52.3633 44.6886 52.3633 34.2661C52.3633 23.8437 60.8123 15.3947 71.2347 15.3947C81.6571 15.3947 90.1062 23.8437 90.1062 34.2661Z" stroke="#FDFFB0" stroke-width="2" stroke-linecap="round" stroke-linejoin="round"/>
<path d="M61.6382 34.726C61.6382 34.726 59.1115 40.0096 66.7434 43.6592C74.3753 47.3088 76.9019 42.0252 76.9019 42.0252L61.6382 34.726Z" stroke="#FDFFB0" stroke-width="2" stroke-linecap="round" stroke-linejoin="round"/>
<path d="M69.9587 27.8852C69.6486 28.5337 68.8715 28.808 68.2231 28.4979C67.5746 28.1878 67.3003 27.4107 67.6104 26.7623C67.9205 26.1138 68.6976 25.8395 69.346 26.1496C69.9945 26.4597 70.2688 27.2367 69.9587 27.8852Z" stroke="#FDFFB0" stroke-width="2" stroke-linecap="round" stroke-linejoin="round"/>
<path d="M79.3512 32.377C79.0412 33.0255 78.2641 33.2997 77.6156 32.9897C76.9672 32.6796 76.6929 31.9025 77.003 31.254C77.3131 30.6056 78.0901 30.3313 78.7386 30.6414C79.387 30.9515 79.6613 31.7285 79.3512 32.377Z" stroke="#FDFFB0" stroke-width="2" stroke-linecap="round" stroke-linejoin="round"/>
<path d="M26.6767 18.5049C26.6767 10.868 32.8677 4.67699 40.5046 4.67699C48.1416 4.67699 54.3325 10.868 54.3325 18.5049C54.3325 26.1418 48.1416 32.3328 40.5046 32.3328C32.8677 32.3328 26.6767 26.1418 26.6767 18.5049Z" stroke="#FEB596" stroke-width="2" stroke-linecap="round" stroke-linejoin="round"/>
<path d="M45.8145 17.3366C45.8145 17.3366 46.6141 14.5486 43.1701 12.9084C39.7261 11.2683 38.0655 13.6462 38.0655 13.6462" stroke="#FEB596" stroke-width="2" stroke-linecap="round" stroke-linejoin="round"/>
<path d="M41.4478 23.179C41.6743 22.7035 42.2433 22.5016 42.7189 22.728C43.1944 22.9545 43.3963 23.5236 43.1698 23.9991C42.9433 24.4746 42.3743 24.6765 41.8988 24.45C41.4233 24.2236 41.2214 23.6545 41.4478 23.179Z" stroke="#FEB596" stroke-width="2" stroke-linecap="round" stroke-linejoin="round"/>
<path d="M34.5601 19.8986C34.7866 19.4231 35.3556 19.2212 35.8312 19.4477C36.3067 19.6741 36.5086 20.2432 36.2821 20.7187C36.0557 21.1942 35.4866 21.3961 35.0111 21.1697C34.5356 20.9432 34.3337 20.3741 34.5601 19.8986Z" stroke="#FEB596" stroke-width="2" stroke-linecap="round" stroke-linejoin="round"/>
<path d="M8.89941 39.7771C12.9035 39.7771 16.1494 43.0231 16.1494 47.0271C16.1494 51.0312 12.9035 54.2771 8.89941 54.2771C4.89535 54.2771 1.64941 51.0312 1.64941 47.0271C1.64941 43.0231 4.89535 39.7771 8.89941 39.7771Z" stroke="#ACDDF9" stroke-width="1.5" stroke-linecap="round" stroke-linejoin="round"/>
<path d="M11.6816 47.6452C11.6816 47.6452 12.678 46.4964 11.4031 44.9554C10.1281 43.4144 8.81306 44.178 8.81306 44.178" stroke="#ACDDF9" stroke-width="1.5" stroke-linecap="round" stroke-linejoin="round"/>
<path d="M8.31467 49.4578C8.52744 49.2818 8.84261 49.3115 9.01865 49.5243C9.19468 49.7371 9.1649 50.0522 8.95214 50.2283C8.73937 50.4043 8.42419 50.3745 8.24816 50.1618C8.07213 49.949 8.10191 49.6338 8.31467 49.4578Z" stroke="#ACDDF9" stroke-linecap="round" stroke-linejoin="round"/>
<path d="M5.76438 46.3759C5.97714 46.1998 6.29232 46.2296 6.46835 46.4424C6.64438 46.6551 6.61461 46.9703 6.40184 47.1463C6.18908 47.3224 5.8739 47.2926 5.69787 47.0798C5.52184 46.8671 5.55162 46.5519 5.76438 46.3759Z" stroke="#ACDDF9" stroke-linecap="round" stroke-linejoin="round"/>
<path d="M68.1494 8.02716C68.1494 12.0312 64.9035 15.2772 60.8994 15.2772C56.8953 15.2772 53.6494 12.0312 53.6494 8.02716C53.6494 4.0231 56.8953 0.777161 60.8994 0.777161C64.9035 0.777161 68.1494 4.0231 68.1494 8.02716Z" stroke="#7E5DFF" stroke-width="1.5" stroke-linecap="round" stroke-linejoin="round"/>
<path d="M59.5244 10.5241C59.5244 10.5241 60.3471 11.8031 62.1841 11.0124C64.0212 10.2217 63.6578 8.74507 63.6578 8.74507" stroke="#7E5DFF" stroke-width="1.5" stroke-linecap="round" stroke-linejoin="round"/>
<path d="M58.731 6.7831C58.8401 7.03675 58.723 7.33087 58.4694 7.44004C58.2157 7.54921 57.9216 7.43209 57.8124 7.17844C57.7032 6.9248 57.8204 6.63068 58.074 6.52151C58.3277 6.41234 58.6218 6.52946 58.731 6.7831Z" stroke="#7E5DFF" stroke-linecap="round" stroke-linejoin="round"/>
<path d="M62.4053 5.20173C62.5144 5.45537 62.3973 5.7495 62.1437 5.85867C61.89 5.96784 61.5959 5.85072 61.4867 5.59707C61.3776 5.34342 61.4947 5.0493 61.7483 4.94013C62.002 4.83096 62.2961 4.94808 62.4053 5.20173Z" stroke="#7E5DFF" stroke-linecap="round" stroke-linejoin="round"/>
<path d="M17.4575 42.2376C17.4575 36.2315 22.3264 31.3626 28.3325 31.3626C34.3386 31.3626 39.2075 36.2315 39.2075 42.2376C39.2075 48.2437 34.3386 53.1126 28.3325 53.1126C22.3264 53.1126 17.4575 48.2437 17.4575 42.2376Z" stroke="#FF8A8A" stroke-width="2" stroke-linecap="round" stroke-linejoin="round"/>
<path d="M30.3793 47.7261C30.5166 47.3353 30.9447 47.1298 31.3355 47.2671C31.7263 47.4044 31.9318 47.8325 31.7945 48.2233C31.6572 48.6141 31.2291 48.8196 30.8383 48.6823C30.4475 48.545 30.242 48.1169 30.3793 47.7261Z" stroke="#FF8A8A" stroke-width="2" stroke-linecap="round" stroke-linejoin="round"/>
<path d="M21.8881 44.743C22.0254 44.3522 22.4535 44.1467 22.8443 44.284C23.2351 44.4213 23.4406 44.8494 23.3033 45.2402C23.166 45.631 22.7379 45.8365 22.3471 45.6992C21.9563 45.5619 21.7508 45.1338 21.8881 44.743Z" stroke="#FF8A8A" stroke-width="2" stroke-linecap="round" stroke-linejoin="round"/>
<path d="M26.5639 41.6161C26.9072 40.6391 27.9774 40.1253 28.9544 40.4686C29.9314 40.8118 30.4452 41.8821 30.102 42.8591C29.7587 43.8361 28.6885 44.3498 27.7115 44.0066C26.7345 43.6633 26.2207 42.5931 26.5639 41.6161Z" stroke="#FF8A8A" stroke-width="2" stroke-linecap="round" stroke-linejoin="round"/>
<path d="M34.2998 39.9616C34.2998 39.9616 33.2766 37.2173 30.4462 36.2229C27.6158 35.2286 25.101 36.7299 25.101 36.7299" stroke="#FF8A8A" stroke-width="2" stroke-linecap="round" stroke-linejoin="round"/>
</svg>
