<svg width="190" height="69" viewBox="0 0 190 69" fill="none" xmlns="http://www.w3.org/2000/svg">
    <path d="M169.742 9.25777C169.742 7.927 170.201 6.80272 171.119 5.88495C172.082 4.92129 173.23 4.43945 174.561 4.43945C175.891 4.43945 177.016 4.92129 177.933 5.88495C178.897 6.80272 179.379 7.927 179.379 9.25777C179.379 10.5885 178.897 11.7358 177.933 12.6994C177.016 13.6172 175.891 14.0761 174.561 14.0761C173.23 14.0761 172.082 13.6172 171.119 12.6994C170.201 11.7358 169.742 10.5885 169.742 9.25777Z" fill="#F4F3EF"/>
    <path d="M186.382 36.1418V38.8575C186.382 39.3058 186.024 39.6446 185.609 39.6673C184.871 39.7076 183.907 39.9285 183.146 40.3745C182.393 40.8153 181.908 41.4265 181.908 42.261V51.4289C181.908 52.8545 181.442 54.0647 180.493 55.0156C179.577 55.9728 178.381 56.4388 176.955 56.4388H171.926C171.483 56.4388 171.123 56.0793 171.123 55.6358V52.0408C171.123 51.5973 171.483 51.2377 171.926 51.2377H175.349C175.767 51.2377 175.987 51.1241 176.113 50.9847C176.248 50.8346 176.362 50.5564 176.362 50.0521V42.3184C176.362 41.3493 176.715 40.4419 177.224 39.6134C177.689 38.8563 178.3 38.1406 178.94 37.4747C177.613 36.1003 176.362 34.5035 176.362 32.6809V25.2148C176.362 24.7106 176.248 24.4324 176.113 24.2823C175.987 24.1428 175.767 24.0292 175.349 24.0292H171.926C171.483 24.0292 171.123 23.6697 171.123 23.2262V19.6312C171.123 19.1877 171.483 18.8281 171.926 18.8281H176.955C178.381 18.8281 179.577 19.2942 180.493 20.2514C181.442 21.2023 181.908 22.4125 181.908 23.8381V32.7383C181.908 33.5728 182.393 34.184 183.146 34.6248C183.907 35.0708 184.871 35.2917 185.609 35.332C186.024 35.3547 186.382 35.6935 186.382 36.1418Z" fill="#F4F3EF"/>
    <path d="M2.08398 32.1648V29.4492C2.08398 29.0008 2.44196 28.662 2.85706 28.6394C3.59508 28.5991 4.5593 28.3781 5.32069 27.9322C6.07329 27.4914 6.55858 26.8802 6.55858 26.0456V10.4533C6.55858 9.02772 7.02441 7.81755 7.97303 6.86664C8.88903 5.90946 10.0858 5.44336 11.5111 5.44336H16.5403C16.9838 5.44336 17.3433 5.8029 17.3433 6.24641V9.84141C17.3433 10.2849 16.9838 10.6445 16.5403 10.6445H13.1174C12.699 10.6445 12.4791 10.7581 12.3537 10.8975C12.2185 11.0476 12.1039 11.3258 12.1039 11.8301V25.9882C12.1039 27.8108 10.8538 29.4076 9.52651 30.782C10.1663 31.448 10.7775 32.1636 11.2427 32.9207C11.7517 33.7492 12.1039 34.6567 12.1039 35.6257V50.0516C12.1039 50.5558 12.2185 50.834 12.3536 50.9842C12.4791 51.1236 12.699 51.2372 13.1174 51.2372H16.5403C16.9838 51.2372 17.3433 51.5967 17.3433 52.0402V55.6352C17.3433 56.0788 16.9838 56.4383 16.5403 56.4383H11.5111C10.0858 56.4383 8.88906 55.9722 7.97305 55.015C7.02442 54.0641 6.55858 52.854 6.55858 51.4284V35.5684C6.55858 34.7338 6.07329 34.1226 5.32069 33.6818C4.5593 33.2358 3.59508 33.0149 2.85706 32.9746C2.44196 32.9519 2.08398 32.6131 2.08398 32.1648Z" fill="#F4F3EF"/>
    <path d="M27.4914 29.9276C28.2324 30.4583 28.7283 31.0704 28.9791 31.7638C29.2222 32.4517 29.3152 33.1372 29.258 33.8203C29.2064 34.4957 29.0613 35.3669 28.8227 36.4339L36.1735 36.3205C35.5076 34.8859 34.4955 33.478 33.1375 32.0967L35.6997 28.5189L37.8418 30.0529L36.5316 31.8824C37.8386 33.5307 38.6602 35.0007 38.9963 36.2925L40.8523 36.2203L42.7511 33.5687L44.9279 35.1276L42.0921 39.0876L39.7229 39.1426C39.8424 41.5521 39.3356 43.5481 38.2023 45.1305C37.3676 46.2961 36.3517 47.1685 35.1546 47.7475C33.9574 48.3266 32.7215 48.5685 31.4469 48.4731C30.17 48.3644 28.9874 47.9204 27.899 47.141C26.7102 46.2896 25.9224 45.2291 25.5355 43.9594C25.1408 42.6841 25.1234 41.1593 25.4831 39.385C23.876 39.4603 22.5669 39.1358 21.5557 38.4117C20.8147 37.881 20.2918 37.2087 19.987 36.3949C19.6878 35.5734 19.6083 34.7223 19.7485 33.8418C19.8886 32.9612 20.224 32.1504 20.7547 31.4093C21.2965 30.6529 21.9589 30.0704 22.7419 29.6618C23.5249 29.2533 24.3386 29.0711 25.1829 29.1152C26.0271 29.1593 26.7966 29.4301 27.4914 29.9276ZM26.2747 36.5185C26.5566 35.2607 26.6582 34.3116 26.5795 33.6714C26.5064 33.0234 26.2344 32.5308 25.7635 32.1936C25.3312 31.884 24.8424 31.7675 24.2971 31.8441C23.7518 31.9207 23.269 32.2523 22.8489 32.839C22.4509 33.3948 22.2885 33.9558 22.3618 34.5221C22.435 35.0884 22.7264 35.554 23.2358 35.9188C23.4057 36.0404 23.6748 36.1456 24.0434 36.2344C24.4174 36.3154 25.1612 36.4101 26.2747 36.5185ZM36.2213 43.2739C37.0228 42.1546 37.28 40.8089 36.9928 39.2369L28.0213 39.2408C27.8012 40.4612 27.8127 41.497 28.0555 42.3483C28.2962 43.1863 28.8025 43.8817 29.5744 44.4345C30.2692 44.932 31.0315 45.221 31.8613 45.3015C32.6912 45.382 33.4955 45.2456 34.274 44.8923C35.0525 44.5389 35.7016 43.9995 36.2213 43.2739Z" fill="#FDFFB0"/>
    <path d="M149.49 32.2552C149.412 32.0242 149.463 31.782 149.646 31.5287C149.828 31.2754 150.041 31.1491 150.285 31.1498L153.995 30.7257L151.346 28.5072C150.895 28.1135 150.836 27.6864 151.167 27.2258C151.2 27.1798 151.269 27.1074 151.375 27.0088L154.741 24.2939C155.098 23.9917 155.472 23.9813 155.864 24.2627C155.979 24.3454 156.081 24.471 156.169 24.6394L157.876 27.8046L159.271 24.4063C159.314 24.2977 159.377 24.1858 159.46 24.0706C159.542 23.9555 159.711 23.8669 159.965 23.8051C160.242 23.7597 160.484 23.8116 160.691 23.9605L164.837 26.9401C165.044 27.0891 165.159 27.2938 165.181 27.5544C165.243 27.8084 165.224 28.0045 165.125 28.1427C165.025 28.2809 164.931 28.3877 164.842 28.4633L162.09 30.8338L165.634 31.4428C165.822 31.473 165.974 31.5295 166.089 31.6123C166.48 31.8937 166.59 32.2517 166.417 32.6864L164.882 36.7173C164.822 36.849 164.775 36.9378 164.742 36.9839C164.411 37.4445 163.999 37.5323 163.505 37.2473L160.558 35.4433L161.329 39.036C161.397 39.3296 161.34 39.6031 161.158 39.8564C160.993 40.0867 160.768 40.2047 160.485 40.2104L155.881 40.2017C155.66 40.2175 155.422 40.1344 155.169 39.9523C154.916 39.7702 154.828 39.4798 154.905 39.0811L155.638 35.3644L152.348 37.2437C151.995 37.4438 151.692 37.4528 151.438 37.2707C151.185 37.0886 151.031 36.8903 150.975 36.6759L149.49 32.2552Z" fill="#72BBFF"/>
    <path d="M60.3593 4.49473L59.8281 2.99539L47.8517 7.23815L48.3829 8.73748L60.3593 4.49473ZM48.914 10.2368L48.3829 8.73748L45.3842 9.79979L45.9154 11.2991L48.914 10.2368ZM63.8891 4.93176L63.358 3.43242L60.3593 4.49473L60.8904 5.99407L63.8891 4.93176ZM46.4465 12.7985L45.9154 11.2991L44.416 11.8303L44.9472 13.3296L46.4465 12.7985ZM65.9196 5.89995L65.3885 4.40061L63.8891 4.93176L64.4203 6.4311L65.9196 5.89995ZM46.0062 16.3192L44.9472 13.3296L43.4478 13.8608L44.5069 16.8503L46.0062 16.3192ZM68.478 8.35832L67.419 5.36879L65.9196 5.89995L66.9787 8.88948L68.478 8.35832ZM48.7529 28.8359L44.5069 16.8503L43.0167 17.3782L47.2627 29.3638L48.7529 28.8359ZM58.523 13.5725L57.9918 12.0732L53.4938 13.6666L54.0249 15.166L58.523 13.5725ZM65.2365 22.9964L63.6462 18.5075L65.1364 17.9796L63.543 13.4816L65.0423 12.9505L63.98 9.95179L60.9905 11.0109L61.5216 12.5102L58.523 13.5725L59.0541 15.0718L60.5534 14.5407L62.1469 19.0387L60.6476 19.5698L61.7066 22.5594L63.206 22.0282L63.7371 23.5276L65.2365 22.9964ZM72.6331 15.3239L69.9774 7.82717L68.478 8.35832L71.1338 15.855L72.6331 15.3239ZM61.2696 26.0892L60.7385 24.5899L56.2496 26.1801L55.7184 24.6808L54.2191 25.2119L52.6289 20.723L54.1282 20.1919L53.0659 17.1932L54.5561 16.6653L54.0249 15.166L51.0354 16.225L51.5666 17.7244L50.0672 18.2555L51.1295 21.2542L49.6302 21.7853L51.2204 26.2742L52.7198 25.7431L53.2509 27.2424L54.7502 26.7112L55.2814 28.2106L61.2696 26.0892ZM72.1929 18.8445L71.1338 15.855L69.6345 16.3862L70.6935 19.3757L72.1929 18.8445ZM62.2378 24.0587L61.7066 22.5594L60.2073 23.0905L60.7385 24.5899L62.2378 24.0587ZM71.2247 20.875L70.6935 19.3757L67.6948 20.438L68.226 21.9373L71.2247 20.875ZM51.3145 31.3034L50.2522 28.3047L48.7529 28.8359L49.8152 31.8345L51.3145 31.3034ZM68.7572 23.4367L68.226 21.9373L65.2365 22.9964L65.7676 24.4957L68.7572 23.4367ZM73.7863 23.3426L73.2552 21.8432L71.7558 22.3744L72.287 23.8737L73.7863 23.3426ZM53.345 32.2716L52.8139 30.7722L51.3145 31.3034L51.8457 32.8027L53.345 32.2716ZM72.8181 25.373L72.287 23.8737L70.7876 24.4049L71.3188 25.9042L72.8181 25.373ZM56.8716 32.6995L56.3437 31.2093L53.345 32.2716L53.8729 33.7618L56.8716 32.6995ZM71.8467 27.3944L71.3188 25.9042L68.3201 26.9665L68.848 28.4567L71.8467 27.3944ZM69.376 29.9469L68.848 28.4567L56.8716 32.6995L57.3995 34.1897L69.376 29.9469Z" fill="#91EDC1"/>
    <path d="M82.4705 27.3417L88.7598 27.837L82.248 40.8551L78.3795 40.1144L82.4705 27.3417ZM76.4892 43.6324L81.5457 44.4441L79.737 48.9532L74.8206 47.7922L76.4892 43.6324ZM90.4402 30.5384L96.7295 31.0336L90.2176 44.0518L86.3491 43.3111L90.4402 30.5384ZM84.4588 46.8291L89.5153 47.6408L87.7067 52.1499L82.7903 50.9889L84.4588 46.8291ZM98.4098 33.7351L104.699 34.2303L98.1873 47.2485L94.3188 46.5078L98.4098 33.7351ZM92.4285 50.0257L97.485 50.8374L95.6763 55.3466L90.7599 54.1856L92.4285 50.0257Z" fill="#7E5DFF"/>
    <path d="M117.946 40.5516L118.814 36.9926L125.931 38.7278L126.799 35.1689L130.358 36.0365L131.226 32.4775L120.549 29.8747L119.681 33.4336L112.563 31.6984L114.298 24.5805L117.857 25.4481L118.725 21.8891L136.52 26.2272L135.652 29.7862L139.211 30.6538L137.476 37.7717L133.917 36.9041L133.049 40.4631L129.49 39.5955L128.623 43.1544L117.946 40.5516ZM116.211 47.6695L117.078 44.1105L127.755 46.7134L126.888 50.2724L116.211 47.6695Z" fill="#FF8A8A"/>
</svg>
