<svg width="12" height="17" viewBox="0 0 12 17" fill="none" xmlns="http://www.w3.org/2000/svg">
    <path d="M6.69092 1.53731C6.69092 1.11272 6.83732 0.754014 7.13015 0.461194C7.43761 0.153731 7.80364 0 8.22823 0C8.65282 0 9.01152 0.153731 9.30435 0.461194C9.61181 0.754014 9.76554 1.11272 9.76554 1.53731C9.76554 1.9619 9.61181 2.32793 9.30435 2.63539C9.01152 2.92821 8.65282 3.07462 8.22823 3.07462C7.80364 3.07462 7.43761 2.92821 7.13015 2.63539C6.83732 2.32793 6.69092 1.9619 6.69092 1.53731Z" fill="#EFEFEF"/>
    <path d="M12 10.1149V10.9813C12 11.1243 11.8858 11.2324 11.7534 11.2397C11.5179 11.2525 11.2103 11.323 10.9674 11.4653C10.7272 11.6059 10.5724 11.801 10.5724 12.0672V14.9923C10.5724 15.4471 10.4238 15.8332 10.1211 16.1366C9.82885 16.442 9.44704 16.5907 8.99226 16.5907H7.38769C7.24618 16.5907 7.13147 16.476 7.13147 16.3345V15.1875C7.13147 15.046 7.24618 14.9313 7.38769 14.9313H8.47978C8.61325 14.9313 8.68342 14.895 8.72345 14.8506C8.76656 14.8027 8.80315 14.7139 8.80315 14.553V12.0855C8.80315 11.7763 8.91552 11.4868 9.07792 11.2225C9.22632 10.9809 9.42135 10.7526 9.62547 10.5401C9.202 10.1016 8.80315 9.59213 8.80315 9.01062V6.62854C8.80315 6.46766 8.76656 6.37889 8.72345 6.33099C8.68342 6.28651 8.61325 6.25026 8.47978 6.25026H7.38769C7.24618 6.25026 7.13147 6.13555 7.13147 5.99404V4.84704C7.13147 4.70553 7.24618 4.59082 7.38769 4.59082H8.99226C9.44704 4.59082 9.82886 4.73953 10.1211 5.04493C10.4238 5.34832 10.5724 5.73443 10.5724 6.18927V9.02893C10.5724 9.2952 10.7272 9.49021 10.9674 9.63085C11.2103 9.77313 11.5179 9.84363 11.7534 9.85649C11.8858 9.86372 12 9.97182 12 10.1149Z" fill="#EFEFEF"/>
    <path d="M0 8.84594V7.9795C0 7.83645 0.114215 7.72837 0.246653 7.72113C0.482122 7.70827 0.789762 7.63778 1.03269 7.4955C1.27281 7.35486 1.42764 7.15984 1.42764 6.89357V1.91876C1.42764 1.46392 1.57627 1.07781 1.87893 0.774418C2.17119 0.469025 2.55301 0.320312 3.00779 0.320312H4.61236C4.75387 0.320312 4.86858 0.435026 4.86858 0.576531V1.72354C4.86858 1.86504 4.75387 1.97975 4.61236 1.97975H3.52027C3.38679 1.97975 3.31663 2.016 3.2766 2.06048C3.23349 2.10838 3.1969 2.19715 3.1969 2.35803V6.87527C3.1969 7.45677 2.79805 7.96624 2.37458 8.40476C2.5787 8.61723 2.77373 8.84556 2.92213 9.08711C3.08453 9.35145 3.1969 9.64099 3.1969 9.95017V14.5528C3.1969 14.7137 3.23349 14.8025 3.2766 14.8504C3.31663 14.8948 3.38679 14.9311 3.52027 14.9311H4.61236C4.75387 14.9311 4.86858 15.0458 4.86858 15.1873V16.3343C4.86858 16.4758 4.75387 16.5905 4.61236 16.5905H3.00779C2.55301 16.5905 2.1712 16.4418 1.87894 16.1364C1.57627 15.833 1.42764 15.4469 1.42764 14.9921V9.93187C1.42764 9.6656 1.27281 9.47058 1.03269 9.32994C0.789762 9.18766 0.482122 9.11717 0.246653 9.10431C0.114215 9.09708 0 8.98899 0 8.84594Z" fill="#EFEFEF"/>
</svg>
