<svg width="51" height="51" viewBox="0 0 51 51" fill="none" xmlns="http://www.w3.org/2000/svg">
<g clip-path="url(#clip0_508_2082)">
<path d="M33.689 28.392L34.8106 25.2724C36.4367 20.7496 34.0884 15.765 29.5657 14.139C25.0429 12.5129 20.0583 14.8611 18.4323 19.3839L17.3107 22.5036L11.8076 28.0113L34.4252 36.143L33.689 28.392Z" stroke="#F988B7" stroke-width="2.48639" stroke-linecap="round" stroke-linejoin="round"/>
<path d="M18.2969 30.7846C18.2969 30.7846 16.7547 35.0742 21.4342 36.7566C26.1137 38.439 27.6559 34.1494 27.6559 34.1494" stroke="#F988B7" stroke-width="2.48639" stroke-linecap="round" stroke-linejoin="round"/>
<path d="M38.5352 17.3635C38.5352 17.3635 39.4631 17.9577 39.8147 18.7042C40.1664 19.4507 40.0337 20.5445 40.0337 20.5445" stroke="#F988B7" stroke-width="2.48639" stroke-linecap="round" stroke-linejoin="round"/>
<path d="M20.5966 10.9143C20.5966 10.9143 19.5027 10.7817 18.7562 11.1333C18.0098 11.485 17.4156 12.4129 17.4156 12.4129" stroke="#F988B7" stroke-width="2.48639" stroke-linecap="round" stroke-linejoin="round"/>
</g>
<defs>
<clipPath id="clip0_508_2082">
<rect width="39.7822" height="39.7822" fill="white" transform="translate(13.5117) rotate(19.775)"/>
</clipPath>
</defs>
</svg>
