<svg width="18" height="19" viewBox="0 0 18 19" fill="none" xmlns="http://www.w3.org/2000/svg">
<path d="M6.68161 7.86835L3.68572 14.2156C3.36752 14.8377 4.00344 15.5162 4.64558 15.2397L10.94 13.018" stroke="#F988B7" stroke-width="1.11847" stroke-linecap="round" stroke-linejoin="round"/>
<path d="M9.98399 9.13303C11.2067 10.5439 11.7574 12.1959 11.214 12.8229C10.6705 13.45 9.23877 12.8146 8.01605 11.4037C6.79332 9.9929 6.24264 8.34087 6.78608 7.71383C7.32951 7.0868 8.76127 7.72219 9.98399 9.13303Z" stroke="#F988B7" stroke-width="1.11847" stroke-linecap="round" stroke-linejoin="round"/>
<path d="M7.13577 14.0985C6.69077 13.8142 6.2212 13.4053 5.77897 12.8951C5.48776 12.559 5.23466 12.2093 5.02539 11.8631" stroke="#F988B7" stroke-width="1.11847" stroke-linecap="round" stroke-linejoin="round"/>
<path d="M8.62724 4.67602C8.62724 4.88192 8.46032 5.04884 8.25442 5.04884C8.04851 5.04884 7.88159 4.88192 7.88159 4.67602C7.88159 4.47011 8.04851 4.30319 8.25442 4.30319C8.46032 4.30319 8.62724 4.47011 8.62724 4.67602Z" stroke="#F988B7" stroke-width="0.745649" stroke-linecap="round" stroke-linejoin="round"/>
<path d="M11.7961 7.84504L11.8921 7.74909C12.7657 6.87551 12.7657 5.45916 11.8921 4.58557L11.7961 4.48962" stroke="#F988B7" stroke-width="1.11847" stroke-linecap="round" stroke-linejoin="round"/>
<path d="M12.7283 10.6412L12.9467 10.4228C13.2379 10.1316 13.71 10.1316 14.0012 10.4228L14.2196 10.6412" stroke="#F988B7" stroke-width="1.11847" stroke-linecap="round" stroke-linejoin="round"/>
</svg>
