<svg width="20" height="16" viewBox="0 0 20 16" fill="none" xmlns="http://www.w3.org/2000/svg">
<g clip-path="url(#clip0_677_2104)">
<path d="M16.9308 1.37578C15.6561 0.792328 14.2892 0.362466 12.8599 0.116267C12.8339 0.111516 12.8079 0.12339 12.7945 0.147139C12.6187 0.459043 12.4239 0.865947 12.2876 1.18577C10.7503 0.956202 9.22099 0.956202 7.71527 1.18577C7.57887 0.858838 7.37707 0.459043 7.20048 0.147139C7.18707 0.124182 7.16107 0.112308 7.13504 0.116267C5.70659 0.36168 4.33963 0.791541 3.06411 1.37578C3.05307 1.38053 3.04361 1.38845 3.03732 1.39874C0.444493 5.26277 -0.265792 9.03182 0.0826501 12.7541C0.0842267 12.7724 0.0944749 12.7898 0.108665 12.8008C1.81934 14.054 3.47642 14.8148 5.10273 15.3191C5.12876 15.327 5.15634 15.3175 5.1729 15.2961C5.55761 14.7721 5.90054 14.2195 6.19456 13.6384C6.21192 13.6044 6.19535 13.564 6.15989 13.5505C5.61594 13.3447 5.098 13.0938 4.59977 12.8088C4.56037 12.7858 4.55721 12.7296 4.59347 12.7027C4.69831 12.6243 4.80318 12.5428 4.9033 12.4604C4.92141 12.4454 4.94665 12.4422 4.96794 12.4517C8.24107 13.9424 11.7846 13.9424 15.0191 12.4517C15.0404 12.4414 15.0657 12.4446 15.0846 12.4596C15.1847 12.542 15.2895 12.6243 15.3952 12.7027C15.4314 12.7296 15.4291 12.7858 15.3897 12.8088C14.8914 13.0993 14.3735 13.3447 13.8288 13.5497C13.7933 13.5632 13.7775 13.6044 13.7949 13.6384C14.0952 14.2187 14.4381 14.7712 14.8157 15.2953C14.8315 15.3175 14.8599 15.327 14.8859 15.3191C16.5201 14.8148 18.1772 14.054 19.8879 12.8008C19.9028 12.7898 19.9123 12.7731 19.9139 12.7549C20.3309 8.45152 19.2154 4.71337 16.9568 1.39952C16.9513 1.38845 16.9419 1.38053 16.9308 1.37578ZM6.68335 10.4876C5.69792 10.4876 4.88594 9.58518 4.88594 8.47686C4.88594 7.36855 5.68217 6.46608 6.68335 6.46608C7.69239 6.46608 8.49651 7.37647 8.48073 8.47686C8.48073 9.58518 7.68451 10.4876 6.68335 10.4876ZM13.329 10.4876C12.3435 10.4876 11.5316 9.58518 11.5316 8.47686C11.5316 7.36855 12.3278 6.46608 13.329 6.46608C14.338 6.46608 15.1421 7.37647 15.1264 8.47686C15.1264 9.58518 14.338 10.4876 13.329 10.4876Z" fill="#596DED"/>
</g>
<defs>
<clipPath id="clip0_677_2104">
<rect width="20" height="15.4545" fill="white"/>
</clipPath>
</defs>
</svg>
