<svg width="20" height="20" viewBox="0 0 20 20" fill="none" xmlns="http://www.w3.org/2000/svg">
<g clip-path="url(#clip0_677_2099)">
<path d="M18.7825 5.34967C18.6835 4.95418 18.4819 4.59182 18.1981 4.29918C17.9142 4.00654 17.5581 3.794 17.1658 3.68301C15.7325 3.33301 9.99917 3.33301 9.99917 3.33301C9.99917 3.33301 4.26584 3.33301 2.83251 3.71634C2.44021 3.82733 2.08416 4.03987 1.8003 4.33251C1.51644 4.62515 1.31483 4.98752 1.21584 5.38301C0.95352 6.83764 0.825204 8.31327 0.832508 9.79134C0.823157 11.2805 0.951481 12.7674 1.21584 14.233C1.32497 14.6162 1.5311 14.9648 1.81429 15.2451C2.09749 15.5254 2.44819 15.7279 2.83251 15.833C4.26584 16.2163 9.99917 16.2163 9.99917 16.2163C9.99917 16.2163 15.7325 16.2163 17.1658 15.833C17.5581 15.722 17.9142 15.5095 18.1981 15.2168C18.4819 14.9242 18.6835 14.5618 18.7825 14.1663C19.0428 12.7227 19.1711 11.2583 19.1658 9.79134C19.1752 8.30214 19.0469 6.81526 18.7825 5.34967V5.34967Z" stroke="#E02325" stroke-width="1.66667" stroke-linecap="round" stroke-linejoin="round"/>
<path d="M8.125 12.5164L12.9167 9.79141L8.125 7.06641V12.5164Z" stroke="#E02325" stroke-width="1.66667" stroke-linecap="round" stroke-linejoin="round"/>
</g>
<defs>
<clipPath id="clip0_677_2099">
<rect width="20" height="20" fill="white"/>
</clipPath>
</defs>
</svg>
