<svg width="99" height="68" viewBox="0 0 99 68" fill="none" xmlns="http://www.w3.org/2000/svg">
    <g filter="url(#filter0_d_1333_6071)">
        <path d="M87 16C87 13.7909 85.2091 12 83 12H16C13.7909 12 12 13.7909 12 16V43C12 45.2091 13.7909 47 16 47H58H75.8431C76.904 47 77.9214 47.4214 78.6716 48.1716L85.2929 54.7929C85.9229 55.4229 87 54.9767 87 54.0858V47V16Z" fill="#FFD0BC"/>
    </g>
    <path d="M21.27 27.07C20.4233 27.07 19.7233 26.8733 19.17 26.48C18.6233 26.08 18.3267 25.4967 18.28 24.73H20.64C20.6733 25.1367 20.8533 25.34 21.18 25.34C21.3 25.34 21.4 25.3133 21.48 25.26C21.5667 25.2 21.61 25.11 21.61 24.99C21.61 24.8233 21.52 24.69 21.34 24.59C21.16 24.4833 20.88 24.3633 20.5 24.23C20.0467 24.07 19.67 23.9133 19.37 23.76C19.0767 23.6067 18.8233 23.3833 18.61 23.09C18.3967 22.7967 18.2933 22.42 18.3 21.96C18.3 21.5 18.4167 21.11 18.65 20.79C18.89 20.4633 19.2133 20.2167 19.62 20.05C20.0333 19.8833 20.4967 19.8 21.01 19.8C21.8767 19.8 22.5633 20 23.07 20.4C23.5833 20.8 23.8533 21.3633 23.88 22.09H21.49C21.4833 21.89 21.4333 21.7467 21.34 21.66C21.2467 21.5733 21.1333 21.53 21 21.53C20.9067 21.53 20.83 21.5633 20.77 21.63C20.71 21.69 20.68 21.7767 20.68 21.89C20.68 22.05 20.7667 22.1833 20.94 22.29C21.12 22.39 21.4033 22.5133 21.79 22.66C22.2367 22.8267 22.6033 22.9867 22.89 23.14C23.1833 23.2933 23.4367 23.5067 23.65 23.78C23.8633 24.0533 23.97 24.3967 23.97 24.81C23.97 25.2433 23.8633 25.6333 23.65 25.98C23.4367 26.32 23.1267 26.5867 22.72 26.78C22.3133 26.9733 21.83 27.07 21.27 27.07ZM27.43 27.07C26.8633 27.07 26.3533 26.9533 25.9 26.72C25.4467 26.4867 25.09 26.1533 24.83 25.72C24.5767 25.28 24.45 24.7667 24.45 24.18C24.45 23.5933 24.5767 23.0833 24.83 22.65C25.09 22.21 25.4467 21.8733 25.9 21.64C26.3533 21.4067 26.8633 21.29 27.43 21.29C27.9967 21.29 28.5067 21.4067 28.96 21.64C29.4133 21.8733 29.7667 22.21 30.02 22.65C30.28 23.0833 30.41 23.5933 30.41 24.18C30.41 24.7667 30.28 25.28 30.02 25.72C29.7667 26.1533 29.4133 26.4867 28.96 26.72C28.5067 26.9533 27.9967 27.07 27.43 27.07ZM27.43 25.15C27.6367 25.15 27.81 25.07 27.95 24.91C28.09 24.7433 28.16 24.5 28.16 24.18C28.16 23.86 28.09 23.62 27.95 23.46C27.81 23.2933 27.6367 23.21 27.43 23.21C27.2233 23.21 27.05 23.2933 26.91 23.46C26.77 23.62 26.7 23.86 26.7 24.18C26.7 24.5 26.7667 24.7433 26.9 24.91C27.04 25.07 27.2167 25.15 27.43 25.15ZM33.7874 27.07C33.2208 27.07 32.7108 26.9533 32.2574 26.72C31.8041 26.4867 31.4474 26.1533 31.1874 25.72C30.9341 25.28 30.8074 24.7667 30.8074 24.18C30.8074 23.5933 30.9341 23.0833 31.1874 22.65C31.4474 22.21 31.8041 21.8733 32.2574 21.64C32.7108 21.4067 33.2208 21.29 33.7874 21.29C34.3541 21.29 34.8641 21.4067 35.3174 21.64C35.7708 21.8733 36.1241 22.21 36.3774 22.65C36.6374 23.0833 36.7674 23.5933 36.7674 24.18C36.7674 24.7667 36.6374 25.28 36.3774 25.72C36.1241 26.1533 35.7708 26.4867 35.3174 26.72C34.8641 26.9533 34.3541 27.07 33.7874 27.07ZM33.7874 25.15C33.9941 25.15 34.1674 25.07 34.3074 24.91C34.4474 24.7433 34.5174 24.5 34.5174 24.18C34.5174 23.86 34.4474 23.62 34.3074 23.46C34.1674 23.2933 33.9941 23.21 33.7874 23.21C33.5808 23.21 33.4074 23.2933 33.2674 23.46C33.1274 23.62 33.0574 23.86 33.0574 24.18C33.0574 24.5 33.1241 24.7433 33.2574 24.91C33.3974 25.07 33.5741 25.15 33.7874 25.15ZM41.4148 21.32C42.0615 21.32 42.5648 21.5367 42.9248 21.97C43.2915 22.4033 43.4748 22.99 43.4748 23.73V27H41.2648V24.01C41.2648 23.7433 41.1915 23.5333 41.0448 23.38C40.9048 23.22 40.7148 23.14 40.4748 23.14C40.2282 23.14 40.0348 23.22 39.8948 23.38C39.7548 23.5333 39.6848 23.7433 39.6848 24.01V27H37.4648V21.36H39.6848V22.22C39.8582 21.9533 40.0882 21.7367 40.3748 21.57C40.6682 21.4033 41.0148 21.32 41.4148 21.32ZM47.4275 19.45L47.1675 24.19H45.2675L45.0075 19.45H47.4275ZM46.2175 27.08C45.8308 27.08 45.5208 26.9767 45.2875 26.77C45.0542 26.5633 44.9375 26.3033 44.9375 25.99C44.9375 25.67 45.0542 25.4067 45.2875 25.2C45.5208 24.9867 45.8308 24.88 46.2175 24.88C46.5975 24.88 46.9042 24.9867 47.1375 25.2C47.3708 25.4067 47.4875 25.67 47.4875 25.99C47.4875 26.3033 47.3708 26.5633 47.1375 26.77C46.9042 26.9767 46.5975 27.08 46.2175 27.08ZM27.53 32.03L25.51 39H24.49L22.87 33.39L21.19 39L20.18 39.01L18.23 32.03H19.2L20.72 37.94L22.4 32.03H23.42L25.02 37.92L26.55 32.03H27.53ZM33.5259 36.05C33.5259 36.2233 33.5159 36.4067 33.4959 36.6H29.1159C29.1492 37.14 29.3325 37.5633 29.6659 37.87C30.0059 38.17 30.4159 38.32 30.8959 38.32C31.2892 38.32 31.6159 38.23 31.8759 38.05C32.1425 37.8633 32.3292 37.6167 32.4359 37.31H33.4159C33.2692 37.8367 32.9759 38.2667 32.5359 38.6C32.0959 38.9267 31.5492 39.09 30.8959 39.09C30.3759 39.09 29.9092 38.9733 29.4959 38.74C29.0892 38.5067 28.7692 38.1767 28.5359 37.75C28.3025 37.3167 28.1859 36.8167 28.1859 36.25C28.1859 35.6833 28.2992 35.1867 28.5259 34.76C28.7525 34.3333 29.0692 34.0067 29.4759 33.78C29.8892 33.5467 30.3625 33.43 30.8959 33.43C31.4159 33.43 31.8759 33.5433 32.2759 33.77C32.6759 33.9967 32.9825 34.31 33.1959 34.71C33.4159 35.1033 33.5259 35.55 33.5259 36.05ZM32.5859 35.86C32.5859 35.5133 32.5092 35.2167 32.3559 34.97C32.2025 34.7167 31.9925 34.5267 31.7259 34.4C31.4659 34.2667 31.1759 34.2 30.8559 34.2C30.3959 34.2 30.0025 34.3467 29.6759 34.64C29.3559 34.9333 29.1725 35.34 29.1259 35.86H32.5859ZM34.867 32.03H35.877L34.917 34.3H34.277L34.867 32.03ZM37.8245 34.41C37.9845 34.0967 38.2112 33.8533 38.5045 33.68C38.8045 33.5067 39.1679 33.42 39.5945 33.42V34.36H39.3545C38.3345 34.36 37.8245 34.9133 37.8245 36.02V39H36.9145V33.52H37.8245V34.41ZM45.645 36.05C45.645 36.2233 45.635 36.4067 45.615 36.6H41.235C41.2683 37.14 41.4517 37.5633 41.785 37.87C42.125 38.17 42.535 38.32 43.015 38.32C43.4083 38.32 43.735 38.23 43.995 38.05C44.2617 37.8633 44.4483 37.6167 44.555 37.31H45.535C45.3883 37.8367 45.095 38.2667 44.655 38.6C44.215 38.9267 43.6683 39.09 43.015 39.09C42.495 39.09 42.0283 38.9733 41.615 38.74C41.2083 38.5067 40.8883 38.1767 40.655 37.75C40.4217 37.3167 40.305 36.8167 40.305 36.25C40.305 35.6833 40.4183 35.1867 40.645 34.76C40.8717 34.3333 41.1883 34.0067 41.595 33.78C42.0083 33.5467 42.4817 33.43 43.015 33.43C43.535 33.43 43.995 33.5433 44.395 33.77C44.795 33.9967 45.1017 34.31 45.315 34.71C45.535 35.1033 45.645 35.55 45.645 36.05ZM44.705 35.86C44.705 35.5133 44.6283 35.2167 44.475 34.97C44.3217 34.7167 44.1117 34.5267 43.845 34.4C43.585 34.2667 43.295 34.2 42.975 34.2C42.515 34.2 42.1217 34.3467 41.795 34.64C41.475 34.9333 41.2917 35.34 41.245 35.86H44.705ZM51.9022 39.09C51.3889 39.09 50.9222 38.9733 50.5022 38.74C50.0889 38.5067 49.7622 38.1767 49.5222 37.75C49.2889 37.3167 49.1722 36.8167 49.1722 36.25C49.1722 35.69 49.2922 35.1967 49.5322 34.77C49.7789 34.3367 50.1122 34.0067 50.5322 33.78C50.9522 33.5467 51.4222 33.43 51.9422 33.43C52.4622 33.43 52.9322 33.5467 53.3522 33.78C53.7722 34.0067 54.1022 34.3333 54.3422 34.76C54.5889 35.1867 54.7122 35.6833 54.7122 36.25C54.7122 36.8167 54.5855 37.3167 54.3322 37.75C54.0855 38.1767 53.7489 38.5067 53.3222 38.74C52.8955 38.9733 52.4222 39.09 51.9022 39.09ZM51.9022 38.29C52.2289 38.29 52.5355 38.2133 52.8222 38.06C53.1089 37.9067 53.3389 37.6767 53.5122 37.37C53.6922 37.0633 53.7822 36.69 53.7822 36.25C53.7822 35.81 53.6955 35.4367 53.5222 35.13C53.3489 34.8233 53.1222 34.5967 52.8422 34.45C52.5622 34.2967 52.2589 34.22 51.9322 34.22C51.5989 34.22 51.2922 34.2967 51.0122 34.45C50.7389 34.5967 50.5189 34.8233 50.3522 35.13C50.1855 35.4367 50.1022 35.81 50.1022 36.25C50.1022 36.6967 50.1822 37.0733 50.3422 37.38C50.5089 37.6867 50.7289 37.9167 51.0022 38.07C51.2755 38.2167 51.5755 38.29 51.9022 38.29ZM58.5787 33.42C59.2453 33.42 59.7853 33.6233 60.1987 34.03C60.612 34.43 60.8187 35.01 60.8187 35.77V39H59.9187V35.9C59.9187 35.3533 59.782 34.9367 59.5087 34.65C59.2353 34.3567 58.862 34.21 58.3887 34.21C57.9087 34.21 57.5253 34.36 57.2387 34.66C56.9587 34.96 56.8187 35.3967 56.8187 35.97V39H55.9087V33.52H56.8187V34.3C56.9987 34.02 57.242 33.8033 57.5487 33.65C57.862 33.4967 58.2053 33.42 58.5787 33.42ZM65.4412 32.63C65.2678 32.63 65.1212 32.57 65.0012 32.45C64.8812 32.33 64.8212 32.1833 64.8212 32.01C64.8212 31.8367 64.8812 31.69 65.0012 31.57C65.1212 31.45 65.2678 31.39 65.4412 31.39C65.6078 31.39 65.7478 31.45 65.8612 31.57C65.9812 31.69 66.0412 31.8367 66.0412 32.01C66.0412 32.1833 65.9812 32.33 65.8612 32.45C65.7478 32.57 65.6078 32.63 65.4412 32.63ZM65.8812 33.52V39H64.9712V33.52H65.8812ZM68.5421 34.27V37.5C68.5421 37.7667 68.5988 37.9567 68.7121 38.07C68.8254 38.1767 69.0221 38.23 69.3021 38.23H69.9721V39H69.1521C68.6454 39 68.2654 38.8833 68.0121 38.65C67.7588 38.4167 67.6321 38.0333 67.6321 37.5V34.27H66.9221V33.52H67.6321V32.14H68.5421V33.52H69.9721V34.27H68.5421Z" fill="#323232"/>
    <defs>
        <filter id="filter0_d_1333_6071" x="0" y="0" width="99" height="67.0879" filterUnits="userSpaceOnUse" color-interpolation-filters="sRGB">
            <feFlood flood-opacity="0" result="BackgroundImageFix"/>
            <feColorMatrix in="SourceAlpha" type="matrix" values="0 0 0 0 0 0 0 0 0 0 0 0 0 0 0 0 0 0 127 0" result="hardAlpha"/>
            <feOffset/>
            <feGaussianBlur stdDeviation="6"/>
            <feComposite in2="hardAlpha" operator="out"/>
            <feColorMatrix type="matrix" values="0 0 0 0 0 0 0 0 0 0 0 0 0 0 0 0 0 0 1 0"/>
            <feBlend mode="normal" in2="BackgroundImageFix" result="effect1_dropShadow_1333_6071"/>
            <feBlend mode="normal" in="SourceGraphic" in2="effect1_dropShadow_1333_6071" result="shape"/>
        </filter>
    </defs>
</svg>
