<svg width="176" height="161" viewBox="0 0 176 161" fill="none" xmlns="http://www.w3.org/2000/svg">
<g filter="url(#filter0_d_2382_1300)">
<path d="M149.493 82.0289C158.057 82.0289 165 72.2409 165 60.1668C165 48.0927 158.057 38.3047 149.493 38.3047C140.928 38.3047 133.985 48.0927 133.985 60.1668C133.985 72.2409 140.928 82.0289 149.493 82.0289Z" fill="#D6DBEA"/>
<path d="M24.1447 81.5073C25.2712 83.0072 26.1568 83.8676 26.4665 84.1605C26.8833 84.5556 28.3363 85.8965 30.9443 87.3126C32.0743 87.927 35.3687 89.611 40.3989 90.4647C43.1828 90.9368 45.3439 90.9585 46.0386 90.9619C96.7281 91.2465 122.072 91.3888 133.447 90.9619C133.447 90.9619 136.006 90.7811 137.096 90.6304C139.533 90.294 141.306 89.1942 142.736 88.3086C148.956 84.4501 151.937 77.4228 153.019 74.8733C153.715 73.2312 154.45 71.1705 155.009 68.7366C155.284 67.543 156.147 63.5004 155.838 57.623C155.428 49.8223 153.22 43.9701 152.023 40.8716C150.65 37.3178 148.509 31.9008 143.896 26.1105C136.672 17.0443 128.117 12.9999 124.158 11.1837C115.569 7.24148 108.319 6.53171 106.41 6.37436C105.96 6.33753 105.419 6.29903 102.264 6.20863C92.8244 5.93745 87.5045 5.98934 71.58 6.04291C66.7138 6.05965 65.9672 6.05798 64.4472 6.20863C56.9378 6.9502 51.4689 9.30046 48.6901 10.5208C40.943 13.924 35.8792 18.216 34.2605 19.6439C26.5083 26.4788 22.7084 33.8024 21.324 36.7268C20.0016 39.5207 17.6647 44.5677 16.8461 51.6537C16.8461 51.6537 15.522 63.112 20.4954 75.0407C22.0037 78.6582 24.1447 81.509 24.1447 81.509V81.5073Z" fill="white"/>
<path d="M23.4515 81.5074C32.0162 81.5074 38.9592 71.7194 38.9592 59.6453C38.9592 47.5712 32.0162 37.7832 23.4515 37.7832C14.8869 37.7832 7.94385 47.5712 7.94385 59.6453C7.94385 71.7194 14.8869 81.5074 23.4515 81.5074Z" fill="#D6DBEA"/>
<path d="M11.0491 69.5969C14.9422 69.5969 18.0982 65.1413 18.0982 59.6451C18.0982 54.1489 14.9422 49.6934 11.0491 49.6934C7.15599 49.6934 4 54.1489 4 59.6451C4 65.1413 7.15599 69.5969 11.0491 69.5969Z" fill="#7F8BB1"/>
<path d="M127.615 79.0203H69.1184C62.2334 79.0203 56.6523 73.4392 56.6523 66.5542V54.8247C56.6523 47.8141 62.4309 42.1828 69.4398 42.3636L127.937 43.8752C134.693 44.0493 140.08 49.5768 140.08 56.3363V66.5542C140.08 73.4392 134.499 79.0203 127.614 79.0203H127.615Z" fill="#30C6B4"/>
<mask id="mask0_2382_1300" style="mask-type:luminance" maskUnits="userSpaceOnUse" x="56" y="42" width="84" height="37">
<path d="M127.436 78.9724H68.9452C62.0609 78.9724 56.4805 73.392 56.4805 66.5077V54.7794C56.4805 47.7695 62.2601 42.1389 69.2666 42.3197L127.757 43.8311C134.513 44.0052 139.899 49.532 139.899 56.2908V66.5077C139.899 73.392 134.319 78.9724 127.434 78.9724H127.436Z" fill="white"/>
</mask>
<g mask="url(#mask0_2382_1300)">
<path d="M77.2224 40.0732C79.0134 41.1779 81.4387 42.8467 84.0214 45.2151C86.9739 47.9217 88.7582 50.28 90.8203 53.01C94.0558 57.2882 95.6726 59.429 96.9564 62.795C97.1272 63.2436 97.7331 65.3057 98.9466 69.4283C100.163 73.5642 100.532 74.9602 101.6 76.726C102.868 78.8199 104.383 80.2159 105.414 81.0377H53.0093V40.0732H77.2224Z" fill="#4BEAD7"/>
</g>
<path d="M79.4587 68.3535C84.268 68.3535 88.1667 64.4548 88.1667 59.6455C88.1667 54.8362 84.268 50.9375 79.4587 50.9375C74.6494 50.9375 70.7507 54.8362 70.7507 59.6455C70.7507 64.4548 74.6494 68.3535 79.4587 68.3535Z" fill="white"/>
<path d="M118.74 68.874C123.55 68.874 127.448 64.9753 127.448 60.166C127.448 55.3567 123.55 51.458 118.74 51.458C113.931 51.458 110.032 55.3567 110.032 60.166C110.032 64.9753 113.931 68.874 118.74 68.874Z" fill="white"/>
<path d="M52.451 97.3199C51.388 97.7635 49.5651 98.5369 47.5864 100.084C42.9663 103.696 41.3743 108.485 40.9525 109.925C40.2126 112.441 40.1875 114.433 40.1791 116.338C40.1724 117.58 40.2243 122.299 42.3904 128.059C45.3785 136.004 50.454 140.786 52.3422 142.433C54.0128 143.89 57.7592 146.885 63.2883 148.957C68.7789 151.016 73.6117 151.262 76.5579 151.389C77.1505 151.414 77.045 151.399 81.2015 151.389C91.7074 151.362 91.4864 151.465 94.2484 151.389C101.204 151.202 104.681 151.108 108.181 149.841C112.13 148.411 114.812 146.371 116.474 145.087C118.158 143.784 121.862 140.865 124.877 135.798C129.492 128.046 129.38 120.501 129.3 117.664C129.26 116.214 129.045 111.801 127.088 106.718C125.063 101.455 122.765 99.6133 121.67 98.8667C121.216 98.557 120.721 98.2657 119.9 97.8723C114.935 95.4853 109.878 94.9898 108.732 94.8876C92.228 93.4012 75.7427 93.1049 59.3294 95.7363C56.9908 96.1113 54.6456 96.3976 52.4493 97.3199H52.451Z" fill="#D6DBEA"/>
<mask id="mask1_2382_1300" style="mask-type:luminance" maskUnits="userSpaceOnUse" x="40" y="93" width="90" height="59">
<path d="M52.3941 97.3956C51.332 97.8388 49.5104 98.6116 47.5333 100.157C42.9167 103.767 41.326 108.552 40.9045 109.991C40.1652 112.507 40.1401 114.497 40.13 116.401C40.1233 117.642 40.1752 122.357 42.3397 128.113C45.3254 136.051 50.397 140.83 52.2837 142.476C53.9531 143.931 57.6965 146.924 63.2214 148.994C68.7078 151.052 73.5368 151.298 76.4808 151.425C77.0729 151.45 76.9675 151.435 81.1208 151.425C91.6185 151.398 91.3977 151.5 94.1576 151.425C101.108 151.238 104.582 151.144 108.079 149.878C112.025 148.449 114.705 146.41 116.366 145.127C118.049 143.826 121.75 140.909 124.763 135.846C129.374 128.099 129.262 120.561 129.182 117.725C129.142 116.277 128.928 111.868 126.972 106.788C124.948 101.529 122.652 99.6888 121.558 98.9428C121.105 98.6334 120.609 98.3423 119.79 97.9492C114.829 95.564 109.775 95.0689 108.63 94.9669C92.1387 93.4815 75.6662 93.1854 59.2655 95.8149C56.9288 96.1896 54.5854 96.4756 52.3908 97.3973L52.3941 97.3956Z" fill="white"/>
</mask>
<g mask="url(#mask1_2382_1300)">
<path d="M74.3004 102.963C71.8834 103.924 70.0351 105.006 68.7722 105.839C65.9989 107.669 61.5195 111.176 62.5114 114.992C62.9931 116.847 64.7293 118.068 66.402 119.003C70.5001 121.289 74.9946 122.86 79.6246 123.623C82.3862 124.078 85.213 124.252 87.8843 125.086C90.5555 125.921 93.1432 127.55 94.3291 130.084C95.9683 133.59 94.5599 137.673 93.4509 141.382C91.9188 146.505 92.4624 151.187 96.2878 155.114H129.877V97.1074L91.7582 76.5752L74.3004 102.963Z" fill="white"/>
</g>
<g filter="url(#filter1_d_2382_1300)">
<path d="M56.7047 107.992C54.9138 105.827 51.7074 105.524 49.5429 107.314C47.3784 109.105 47.0756 112.312 48.8665 114.476L62.9225 131.467C64.7134 133.632 67.9198 133.935 70.0843 132.145C72.2488 130.354 72.5516 127.148 70.7607 124.983L56.7047 107.992Z" fill="#D6DBEA"/>
</g>
<mask id="path-14-inside-1_2382_1300" fill="white">
<path d="M122.886 122.61C122.886 121.787 122.829 120.976 122.721 120.183C122.689 119.951 122.517 119.763 122.29 119.707L119.994 119.132C119.557 119.022 119.41 118.477 119.735 118.162L121.437 116.516C121.604 116.352 121.662 116.104 121.573 115.888C120.955 114.372 120.132 112.961 119.141 111.686C118.996 111.501 118.754 111.425 118.529 111.491L116.255 112.14C115.822 112.263 115.421 111.864 115.546 111.431L116.195 109.156C116.259 108.931 116.182 108.687 115.998 108.545C114.725 107.556 113.313 106.735 111.798 106.117C111.582 106.028 111.333 106.086 111.17 106.253L109.523 107.953C109.209 108.276 108.664 108.129 108.554 107.694L107.978 105.398C107.921 105.171 107.734 104.999 107.503 104.967C106.709 104.859 105.899 104.802 105.075 104.802C104.252 104.802 103.441 104.859 102.65 104.967C102.419 104.999 102.232 105.171 102.174 105.398L101.599 107.694C101.489 108.131 100.944 108.278 100.63 107.953L98.9828 106.251C98.8216 106.084 98.5712 106.028 98.3547 106.115C96.8353 106.731 95.4241 107.552 94.1487 108.545C93.9641 108.689 93.8877 108.931 93.9535 109.156L94.6029 111.431C94.7259 111.864 94.327 112.265 93.8941 112.14L91.6192 111.491C91.3942 111.427 91.1523 111.501 91.008 111.686C90.017 112.957 89.1979 114.368 88.5761 115.883C88.487 116.1 88.5443 116.35 88.7119 116.511L90.4181 118.16C90.7428 118.474 90.5963 119.02 90.1592 119.13L87.861 119.705C87.6339 119.763 87.462 119.949 87.4302 120.181C87.322 120.974 87.2646 121.785 87.2646 122.608C87.2646 123.432 87.322 124.242 87.4302 125.036C87.462 125.267 87.6339 125.456 87.861 125.511L90.1592 126.086C90.5963 126.195 90.7428 126.742 90.4181 127.056L88.7119 128.705C88.5443 128.868 88.487 129.117 88.5761 129.333C89.1958 130.848 90.0149 132.26 91.008 133.531C91.1523 133.715 91.3942 133.79 91.6192 133.726L93.8941 133.077C94.327 132.953 94.7281 133.352 94.6029 133.785L93.9535 136.06C93.8898 136.285 93.9662 136.527 94.1487 136.671C95.4241 137.662 96.8353 138.486 98.3547 139.101C98.5712 139.188 98.8194 139.133 98.9828 138.965L100.63 137.263C100.944 136.941 101.489 137.087 101.599 137.522L102.174 139.818C102.232 140.046 102.419 140.217 102.65 140.249C103.441 140.357 104.252 140.415 105.075 140.415C105.899 140.415 106.709 140.357 107.503 140.249C107.734 140.217 107.923 140.046 107.978 139.818L108.554 137.522C108.664 137.085 109.209 136.939 109.523 137.263L111.17 138.963C111.333 139.131 111.582 139.186 111.798 139.099C113.313 138.482 114.725 137.66 115.998 136.671C116.182 136.529 116.259 136.285 116.195 136.06L115.546 133.785C115.423 133.352 115.822 132.951 116.255 133.077L118.47 133.709C118.723 133.781 118.992 133.673 119.124 133.444L121.49 129.357C121.621 129.127 121.581 128.839 121.392 128.656L119.735 127.054C119.41 126.74 119.557 126.195 119.994 126.084L122.29 125.509C122.517 125.452 122.689 125.265 122.721 125.034C122.829 124.24 122.886 123.43 122.886 122.606V122.61ZM116.161 124.382C116.04 125.157 115.837 125.906 115.563 126.621C115.134 127.742 114.534 128.773 113.791 129.685C113.299 130.286 112.751 130.836 112.15 131.326C111.238 132.069 110.204 132.669 109.086 133.098C108.371 133.372 107.626 133.573 106.847 133.696C106.27 133.79 105.678 133.836 105.075 133.836C104.473 133.836 103.883 133.79 103.308 133.696C102.529 133.575 101.78 133.372 101.065 133.098C99.9442 132.669 98.9128 132.069 98.0003 131.326C97.3998 130.833 96.8501 130.286 96.3599 129.685C95.6172 128.773 95.0167 127.739 94.588 126.623C94.3142 125.908 94.1105 125.159 93.9896 124.38C93.8962 123.803 93.8495 123.211 93.8495 122.608C93.8495 122.006 93.8962 121.416 93.9896 120.836C94.1105 120.057 94.3142 119.308 94.588 118.593C95.0167 117.477 95.6172 116.444 96.3599 115.531C96.8523 114.931 97.3998 114.381 98.0003 113.891C98.9128 113.148 99.9463 112.547 101.065 112.119C101.78 111.845 102.529 111.641 103.308 111.52C103.883 111.427 104.475 111.38 105.075 111.38C105.676 111.38 106.268 111.427 106.847 111.52C107.626 111.643 108.371 111.845 109.086 112.119C110.207 112.547 111.238 113.148 112.15 113.891C112.751 114.383 113.301 114.931 113.791 115.531C114.534 116.444 115.134 117.477 115.563 118.595C115.837 119.311 116.04 120.06 116.161 120.834C116.255 121.411 116.301 122.003 116.301 122.606C116.301 123.209 116.255 123.799 116.161 124.378V124.382Z"/>
</mask>
<path d="M122.886 122.61C122.886 121.787 122.829 120.976 122.721 120.183C122.689 119.951 122.517 119.763 122.29 119.707L119.994 119.132C119.557 119.022 119.41 118.477 119.735 118.162L121.437 116.516C121.604 116.352 121.662 116.104 121.573 115.888C120.955 114.372 120.132 112.961 119.141 111.686C118.996 111.501 118.754 111.425 118.529 111.491L116.255 112.14C115.822 112.263 115.421 111.864 115.546 111.431L116.195 109.156C116.259 108.931 116.182 108.687 115.998 108.545C114.725 107.556 113.313 106.735 111.798 106.117C111.582 106.028 111.333 106.086 111.17 106.253L109.523 107.953C109.209 108.276 108.664 108.129 108.554 107.694L107.978 105.398C107.921 105.171 107.734 104.999 107.503 104.967C106.709 104.859 105.899 104.802 105.075 104.802C104.252 104.802 103.441 104.859 102.65 104.967C102.419 104.999 102.232 105.171 102.174 105.398L101.599 107.694C101.489 108.131 100.944 108.278 100.63 107.953L98.9828 106.251C98.8216 106.084 98.5712 106.028 98.3547 106.115C96.8353 106.731 95.4241 107.552 94.1487 108.545C93.9641 108.689 93.8877 108.931 93.9535 109.156L94.6029 111.431C94.7259 111.864 94.327 112.265 93.8941 112.14L91.6192 111.491C91.3942 111.427 91.1523 111.501 91.008 111.686C90.017 112.957 89.1979 114.368 88.5761 115.883C88.487 116.1 88.5443 116.35 88.7119 116.511L90.4181 118.16C90.7428 118.474 90.5963 119.02 90.1592 119.13L87.861 119.705C87.6339 119.763 87.462 119.949 87.4302 120.181C87.322 120.974 87.2646 121.785 87.2646 122.608C87.2646 123.432 87.322 124.242 87.4302 125.036C87.462 125.267 87.6339 125.456 87.861 125.511L90.1592 126.086C90.5963 126.195 90.7428 126.742 90.4181 127.056L88.7119 128.705C88.5443 128.868 88.487 129.117 88.5761 129.333C89.1958 130.848 90.0149 132.26 91.008 133.531C91.1523 133.715 91.3942 133.79 91.6192 133.726L93.8941 133.077C94.327 132.953 94.7281 133.352 94.6029 133.785L93.9535 136.06C93.8898 136.285 93.9662 136.527 94.1487 136.671C95.4241 137.662 96.8353 138.486 98.3547 139.101C98.5712 139.188 98.8194 139.133 98.9828 138.965L100.63 137.263C100.944 136.941 101.489 137.087 101.599 137.522L102.174 139.818C102.232 140.046 102.419 140.217 102.65 140.249C103.441 140.357 104.252 140.415 105.075 140.415C105.899 140.415 106.709 140.357 107.503 140.249C107.734 140.217 107.923 140.046 107.978 139.818L108.554 137.522C108.664 137.085 109.209 136.939 109.523 137.263L111.17 138.963C111.333 139.131 111.582 139.186 111.798 139.099C113.313 138.482 114.725 137.66 115.998 136.671C116.182 136.529 116.259 136.285 116.195 136.06L115.546 133.785C115.423 133.352 115.822 132.951 116.255 133.077L118.47 133.709C118.723 133.781 118.992 133.673 119.124 133.444L121.49 129.357C121.621 129.127 121.581 128.839 121.392 128.656L119.735 127.054C119.41 126.74 119.557 126.195 119.994 126.084L122.29 125.509C122.517 125.452 122.689 125.265 122.721 125.034C122.829 124.24 122.886 123.43 122.886 122.606V122.61ZM116.161 124.382C116.04 125.157 115.837 125.906 115.563 126.621C115.134 127.742 114.534 128.773 113.791 129.685C113.299 130.286 112.751 130.836 112.15 131.326C111.238 132.069 110.204 132.669 109.086 133.098C108.371 133.372 107.626 133.573 106.847 133.696C106.27 133.79 105.678 133.836 105.075 133.836C104.473 133.836 103.883 133.79 103.308 133.696C102.529 133.575 101.78 133.372 101.065 133.098C99.9442 132.669 98.9128 132.069 98.0003 131.326C97.3998 130.833 96.8501 130.286 96.3599 129.685C95.6172 128.773 95.0167 127.739 94.588 126.623C94.3142 125.908 94.1105 125.159 93.9896 124.38C93.8962 123.803 93.8495 123.211 93.8495 122.608C93.8495 122.006 93.8962 121.416 93.9896 120.836C94.1105 120.057 94.3142 119.308 94.588 118.593C95.0167 117.477 95.6172 116.444 96.3599 115.531C96.8523 114.931 97.3998 114.381 98.0003 113.891C98.9128 113.148 99.9463 112.547 101.065 112.119C101.78 111.845 102.529 111.641 103.308 111.52C103.883 111.427 104.475 111.38 105.075 111.38C105.676 111.38 106.268 111.427 106.847 111.52C107.626 111.643 108.371 111.845 109.086 112.119C110.207 112.547 111.238 113.148 112.15 113.891C112.751 114.383 113.301 114.931 113.791 115.531C114.534 116.444 115.134 117.477 115.563 118.595C115.837 119.311 116.04 120.06 116.161 120.834C116.255 121.411 116.301 122.003 116.301 122.606C116.301 123.209 116.255 123.799 116.161 124.378V124.382Z" fill="#1B2A59" stroke="#1B2A59" stroke-width="2.55171" mask="url(#path-14-inside-1_2382_1300)"/>
<path d="M104.621 130.683C109.47 130.683 113.402 126.752 113.402 121.902C113.402 117.053 109.47 113.122 104.621 113.122C99.7719 113.122 95.8408 117.053 95.8408 121.902C95.8408 126.752 99.7719 130.683 104.621 130.683Z" fill="#D92145"/>
<path d="M102.859 125.656C102.275 125.656 101.695 125.656 101.079 125.656V121.71H99.9492V120.057H101.075V118.14H103.149C103.157 118.234 103.17 118.326 103.17 118.418C103.17 120.666 103.166 123.102 103.176 125.351C103.176 125.603 103.096 125.661 102.859 125.655V125.656ZM108.326 124.86C107.426 125.635 106.384 125.903 105.268 125.426C104.105 124.928 103.5 123.999 103.487 122.723C103.474 121.303 103.481 119.882 103.479 118.463V118.14C104.158 118.14 104.786 118.144 105.412 118.14C105.593 118.139 105.575 118.258 105.575 118.372V124.172C106.341 123.72 107.071 123.291 107.829 122.841C107.226 122.485 106.661 122.141 106.086 121.814C105.905 121.712 105.817 121.601 105.829 121.381C105.849 121.003 105.843 120.622 105.831 120.243C105.825 120.063 105.887 120.004 106.065 119.978C107.23 119.809 108.505 120.505 109.024 121.608C109.552 122.727 109.288 124.027 108.325 124.857V124.859L108.326 124.86Z" fill="white"/>
<g filter="url(#filter2_d_2382_1300)">
<path d="M69.1776 123.35C66.3933 123.726 64.4414 126.288 64.8178 129.072C65.1941 131.856 67.7564 133.807 70.5406 133.431L96.1869 129.963C98.9711 129.587 100.923 127.025 100.547 124.241C100.17 121.457 97.6081 119.506 94.8239 119.882L69.1776 123.35Z" fill="#D6DBEA"/>
</g>
<path d="M67.7564 137.201C72.1312 137.201 75.6777 133.654 75.6777 129.28C75.6777 124.905 72.1312 121.358 67.7564 121.358C63.3817 121.358 59.8352 124.905 59.8352 129.28C59.8352 133.654 63.3817 137.201 67.7564 137.201Z" fill="#4BEAD7"/>
<path d="M86.3253 101.953C105.201 101.953 120.502 100.119 120.502 97.8572C120.502 95.5953 105.201 93.7617 86.3253 93.7617C67.4501 93.7617 52.1487 95.5953 52.1487 97.8572C52.1487 100.119 67.4501 101.953 86.3253 101.953Z" fill="#7F8BB1"/>
</g>
<defs>
<filter id="filter0_d_2382_1300" x="0.425486" y="0.638229" width="175.298" height="159.751" filterUnits="userSpaceOnUse" color-interpolation-filters="sRGB">
<feFlood flood-opacity="0" result="BackgroundImageFix"/>
<feColorMatrix in="SourceAlpha" type="matrix" values="0 0 0 0 0 0 0 0 0 0 0 0 0 0 0 0 0 0 127 0" result="hardAlpha"/>
<feOffset dx="3.57451" dy="1.78726"/>
<feGaussianBlur stdDeviation="3.57451"/>
<feComposite in2="hardAlpha" operator="out"/>
<feColorMatrix type="matrix" values="0 0 0 0 0.105882 0 0 0 0 0.164706 0 0 0 0 0.34902 0 0 0 0.25 0"/>
<feBlend mode="normal" in2="BackgroundImageFix" result="effect1_dropShadow_2382_1300"/>
<feBlend mode="normal" in="SourceGraphic" in2="effect1_dropShadow_2382_1300" result="shape"/>
</filter>
<filter id="filter1_d_2382_1300" x="44.4778" y="104.391" width="30.6717" height="33.606" filterUnits="userSpaceOnUse" color-interpolation-filters="sRGB">
<feFlood flood-opacity="0" result="BackgroundImageFix"/>
<feColorMatrix in="SourceAlpha" type="matrix" values="0 0 0 0 0 0 0 0 0 0 0 0 0 0 0 0 0 0 127 0" result="hardAlpha"/>
<feOffset dy="1.46407"/>
<feGaussianBlur stdDeviation="1.61048"/>
<feComposite in2="hardAlpha" operator="out"/>
<feColorMatrix type="matrix" values="0 0 0 0 0.211765 0 0 0 0 0.219608 0 0 0 0 0.431373 0 0 0 0.25 0"/>
<feBlend mode="normal" in2="BackgroundImageFix" result="effect1_dropShadow_2382_1300"/>
<feBlend mode="normal" in="SourceGraphic" in2="effect1_dropShadow_2382_1300" result="shape"/>
</filter>
<filter id="filter2_d_2382_1300" x="61.5503" y="118.079" width="42.2639" height="20.0835" filterUnits="userSpaceOnUse" color-interpolation-filters="sRGB">
<feFlood flood-opacity="0" result="BackgroundImageFix"/>
<feColorMatrix in="SourceAlpha" type="matrix" values="0 0 0 0 0 0 0 0 0 0 0 0 0 0 0 0 0 0 127 0" result="hardAlpha"/>
<feOffset dy="1.46407"/>
<feGaussianBlur stdDeviation="1.61048"/>
<feComposite in2="hardAlpha" operator="out"/>
<feColorMatrix type="matrix" values="0 0 0 0 0.211765 0 0 0 0 0.219608 0 0 0 0 0.431373 0 0 0 0.25 0"/>
<feBlend mode="normal" in2="BackgroundImageFix" result="effect1_dropShadow_2382_1300"/>
<feBlend mode="normal" in="SourceGraphic" in2="effect1_dropShadow_2382_1300" result="shape"/>
</filter>
</defs>
</svg>
