<svg width="635" height="43" viewBox="0 0 635 43" fill="none" xmlns="http://www.w3.org/2000/svg">
	<g filter="url(#filter0_d_3187_7747)">
		<rect x="6" width="32" height="32" rx="16" fill="#E1123D" />
	</g>
	<path d="M29.1109 10.666L19.3331 20.4438L14.8887 15.9993" stroke="white" stroke-width="2.66667" stroke-linecap="round" stroke-linejoin="round" />
	<path d="M51.386 21.5V14.15H52.338V16.152L52.24 15.802C52.4453 15.242 52.7907 14.8173 53.276 14.528C53.7613 14.2293 54.3633 14.08 55.082 14.08V15.046C55.0447 15.046 55.0073 15.046 54.97 15.046C54.9327 15.0367 54.8953 15.032 54.858 15.032C54.0833 15.032 53.4767 15.27 53.038 15.746C52.5993 16.2127 52.38 16.88 52.38 17.748V21.5H51.386ZM59.9494 21.57C59.1841 21.57 58.5121 21.4113 57.9334 21.094C57.3547 20.7673 56.9021 20.324 56.5754 19.764C56.2487 19.1947 56.0854 18.546 56.0854 17.818C56.0854 17.09 56.2394 16.446 56.5474 15.886C56.8647 15.326 57.2941 14.8873 57.8354 14.57C58.3861 14.2433 59.0021 14.08 59.6834 14.08C60.3741 14.08 60.9854 14.2387 61.5174 14.556C62.0587 14.864 62.4834 15.3027 62.7914 15.872C63.0994 16.432 63.2534 17.0807 63.2534 17.818C63.2534 17.8647 63.2487 17.916 63.2394 17.972C63.2394 18.0187 63.2394 18.07 63.2394 18.126H56.8414V17.384H62.7074L62.3154 17.678C62.3154 17.146 62.1987 16.6747 61.9654 16.264C61.7414 15.844 61.4334 15.5173 61.0414 15.284C60.6494 15.0507 60.1967 14.934 59.6834 14.934C59.1794 14.934 58.7267 15.0507 58.3254 15.284C57.9241 15.5173 57.6114 15.844 57.3874 16.264C57.1634 16.684 57.0514 17.1647 57.0514 17.706V17.86C57.0514 18.42 57.1727 18.9147 57.4154 19.344C57.6674 19.764 58.0127 20.0953 58.4514 20.338C58.8994 20.5713 59.4081 20.688 59.9774 20.688C60.4254 20.688 60.8407 20.6087 61.2234 20.45C61.6154 20.2913 61.9514 20.0487 62.2314 19.722L62.7914 20.366C62.4647 20.758 62.0541 21.0567 61.5594 21.262C61.0741 21.4673 60.5374 21.57 59.9494 21.57ZM69.6775 21.5V19.876L69.6355 19.61V16.894C69.6355 16.2687 69.4582 15.788 69.1035 15.452C68.7582 15.116 68.2402 14.948 67.5495 14.948C67.0735 14.948 66.6209 15.0273 66.1915 15.186C65.7622 15.3447 65.3982 15.5547 65.0995 15.816L64.6515 15.074C65.0249 14.7567 65.4729 14.514 65.9955 14.346C66.5182 14.1687 67.0689 14.08 67.6475 14.08C68.5995 14.08 69.3322 14.318 69.8455 14.794C70.3682 15.2607 70.6295 15.9747 70.6295 16.936V21.5H69.6775ZM67.1435 21.57C66.5929 21.57 66.1122 21.4813 65.7015 21.304C65.3002 21.1173 64.9922 20.8653 64.7775 20.548C64.5629 20.2213 64.4555 19.848 64.4555 19.428C64.4555 19.0453 64.5442 18.7 64.7215 18.392C64.9082 18.0747 65.2069 17.8227 65.6175 17.636C66.0375 17.44 66.5975 17.342 67.2975 17.342H69.8315V18.084H67.3255C66.6162 18.084 66.1215 18.21 65.8415 18.462C65.5709 18.714 65.4355 19.0267 65.4355 19.4C65.4355 19.82 65.5989 20.156 65.9255 20.408C66.2522 20.66 66.7095 20.786 67.2975 20.786C67.8575 20.786 68.3382 20.66 68.7395 20.408C69.1502 20.1467 69.4489 19.7733 69.6355 19.288L69.8595 19.974C69.6729 20.4593 69.3462 20.8467 68.8795 21.136C68.4222 21.4253 67.8435 21.57 67.1435 21.57ZM75.3034 21.57C74.6967 21.57 74.1227 21.486 73.5814 21.318C73.04 21.1407 72.6154 20.9213 72.3074 20.66L72.7554 19.876C73.054 20.1 73.4367 20.296 73.9034 20.464C74.37 20.6227 74.86 20.702 75.3734 20.702C76.0734 20.702 76.5774 20.5947 76.8854 20.38C77.1934 20.156 77.3474 19.862 77.3474 19.498C77.3474 19.2273 77.2587 19.0173 77.0814 18.868C76.9134 18.7093 76.6894 18.5927 76.4094 18.518C76.1294 18.434 75.8167 18.364 75.4714 18.308C75.126 18.252 74.7807 18.1867 74.4354 18.112C74.0994 18.0373 73.7914 17.93 73.5114 17.79C73.2314 17.6407 73.0027 17.44 72.8254 17.188C72.6574 16.936 72.5734 16.6 72.5734 16.18C72.5734 15.7787 72.6854 15.4193 72.9094 15.102C73.1334 14.7847 73.46 14.5373 73.8894 14.36C74.328 14.1733 74.86 14.08 75.4854 14.08C75.9614 14.08 76.4374 14.1453 76.9134 14.276C77.3894 14.3973 77.7814 14.5607 78.0894 14.766L77.6554 15.564C77.3287 15.34 76.9787 15.1813 76.6054 15.088C76.232 14.9853 75.8587 14.934 75.4854 14.934C74.8227 14.934 74.3327 15.0507 74.0154 15.284C73.7074 15.508 73.5534 15.7973 73.5534 16.152C73.5534 16.432 73.6374 16.6513 73.8054 16.81C73.9827 16.9687 74.2114 17.0947 74.4914 17.188C74.7807 17.272 75.0934 17.342 75.4294 17.398C75.7747 17.454 76.1154 17.524 76.4514 17.608C76.7967 17.6827 77.1094 17.79 77.3894 17.93C77.6787 18.0607 77.9074 18.252 78.0754 18.504C78.2527 18.7467 78.3414 19.0687 78.3414 19.47C78.3414 19.8993 78.22 20.2727 77.9774 20.59C77.744 20.898 77.3987 21.1407 76.9414 21.318C76.4934 21.486 75.9474 21.57 75.3034 21.57ZM83.1613 21.57C82.452 21.57 81.8126 21.4113 81.2433 21.094C80.6833 20.7673 80.24 20.324 79.9133 19.764C79.5866 19.1947 79.4233 18.546 79.4233 17.818C79.4233 17.0807 79.5866 16.432 79.9133 15.872C80.24 15.312 80.6833 14.8733 81.2433 14.556C81.8033 14.2387 82.4426 14.08 83.1613 14.08C83.8893 14.08 84.5333 14.2387 85.0933 14.556C85.6626 14.8733 86.106 15.312 86.4233 15.872C86.75 16.432 86.9133 17.0807 86.9133 17.818C86.9133 18.546 86.75 19.1947 86.4233 19.764C86.106 20.324 85.6626 20.7673 85.0933 21.094C84.524 21.4113 83.88 21.57 83.1613 21.57ZM83.1613 20.688C83.6933 20.688 84.1646 20.5713 84.5753 20.338C84.986 20.0953 85.308 19.7593 85.5413 19.33C85.784 18.8913 85.9053 18.3873 85.9053 17.818C85.9053 17.2393 85.784 16.7353 85.5413 16.306C85.308 15.8767 84.986 15.5453 84.5753 15.312C84.1646 15.0693 83.698 14.948 83.1753 14.948C82.6526 14.948 82.186 15.0693 81.7753 15.312C81.3646 15.5453 81.038 15.8767 80.7953 16.306C80.5526 16.7353 80.4313 17.2393 80.4313 17.818C80.4313 18.3873 80.5526 18.8913 80.7953 19.33C81.038 19.7593 81.3646 20.0953 81.7753 20.338C82.186 20.5713 82.648 20.688 83.1613 20.688ZM92.6946 14.08C93.292 14.08 93.8146 14.1967 94.2626 14.43C94.72 14.654 95.0746 14.9993 95.3266 15.466C95.588 15.9327 95.7186 16.5207 95.7186 17.23V21.5H94.7246V17.328C94.7246 16.5533 94.5286 15.97 94.1366 15.578C93.754 15.1767 93.2126 14.976 92.5126 14.976C91.99 14.976 91.5326 15.0833 91.1406 15.298C90.758 15.5033 90.4593 15.8067 90.2446 16.208C90.0393 16.6 89.9366 17.076 89.9366 17.636V21.5H88.9426V14.15H89.8946V16.166L89.7406 15.788C89.974 15.256 90.3473 14.8407 90.8606 14.542C91.374 14.234 91.9853 14.08 92.6946 14.08ZM102.236 21.5V13.226C102.236 12.5727 102.427 12.0453 102.81 11.644C103.192 11.2427 103.743 11.042 104.462 11.042C104.742 11.042 105.012 11.0793 105.274 11.154C105.535 11.2287 105.754 11.3453 105.932 11.504L105.596 12.246C105.456 12.1247 105.292 12.036 105.106 11.98C104.919 11.9147 104.718 11.882 104.504 11.882C104.084 11.882 103.762 11.9987 103.538 12.232C103.314 12.4653 103.202 12.8107 103.202 13.268V14.388L103.23 14.85V21.5H102.236ZM100.92 14.976V14.15H105.47V14.976H100.92ZM109.685 21.57C108.975 21.57 108.336 21.4113 107.767 21.094C107.207 20.7673 106.763 20.324 106.437 19.764C106.11 19.1947 105.947 18.546 105.947 17.818C105.947 17.0807 106.11 16.432 106.437 15.872C106.763 15.312 107.207 14.8733 107.767 14.556C108.327 14.2387 108.966 14.08 109.685 14.08C110.413 14.08 111.057 14.2387 111.617 14.556C112.186 14.8733 112.629 15.312 112.947 15.872C113.273 16.432 113.437 17.0807 113.437 17.818C113.437 18.546 113.273 19.1947 112.947 19.764C112.629 20.324 112.186 20.7673 111.617 21.094C111.047 21.4113 110.403 21.57 109.685 21.57ZM109.685 20.688C110.217 20.688 110.688 20.5713 111.099 20.338C111.509 20.0953 111.831 19.7593 112.065 19.33C112.307 18.8913 112.429 18.3873 112.429 17.818C112.429 17.2393 112.307 16.7353 112.065 16.306C111.831 15.8767 111.509 15.5453 111.099 15.312C110.688 15.0693 110.221 14.948 109.699 14.948C109.176 14.948 108.709 15.0693 108.299 15.312C107.888 15.5453 107.561 15.8767 107.319 16.306C107.076 16.7353 106.955 17.2393 106.955 17.818C106.955 18.3873 107.076 18.8913 107.319 19.33C107.561 19.7593 107.888 20.0953 108.299 20.338C108.709 20.5713 109.171 20.688 109.685 20.688ZM115.466 21.5V14.15H116.418V16.152L116.32 15.802C116.525 15.242 116.871 14.8173 117.356 14.528C117.841 14.2293 118.443 14.08 119.162 14.08V15.046C119.125 15.046 119.087 15.046 119.05 15.046C119.013 15.0367 118.975 15.032 118.938 15.032C118.163 15.032 117.557 15.27 117.118 15.746C116.679 16.2127 116.46 16.88 116.46 17.748V21.5H115.466ZM127.675 21.57C126.975 21.57 126.345 21.4113 125.785 21.094C125.235 20.7767 124.801 20.338 124.483 19.778C124.166 19.2087 124.007 18.5553 124.007 17.818C124.007 17.0713 124.166 16.418 124.483 15.858C124.801 15.298 125.235 14.864 125.785 14.556C126.345 14.2387 126.975 14.08 127.675 14.08C128.319 14.08 128.893 14.2247 129.397 14.514C129.911 14.8033 130.317 15.228 130.615 15.788C130.923 16.3387 131.077 17.0153 131.077 17.818C131.077 18.6113 130.928 19.288 130.629 19.848C130.331 20.408 129.925 20.8373 129.411 21.136C128.907 21.4253 128.329 21.57 127.675 21.57ZM127.745 20.688C128.268 20.688 128.735 20.5713 129.145 20.338C129.565 20.0953 129.892 19.7593 130.125 19.33C130.368 18.8913 130.489 18.3873 130.489 17.818C130.489 17.2393 130.368 16.7353 130.125 16.306C129.892 15.8767 129.565 15.5453 129.145 15.312C128.735 15.0693 128.268 14.948 127.745 14.948C127.232 14.948 126.77 15.0693 126.359 15.312C125.949 15.5453 125.622 15.8767 125.379 16.306C125.137 16.7353 125.015 17.2393 125.015 17.818C125.015 18.3873 125.137 18.8913 125.379 19.33C125.622 19.7593 125.949 20.0953 126.359 20.338C126.77 20.5713 127.232 20.688 127.745 20.688ZM130.517 21.5V19.288L130.615 17.804L130.475 16.32V11.112H131.469V21.5H130.517ZM137.234 21.57C136.524 21.57 135.885 21.4113 135.316 21.094C134.756 20.7673 134.312 20.324 133.986 19.764C133.659 19.1947 133.496 18.546 133.496 17.818C133.496 17.0807 133.659 16.432 133.986 15.872C134.312 15.312 134.756 14.8733 135.316 14.556C135.876 14.2387 136.515 14.08 137.234 14.08C137.962 14.08 138.606 14.2387 139.166 14.556C139.735 14.8733 140.178 15.312 140.496 15.872C140.822 16.432 140.986 17.0807 140.986 17.818C140.986 18.546 140.822 19.1947 140.496 19.764C140.178 20.324 139.735 20.7673 139.166 21.094C138.596 21.4113 137.952 21.57 137.234 21.57ZM137.234 20.688C137.766 20.688 138.237 20.5713 138.648 20.338C139.058 20.0953 139.38 19.7593 139.614 19.33C139.856 18.8913 139.978 18.3873 139.978 17.818C139.978 17.2393 139.856 16.7353 139.614 16.306C139.38 15.8767 139.058 15.5453 138.648 15.312C138.237 15.0693 137.77 14.948 137.248 14.948C136.725 14.948 136.258 15.0693 135.848 15.312C135.437 15.5453 135.11 15.8767 134.868 16.306C134.625 16.7353 134.504 17.2393 134.504 17.818C134.504 18.3873 134.625 18.8913 134.868 19.33C135.11 19.7593 135.437 20.0953 135.848 20.338C136.258 20.5713 136.72 20.688 137.234 20.688ZM144.308 21.5L141.536 14.15H142.488L145.008 20.968H144.574L147.164 14.15H148.018L150.58 20.968H150.146L152.708 14.15H153.618L150.832 21.5H149.894L147.43 15.088H147.724L145.246 21.5H144.308ZM158.867 14.08C159.464 14.08 159.987 14.1967 160.435 14.43C160.892 14.654 161.247 14.9993 161.499 15.466C161.76 15.9327 161.891 16.5207 161.891 17.23V21.5H160.897V17.328C160.897 16.5533 160.701 15.97 160.309 15.578C159.926 15.1767 159.385 14.976 158.685 14.976C158.162 14.976 157.705 15.0833 157.313 15.298C156.93 15.5033 156.631 15.8067 156.417 16.208C156.211 16.6 156.109 17.076 156.109 17.636V21.5H155.115V14.15H156.067V16.166L155.913 15.788C156.146 15.256 156.519 14.8407 157.033 14.542C157.546 14.234 158.157 14.08 158.867 14.08ZM167.711 24.286C167.039 24.286 166.395 24.188 165.779 23.992C165.163 23.796 164.664 23.516 164.281 23.152L164.785 22.396C165.131 22.704 165.555 22.9467 166.059 23.124C166.573 23.3107 167.114 23.404 167.683 23.404C168.617 23.404 169.303 23.1847 169.741 22.746C170.18 22.3167 170.399 21.6447 170.399 20.73V18.896L170.539 17.636L170.441 16.376V14.15H171.393V20.604C171.393 21.8733 171.081 22.802 170.455 23.39C169.839 23.9873 168.925 24.286 167.711 24.286ZM167.529 21.22C166.829 21.22 166.199 21.0707 165.639 20.772C165.079 20.464 164.636 20.0393 164.309 19.498C163.992 18.9567 163.833 18.336 163.833 17.636C163.833 16.936 163.992 16.32 164.309 15.788C164.636 15.2467 165.079 14.8267 165.639 14.528C166.199 14.2293 166.829 14.08 167.529 14.08C168.183 14.08 168.771 14.2153 169.293 14.486C169.816 14.7567 170.231 15.158 170.539 15.69C170.847 16.222 171.001 16.8707 171.001 17.636C171.001 18.4013 170.847 19.05 170.539 19.582C170.231 20.114 169.816 20.52 169.293 20.8C168.771 21.08 168.183 21.22 167.529 21.22ZM167.627 20.338C168.169 20.338 168.649 20.226 169.069 20.002C169.489 19.7687 169.821 19.4513 170.063 19.05C170.306 18.6393 170.427 18.168 170.427 17.636C170.427 17.104 170.306 16.6373 170.063 16.236C169.821 15.8347 169.489 15.522 169.069 15.298C168.649 15.0647 168.169 14.948 167.627 14.948C167.095 14.948 166.615 15.0647 166.185 15.298C165.765 15.522 165.434 15.8347 165.191 16.236C164.958 16.6373 164.841 17.104 164.841 17.636C164.841 18.168 164.958 18.6393 165.191 19.05C165.434 19.4513 165.765 19.7687 166.185 20.002C166.615 20.226 167.095 20.338 167.627 20.338ZM174.159 21.5V14.15H175.111V16.152L175.013 15.802C175.219 15.242 175.564 14.8173 176.049 14.528C176.535 14.2293 177.137 14.08 177.855 14.08V15.046C177.818 15.046 177.781 15.046 177.743 15.046C177.706 15.0367 177.669 15.032 177.631 15.032C176.857 15.032 176.25 15.27 175.811 15.746C175.373 16.2127 175.153 16.88 175.153 17.748V21.5H174.159ZM183.728 21.5V19.876L183.686 19.61V16.894C183.686 16.2687 183.509 15.788 183.154 15.452C182.809 15.116 182.291 14.948 181.6 14.948C181.124 14.948 180.672 15.0273 180.242 15.186C179.813 15.3447 179.449 15.5547 179.15 15.816L178.702 15.074C179.076 14.7567 179.524 14.514 180.046 14.346C180.569 14.1687 181.12 14.08 181.698 14.08C182.65 14.08 183.383 14.318 183.896 14.794C184.419 15.2607 184.68 15.9747 184.68 16.936V21.5H183.728ZM181.194 21.57C180.644 21.57 180.163 21.4813 179.752 21.304C179.351 21.1173 179.043 20.8653 178.828 20.548C178.614 20.2213 178.506 19.848 178.506 19.428C178.506 19.0453 178.595 18.7 178.772 18.392C178.959 18.0747 179.258 17.8227 179.668 17.636C180.088 17.44 180.648 17.342 181.348 17.342H183.882V18.084H181.376C180.667 18.084 180.172 18.21 179.892 18.462C179.622 18.714 179.486 19.0267 179.486 19.4C179.486 19.82 179.65 20.156 179.976 20.408C180.303 20.66 180.76 20.786 181.348 20.786C181.908 20.786 182.389 20.66 182.79 20.408C183.201 20.1467 183.5 19.7733 183.686 19.288L183.91 19.974C183.724 20.4593 183.397 20.8467 182.93 21.136C182.473 21.4253 181.894 21.57 181.194 21.57ZM190.306 21.57C189.606 21.57 188.976 21.4113 188.416 21.094C187.865 20.7767 187.431 20.338 187.114 19.778C186.797 19.2087 186.638 18.5553 186.638 17.818C186.638 17.0713 186.797 16.418 187.114 15.858C187.431 15.298 187.865 14.864 188.416 14.556C188.976 14.2387 189.606 14.08 190.306 14.08C190.95 14.08 191.524 14.2247 192.028 14.514C192.541 14.8033 192.947 15.228 193.246 15.788C193.554 16.3387 193.708 17.0153 193.708 17.818C193.708 18.6113 193.559 19.288 193.26 19.848C192.961 20.408 192.555 20.8373 192.042 21.136C191.538 21.4253 190.959 21.57 190.306 21.57ZM190.376 20.688C190.899 20.688 191.365 20.5713 191.776 20.338C192.196 20.0953 192.523 19.7593 192.756 19.33C192.999 18.8913 193.12 18.3873 193.12 17.818C193.12 17.2393 192.999 16.7353 192.756 16.306C192.523 15.8767 192.196 15.5453 191.776 15.312C191.365 15.0693 190.899 14.948 190.376 14.948C189.863 14.948 189.401 15.0693 188.99 15.312C188.579 15.5453 188.253 15.8767 188.01 16.306C187.767 16.7353 187.646 17.2393 187.646 17.818C187.646 18.3873 187.767 18.8913 188.01 19.33C188.253 19.7593 188.579 20.0953 188.99 20.338C189.401 20.5713 189.863 20.688 190.376 20.688ZM193.148 21.5V19.288L193.246 17.804L193.106 16.32V11.112H194.1V21.5H193.148ZM199.99 21.57C199.225 21.57 198.553 21.4113 197.974 21.094C197.396 20.7673 196.943 20.324 196.616 19.764C196.29 19.1947 196.126 18.546 196.126 17.818C196.126 17.09 196.28 16.446 196.588 15.886C196.906 15.326 197.335 14.8873 197.876 14.57C198.427 14.2433 199.043 14.08 199.724 14.08C200.415 14.08 201.026 14.2387 201.558 14.556C202.1 14.864 202.524 15.3027 202.832 15.872C203.14 16.432 203.294 17.0807 203.294 17.818C203.294 17.8647 203.29 17.916 203.28 17.972C203.28 18.0187 203.28 18.07 203.28 18.126H196.882V17.384H202.748L202.356 17.678C202.356 17.146 202.24 16.6747 202.006 16.264C201.782 15.844 201.474 15.5173 201.082 15.284C200.69 15.0507 200.238 14.934 199.724 14.934C199.22 14.934 198.768 15.0507 198.366 15.284C197.965 15.5173 197.652 15.844 197.428 16.264C197.204 16.684 197.092 17.1647 197.092 17.706V17.86C197.092 18.42 197.214 18.9147 197.456 19.344C197.708 19.764 198.054 20.0953 198.492 20.338C198.94 20.5713 199.449 20.688 200.018 20.688C200.466 20.688 200.882 20.6087 201.264 20.45C201.656 20.2913 201.992 20.0487 202.272 19.722L202.832 20.366C202.506 20.758 202.095 21.0567 201.6 21.262C201.115 21.4673 200.578 21.57 199.99 21.57Z" fill="#FAFAFF" />
	<rect x="216" y="15.5" width="40" height="1" fill="#767676" />
	<path d="M314.8 22L312.056 14.524H313.708L316.06 21.118H315.276L317.74 14.524H319.21L321.604 21.118H320.834L323.256 14.524H324.81L322.052 22H320.372L318.188 16.162H318.706L316.48 22H314.8ZM330.255 14.44C330.853 14.44 331.385 14.5567 331.851 14.79C332.327 15.0233 332.701 15.3827 332.971 15.868C333.242 16.344 333.377 16.96 333.377 17.716V22H331.627V17.94C331.627 17.2773 331.469 16.7827 331.151 16.456C330.843 16.1293 330.409 15.966 329.849 15.966C329.439 15.966 329.075 16.05 328.757 16.218C328.44 16.386 328.193 16.638 328.015 16.974C327.847 17.3007 327.763 17.716 327.763 18.22V22H326.013V11.612H327.763V16.54L327.385 15.924C327.647 15.448 328.025 15.084 328.519 14.832C329.023 14.5707 329.602 14.44 330.255 14.44ZM340.203 22V20.488L340.105 20.166V17.52C340.105 17.0067 339.951 16.61 339.643 16.33C339.335 16.0407 338.869 15.896 338.243 15.896C337.823 15.896 337.408 15.9613 336.997 16.092C336.596 16.2227 336.255 16.4047 335.975 16.638L335.289 15.364C335.691 15.056 336.167 14.8273 336.717 14.678C337.277 14.5193 337.856 14.44 338.453 14.44C339.536 14.44 340.371 14.7013 340.959 15.224C341.557 15.7373 341.855 16.5353 341.855 17.618V22H340.203ZM337.851 22.098C337.291 22.098 336.801 22.0047 336.381 21.818C335.961 21.622 335.635 21.356 335.401 21.02C335.177 20.6747 335.065 20.2873 335.065 19.858C335.065 19.438 335.163 19.06 335.359 18.724C335.565 18.388 335.896 18.122 336.353 17.926C336.811 17.73 337.417 17.632 338.173 17.632H340.343V18.794H338.299C337.702 18.794 337.301 18.892 337.095 19.088C336.89 19.2747 336.787 19.508 336.787 19.788C336.787 20.1053 336.913 20.3573 337.165 20.544C337.417 20.7307 337.767 20.824 338.215 20.824C338.645 20.824 339.027 20.726 339.363 20.53C339.709 20.334 339.956 20.0447 340.105 19.662L340.399 20.712C340.231 21.1507 339.928 21.4913 339.489 21.734C339.06 21.9767 338.514 22.098 337.851 22.098ZM346.915 22.098C346.094 22.098 345.459 21.888 345.011 21.468C344.563 21.0387 344.339 20.4087 344.339 19.578V12.872H346.089V19.536C346.089 19.8907 346.178 20.166 346.355 20.362C346.542 20.558 346.798 20.656 347.125 20.656C347.517 20.656 347.844 20.5533 348.105 20.348L348.595 21.594C348.39 21.762 348.138 21.888 347.839 21.972C347.54 22.056 347.232 22.098 346.915 22.098ZM343.107 15.98V14.58H348.091V15.98H343.107ZM355.556 22L352.812 14.524H354.464L356.816 21.118H356.032L358.496 14.524H359.966L362.36 21.118H361.59L364.012 14.524H365.566L362.808 22H361.128L358.944 16.162H359.462L357.236 22H355.556ZM366.769 22V14.524H368.519V22H366.769ZM367.651 13.292C367.324 13.292 367.054 13.1893 366.839 12.984C366.634 12.7787 366.531 12.5313 366.531 12.242C366.531 11.9433 366.634 11.696 366.839 11.5C367.054 11.2947 367.324 11.192 367.651 11.192C367.978 11.192 368.244 11.29 368.449 11.486C368.664 11.6727 368.771 11.9107 368.771 12.2C368.771 12.508 368.668 12.7693 368.463 12.984C368.258 13.1893 367.987 13.292 367.651 13.292ZM370.816 22V11.612H372.566V22H370.816ZM374.863 22V11.612H376.613V22H374.863ZM386.209 22.098C385.425 22.098 384.725 21.9347 384.109 21.608C383.502 21.272 383.026 20.8147 382.681 20.236C382.336 19.6573 382.163 18.9993 382.163 18.262C382.163 17.5153 382.336 16.8573 382.681 16.288C383.026 15.7093 383.502 15.2567 384.109 14.93C384.725 14.6033 385.425 14.44 386.209 14.44C386.937 14.44 387.576 14.5893 388.127 14.888C388.687 15.1773 389.112 15.6067 389.401 16.176L388.057 16.96C387.833 16.6053 387.558 16.344 387.231 16.176C386.914 16.008 386.568 15.924 386.195 15.924C385.766 15.924 385.378 16.0173 385.033 16.204C384.688 16.3907 384.417 16.6613 384.221 17.016C384.025 17.3613 383.927 17.7767 383.927 18.262C383.927 18.7473 384.025 19.1673 384.221 19.522C384.417 19.8673 384.688 20.1333 385.033 20.32C385.378 20.5067 385.766 20.6 386.195 20.6C386.568 20.6 386.914 20.516 387.231 20.348C387.558 20.18 387.833 19.9187 388.057 19.564L389.401 20.348C389.112 20.908 388.687 21.342 388.127 21.65C387.576 21.9487 386.937 22.098 386.209 22.098ZM395.087 14.44C395.685 14.44 396.217 14.5567 396.683 14.79C397.159 15.0233 397.533 15.3827 397.803 15.868C398.074 16.344 398.209 16.96 398.209 17.716V22H396.459V17.94C396.459 17.2773 396.301 16.7827 395.983 16.456C395.675 16.1293 395.241 15.966 394.681 15.966C394.271 15.966 393.907 16.05 393.589 16.218C393.272 16.386 393.025 16.638 392.847 16.974C392.679 17.3007 392.595 17.716 392.595 18.22V22H390.845V11.612H392.595V16.54L392.217 15.924C392.479 15.448 392.857 15.084 393.351 14.832C393.855 14.5707 394.434 14.44 395.087 14.44ZM405.035 22V20.488L404.937 20.166V17.52C404.937 17.0067 404.783 16.61 404.475 16.33C404.167 16.0407 403.701 15.896 403.075 15.896C402.655 15.896 402.24 15.9613 401.829 16.092C401.428 16.2227 401.087 16.4047 400.807 16.638L400.121 15.364C400.523 15.056 400.999 14.8273 401.549 14.678C402.109 14.5193 402.688 14.44 403.285 14.44C404.368 14.44 405.203 14.7013 405.791 15.224C406.389 15.7373 406.687 16.5353 406.687 17.618V22H405.035ZM402.683 22.098C402.123 22.098 401.633 22.0047 401.213 21.818C400.793 21.622 400.467 21.356 400.233 21.02C400.009 20.6747 399.897 20.2873 399.897 19.858C399.897 19.438 399.995 19.06 400.191 18.724C400.397 18.388 400.728 18.122 401.185 17.926C401.643 17.73 402.249 17.632 403.005 17.632H405.175V18.794H403.131C402.534 18.794 402.133 18.892 401.927 19.088C401.722 19.2747 401.619 19.508 401.619 19.788C401.619 20.1053 401.745 20.3573 401.997 20.544C402.249 20.7307 402.599 20.824 403.047 20.824C403.477 20.824 403.859 20.726 404.195 20.53C404.541 20.334 404.788 20.0447 404.937 19.662L405.231 20.712C405.063 21.1507 404.76 21.4913 404.321 21.734C403.892 21.9767 403.346 22.098 402.683 22.098ZM413.175 14.44C413.772 14.44 414.304 14.5567 414.771 14.79C415.247 15.0233 415.62 15.3827 415.891 15.868C416.162 16.344 416.297 16.96 416.297 17.716V22H414.547V17.94C414.547 17.2773 414.388 16.7827 414.071 16.456C413.763 16.1293 413.329 15.966 412.769 15.966C412.358 15.966 411.994 16.05 411.677 16.218C411.36 16.386 411.112 16.638 410.935 16.974C410.767 17.3007 410.683 17.716 410.683 18.22V22H408.933V14.524H410.599V16.54L410.305 15.924C410.566 15.448 410.944 15.084 411.439 14.832C411.943 14.5707 412.522 14.44 413.175 14.44ZM421.919 24.814C421.228 24.814 420.551 24.7207 419.889 24.534C419.235 24.3567 418.699 24.0953 418.279 23.75L419.063 22.434C419.389 22.7047 419.8 22.9193 420.295 23.078C420.799 23.246 421.307 23.33 421.821 23.33C422.642 23.33 423.244 23.1387 423.627 22.756C424.009 22.3827 424.201 21.818 424.201 21.062V19.732L424.341 18.038L424.285 16.344V14.524H425.951V20.866C425.951 22.2193 425.605 23.2133 424.915 23.848C424.224 24.492 423.225 24.814 421.919 24.814ZM421.695 21.664C420.985 21.664 420.341 21.5147 419.763 21.216C419.193 20.908 418.741 20.4833 418.405 19.942C418.078 19.4007 417.915 18.766 417.915 18.038C417.915 17.3193 418.078 16.6893 418.405 16.148C418.741 15.6067 419.193 15.1867 419.763 14.888C420.341 14.5893 420.985 14.44 421.695 14.44C422.329 14.44 422.899 14.566 423.403 14.818C423.907 15.07 424.308 15.462 424.607 15.994C424.915 16.526 425.069 17.2073 425.069 18.038C425.069 18.8687 424.915 19.5547 424.607 20.096C424.308 20.628 423.907 21.0247 423.403 21.286C422.899 21.538 422.329 21.664 421.695 21.664ZM421.961 20.18C422.399 20.18 422.791 20.0913 423.137 19.914C423.482 19.7273 423.748 19.4753 423.935 19.158C424.131 18.8313 424.229 18.458 424.229 18.038C424.229 17.618 424.131 17.2493 423.935 16.932C423.748 16.6053 423.482 16.358 423.137 16.19C422.791 16.0127 422.399 15.924 421.961 15.924C421.522 15.924 421.125 16.0127 420.771 16.19C420.425 16.358 420.155 16.6053 419.959 16.932C419.772 17.2493 419.679 17.618 419.679 18.038C419.679 18.458 419.772 18.8313 419.959 19.158C420.155 19.4753 420.425 19.7273 420.771 19.914C421.125 20.0913 421.522 20.18 421.961 20.18ZM431.766 22.098C430.935 22.098 430.207 21.9347 429.582 21.608C428.966 21.272 428.485 20.8147 428.14 20.236C427.804 19.6573 427.636 18.9993 427.636 18.262C427.636 17.5153 427.799 16.8573 428.126 16.288C428.462 15.7093 428.919 15.2567 429.498 14.93C430.086 14.6033 430.753 14.44 431.5 14.44C432.228 14.44 432.876 14.5987 433.446 14.916C434.015 15.2333 434.463 15.6813 434.79 16.26C435.116 16.8387 435.28 17.52 435.28 18.304C435.28 18.3787 435.275 18.4627 435.266 18.556C435.266 18.6493 435.261 18.738 435.252 18.822H429.022V17.66H434.328L433.642 18.024C433.651 17.5947 433.562 17.2167 433.376 16.89C433.189 16.5633 432.932 16.3067 432.606 16.12C432.288 15.9333 431.92 15.84 431.5 15.84C431.07 15.84 430.692 15.9333 430.366 16.12C430.048 16.3067 429.796 16.568 429.61 16.904C429.432 17.2307 429.344 17.618 429.344 18.066V18.346C429.344 18.794 429.446 19.1907 429.652 19.536C429.857 19.8813 430.146 20.1473 430.52 20.334C430.893 20.5207 431.322 20.614 431.808 20.614C432.228 20.614 432.606 20.5487 432.942 20.418C433.278 20.2873 433.576 20.082 433.838 19.802L434.776 20.88C434.44 21.272 434.015 21.5753 433.502 21.79C432.998 21.9953 432.419 22.098 431.766 22.098Z" fill="#FAFAFF" />
	<path d="M299 16C299 24.2843 292.284 31 284 31C275.716 31 269 24.2843 269 16C269 7.71573 275.716 1 284 1C292.284 1 299 7.71573 299 16Z" stroke="#68EFDA" stroke-width="2" />
	<path d="M284 26C289.523 26 294 21.5228 294 16C294 10.4772 289.523 6 284 6C278.477 6 274 10.4772 274 16C274 21.5228 278.477 26 284 26Z" fill="white" />
	<path d="M280.499 21V19.388L283.905 16.203C284.148 15.9777 284.325 15.7783 284.438 15.605C284.559 15.4317 284.637 15.2757 284.672 15.137C284.715 14.9897 284.737 14.8553 284.737 14.734C284.737 14.4393 284.637 14.2097 284.438 14.045C284.247 13.8803 283.957 13.798 283.567 13.798C283.238 13.798 282.93 13.8717 282.644 14.019C282.358 14.1663 282.124 14.3873 281.942 14.682L280.031 13.616C280.369 13.044 280.859 12.5847 281.5 12.238C282.141 11.8913 282.908 11.718 283.801 11.718C284.503 11.718 285.118 11.8307 285.647 12.056C286.176 12.2813 286.587 12.602 286.882 13.018C287.185 13.434 287.337 13.9237 287.337 14.487C287.337 14.7817 287.298 15.0763 287.22 15.371C287.142 15.657 286.99 15.9647 286.765 16.294C286.548 16.6147 286.223 16.9743 285.79 17.373L283.086 19.869L282.657 18.959H287.584V21H280.499Z" fill="#1D2327" />
	<rect x="448" y="15.5" width="40" height="1" fill="#767676" />
	<path d="M548.438 22.07C547.71 22.07 547.057 21.9113 546.478 21.594C545.909 21.2673 545.461 20.824 545.134 20.264C544.807 19.6947 544.644 19.046 544.644 18.318C544.644 17.5807 544.807 16.932 545.134 16.372C545.461 15.812 545.909 15.3733 546.478 15.056C547.057 14.7387 547.71 14.58 548.438 14.58C549.063 14.58 549.628 14.7013 550.132 14.944C550.636 15.1867 551.033 15.5507 551.322 16.036L550.58 16.54C550.328 16.1667 550.015 15.8913 549.642 15.714C549.269 15.5367 548.863 15.448 548.424 15.448C547.901 15.448 547.43 15.5693 547.01 15.812C546.59 16.0453 546.259 16.3767 546.016 16.806C545.773 17.2353 545.652 17.7393 545.652 18.318C545.652 18.8967 545.773 19.4007 546.016 19.83C546.259 20.2593 546.59 20.5953 547.01 20.838C547.43 21.0713 547.901 21.188 548.424 21.188C548.863 21.188 549.269 21.0993 549.642 20.922C550.015 20.7447 550.328 20.474 550.58 20.11L551.322 20.614C551.033 21.09 550.636 21.454 550.132 21.706C549.628 21.9487 549.063 22.07 548.438 22.07ZM556.148 22.07C555.438 22.07 554.799 21.9113 554.23 21.594C553.67 21.2673 553.226 20.824 552.9 20.264C552.573 19.6947 552.41 19.046 552.41 18.318C552.41 17.5807 552.573 16.932 552.9 16.372C553.226 15.812 553.67 15.3733 554.23 15.056C554.79 14.7387 555.429 14.58 556.148 14.58C556.876 14.58 557.52 14.7387 558.08 15.056C558.649 15.3733 559.092 15.812 559.41 16.372C559.736 16.932 559.9 17.5807 559.9 18.318C559.9 19.046 559.736 19.6947 559.41 20.264C559.092 20.824 558.649 21.2673 558.08 21.594C557.51 21.9113 556.866 22.07 556.148 22.07ZM556.148 21.188C556.68 21.188 557.151 21.0713 557.562 20.838C557.972 20.5953 558.294 20.2593 558.528 19.83C558.77 19.3913 558.892 18.8873 558.892 18.318C558.892 17.7393 558.77 17.2353 558.528 16.806C558.294 16.3767 557.972 16.0453 557.562 15.812C557.151 15.5693 556.684 15.448 556.162 15.448C555.639 15.448 555.172 15.5693 554.762 15.812C554.351 16.0453 554.024 16.3767 553.782 16.806C553.539 17.2353 553.418 17.7393 553.418 18.318C553.418 18.8873 553.539 19.3913 553.782 19.83C554.024 20.2593 554.351 20.5953 554.762 20.838C555.172 21.0713 555.634 21.188 556.148 21.188ZM565.681 14.58C566.278 14.58 566.801 14.6967 567.249 14.93C567.706 15.154 568.061 15.4993 568.313 15.966C568.574 16.4327 568.705 17.0207 568.705 17.73V22H567.711V17.828C567.711 17.0533 567.515 16.47 567.123 16.078C566.74 15.6767 566.199 15.476 565.499 15.476C564.976 15.476 564.519 15.5833 564.127 15.798C563.744 16.0033 563.446 16.3067 563.231 16.708C563.026 17.1 562.923 17.576 562.923 18.136V22H561.929V14.65H562.881V16.666L562.727 16.288C562.96 15.756 563.334 15.3407 563.847 15.042C564.36 14.734 564.972 14.58 565.681 14.58ZM571.558 22V13.726C571.558 13.0727 571.749 12.5453 572.132 12.144C572.515 11.7427 573.065 11.542 573.784 11.542C574.064 11.542 574.335 11.5793 574.596 11.654C574.857 11.7287 575.077 11.8453 575.254 12.004L574.918 12.746C574.778 12.6247 574.615 12.536 574.428 12.48C574.241 12.4147 574.041 12.382 573.826 12.382C573.406 12.382 573.084 12.4987 572.86 12.732C572.636 12.9653 572.524 13.3107 572.524 13.768V14.888L572.552 15.35V22H571.558ZM570.242 15.476V14.65H574.792V15.476H570.242ZM576.136 22V14.65H577.13V22H576.136ZM576.64 13.026C576.435 13.026 576.262 12.956 576.122 12.816C575.982 12.676 575.912 12.508 575.912 12.312C575.912 12.116 575.982 11.9527 576.122 11.822C576.262 11.682 576.435 11.612 576.64 11.612C576.845 11.612 577.018 11.6773 577.158 11.808C577.298 11.9387 577.368 12.102 577.368 12.298C577.368 12.5033 577.298 12.676 577.158 12.816C577.027 12.956 576.855 13.026 576.64 13.026ZM579.921 22V14.65H580.873V16.652L580.775 16.302C580.98 15.742 581.326 15.3173 581.811 15.028C582.296 14.7293 582.898 14.58 583.617 14.58V15.546C583.58 15.546 583.542 15.546 583.505 15.546C583.468 15.5367 583.43 15.532 583.393 15.532C582.618 15.532 582.012 15.77 581.573 16.246C581.134 16.7127 580.915 17.38 580.915 18.248V22H579.921ZM594.615 14.58C595.212 14.58 595.73 14.6967 596.169 14.93C596.617 15.154 596.962 15.4993 597.205 15.966C597.457 16.4327 597.583 17.0207 597.583 17.73V22H596.589V17.828C596.589 17.0533 596.402 16.47 596.029 16.078C595.665 15.6767 595.147 15.476 594.475 15.476C593.971 15.476 593.532 15.5833 593.159 15.798C592.795 16.0033 592.51 16.3067 592.305 16.708C592.109 17.1 592.011 17.576 592.011 18.136V22H591.017V17.828C591.017 17.0533 590.83 16.47 590.457 16.078C590.084 15.6767 589.561 15.476 588.889 15.476C588.394 15.476 587.96 15.5833 587.587 15.798C587.214 16.0033 586.924 16.3067 586.719 16.708C586.523 17.1 586.425 17.576 586.425 18.136V22H585.431V14.65H586.383V16.638L586.229 16.288C586.453 15.756 586.812 15.3407 587.307 15.042C587.811 14.734 588.404 14.58 589.085 14.58C589.804 14.58 590.415 14.762 590.919 15.126C591.423 15.4807 591.75 16.0173 591.899 16.736L591.507 16.582C591.722 15.9847 592.1 15.504 592.641 15.14C593.192 14.7667 593.85 14.58 594.615 14.58ZM604.885 22V20.376L604.843 20.11V17.394C604.843 16.7687 604.665 16.288 604.311 15.952C603.965 15.616 603.447 15.448 602.757 15.448C602.281 15.448 601.828 15.5273 601.399 15.686C600.969 15.8447 600.605 16.0547 600.307 16.316L599.859 15.574C600.232 15.2567 600.68 15.014 601.203 14.846C601.725 14.6687 602.276 14.58 602.855 14.58C603.807 14.58 604.539 14.818 605.053 15.294C605.575 15.7607 605.837 16.4747 605.837 17.436V22H604.885ZM602.351 22.07C601.8 22.07 601.319 21.9813 600.909 21.804C600.507 21.6173 600.199 21.3653 599.985 21.048C599.77 20.7213 599.663 20.348 599.663 19.928C599.663 19.5453 599.751 19.2 599.929 18.892C600.115 18.5747 600.414 18.3227 600.825 18.136C601.245 17.94 601.805 17.842 602.505 17.842H605.039V18.584H602.533C601.823 18.584 601.329 18.71 601.049 18.962C600.778 19.214 600.643 19.5267 600.643 19.9C600.643 20.32 600.806 20.656 601.133 20.908C601.459 21.16 601.917 21.286 602.505 21.286C603.065 21.286 603.545 21.16 603.947 20.908C604.357 20.6467 604.656 20.2733 604.843 19.788L605.067 20.474C604.88 20.9593 604.553 21.3467 604.087 21.636C603.629 21.9253 603.051 22.07 602.351 22.07ZM610.86 22.07C610.17 22.07 609.638 21.8833 609.264 21.51C608.891 21.1367 608.704 20.6093 608.704 19.928V13.026H609.698V19.872C609.698 20.3013 609.806 20.6327 610.02 20.866C610.244 21.0993 610.562 21.216 610.972 21.216C611.411 21.216 611.775 21.09 612.064 20.838L612.414 21.552C612.218 21.7293 611.98 21.86 611.7 21.944C611.43 22.028 611.15 22.07 610.86 22.07ZM607.388 15.476V14.65H611.938V15.476H607.388ZM614.224 22V14.65H615.218V22H614.224ZM614.728 13.026C614.523 13.026 614.35 12.956 614.21 12.816C614.07 12.676 614 12.508 614 12.312C614 12.116 614.07 11.9527 614.21 11.822C614.35 11.682 614.523 11.612 614.728 11.612C614.933 11.612 615.106 11.6773 615.246 11.808C615.386 11.9387 615.456 12.102 615.456 12.298C615.456 12.5033 615.386 12.676 615.246 12.816C615.115 12.956 614.943 13.026 614.728 13.026ZM620.98 22.07C620.27 22.07 619.631 21.9113 619.062 21.594C618.502 21.2673 618.058 20.824 617.732 20.264C617.405 19.6947 617.242 19.046 617.242 18.318C617.242 17.5807 617.405 16.932 617.732 16.372C618.058 15.812 618.502 15.3733 619.062 15.056C619.622 14.7387 620.261 14.58 620.98 14.58C621.708 14.58 622.352 14.7387 622.912 15.056C623.481 15.3733 623.924 15.812 624.242 16.372C624.568 16.932 624.732 17.5807 624.732 18.318C624.732 19.046 624.568 19.6947 624.242 20.264C623.924 20.824 623.481 21.2673 622.912 21.594C622.342 21.9113 621.698 22.07 620.98 22.07ZM620.98 21.188C621.512 21.188 621.983 21.0713 622.394 20.838C622.804 20.5953 623.126 20.2593 623.36 19.83C623.602 19.3913 623.724 18.8873 623.724 18.318C623.724 17.7393 623.602 17.2353 623.36 16.806C623.126 16.3767 622.804 16.0453 622.394 15.812C621.983 15.5693 621.516 15.448 620.994 15.448C620.471 15.448 620.004 15.5693 619.594 15.812C619.183 16.0453 618.856 16.3767 618.614 16.806C618.371 17.2353 618.25 17.7393 618.25 18.318C618.25 18.8873 618.371 19.3913 618.614 19.83C618.856 20.2593 619.183 20.5953 619.594 20.838C620.004 21.0713 620.466 21.188 620.98 21.188ZM630.513 14.58C631.11 14.58 631.633 14.6967 632.081 14.93C632.538 15.154 632.893 15.4993 633.145 15.966C633.406 16.4327 633.537 17.0207 633.537 17.73V22H632.543V17.828C632.543 17.0533 632.347 16.47 631.955 16.078C631.572 15.6767 631.031 15.476 630.331 15.476C629.808 15.476 629.351 15.5833 628.959 15.798C628.576 16.0033 628.278 16.3067 628.063 16.708C627.858 17.1 627.755 17.576 627.755 18.136V22H626.761V14.65H627.713V16.666L627.559 16.288C627.792 15.756 628.166 15.3407 628.679 15.042C629.192 14.734 629.804 14.58 630.513 14.58Z" fill="#68EFDA" />
	<path d="M531.5 16C531.5 24.5604 524.56 31.5 516 31.5C507.44 31.5 500.5 24.5604 500.5 16C500.5 7.43959 507.44 0.5 516 0.5C524.56 0.5 531.5 7.43959 531.5 16Z" stroke="#68EFDA" />
	<path d="M515.724 21.078C515.065 21.078 514.441 20.974 513.852 20.766C513.271 20.5493 512.803 20.2633 512.448 19.908L512.903 19.167C513.198 19.4703 513.592 19.7217 514.086 19.921C514.589 20.1203 515.135 20.22 515.724 20.22C516.478 20.22 517.054 20.0553 517.453 19.726C517.86 19.3967 518.064 18.9547 518.064 18.4C518.064 17.8453 517.865 17.4033 517.466 17.074C517.076 16.7447 516.456 16.58 515.607 16.58H514.957V15.891L517.765 12.368L517.895 12.732H512.825V11.9H518.675V12.563L515.867 16.086L515.412 15.787H515.763C516.855 15.787 517.67 16.0297 518.207 16.515C518.753 17.0003 519.026 17.6243 519.026 18.387C519.026 18.8983 518.905 19.3577 518.662 19.765C518.419 20.1723 518.051 20.493 517.557 20.727C517.072 20.961 516.461 21.078 515.724 21.078Z" fill="#68EFDA" />
	<defs>
		<filter id="filter0_d_3187_7747" x="0.666667" y="0" width="42.6667" height="42.6667" filterUnits="userSpaceOnUse" color-interpolation-filters="sRGB">
			<feFlood flood-opacity="0" result="BackgroundImageFix" />
			<feColorMatrix in="SourceAlpha" type="matrix" values="0 0 0 0 0 0 0 0 0 0 0 0 0 0 0 0 0 0 127 0" result="hardAlpha" />
			<feOffset dy="5.33333" />
			<feGaussianBlur stdDeviation="2.66667" />
			<feComposite in2="hardAlpha" operator="out" />
			<feColorMatrix type="matrix" values="0 0 0 0 0 0 0 0 0 0 0 0 0 0 0 0 0 0 0.1 0" />
			<feBlend mode="normal" in2="BackgroundImageFix" result="effect1_dropShadow_3187_7747" />
			<feBlend mode="normal" in="SourceGraphic" in2="effect1_dropShadow_3187_7747" result="shape" />
		</filter>
	</defs>
</svg>