<svg width="630" height="32" viewBox="0 0 630 32" fill="none" xmlns="http://www.w3.org/2000/svg">
	<path d="M45.148 22V14.524H46.814V16.582L46.618 15.98C46.842 15.476 47.192 15.0933 47.668 14.832C48.1533 14.5707 48.7553 14.44 49.474 14.44V16.106C49.3993 16.0873 49.3293 16.078 49.264 16.078C49.1987 16.0687 49.1333 16.064 49.068 16.064C48.4053 16.064 47.878 16.26 47.486 16.652C47.094 17.0347 46.898 17.6087 46.898 18.374V22H45.148ZM54.4042 22.098C53.5735 22.098 52.8455 21.9347 52.2202 21.608C51.6042 21.272 51.1235 20.8147 50.7782 20.236C50.4422 19.6573 50.2742 18.9993 50.2742 18.262C50.2742 17.5153 50.4375 16.8573 50.7642 16.288C51.1002 15.7093 51.5575 15.2567 52.1362 14.93C52.7242 14.6033 53.3915 14.44 54.1382 14.44C54.8662 14.44 55.5149 14.5987 56.0842 14.916C56.6535 15.2333 57.1015 15.6813 57.4282 16.26C57.7549 16.8387 57.9182 17.52 57.9182 18.304C57.9182 18.3787 57.9135 18.4627 57.9042 18.556C57.9042 18.6493 57.8995 18.738 57.8902 18.822H51.6602V17.66H56.9662L56.2802 18.024C56.2895 17.5947 56.2009 17.2167 56.0142 16.89C55.8275 16.5633 55.5709 16.3067 55.2442 16.12C54.9269 15.9333 54.5582 15.84 54.1382 15.84C53.7089 15.84 53.3309 15.9333 53.0042 16.12C52.6869 16.3067 52.4349 16.568 52.2482 16.904C52.0709 17.2307 51.9822 17.618 51.9822 18.066V18.346C51.9822 18.794 52.0849 19.1907 52.2902 19.536C52.4955 19.8813 52.7849 20.1473 53.1582 20.334C53.5315 20.5207 53.9609 20.614 54.4462 20.614C54.8662 20.614 55.2442 20.5487 55.5802 20.418C55.9162 20.2873 56.2149 20.082 56.4762 19.802L57.4142 20.88C57.0782 21.272 56.6535 21.5753 56.1402 21.79C55.6362 21.9953 55.0575 22.098 54.4042 22.098ZM64.0001 22V20.488L63.9021 20.166V17.52C63.9021 17.0067 63.7481 16.61 63.4401 16.33C63.1321 16.0407 62.6654 15.896 62.0401 15.896C61.6201 15.896 61.2048 15.9613 60.7941 16.092C60.3928 16.2227 60.0521 16.4047 59.7721 16.638L59.0861 15.364C59.4874 15.056 59.9634 14.8273 60.5141 14.678C61.0741 14.5193 61.6528 14.44 62.2501 14.44C63.3328 14.44 64.1681 14.7013 64.7561 15.224C65.3534 15.7373 65.6521 16.5353 65.6521 17.618V22H64.0001ZM61.6481 22.098C61.0881 22.098 60.5981 22.0047 60.1781 21.818C59.7581 21.622 59.4314 21.356 59.1981 21.02C58.9741 20.6747 58.8621 20.2873 58.8621 19.858C58.8621 19.438 58.9601 19.06 59.1561 18.724C59.3614 18.388 59.6928 18.122 60.1501 17.926C60.6074 17.73 61.2141 17.632 61.9701 17.632H64.1401V18.794H62.0961C61.4988 18.794 61.0974 18.892 60.8921 19.088C60.6868 19.2747 60.5841 19.508 60.5841 19.788C60.5841 20.1053 60.7101 20.3573 60.9621 20.544C61.2141 20.7307 61.5641 20.824 62.0121 20.824C62.4414 20.824 62.8241 20.726 63.1601 20.53C63.5054 20.334 63.7528 20.0447 63.9021 19.662L64.1961 20.712C64.0281 21.1507 63.7248 21.4913 63.2861 21.734C62.8568 21.9767 62.3108 22.098 61.6481 22.098ZM70.208 22.098C69.5827 22.098 68.9807 22.0187 68.402 21.86C67.8327 21.692 67.38 21.4913 67.044 21.258L67.716 19.928C68.052 20.1427 68.4533 20.32 68.92 20.46C69.3867 20.6 69.8533 20.67 70.32 20.67C70.8707 20.67 71.2673 20.5953 71.51 20.446C71.762 20.2967 71.888 20.096 71.888 19.844C71.888 19.6387 71.804 19.4847 71.636 19.382C71.468 19.27 71.2487 19.186 70.978 19.13C70.7073 19.074 70.404 19.0227 70.068 18.976C69.7413 18.9293 69.41 18.8687 69.074 18.794C68.7473 18.71 68.4487 18.5933 68.178 18.444C67.9073 18.2853 67.688 18.0753 67.52 17.814C67.352 17.5527 67.268 17.2073 67.268 16.778C67.268 16.302 67.4033 15.8913 67.674 15.546C67.9447 15.1913 68.3227 14.9207 68.808 14.734C69.3027 14.538 69.886 14.44 70.558 14.44C71.062 14.44 71.5707 14.496 72.084 14.608C72.5973 14.72 73.022 14.8787 73.358 15.084L72.686 16.414C72.3313 16.1993 71.972 16.0547 71.608 15.98C71.2533 15.896 70.8987 15.854 70.544 15.854C70.012 15.854 69.6153 15.9333 69.354 16.092C69.102 16.2507 68.976 16.4513 68.976 16.694C68.976 16.918 69.06 17.086 69.228 17.198C69.396 17.31 69.6153 17.3987 69.886 17.464C70.1567 17.5293 70.4553 17.5853 70.782 17.632C71.118 17.6693 71.4493 17.73 71.776 17.814C72.1027 17.898 72.4013 18.0147 72.672 18.164C72.952 18.304 73.176 18.5047 73.344 18.766C73.512 19.0273 73.596 19.368 73.596 19.788C73.596 20.2547 73.456 20.6607 73.176 21.006C72.9053 21.3513 72.518 21.622 72.014 21.818C71.51 22.0047 70.908 22.098 70.208 22.098ZM78.4631 22.098C77.6977 22.098 77.0164 21.9347 76.4191 21.608C75.8217 21.272 75.3504 20.8147 75.0051 20.236C74.6597 19.6573 74.4871 18.9993 74.4871 18.262C74.4871 17.5153 74.6597 16.8573 75.0051 16.288C75.3504 15.7093 75.8217 15.2567 76.4191 14.93C77.0164 14.6033 77.6977 14.44 78.4631 14.44C79.2377 14.44 79.9237 14.6033 80.5211 14.93C81.1277 15.2567 81.5991 15.7047 81.9351 16.274C82.2804 16.8433 82.4531 17.506 82.4531 18.262C82.4531 18.9993 82.2804 19.6573 81.9351 20.236C81.5991 20.8147 81.1277 21.272 80.5211 21.608C79.9237 21.9347 79.2377 22.098 78.4631 22.098ZM78.4631 20.6C78.8924 20.6 79.2751 20.5067 79.6111 20.32C79.9471 20.1333 80.2084 19.8627 80.3951 19.508C80.5911 19.1533 80.6891 18.738 80.6891 18.262C80.6891 17.7767 80.5911 17.3613 80.3951 17.016C80.2084 16.6613 79.9471 16.3907 79.6111 16.204C79.2751 16.0173 78.8971 15.924 78.4771 15.924C78.0477 15.924 77.6651 16.0173 77.3291 16.204C77.0024 16.3907 76.7411 16.6613 76.5451 17.016C76.3491 17.3613 76.2511 17.7767 76.2511 18.262C76.2511 18.738 76.3491 19.1533 76.5451 19.508C76.7411 19.8627 77.0024 20.1333 77.3291 20.32C77.6651 20.5067 78.0431 20.6 78.4631 20.6ZM88.3685 14.44C88.9658 14.44 89.4978 14.5567 89.9645 14.79C90.4405 15.0233 90.8138 15.3827 91.0845 15.868C91.3552 16.344 91.4905 16.96 91.4905 17.716V22H89.7405V17.94C89.7405 17.2773 89.5818 16.7827 89.2645 16.456C88.9565 16.1293 88.5225 15.966 87.9625 15.966C87.5518 15.966 87.1878 16.05 86.8705 16.218C86.5532 16.386 86.3058 16.638 86.1285 16.974C85.9605 17.3007 85.8765 17.716 85.8765 18.22V22H84.1265V14.524H85.7925V16.54L85.4985 15.924C85.7598 15.448 86.1378 15.084 86.6325 14.832C87.1365 14.5707 87.7152 14.44 88.3685 14.44ZM97.8176 22V14.104C97.8176 13.32 98.0463 12.6947 98.5036 12.228C98.9703 11.752 99.633 11.514 100.492 11.514C100.8 11.514 101.089 11.5467 101.36 11.612C101.64 11.6773 101.873 11.78 102.06 11.92L101.584 13.236C101.453 13.1333 101.304 13.0587 101.136 13.012C100.968 12.956 100.795 12.928 100.618 12.928C100.254 12.928 99.9783 13.0307 99.7916 13.236C99.605 13.432 99.5116 13.7307 99.5116 14.132V14.972L99.5676 15.756V22H97.8176ZM96.5856 15.98V14.58H101.57V15.98H96.5856ZM105.998 22.098C105.233 22.098 104.552 21.9347 103.954 21.608C103.357 21.272 102.886 20.8147 102.54 20.236C102.195 19.6573 102.022 18.9993 102.022 18.262C102.022 17.5153 102.195 16.8573 102.54 16.288C102.886 15.7093 103.357 15.2567 103.954 14.93C104.552 14.6033 105.233 14.44 105.998 14.44C106.773 14.44 107.459 14.6033 108.056 14.93C108.663 15.2567 109.134 15.7047 109.47 16.274C109.816 16.8433 109.988 17.506 109.988 18.262C109.988 18.9993 109.816 19.6573 109.47 20.236C109.134 20.8147 108.663 21.272 108.056 21.608C107.459 21.9347 106.773 22.098 105.998 22.098ZM105.998 20.6C106.428 20.6 106.81 20.5067 107.146 20.32C107.482 20.1333 107.744 19.8627 107.93 19.508C108.126 19.1533 108.224 18.738 108.224 18.262C108.224 17.7767 108.126 17.3613 107.93 17.016C107.744 16.6613 107.482 16.3907 107.146 16.204C106.81 16.0173 106.432 15.924 106.012 15.924C105.583 15.924 105.2 16.0173 104.864 16.204C104.538 16.3907 104.276 16.6613 104.08 17.016C103.884 17.3613 103.786 17.7767 103.786 18.262C103.786 18.738 103.884 19.1533 104.08 19.508C104.276 19.8627 104.538 20.1333 104.864 20.32C105.2 20.5067 105.578 20.6 105.998 20.6ZM111.662 22V14.524H113.328V16.582L113.132 15.98C113.356 15.476 113.706 15.0933 114.182 14.832C114.667 14.5707 115.269 14.44 115.988 14.44V16.106C115.913 16.0873 115.843 16.078 115.778 16.078C115.712 16.0687 115.647 16.064 115.582 16.064C114.919 16.064 114.392 16.26 114 16.652C113.608 17.0347 113.412 17.6087 113.412 18.374V22H111.662ZM124.574 22.098C123.855 22.098 123.206 21.9393 122.628 21.622C122.058 21.2953 121.61 20.8473 121.284 20.278C120.957 19.7087 120.794 19.0367 120.794 18.262C120.794 17.4873 120.957 16.8153 121.284 16.246C121.61 15.6767 122.058 15.2333 122.628 14.916C123.206 14.5987 123.855 14.44 124.574 14.44C125.199 14.44 125.759 14.58 126.254 14.86C126.748 15.1307 127.14 15.546 127.43 16.106C127.719 16.666 127.864 17.3847 127.864 18.262C127.864 19.13 127.724 19.8487 127.444 20.418C127.164 20.978 126.776 21.398 126.282 21.678C125.787 21.958 125.218 22.098 124.574 22.098ZM124.784 20.6C125.204 20.6 125.577 20.5067 125.904 20.32C126.24 20.1333 126.506 19.8627 126.702 19.508C126.907 19.1533 127.01 18.738 127.01 18.262C127.01 17.7767 126.907 17.3613 126.702 17.016C126.506 16.6613 126.24 16.3907 125.904 16.204C125.577 16.0173 125.204 15.924 124.784 15.924C124.364 15.924 123.986 16.0173 123.65 16.204C123.323 16.3907 123.057 16.6613 122.852 17.016C122.656 17.3613 122.558 17.7767 122.558 18.262C122.558 18.738 122.656 19.1533 122.852 19.508C123.057 19.8627 123.323 20.1333 123.65 20.32C123.986 20.5067 124.364 20.6 124.784 20.6ZM127.052 22V20.236L127.122 18.248L126.982 16.26V11.612H128.718V22H127.052ZM134.381 22.098C133.616 22.098 132.934 21.9347 132.337 21.608C131.74 21.272 131.268 20.8147 130.923 20.236C130.578 19.6573 130.405 18.9993 130.405 18.262C130.405 17.5153 130.578 16.8573 130.923 16.288C131.268 15.7093 131.74 15.2567 132.337 14.93C132.934 14.6033 133.616 14.44 134.381 14.44C135.156 14.44 135.842 14.6033 136.439 14.93C137.046 15.2567 137.517 15.7047 137.853 16.274C138.198 16.8433 138.371 17.506 138.371 18.262C138.371 18.9993 138.198 19.6573 137.853 20.236C137.517 20.8147 137.046 21.272 136.439 21.608C135.842 21.9347 135.156 22.098 134.381 22.098ZM134.381 20.6C134.81 20.6 135.193 20.5067 135.529 20.32C135.865 20.1333 136.126 19.8627 136.313 19.508C136.509 19.1533 136.607 18.738 136.607 18.262C136.607 17.7767 136.509 17.3613 136.313 17.016C136.126 16.6613 135.865 16.3907 135.529 16.204C135.193 16.0173 134.815 15.924 134.395 15.924C133.966 15.924 133.583 16.0173 133.247 16.204C132.92 16.3907 132.659 16.6613 132.463 17.016C132.267 17.3613 132.169 17.7767 132.169 18.262C132.169 18.738 132.267 19.1533 132.463 19.508C132.659 19.8627 132.92 20.1333 133.247 20.32C133.583 20.5067 133.961 20.6 134.381 20.6ZM141.491 22L138.747 14.524H140.399L142.751 21.118H141.967L144.431 14.524H145.901L148.295 21.118H147.525L149.947 14.524H151.501L148.743 22H147.063L144.879 16.162H145.397L143.171 22H141.491ZM156.947 14.44C157.544 14.44 158.076 14.5567 158.543 14.79C159.019 15.0233 159.392 15.3827 159.663 15.868C159.933 16.344 160.069 16.96 160.069 17.716V22H158.319V17.94C158.319 17.2773 158.16 16.7827 157.843 16.456C157.535 16.1293 157.101 15.966 156.541 15.966C156.13 15.966 155.766 16.05 155.449 16.218C155.131 16.386 154.884 16.638 154.707 16.974C154.539 17.3007 154.455 17.716 154.455 18.22V22H152.705V14.524H154.371V16.54L154.077 15.924C154.338 15.448 154.716 15.084 155.211 14.832C155.715 14.5707 156.293 14.44 156.947 14.44ZM165.69 24.814C165 24.814 164.323 24.7207 163.66 24.534C163.007 24.3567 162.47 24.0953 162.05 23.75L162.834 22.434C163.161 22.7047 163.572 22.9193 164.066 23.078C164.57 23.246 165.079 23.33 165.592 23.33C166.414 23.33 167.016 23.1387 167.398 22.756C167.781 22.3827 167.972 21.818 167.972 21.062V19.732L168.112 18.038L168.056 16.344V14.524H169.722V20.866C169.722 22.2193 169.377 23.2133 168.686 23.848C167.996 24.492 166.997 24.814 165.69 24.814ZM165.466 21.664C164.757 21.664 164.113 21.5147 163.534 21.216C162.965 20.908 162.512 20.4833 162.176 19.942C161.85 19.4007 161.686 18.766 161.686 18.038C161.686 17.3193 161.85 16.6893 162.176 16.148C162.512 15.6067 162.965 15.1867 163.534 14.888C164.113 14.5893 164.757 14.44 165.466 14.44C166.101 14.44 166.67 14.566 167.174 14.818C167.678 15.07 168.08 15.462 168.378 15.994C168.686 16.526 168.84 17.2073 168.84 18.038C168.84 18.8687 168.686 19.5547 168.378 20.096C168.08 20.628 167.678 21.0247 167.174 21.286C166.67 21.538 166.101 21.664 165.466 21.664ZM165.732 20.18C166.171 20.18 166.563 20.0913 166.908 19.914C167.254 19.7273 167.52 19.4753 167.706 19.158C167.902 18.8313 168 18.458 168 18.038C168 17.618 167.902 17.2493 167.706 16.932C167.52 16.6053 167.254 16.358 166.908 16.19C166.563 16.0127 166.171 15.924 165.732 15.924C165.294 15.924 164.897 16.0127 164.542 16.19C164.197 16.358 163.926 16.6053 163.73 16.932C163.544 17.2493 163.45 17.618 163.45 18.038C163.45 18.458 163.544 18.8313 163.73 19.158C163.926 19.4753 164.197 19.7273 164.542 19.914C164.897 20.0913 165.294 20.18 165.732 20.18ZM172.023 22V14.524H173.689V16.582L173.493 15.98C173.717 15.476 174.067 15.0933 174.543 14.832C175.028 14.5707 175.63 14.44 176.349 14.44V16.106C176.274 16.0873 176.204 16.078 176.139 16.078C176.074 16.0687 176.008 16.064 175.943 16.064C175.28 16.064 174.753 16.26 174.361 16.652C173.969 17.0347 173.773 17.6087 173.773 18.374V22H172.023ZM181.906 22V20.488L181.808 20.166V17.52C181.808 17.0067 181.654 16.61 181.346 16.33C181.038 16.0407 180.572 15.896 179.946 15.896C179.526 15.896 179.111 15.9613 178.7 16.092C178.299 16.2227 177.958 16.4047 177.678 16.638L176.992 15.364C177.394 15.056 177.87 14.8273 178.42 14.678C178.98 14.5193 179.559 14.44 180.156 14.44C181.239 14.44 182.074 14.7013 182.662 15.224C183.26 15.7373 183.558 16.5353 183.558 17.618V22H181.906ZM179.554 22.098C178.994 22.098 178.504 22.0047 178.084 21.818C177.664 21.622 177.338 21.356 177.104 21.02C176.88 20.6747 176.768 20.2873 176.768 19.858C176.768 19.438 176.866 19.06 177.062 18.724C177.268 18.388 177.599 18.122 178.056 17.926C178.514 17.73 179.12 17.632 179.876 17.632H182.046V18.794H180.002C179.405 18.794 179.004 18.892 178.798 19.088C178.593 19.2747 178.49 19.508 178.49 19.788C178.49 20.1053 178.616 20.3573 178.868 20.544C179.12 20.7307 179.47 20.824 179.918 20.824C180.348 20.824 180.73 20.726 181.066 20.53C181.412 20.334 181.659 20.0447 181.808 19.662L182.102 20.712C181.934 21.1507 181.631 21.4913 181.192 21.734C180.763 21.9767 180.217 22.098 179.554 22.098ZM188.982 22.098C188.263 22.098 187.615 21.9393 187.036 21.622C186.467 21.2953 186.019 20.8473 185.692 20.278C185.365 19.7087 185.202 19.0367 185.202 18.262C185.202 17.4873 185.365 16.8153 185.692 16.246C186.019 15.6767 186.467 15.2333 187.036 14.916C187.615 14.5987 188.263 14.44 188.982 14.44C189.607 14.44 190.167 14.58 190.662 14.86C191.157 15.1307 191.549 15.546 191.838 16.106C192.127 16.666 192.272 17.3847 192.272 18.262C192.272 19.13 192.132 19.8487 191.852 20.418C191.572 20.978 191.185 21.398 190.69 21.678C190.195 21.958 189.626 22.098 188.982 22.098ZM189.192 20.6C189.612 20.6 189.985 20.5067 190.312 20.32C190.648 20.1333 190.914 19.8627 191.11 19.508C191.315 19.1533 191.418 18.738 191.418 18.262C191.418 17.7767 191.315 17.3613 191.11 17.016C190.914 16.6613 190.648 16.3907 190.312 16.204C189.985 16.0173 189.612 15.924 189.192 15.924C188.772 15.924 188.394 16.0173 188.058 16.204C187.731 16.3907 187.465 16.6613 187.26 17.016C187.064 17.3613 186.966 17.7767 186.966 18.262C186.966 18.738 187.064 19.1533 187.26 19.508C187.465 19.8627 187.731 20.1333 188.058 20.32C188.394 20.5067 188.772 20.6 189.192 20.6ZM191.46 22V20.236L191.53 18.248L191.39 16.26V11.612H193.126V22H191.46ZM198.943 22.098C198.113 22.098 197.385 21.9347 196.759 21.608C196.143 21.272 195.663 20.8147 195.317 20.236C194.981 19.6573 194.813 18.9993 194.813 18.262C194.813 17.5153 194.977 16.8573 195.303 16.288C195.639 15.7093 196.097 15.2567 196.675 14.93C197.263 14.6033 197.931 14.44 198.677 14.44C199.405 14.44 200.054 14.5987 200.623 14.916C201.193 15.2333 201.641 15.6813 201.967 16.26C202.294 16.8387 202.457 17.52 202.457 18.304C202.457 18.3787 202.453 18.4627 202.443 18.556C202.443 18.6493 202.439 18.738 202.429 18.822H196.199V17.66H201.505L200.819 18.024C200.829 17.5947 200.74 17.2167 200.553 16.89C200.367 16.5633 200.11 16.3067 199.783 16.12C199.466 15.9333 199.097 15.84 198.677 15.84C198.248 15.84 197.87 15.9333 197.543 16.12C197.226 16.3067 196.974 16.568 196.787 16.904C196.61 17.2307 196.521 17.618 196.521 18.066V18.346C196.521 18.794 196.624 19.1907 196.829 19.536C197.035 19.8813 197.324 20.1473 197.697 20.334C198.071 20.5207 198.5 20.614 198.985 20.614C199.405 20.614 199.783 20.5487 200.119 20.418C200.455 20.2873 200.754 20.082 201.015 19.802L201.953 20.88C201.617 21.272 201.193 21.5753 200.679 21.79C200.175 21.9953 199.597 22.098 198.943 22.098Z" fill="#FAFAFF" />
	<path d="M31 16C31 24.2843 24.2843 31 16 31C7.71573 31 1 24.2843 1 16C1 7.71573 7.71573 1 16 1C24.2843 1 31 7.71573 31 16Z" stroke="#68EFDA" stroke-width="2" />
	<path d="M16 26C21.5228 26 26 21.5228 26 16C26 10.4772 21.5228 6 16 6C10.4772 6 6 10.4772 6 16C6 21.5228 10.4772 26 16 26Z" fill="white" />
	<path d="M15.1337 21V12.823L16.2387 13.889H13.4437V11.9H17.7077V21H15.1337Z" fill="#1D2327" />
	<rect x="215" y="15.5" width="40" height="1" fill="#767676" />
	<path d="M313.884 22L311.112 14.65H312.064L314.584 21.468H314.15L316.74 14.65H317.594L320.156 21.468H319.722L322.284 14.65H323.194L320.408 22H319.47L317.006 15.588H317.3L314.822 22H313.884ZM328.443 14.58C329.04 14.58 329.563 14.6967 330.011 14.93C330.468 15.154 330.823 15.4993 331.075 15.966C331.336 16.4327 331.467 17.0207 331.467 17.73V22H330.473V17.828C330.473 17.0533 330.277 16.47 329.885 16.078C329.502 15.6767 328.961 15.476 328.261 15.476C327.738 15.476 327.281 15.5833 326.889 15.798C326.506 16.0033 326.207 16.3067 325.993 16.708C325.787 17.1 325.685 17.576 325.685 18.136V22H324.691V11.612H325.685V16.666L325.489 16.288C325.722 15.756 326.095 15.3407 326.609 15.042C327.122 14.734 327.733 14.58 328.443 14.58ZM338.758 22V20.376L338.716 20.11V17.394C338.716 16.7687 338.538 16.288 338.184 15.952C337.838 15.616 337.32 15.448 336.63 15.448C336.154 15.448 335.701 15.5273 335.272 15.686C334.842 15.8447 334.478 16.0547 334.18 16.316L333.732 15.574C334.105 15.2567 334.553 15.014 335.076 14.846C335.598 14.6687 336.149 14.58 336.728 14.58C337.68 14.58 338.412 14.818 338.926 15.294C339.448 15.7607 339.71 16.4747 339.71 17.436V22H338.758ZM336.224 22.07C335.673 22.07 335.192 21.9813 334.782 21.804C334.38 21.6173 334.072 21.3653 333.858 21.048C333.643 20.7213 333.536 20.348 333.536 19.928C333.536 19.5453 333.624 19.2 333.802 18.892C333.988 18.5747 334.287 18.3227 334.698 18.136C335.118 17.94 335.678 17.842 336.378 17.842H338.912V18.584H336.406C335.696 18.584 335.202 18.71 334.922 18.962C334.651 19.214 334.516 19.5267 334.516 19.9C334.516 20.32 334.679 20.656 335.006 20.908C335.332 21.16 335.79 21.286 336.378 21.286C336.938 21.286 337.418 21.16 337.82 20.908C338.23 20.6467 338.529 20.2733 338.716 19.788L338.94 20.474C338.753 20.9593 338.426 21.3467 337.96 21.636C337.502 21.9253 336.924 22.07 336.224 22.07ZM344.733 22.07C344.043 22.07 343.511 21.8833 343.137 21.51C342.764 21.1367 342.577 20.6093 342.577 19.928V13.026H343.571V19.872C343.571 20.3013 343.679 20.6327 343.893 20.866C344.117 21.0993 344.435 21.216 344.845 21.216C345.284 21.216 345.648 21.09 345.937 20.838L346.287 21.552C346.091 21.7293 345.853 21.86 345.573 21.944C345.303 22.028 345.023 22.07 344.733 22.07ZM341.261 15.476V14.65H345.811V15.476H341.261ZM353.259 22L350.487 14.65H351.439L353.959 21.468H353.525L356.115 14.65H356.969L359.531 21.468H359.097L361.659 14.65H362.569L359.783 22H358.845L356.381 15.588H356.675L354.197 22H353.259ZM364.066 22V14.65H365.06V22H364.066ZM364.57 13.026C364.364 13.026 364.192 12.956 364.052 12.816C363.912 12.676 363.842 12.508 363.842 12.312C363.842 12.116 363.912 11.9527 364.052 11.822C364.192 11.682 364.364 11.612 364.57 11.612C364.775 11.612 364.948 11.6773 365.088 11.808C365.228 11.9387 365.298 12.102 365.298 12.298C365.298 12.5033 365.228 12.676 365.088 12.816C364.957 12.956 364.784 13.026 364.57 13.026ZM367.825 22V11.612H368.819V22H367.825ZM371.585 22V11.612H372.579V22H371.585ZM382.061 22.07C381.333 22.07 380.68 21.9113 380.101 21.594C379.532 21.2673 379.084 20.824 378.757 20.264C378.43 19.6947 378.267 19.046 378.267 18.318C378.267 17.5807 378.43 16.932 378.757 16.372C379.084 15.812 379.532 15.3733 380.101 15.056C380.68 14.7387 381.333 14.58 382.061 14.58C382.686 14.58 383.251 14.7013 383.755 14.944C384.259 15.1867 384.656 15.5507 384.945 16.036L384.203 16.54C383.951 16.1667 383.638 15.8913 383.265 15.714C382.892 15.5367 382.486 15.448 382.047 15.448C381.524 15.448 381.053 15.5693 380.633 15.812C380.213 16.0453 379.882 16.3767 379.639 16.806C379.396 17.2353 379.275 17.7393 379.275 18.318C379.275 18.8967 379.396 19.4007 379.639 19.83C379.882 20.2593 380.213 20.5953 380.633 20.838C381.053 21.0713 381.524 21.188 382.047 21.188C382.486 21.188 382.892 21.0993 383.265 20.922C383.638 20.7447 383.951 20.474 384.203 20.11L384.945 20.614C384.656 21.09 384.259 21.454 383.755 21.706C383.251 21.9487 382.686 22.07 382.061 22.07ZM390.54 14.58C391.138 14.58 391.66 14.6967 392.108 14.93C392.566 15.154 392.92 15.4993 393.172 15.966C393.434 16.4327 393.564 17.0207 393.564 17.73V22H392.57V17.828C392.57 17.0533 392.374 16.47 391.982 16.078C391.6 15.6767 391.058 15.476 390.358 15.476C389.836 15.476 389.378 15.5833 388.986 15.798C388.604 16.0033 388.305 16.3067 388.09 16.708C387.885 17.1 387.782 17.576 387.782 18.136V22H386.788V11.612H387.782V16.666L387.586 16.288C387.82 15.756 388.193 15.3407 388.706 15.042C389.22 14.734 389.831 14.58 390.54 14.58ZM400.855 22V20.376L400.813 20.11V17.394C400.813 16.7687 400.636 16.288 400.281 15.952C399.936 15.616 399.418 15.448 398.727 15.448C398.251 15.448 397.799 15.5273 397.369 15.686C396.94 15.8447 396.576 16.0547 396.277 16.316L395.829 15.574C396.203 15.2567 396.651 15.014 397.173 14.846C397.696 14.6687 398.247 14.58 398.825 14.58C399.777 14.58 400.51 14.818 401.023 15.294C401.546 15.7607 401.807 16.4747 401.807 17.436V22H400.855ZM398.321 22.07C397.771 22.07 397.29 21.9813 396.879 21.804C396.478 21.6173 396.17 21.3653 395.955 21.048C395.741 20.7213 395.633 20.348 395.633 19.928C395.633 19.5453 395.722 19.2 395.899 18.892C396.086 18.5747 396.385 18.3227 396.795 18.136C397.215 17.94 397.775 17.842 398.475 17.842H401.009V18.584H398.503C397.794 18.584 397.299 18.71 397.019 18.962C396.749 19.214 396.613 19.5267 396.613 19.9C396.613 20.32 396.777 20.656 397.103 20.908C397.43 21.16 397.887 21.286 398.475 21.286C399.035 21.286 399.516 21.16 399.917 20.908C400.328 20.6467 400.627 20.2733 400.813 19.788L401.037 20.474C400.851 20.9593 400.524 21.3467 400.057 21.636C399.6 21.9253 399.021 22.07 398.321 22.07ZM408.259 14.58C408.856 14.58 409.379 14.6967 409.827 14.93C410.284 15.154 410.639 15.4993 410.891 15.966C411.152 16.4327 411.283 17.0207 411.283 17.73V22H410.289V17.828C410.289 17.0533 410.093 16.47 409.701 16.078C409.318 15.6767 408.777 15.476 408.077 15.476C407.554 15.476 407.097 15.5833 406.705 15.798C406.322 16.0033 406.024 16.3067 405.809 16.708C405.604 17.1 405.501 17.576 405.501 18.136V22H404.507V14.65H405.459V16.666L405.305 16.288C405.538 15.756 405.912 15.3407 406.425 15.042C406.938 14.734 407.55 14.58 408.259 14.58ZM417.104 24.786C416.432 24.786 415.788 24.688 415.172 24.492C414.556 24.296 414.057 24.016 413.674 23.652L414.178 22.896C414.523 23.204 414.948 23.4467 415.452 23.624C415.965 23.8107 416.507 23.904 417.076 23.904C418.009 23.904 418.695 23.6847 419.134 23.246C419.573 22.8167 419.792 22.1447 419.792 21.23V19.396L419.932 18.136L419.834 16.876V14.65H420.786V21.104C420.786 22.3733 420.473 23.302 419.848 23.89C419.232 24.4873 418.317 24.786 417.104 24.786ZM416.922 21.72C416.222 21.72 415.592 21.5707 415.032 21.272C414.472 20.964 414.029 20.5393 413.702 19.998C413.385 19.4567 413.226 18.836 413.226 18.136C413.226 17.436 413.385 16.82 413.702 16.288C414.029 15.7467 414.472 15.3267 415.032 15.028C415.592 14.7293 416.222 14.58 416.922 14.58C417.575 14.58 418.163 14.7153 418.686 14.986C419.209 15.2567 419.624 15.658 419.932 16.19C420.24 16.722 420.394 17.3707 420.394 18.136C420.394 18.9013 420.24 19.55 419.932 20.082C419.624 20.614 419.209 21.02 418.686 21.3C418.163 21.58 417.575 21.72 416.922 21.72ZM417.02 20.838C417.561 20.838 418.042 20.726 418.462 20.502C418.882 20.2687 419.213 19.9513 419.456 19.55C419.699 19.1393 419.82 18.668 419.82 18.136C419.82 17.604 419.699 17.1373 419.456 16.736C419.213 16.3347 418.882 16.022 418.462 15.798C418.042 15.5647 417.561 15.448 417.02 15.448C416.488 15.448 416.007 15.5647 415.578 15.798C415.158 16.022 414.827 16.3347 414.584 16.736C414.351 17.1373 414.234 17.604 414.234 18.136C414.234 18.668 414.351 19.1393 414.584 19.55C414.827 19.9513 415.158 20.2687 415.578 20.502C416.007 20.726 416.488 20.838 417.02 20.838ZM426.674 22.07C425.909 22.07 425.237 21.9113 424.658 21.594C424.079 21.2673 423.627 20.824 423.3 20.264C422.973 19.6947 422.81 19.046 422.81 18.318C422.81 17.59 422.964 16.946 423.272 16.386C423.589 15.826 424.019 15.3873 424.56 15.07C425.111 14.7433 425.727 14.58 426.408 14.58C427.099 14.58 427.71 14.7387 428.242 15.056C428.783 15.364 429.208 15.8027 429.516 16.372C429.824 16.932 429.978 17.5807 429.978 18.318C429.978 18.3647 429.973 18.416 429.964 18.472C429.964 18.5187 429.964 18.57 429.964 18.626H423.566V17.884H429.432L429.04 18.178C429.04 17.646 428.923 17.1747 428.69 16.764C428.466 16.344 428.158 16.0173 427.766 15.784C427.374 15.5507 426.921 15.434 426.408 15.434C425.904 15.434 425.451 15.5507 425.05 15.784C424.649 16.0173 424.336 16.344 424.112 16.764C423.888 17.184 423.776 17.6647 423.776 18.206V18.36C423.776 18.92 423.897 19.4147 424.14 19.844C424.392 20.264 424.737 20.5953 425.176 20.838C425.624 21.0713 426.133 21.188 426.702 21.188C427.15 21.188 427.565 21.1087 427.948 20.95C428.34 20.7913 428.676 20.5487 428.956 20.222L429.516 20.866C429.189 21.258 428.779 21.5567 428.284 21.762C427.799 21.9673 427.262 22.07 426.674 22.07Z" fill="#68EFDA" />
	<path d="M298.5 16C298.5 24.5604 291.56 31.5 283 31.5C274.44 31.5 267.5 24.5604 267.5 16C267.5 7.43959 274.44 0.5 283 0.5C291.56 0.5 298.5 7.43959 298.5 16Z" stroke="#68EFDA" />
	<path d="M279.813 21V20.337L283.596 16.632C283.942 16.294 284.202 15.9993 284.376 15.748C284.549 15.488 284.666 15.2453 284.727 15.02C284.787 14.7947 284.818 14.5823 284.818 14.383C284.818 13.8543 284.636 13.4383 284.272 13.135C283.916 12.8317 283.388 12.68 282.686 12.68C282.148 12.68 281.672 12.7623 281.256 12.927C280.848 13.0917 280.497 13.3473 280.203 13.694L279.54 13.122C279.895 12.706 280.35 12.3853 280.905 12.16C281.459 11.9347 282.079 11.822 282.764 11.822C283.379 11.822 283.912 11.9217 284.363 12.121C284.813 12.3117 285.16 12.5933 285.403 12.966C285.654 13.3387 285.78 13.7763 285.78 14.279C285.78 14.5737 285.736 14.864 285.65 15.15C285.572 15.436 285.424 15.7393 285.208 16.06C285 16.372 284.692 16.7273 284.285 17.126L280.814 20.532L280.554 20.168H286.196V21H279.813Z" fill="#68EFDA" />
	<rect x="443" y="15.5" width="40" height="1" fill="#767676" />
	<path d="M543.438 22.07C542.71 22.07 542.057 21.9113 541.478 21.594C540.909 21.2673 540.461 20.824 540.134 20.264C539.807 19.6947 539.644 19.046 539.644 18.318C539.644 17.5807 539.807 16.932 540.134 16.372C540.461 15.812 540.909 15.3733 541.478 15.056C542.057 14.7387 542.71 14.58 543.438 14.58C544.063 14.58 544.628 14.7013 545.132 14.944C545.636 15.1867 546.033 15.5507 546.322 16.036L545.58 16.54C545.328 16.1667 545.015 15.8913 544.642 15.714C544.269 15.5367 543.863 15.448 543.424 15.448C542.901 15.448 542.43 15.5693 542.01 15.812C541.59 16.0453 541.259 16.3767 541.016 16.806C540.773 17.2353 540.652 17.7393 540.652 18.318C540.652 18.8967 540.773 19.4007 541.016 19.83C541.259 20.2593 541.59 20.5953 542.01 20.838C542.43 21.0713 542.901 21.188 543.424 21.188C543.863 21.188 544.269 21.0993 544.642 20.922C545.015 20.7447 545.328 20.474 545.58 20.11L546.322 20.614C546.033 21.09 545.636 21.454 545.132 21.706C544.628 21.9487 544.063 22.07 543.438 22.07ZM551.148 22.07C550.438 22.07 549.799 21.9113 549.23 21.594C548.67 21.2673 548.226 20.824 547.9 20.264C547.573 19.6947 547.41 19.046 547.41 18.318C547.41 17.5807 547.573 16.932 547.9 16.372C548.226 15.812 548.67 15.3733 549.23 15.056C549.79 14.7387 550.429 14.58 551.148 14.58C551.876 14.58 552.52 14.7387 553.08 15.056C553.649 15.3733 554.092 15.812 554.41 16.372C554.736 16.932 554.9 17.5807 554.9 18.318C554.9 19.046 554.736 19.6947 554.41 20.264C554.092 20.824 553.649 21.2673 553.08 21.594C552.51 21.9113 551.866 22.07 551.148 22.07ZM551.148 21.188C551.68 21.188 552.151 21.0713 552.562 20.838C552.972 20.5953 553.294 20.2593 553.528 19.83C553.77 19.3913 553.892 18.8873 553.892 18.318C553.892 17.7393 553.77 17.2353 553.528 16.806C553.294 16.3767 552.972 16.0453 552.562 15.812C552.151 15.5693 551.684 15.448 551.162 15.448C550.639 15.448 550.172 15.5693 549.762 15.812C549.351 16.0453 549.024 16.3767 548.782 16.806C548.539 17.2353 548.418 17.7393 548.418 18.318C548.418 18.8873 548.539 19.3913 548.782 19.83C549.024 20.2593 549.351 20.5953 549.762 20.838C550.172 21.0713 550.634 21.188 551.148 21.188ZM560.681 14.58C561.278 14.58 561.801 14.6967 562.249 14.93C562.706 15.154 563.061 15.4993 563.313 15.966C563.574 16.4327 563.705 17.0207 563.705 17.73V22H562.711V17.828C562.711 17.0533 562.515 16.47 562.123 16.078C561.74 15.6767 561.199 15.476 560.499 15.476C559.976 15.476 559.519 15.5833 559.127 15.798C558.744 16.0033 558.446 16.3067 558.231 16.708C558.026 17.1 557.923 17.576 557.923 18.136V22H556.929V14.65H557.881V16.666L557.727 16.288C557.96 15.756 558.334 15.3407 558.847 15.042C559.36 14.734 559.972 14.58 560.681 14.58ZM566.558 22V13.726C566.558 13.0727 566.749 12.5453 567.132 12.144C567.515 11.7427 568.065 11.542 568.784 11.542C569.064 11.542 569.335 11.5793 569.596 11.654C569.857 11.7287 570.077 11.8453 570.254 12.004L569.918 12.746C569.778 12.6247 569.615 12.536 569.428 12.48C569.241 12.4147 569.041 12.382 568.826 12.382C568.406 12.382 568.084 12.4987 567.86 12.732C567.636 12.9653 567.524 13.3107 567.524 13.768V14.888L567.552 15.35V22H566.558ZM565.242 15.476V14.65H569.792V15.476H565.242ZM571.136 22V14.65H572.13V22H571.136ZM571.64 13.026C571.435 13.026 571.262 12.956 571.122 12.816C570.982 12.676 570.912 12.508 570.912 12.312C570.912 12.116 570.982 11.9527 571.122 11.822C571.262 11.682 571.435 11.612 571.64 11.612C571.845 11.612 572.018 11.6773 572.158 11.808C572.298 11.9387 572.368 12.102 572.368 12.298C572.368 12.5033 572.298 12.676 572.158 12.816C572.027 12.956 571.855 13.026 571.64 13.026ZM574.921 22V14.65H575.873V16.652L575.775 16.302C575.98 15.742 576.326 15.3173 576.811 15.028C577.296 14.7293 577.898 14.58 578.617 14.58V15.546C578.58 15.546 578.542 15.546 578.505 15.546C578.468 15.5367 578.43 15.532 578.393 15.532C577.618 15.532 577.012 15.77 576.573 16.246C576.134 16.7127 575.915 17.38 575.915 18.248V22H574.921ZM589.615 14.58C590.212 14.58 590.73 14.6967 591.169 14.93C591.617 15.154 591.962 15.4993 592.205 15.966C592.457 16.4327 592.583 17.0207 592.583 17.73V22H591.589V17.828C591.589 17.0533 591.402 16.47 591.029 16.078C590.665 15.6767 590.147 15.476 589.475 15.476C588.971 15.476 588.532 15.5833 588.159 15.798C587.795 16.0033 587.51 16.3067 587.305 16.708C587.109 17.1 587.011 17.576 587.011 18.136V22H586.017V17.828C586.017 17.0533 585.83 16.47 585.457 16.078C585.084 15.6767 584.561 15.476 583.889 15.476C583.394 15.476 582.96 15.5833 582.587 15.798C582.214 16.0033 581.924 16.3067 581.719 16.708C581.523 17.1 581.425 17.576 581.425 18.136V22H580.431V14.65H581.383V16.638L581.229 16.288C581.453 15.756 581.812 15.3407 582.307 15.042C582.811 14.734 583.404 14.58 584.085 14.58C584.804 14.58 585.415 14.762 585.919 15.126C586.423 15.4807 586.75 16.0173 586.899 16.736L586.507 16.582C586.722 15.9847 587.1 15.504 587.641 15.14C588.192 14.7667 588.85 14.58 589.615 14.58ZM599.885 22V20.376L599.843 20.11V17.394C599.843 16.7687 599.665 16.288 599.311 15.952C598.965 15.616 598.447 15.448 597.757 15.448C597.281 15.448 596.828 15.5273 596.399 15.686C595.969 15.8447 595.605 16.0547 595.307 16.316L594.859 15.574C595.232 15.2567 595.68 15.014 596.203 14.846C596.725 14.6687 597.276 14.58 597.855 14.58C598.807 14.58 599.539 14.818 600.053 15.294C600.575 15.7607 600.837 16.4747 600.837 17.436V22H599.885ZM597.351 22.07C596.8 22.07 596.319 21.9813 595.909 21.804C595.507 21.6173 595.199 21.3653 594.985 21.048C594.77 20.7213 594.663 20.348 594.663 19.928C594.663 19.5453 594.751 19.2 594.929 18.892C595.115 18.5747 595.414 18.3227 595.825 18.136C596.245 17.94 596.805 17.842 597.505 17.842H600.039V18.584H597.533C596.823 18.584 596.329 18.71 596.049 18.962C595.778 19.214 595.643 19.5267 595.643 19.9C595.643 20.32 595.806 20.656 596.133 20.908C596.459 21.16 596.917 21.286 597.505 21.286C598.065 21.286 598.545 21.16 598.947 20.908C599.357 20.6467 599.656 20.2733 599.843 19.788L600.067 20.474C599.88 20.9593 599.553 21.3467 599.087 21.636C598.629 21.9253 598.051 22.07 597.351 22.07ZM605.86 22.07C605.17 22.07 604.638 21.8833 604.264 21.51C603.891 21.1367 603.704 20.6093 603.704 19.928V13.026H604.698V19.872C604.698 20.3013 604.806 20.6327 605.02 20.866C605.244 21.0993 605.562 21.216 605.972 21.216C606.411 21.216 606.775 21.09 607.064 20.838L607.414 21.552C607.218 21.7293 606.98 21.86 606.7 21.944C606.43 22.028 606.15 22.07 605.86 22.07ZM602.388 15.476V14.65H606.938V15.476H602.388ZM609.224 22V14.65H610.218V22H609.224ZM609.728 13.026C609.523 13.026 609.35 12.956 609.21 12.816C609.07 12.676 609 12.508 609 12.312C609 12.116 609.07 11.9527 609.21 11.822C609.35 11.682 609.523 11.612 609.728 11.612C609.933 11.612 610.106 11.6773 610.246 11.808C610.386 11.9387 610.456 12.102 610.456 12.298C610.456 12.5033 610.386 12.676 610.246 12.816C610.115 12.956 609.943 13.026 609.728 13.026ZM615.98 22.07C615.27 22.07 614.631 21.9113 614.062 21.594C613.502 21.2673 613.058 20.824 612.732 20.264C612.405 19.6947 612.242 19.046 612.242 18.318C612.242 17.5807 612.405 16.932 612.732 16.372C613.058 15.812 613.502 15.3733 614.062 15.056C614.622 14.7387 615.261 14.58 615.98 14.58C616.708 14.58 617.352 14.7387 617.912 15.056C618.481 15.3733 618.924 15.812 619.242 16.372C619.568 16.932 619.732 17.5807 619.732 18.318C619.732 19.046 619.568 19.6947 619.242 20.264C618.924 20.824 618.481 21.2673 617.912 21.594C617.342 21.9113 616.698 22.07 615.98 22.07ZM615.98 21.188C616.512 21.188 616.983 21.0713 617.394 20.838C617.804 20.5953 618.126 20.2593 618.36 19.83C618.602 19.3913 618.724 18.8873 618.724 18.318C618.724 17.7393 618.602 17.2353 618.36 16.806C618.126 16.3767 617.804 16.0453 617.394 15.812C616.983 15.5693 616.516 15.448 615.994 15.448C615.471 15.448 615.004 15.5693 614.594 15.812C614.183 16.0453 613.856 16.3767 613.614 16.806C613.371 17.2353 613.25 17.7393 613.25 18.318C613.25 18.8873 613.371 19.3913 613.614 19.83C613.856 20.2593 614.183 20.5953 614.594 20.838C615.004 21.0713 615.466 21.188 615.98 21.188ZM625.513 14.58C626.11 14.58 626.633 14.6967 627.081 14.93C627.538 15.154 627.893 15.4993 628.145 15.966C628.406 16.4327 628.537 17.0207 628.537 17.73V22H627.543V17.828C627.543 17.0533 627.347 16.47 626.955 16.078C626.572 15.6767 626.031 15.476 625.331 15.476C624.808 15.476 624.351 15.5833 623.959 15.798C623.576 16.0033 623.278 16.3067 623.063 16.708C622.858 17.1 622.755 17.576 622.755 18.136V22H621.761V14.65H622.713V16.666L622.559 16.288C622.792 15.756 623.166 15.3407 623.679 15.042C624.192 14.734 624.804 14.58 625.513 14.58Z" fill="#68EFDA" />
	<path d="M526.5 16C526.5 24.5604 519.56 31.5 511 31.5C502.44 31.5 495.5 24.5604 495.5 16C495.5 7.43959 502.44 0.5 511 0.5C519.56 0.5 526.5 7.43959 526.5 16Z" stroke="#68EFDA" />
	<path d="M510.724 21.078C510.065 21.078 509.441 20.974 508.852 20.766C508.271 20.5493 507.803 20.2633 507.448 19.908L507.903 19.167C508.198 19.4703 508.592 19.7217 509.086 19.921C509.589 20.1203 510.135 20.22 510.724 20.22C511.478 20.22 512.054 20.0553 512.453 19.726C512.86 19.3967 513.064 18.9547 513.064 18.4C513.064 17.8453 512.865 17.4033 512.466 17.074C512.076 16.7447 511.456 16.58 510.607 16.58H509.957V15.891L512.765 12.368L512.895 12.732H507.825V11.9H513.675V12.563L510.867 16.086L510.412 15.787H510.763C511.855 15.787 512.67 16.0297 513.207 16.515C513.753 17.0003 514.026 17.6243 514.026 18.387C514.026 18.8983 513.905 19.3577 513.662 19.765C513.419 20.1723 513.051 20.493 512.557 20.727C512.072 20.961 511.461 21.078 510.724 21.078Z" fill="#68EFDA" />
</svg>