<svg width="41" height="41" viewBox="0 0 41 41" fill="none" xmlns="http://www.w3.org/2000/svg">
<g clip-path="url(#clip0_276_7251)">
<rect x="0.0498047" y="0.0498047" width="40" height="39.9998" rx="19.9999" fill="white"/>
<path d="M40.0498 40.0497H0.0498047V0.0498047C0.231151 0.0544546 0.414047 0.0653043 0.595393 0.0653043C13.5624 0.0653043 26.5294 0.0668543 39.4949 0.0684042C39.6608 0.0684042 39.8266 0.0684042 40.0312 0.0684042C40.0312 0.274549 40.0312 0.438845 40.0312 0.604691C40.0312 13.5717 40.0312 26.5371 40.0343 39.5041C40.0343 39.6854 40.0436 39.8683 40.0498 40.0497ZM17.0886 10.0331C17.0808 10.1587 17.0715 10.2346 17.0715 10.3105C17.0762 14.3978 17.0483 18.485 17.0979 22.5723C17.149 26.7479 20.5915 29.7951 23.9999 30.1144C28.0794 30.4972 32.6952 27.0765 32.6022 22.3971C32.5108 17.8372 28.253 14.2102 23.7473 14.9744C23.4667 15.0224 23.3939 15.134 23.397 15.4068C23.4109 16.6297 23.4125 17.8542 23.397 19.0771C23.3939 19.353 23.4931 19.4925 23.7209 19.6258C25.2926 20.5465 26.8565 21.4796 28.4235 22.4111C28.5258 22.4715 28.6219 22.5428 28.7521 22.6296C26.7015 23.8417 24.7036 25.0243 22.6328 26.2488V10.0331H17.0901H17.0886ZM7.58264 15.1185V19.5313H10.6485V29.6804H16.1927V10.0393H10.6423V15.1185H7.58264Z" fill="#D92145"/>
</g>
<defs>
<clipPath id="clip0_276_7251">
<rect x="0.0498047" y="0.0498047" width="40" height="40" rx="20" fill="none"/>
</clipPath>
</defs>
</svg>
