<?xml version="1.0" encoding="UTF-8"?>
<svg id="Layer_1" data-name="Layer 1" xmlns="http://www.w3.org/2000/svg" viewBox="0 0 25.02 20.11">
  <defs>
    <style>
      .cls-1 {
        fill: #fff;
      }
    </style>
  </defs>
  <path class="cls-1" d="m9.51,0c0,.13-.02.2-.02.28,0,4.09-.02,8.17.03,12.26.05,4.18,3.49,7.22,6.9,7.54,4.08.38,8.7-3.04,8.6-7.72-.09-4.56-4.35-8.19-8.85-7.42-.28.05-.35.16-.35.43.01,1.22.02,2.45,0,3.67,0,.28.1.42.32.55,1.57.92,3.14,1.85,4.7,2.79.1.06.2.13.33.22-2.05,1.21-4.05,2.39-6.12,3.62V0h-5.54ZM0,5.09v4.41h3.07v10.15h5.54V0H3.06v5.08H0Z"/>
</svg>