<svg width="343" height="195" viewBox="0 0 343 195" fill="none" xmlns="http://www.w3.org/2000/svg">
    <g clip-path="url(#clip0_1253_5961)">
        <path d="M0 0H343V195H0V0Z" fill="#FFD0BC"/>
        <rect x="-109" y="147.926" width="468" height="2" transform="rotate(-45 -109 147.926)" fill="#F4F3EF"/>
        <rect x="-96.2715" y="160.654" width="468" height="2" transform="rotate(-45 -96.2715 160.654)" fill="#F4F3EF"/>
        <rect x="-83.5449" y="173.381" width="468" height="2" transform="rotate(-45 -83.5449 173.381)" fill="#F4F3EF"/>
        <rect x="-70.8164" y="186.109" width="468" height="2" transform="rotate(-45 -70.8164 186.109)" fill="#F4F3EF"/>
        <rect x="-58.0879" y="198.838" width="468" height="2" transform="rotate(-45 -58.0879 198.838)" fill="#F4F3EF"/>
        <rect x="-45.3613" y="211.564" width="468" height="2" transform="rotate(-45 -45.3613 211.564)" fill="#F4F3EF"/>
        <rect x="-32.6328" y="224.293" width="468" height="2" transform="rotate(-45 -32.6328 224.293)" fill="#F4F3EF"/>
        <rect x="-19.9043" y="237.021" width="468" height="2" transform="rotate(-45 -19.9043 237.021)" fill="#F4F3EF"/>
        <rect x="-7.17578" y="249.75" width="468" height="2" transform="rotate(-45 -7.17578 249.75)" fill="#F4F3EF"/>
        <rect x="5.55078" y="262.477" width="468" height="2" transform="rotate(-45 5.55078 262.477)" fill="#F4F3EF"/>
        <rect x="18.2793" y="275.205" width="468" height="2" transform="rotate(-45 18.2793 275.205)" fill="#F4F3EF"/>
        <rect x="31.0078" y="287.934" width="468" height="2" transform="rotate(-45 31.0078 287.934)" fill="#F4F3EF"/>
        <rect x="43.7344" y="300.66" width="468" height="2" transform="rotate(-45 43.7344 300.66)" fill="#F4F3EF"/>
        <rect x="56.4629" y="313.389" width="468" height="2" transform="rotate(-45 56.4629 313.389)" fill="#F4F3EF"/>
        <rect x="69.1914" y="326.117" width="468" height="2" transform="rotate(-45 69.1914 326.117)" fill="#F4F3EF"/>
        <rect x="81.918" y="338.844" width="468" height="2" transform="rotate(-45 81.918 338.844)" fill="#F4F3EF"/>
        <rect x="94.6465" y="351.572" width="468" height="2" transform="rotate(-45 94.6465 351.572)" fill="#F4F3EF"/>
        <rect x="107.375" y="364.301" width="468" height="2" transform="rotate(-45 107.375 364.301)" fill="#F4F3EF"/>
        <rect x="120.104" y="377.029" width="468" height="2" transform="rotate(-45 120.104 377.029)" fill="#F4F3EF"/>
        <rect x="143" y="66" width="57" height="57" rx="28.5" fill="#FFD0BC"/>
        <path d="M172.844 79.1806C172.844 78.3022 173.147 77.56 173.752 76.9542C174.389 76.3181 175.146 76 176.024 76C176.903 76 177.645 76.3181 178.251 76.9542C178.887 77.56 179.205 78.3022 179.205 79.1806C179.205 80.0591 178.887 80.8164 178.251 81.4525C177.645 82.0584 176.903 82.3613 176.024 82.3613C175.146 82.3613 174.389 82.0584 173.752 81.4525C173.147 80.8164 172.844 80.0591 172.844 79.1806Z" fill="#F4F3EF"/>
        <path d="M183.825 96.929V98.7217C183.825 99.0176 183.589 99.2413 183.315 99.2562C182.827 99.2828 182.191 99.4287 181.688 99.7231C181.191 100.014 180.871 100.418 180.871 100.968V107.02C180.871 107.961 180.564 108.76 179.937 109.388C179.333 110.02 178.543 110.327 177.602 110.327H174.282C173.989 110.327 173.752 110.09 173.752 109.797V107.424C173.752 107.131 173.989 106.894 174.282 106.894H176.542C176.818 106.894 176.963 106.819 177.046 106.727C177.135 106.628 177.211 106.444 177.211 106.111V101.006C177.211 100.367 177.443 99.7676 177.779 99.2206C178.086 98.7209 178.49 98.2485 178.912 97.8089C178.036 96.9016 177.211 95.8475 177.211 94.6444V89.716C177.211 89.3831 177.135 89.1995 177.046 89.1004C176.963 89.0083 176.818 88.9333 176.542 88.9333H174.282C173.989 88.9333 173.752 88.696 173.752 88.4032V86.0301C173.752 85.7373 173.989 85.5 174.282 85.5H177.602C178.543 85.5 179.333 85.8077 179.937 86.4395C180.564 87.0672 180.871 87.8661 180.871 88.8071V94.6823C180.871 95.2332 181.191 95.6367 181.688 95.9277C182.191 96.222 182.827 96.3679 183.315 96.3945C183.589 96.4094 183.825 96.6331 183.825 96.929Z" fill="#F4F3EF"/>
        <path d="M159 94.3033V92.5107C159 92.2147 159.236 91.9911 159.51 91.9761C159.997 91.9495 160.634 91.8036 161.137 91.5093C161.633 91.2183 161.954 90.8148 161.954 90.2639V79.9712C161.954 79.0302 162.261 78.2313 162.887 77.6036C163.492 76.9717 164.282 76.6641 165.223 76.6641H168.543C168.836 76.6641 169.073 76.9014 169.073 77.1942V79.5673C169.073 79.8601 168.836 80.0974 168.543 80.0974H166.283C166.007 80.0974 165.862 80.1724 165.779 80.2644C165.69 80.3635 165.614 80.5472 165.614 80.88V90.226C165.614 91.4292 164.789 92.4832 163.913 93.3905C164.335 93.8301 164.739 94.3025 165.046 94.8023C165.382 95.3492 165.614 95.9482 165.614 96.5879V106.111C165.614 106.443 165.69 106.627 165.779 106.726C165.862 106.818 166.007 106.893 166.283 106.893H168.543C168.836 106.893 169.073 107.131 169.073 107.423V109.796C169.073 110.089 168.836 110.327 168.543 110.327H165.223C164.282 110.327 163.492 110.019 162.887 109.387C162.261 108.759 161.954 107.961 161.954 107.019V96.55C161.954 95.9991 161.633 95.5957 161.137 95.3047C160.634 95.0103 159.997 94.8645 159.51 94.8378C159.236 94.8229 159 94.5993 159 94.3033Z" fill="#F4F3EF"/>
    </g>
    <defs>
        <clipPath id="clip0_1253_5961">
            <path d="M0 0H343V190C343 192.761 340.761 195 338 195H5C2.23858 195 0 192.761 0 190V0Z" fill="white"/>
        </clipPath>
    </defs>
</svg>
