<svg width="4" height="11" viewBox="0 0 4 11" fill="none" xmlns="http://www.w3.org/2000/svg">
<g clip-path="url(#clip0_1603_7164)">
<path d="M2.41683 1.87565C2.41683 2.10577 2.23028 2.29232 2.00016 2.29232C1.77004 2.29232 1.5835 2.10577 1.5835 1.87565C1.5835 1.64553 1.77004 1.45898 2.00016 1.45898C2.23028 1.45898 2.41683 1.64553 2.41683 1.87565Z" stroke="#323232"/>
<path d="M2.41683 5.20866C2.41683 5.43878 2.23028 5.62533 2.00016 5.62533C1.77004 5.62533 1.5835 5.43878 1.5835 5.20866C1.5835 4.97854 1.77004 4.79199 2.00016 4.79199C2.23028 4.79199 2.41683 4.97854 2.41683 5.20866Z" stroke="#323232"/>
<path d="M2.41683 8.54264C2.41683 8.77276 2.23028 8.95931 2.00016 8.95931C1.77004 8.95931 1.5835 8.77276 1.5835 8.54264C1.5835 8.31252 1.77004 8.12598 2.00016 8.12598C2.23028 8.12598 2.41683 8.31252 2.41683 8.54264Z" stroke="#323232"/>
</g>
<defs>
<clipPath id="clip0_1603_7164">
<rect width="4" height="10" fill="white" transform="translate(0 0.75)"/>
</clipPath>
</defs>
</svg>
