<svg width="16" height="16" viewBox="0 0 16 16" fill="none" xmlns="http://www.w3.org/2000/svg">
<path d="M4.49996 12.8337H11.5C12.2363 12.8337 12.8333 12.2367 12.8333 11.5003V6.55261C12.8333 6.19899 12.6928 5.85985 12.4428 5.6098L10.3905 3.55752C10.1404 3.30747 9.8013 3.16699 9.44767 3.16699H4.49996C3.76358 3.16699 3.16663 3.76395 3.16663 4.50033V11.5003C3.16663 12.2367 3.76358 12.8337 4.49996 12.8337Z" stroke="current" stroke-linecap="round" stroke-linejoin="round"/>
<path d="M5.83337 12.6663V10.4997C5.83337 10.1315 6.13185 9.83301 6.50004 9.83301H9.50004C9.86823 9.83301 10.1667 10.1315 10.1667 10.4997V12.6663" stroke="current" stroke-linecap="round" stroke-linejoin="round"/>
<path d="M5.83337 3.33301V5.49967" stroke="current" stroke-linecap="round" stroke-linejoin="round"/>
</svg>
