<svg width="184" height="24" viewBox="0 0 184 24" fill="none" xmlns="http://www.w3.org/2000/svg">
<path d="M0.472656 13.112C0.472656 19.8 4.63266 23.224 10.2967 23.224C15.9607 23.224 20.5367 19.8 20.5367 13.112V0.343994H13.4647V13.112C13.4647 15.064 12.6007 16.504 10.4567 16.504C8.31266 16.504 7.54466 15.064 7.54466 13.112V0.343994H0.472656V13.112Z" fill="#FF8A8A"/>
<path d="M38.2247 0.343994V11.928L30.7047 0.343994H23.6007V23H30.7047V11.608L38.2247 23H45.3287V0.343994H38.2247Z" fill="#FF8A8A"/>
<path d="M132.525 0.376831H123.085V23.0328H132.525C139.757 23.0328 144.301 18.1048 144.301 11.6408C144.301 5.11283 139.757 0.376831 132.525 0.376831ZM130.189 16.6968V6.58483H131.885C135.021 6.58483 137.101 8.34483 137.101 11.6408C137.101 14.9368 135.021 16.6968 131.885 16.6968H130.189Z" fill="#FF8A8A"/>
<path d="M161.97 0.376831H146.866V23.0328H161.97V17.3688H153.97V14.1688H161.01V8.82483H153.97V6.04083H161.97V0.376831Z" fill="#FF8A8A"/>
<path d="M176.616 8.24883C176.616 9.59283 175.912 10.1688 174.568 10.1688H171.752V6.32883H174.568C175.912 6.32883 176.616 7.09683 176.616 8.24883ZM164.648 0.376831V23.0328H171.752V14.9048H171.784L176.04 23.0328H183.848L178.92 14.3608C182.152 13.3048 183.816 10.7768 183.816 7.80083C183.816 3.64083 180.904 0.376831 175.208 0.376831H164.648Z" fill="#FF8A8A"/>
<path d="M53.2247 0.376831V11.9608L45.7047 0.376831H38.6007V23.0328H45.7047V11.6408L53.2247 23.0328H60.3287V0.376831H53.2247Z" fill="#FF8A8A"/>
<path d="M68.0977 0.376831V11.9608L60.5777 0.376831H53.4737V23.0328H60.5777V11.6408L68.0977 23.0328H75.2017V0.376831H68.0977Z" fill="#FF8A8A"/>
<path d="M83.1582 0.376831V11.9608L75.6383 0.376831H68.5342V23.0328H75.6383V11.6408L83.1582 23.0328H90.2623V0.376831H83.1582Z" fill="#FF8A8A"/>
<path d="M98.2188 0.376831V11.9608L90.6988 0.376831H83.5948V23.0328H90.6988V11.6408L98.2188 23.0328H105.323V0.376831H98.2188Z" fill="#FF8A8A"/>
<path d="M113.279 0.376831V11.9608L105.759 0.376831H98.6553V23.0328H105.759V11.6408L113.279 23.0328H120.383V0.376831H113.279Z" fill="#FF8A8A"/>
</svg>
