<?xml version="1.0" encoding="UTF-8" standalone="no"?>
<svg
   xmlns:dc="http://purl.org/dc/elements/1.1/"
   xmlns:cc="http://creativecommons.org/ns#"
   xmlns:rdf="http://www.w3.org/1999/02/22-rdf-syntax-ns#"
   xmlns:svg="http://www.w3.org/2000/svg"
   xmlns="http://www.w3.org/2000/svg"
   viewBox="0 0 374.66666 374.66666"
   height="374.66666"
   width="374.66666"
   xml:space="preserve"
   id="svg2"
   version="1.1"><metadata
     id="metadata8"><rdf:RDF><cc:Work
         rdf:about=""><dc:format>image/svg+xml</dc:format><dc:type
           rdf:resource="http://purl.org/dc/dcmitype/StillImage" /></cc:Work></rdf:RDF></metadata><defs
     id="defs6" /><g
     transform="matrix(1.3333333,0,0,-1.3333333,0,374.66667)"
     id="g10"><g
       transform="scale(0.1)"
       id="g12"><path
         id="path14"
         style="fill:#e02325;fill-opacity:1;fill-rule:evenodd;stroke:none"
         d="M 0,2810 H 2810 V 0 H 0 v 2810" /><path
         id="path16"
         style="fill:#ffffff;fill-opacity:1;fill-rule:evenodd;stroke:none"
         d="m 1587.5,965 432.5,257.5 -380,215 V 1750 c 0,0 423.75,86.25 600,-312.5 176.25,-398.75 -170,-635 -250,-677.5 -80,-42.5 -325,-112.5 -520,0 -195,112.5 -277.5,280 -277.5,462.5 0,182.5 0,887.5 0,887.5 h 395 V 965" /><path
         id="path18"
         style="fill:#ffffff;fill-opacity:1;fill-rule:evenodd;stroke:none"
         d="m 740,2110 h 392.5 V 717.5 H 740 v 720 H 532.5 V 1750 H 740 v 360" /></g></g></svg>