<?xml version="1.0" encoding="UTF-8"?>
<svg width="24px" height="20px" viewBox="0 0 24 20" version="1.1" xmlns="http://www.w3.org/2000/svg" xmlns:xlink="http://www.w3.org/1999/xlink">
    <!-- Generator: Sketch 51.3 (57544) - http://www.bohemiancoding.com/sketch -->
    <title>twitter</title>
    <desc>Created with Sketch.</desc>
    <defs></defs>
    <g id="Page-1" stroke="none" stroke-width="1" fill="none" fill-rule="evenodd">
        <g id="twitter" fill="#0698CF" fill-rule="nonzero">
            <path d="M24,2.36771944 C23.117,2.76968827 22.168,3.04040197 21.172,3.16242822 C22.189,2.53794094 22.97,1.54840033 23.337,0.369155045 C22.386,0.947497949 21.332,1.36792453 20.21,1.59454471 C19.313,0.613207547 18.032,0 16.616,0 C13.437,0 11.101,3.0414274 11.819,6.19872847 C7.728,5.98851518 4.1,3.97867104 1.671,0.923913043 C0.381,3.19319114 1.002,6.16181296 3.194,7.66509434 C2.388,7.63843314 1.628,7.41181296 0.965,7.03342904 C0.911,9.37243642 2.546,11.5607055 4.914,12.0477851 C4.221,12.240566 3.462,12.285685 2.69,12.1339212 C3.316,14.1396637 5.134,15.5988515 7.29,15.6398687 C5.22,17.3041427 2.612,18.04758 0,17.7317473 C2.179,19.164274 4.768,20 7.548,20 C16.69,20 21.855,12.0826497 21.543,4.98154225 C22.505,4.26886792 23.34,3.37981952 24,2.36771944 Z" id="Shape" style="mix-blend-mode: color;"></path>
        </g>
    </g>
</svg>