<svg width="238" height="191" viewBox="0 0 238 191" fill="none" xmlns="http://www.w3.org/2000/svg">
<g id="Group 1">
<path id="Vector 27" d="M1.72777 181.589C87.8953 205.496 147.683 171.49 134.364 106.827C134.209 106.073 134.05 105.323 133.887 104.578M133.887 104.578C120.102 41.4638 80.1592 11.9145 42.0717 2.60691C-16.8979 -11.8038 -17.4928 74.7815 74.0459 97.1513C96.5687 102.655 116.479 104.959 133.887 104.578ZM133.887 104.578C185.747 103.442 215.396 78.4804 225.736 43.3371" stroke="#15E0AF" stroke-width="2"/>
<path id="Vector 29" d="M197.263 61.5598C207.911 59.5186 217.329 54.6681 223.263 46.1137C224.104 44.9004 224.856 42.9758 225.873 41.9107C226.337 41.4243 225.991 44.6126 225.995 44.7545C226.236 52.8692 228.153 67.2447 237 75.207" stroke="#15E0AF" stroke-width="2" stroke-linecap="round" stroke-linejoin="round"/>
</g>
</svg>
