<svg width="180" height="180" viewBox="0 0 180 180" fill="none" xmlns="http://www.w3.org/2000/svg">
<path d="M174.2 109.4C174.1 108.6 174.1 107.8 174 107C173.2 90.3001 168.8 51.2001 167.2 40.5001C166.1 33.0001 164.6 27.6001 161 25.2001C157.3 22.8001 151.4 23.1001 143.2 23.7001L141.8 23.8001C127.9 24.7001 111.5 25.9001 90.6 27.5001C83.3 28.1001 75.5 28.7001 67 29.3001C54.7 30.2001 35 32.1001 26.9 33.2001L25 33.5001C16.3 34.7001 12.7 35.2001 9.30001 39.0001C6.60001 41.9001 6.80001 46.7001 7.10001 55.4001C7.60001 71.3001 10.7 113.9 12.2 124.5C12.3 125.5 12.5 126.6 12.6 127.7C13 131.8 13.5 135.7 15.2 137.6C18.1 140.8 24 140.7 28.7 140.6C29.5 140.6 30.2 140.6 30.9 140.6C47.2 140.6 69.4 139.2 82.9 132.4C88.2 129.7 95.5 123.8 98.3 118.5C98.9 117.5 99.3 116.3 99.7 115.1C99.8 115.1 99.8 115.1 99.9 115.1H100.3C108.1 116 115.9 116 123.6 115C128.4 114.5 134.3 113.4 136.6 109.9C137.9 107.8 138.3 105.4 137.9 103.1C137.4 99.5001 134.6 95.1001 132.9 92.6001C132.6 92.1001 132.3 91.7001 132.1 91.4001C125.5 80.6001 105.7 54.7001 94.8 46.0001C90.3 42.4001 86.7 40.1001 83.2 40.4001C79.8 40.7001 76.9 42.8001 75.6 45.9001C75 47.1001 74.6 48.7001 74.3 50.3001C72.8 51.8001 71.3 53.8001 69.9 55.7001C61.8 67.5001 50.6 87.1001 45.8 100C44.8 102.7 44.2 105.5 44 108.3C43.8 111.1 44.8 113.9 46.9 116C49.2 118.1 52.4 118.5 55.2 118.7C64.1 119.3 73.1 118.9 81.9 117.4C82.7 117.3 83.3 116.5 83.1 115.7C83 114.9 82.2 114.3 81.4 114.5C72.8 115.9 64.1 116.4 55.4 115.8C53.1 115.6 50.5 115.4 48.9 113.9C47.5 112.5 46.8 110.6 46.9 108.6C47.1 106 47.6 103.5 48.5 101.1C53.1 88.8001 64.2 69.2001 72.3 57.4001C72.6 56.9001 73 56.3001 73.5 55.6001C73.4 57.2001 73.4 58.5001 73.4 59.3001C73.7 65.0001 76.1 82.9001 81 89.8001C82.7 92.1001 85.5 93.2001 88.3 92.6001C91.1 92.0001 93.1 89.7001 93.7 86.5001C94.2 83.6001 93.3 76.1001 92.7 72.6001C91.5 66.5001 90 60.5001 88.1 54.5001C87 51.7001 84.5 45.3001 77.8 47.6001C77.9 47.4001 78 47.1001 78.1 46.9001C79 44.8001 80.9 43.4001 83.2 43.2001C85.8 43.0001 89.5 45.6001 92.7 48.2001C102.6 56.2001 122 80.9001 129.3 92.8001C129.5 93.1001 129.8 93.6001 130.1 94.1001C131.5 96.3001 134.2 100.5 134.7 103.5C135 105.1 134.7 106.8 133.9 108.1C132 110.9 125.5 111.6 123 111.9C115.5 112.9 107.9 112.9 100.3 112H100C100.7 107.8 100.2 103.4 98.6 100.7C97.5 98.9001 95.8 97.5001 93.7 96.7001C91.2 95.8001 88.4 96.2001 86.1 97.7001C83.3 99.8001 82.2 103.4 83.2 106.7C84 109.3 85.9 111.5 88.4 112.6C91 113.7 93.7 114.3 96.2 114.6C95.9 115.4 95.6 116.2 95.2 116.9C92.7 121.6 85.9 127.1 81.1 129.6C68.1 136.1 46.4 137.5 30.5 137.5C29.8 137.5 29 137.5 28.2 137.5C24.3 137.6 18.9 137.7 17 135.5C15.9 134.3 15.5 130.4 15.1 127.3C15 126.2 14.9 125 14.7 124C13.1 113.4 10.1 71.1001 9.60001 55.1001C9.90001 47.6001 9.70001 43.0001 11.6 41.0001C14.3 38.0001 17.1 37.6001 25.5 36.5001L27.4 36.2001C35.4 35.1001 55.1 33.3001 67.3 32.3001C75.8 31.7001 83.6 31.0001 90.9 30.5001C111.7 28.9001 128.2 27.6001 142 26.8001L143.4 26.7001C151 26.2001 156.4 25.9001 159.4 27.8001C162.2 29.6001 163.5 35.5001 164.3 41.0001C165.9 51.6001 170.3 90.5001 171.1 107.2C171.1 108 171.2 108.8 171.3 109.7C171.6 113.9 171.9 118.3 169.6 121.2C168.1 123.1 164 124.6 158.3 125.5C151.6 126.5 129.5 128.5 112.8 129.2C109.8 129.2 106.9 129.6 104 130.4C100.8 131.4 98.3 133.7 97 136.9C96.2 139.2 96.1 141.6 96.1 143.9C96 145.3 96 146.7 95.8 148C95.3 150.9 92.3 151.6 88.7 152.2C84.4 152.8 80.1 153.2 75.7 153.2C75.3 153.2 74.9 153.2 74.5 153.2C72.3 153.2 69.2 153.3 67 154.3C65.5 155 64.5 156 64 157.3C63.7 158.1 63.5 159.4 64.3 161.1C65.7 164 69.3 164.7 72 165.2L72.6 165.3C76.1 166 81.8 166.4 88.3 166.4C101.6 166.4 118.6 164.8 128.7 160.5C129.5 160.2 129.8 159.3 129.5 158.5C129.2 157.7 128.3 157.4 127.5 157.7C113.4 163.7 83.4 164.3 73.2 162.3L72.6 162.2C70.4 161.8 67.8 161.3 67 159.8C66.7 159.2 66.7 158.7 66.8 158.3C67 157.8 67.5 157.4 68.2 157C69.8 156.2 72.5 156.2 74.5 156.2C75 156.2 75.4 156.2 75.8 156.2C80.3 156.2 84.7 155.8 89.1 155.2C92.4 154.7 97.8 153.8 98.7 148.5C98.9 147 99 145.5 99 144.1C99.1 141.9 99.2 139.8 99.8 138C100.7 135.8 102.5 134.1 104.8 133.4C107.4 132.6 110 132.3 112.8 132.3C128.5 131.7 151.2 129.8 158.7 128.6C165.4 127.6 169.9 125.8 171.9 123.2C175 119.2 174.6 114 174.2 109.4ZM79.2 50.6001C82.1 49.5001 83.8 50.9001 85.7 55.6001C87.5 61.4001 89.1 67.3001 90.2 73.2001C91 77.5001 91.6 84.0001 91.2 86.0001C90.8 88.0001 89.7 89.3001 88.1 89.7001C86.5 90.0001 84.9 89.4001 83.9 88.0001C79.9 82.5001 77.2 66.5001 76.8 59.1001C76.7 57.6001 76.8 54.5001 77.3 51.7001C78 51.2001 78.6 50.8001 79.2 50.6001ZM90.1 110C88.4 109.2 87.1 107.7 86.5 105.9C85.9 103.8 86.6 101.5 88.3 100.2C89.2 99.6001 90.3 99.3001 91.4 99.3001C92 99.3001 92.6 99.4001 93.1 99.6001C94.5 100.2 95.7 101.1 96.5 102.4C97.8 104.5 98.1 108.3 97.5 111.8C95.1 111.4 92.5 111 90.1 110Z" fill="#0A0A2D"/>
</svg>
