<svg width="89" height="88" viewBox="0 0 89 88" fill="none" xmlns="http://www.w3.org/2000/svg">
<path d="M74.7622 49.7693C74.3222 47.1781 73.3444 44.2937 72.3178 41.2626C71.8289 39.747 71.2911 38.1826 70.8022 36.6181C70.7533 36.4715 70.7044 36.3248 70.6555 36.1781C70.7533 34.3693 70.46 32.5604 70.2155 30.8493C70.1178 30.3115 70.0689 29.7737 69.9711 29.2359C69.6778 26.8893 69.0911 24.3959 68.3089 22.0493C69.6778 21.5604 71.0466 20.827 72.0733 19.7026C73.6866 17.9426 74.2733 15.547 73.5889 13.2981C73.0022 11.3915 70.9978 7.87148 63.9578 6.16036C52.42 3.3737 38.5355 7.82259 30.1755 12.5159C24.4555 15.6448 21.0822 19.3115 19.6155 24.0048C18.2467 28.2581 18.3444 33.5381 19.9578 41.1648C20.0555 41.5559 20.4467 41.8004 20.8378 41.7515C21.2289 41.6537 21.4733 41.2626 21.4244 40.8715C18.3444 26.2537 20.74 19.4093 30.9578 13.787C39.7578 8.89814 53.3 5.08481 63.7133 7.57814C70.02 9.14259 71.8289 12.0759 72.3178 13.7381C72.8555 15.4981 72.4155 17.307 71.1444 18.7248C70.2644 19.7026 69.14 20.2893 67.9667 20.6804C66.6467 17.4537 64.8867 14.7159 62.8822 13.6404C61.6111 12.9559 60.2422 12.9559 58.9711 13.5915C57.8955 14.1293 57.2111 15.3515 57.26 16.7204C57.26 17.6981 57.7 20.0937 61.4644 21.9515C62.7844 22.587 64.9355 22.8315 67.1355 22.3915C67.8689 24.3959 68.4067 26.7915 68.7489 29.3826C68.7978 29.9204 68.8955 30.4581 68.9933 30.9959C69.0911 31.4848 69.14 31.9737 69.1889 32.4626C68.1622 30.9959 66.5978 29.6759 64.1044 29.3826C61.0733 29.0404 58.4822 30.4093 57.2111 33.0981C55.8911 35.8848 56.38 39.2581 58.4822 41.3604C60.0955 42.9737 62.4911 43.7559 64.8378 43.4137C66.9889 43.1204 68.7489 41.947 69.7755 40.1381C69.9711 39.7959 70.1178 39.4537 70.2644 39.1115C70.5578 39.9915 70.8511 40.8715 71.1444 41.7026C72.1711 44.6848 73.1 47.5204 73.4911 49.9648C73.6867 51.4315 73.2467 52.2626 72.1711 52.7026C71.2422 53.0937 69.5311 53.5337 67.82 53.8759C67.0378 52.4093 65.8155 51.1381 63.8111 50.6004C61.8555 50.0626 60.4867 50.9426 60.0467 51.9204C59.6555 52.8004 59.7533 54.1693 61.3666 55.2448C62.3933 55.9293 64.6911 55.8315 66.94 55.4893C67.1355 55.9781 67.2822 56.467 67.4778 57.0537C67.9178 58.667 68.3578 60.3781 67.8689 61.0626C67.6244 61.4048 67.0866 61.5515 66.2066 61.6493C64.1533 61.7959 60.5844 60.7204 59.4111 60.3293C58.4822 60.0359 57.1133 60.2315 56.38 61.1604C55.9889 61.6004 55.5 62.5781 56.2822 64.0937C57.6511 66.7337 62.4422 68.1515 64.3978 68.3959L64.74 68.4448C65.3266 68.4937 66.1089 68.5915 66.2555 68.7381C66.3044 68.787 66.4022 69.0315 66.06 70.1559C65.8155 71.0848 63.1267 79.1515 52.6155 79.4448C52.3711 79.4448 52.0778 79.4448 51.8333 79.4448C42.0067 79.4448 33.7933 73.9204 28.0244 63.4093C26.6555 60.9648 25.4822 60.5248 24.0155 59.987C23.5267 59.7915 22.9889 59.5959 22.3533 59.3026C21.8155 59.0093 16.8778 56.5159 17.4155 51.6759C17.66 49.5248 18.7355 47.8626 20.3978 46.9826C21.4733 46.3959 22.6467 46.2004 23.8689 46.2981C22.94 48.2537 22.8911 50.4537 23.82 52.0181C24.6511 53.4359 26.0689 54.1204 27.6822 53.8759C29.1 53.6804 30.0778 52.7026 30.3222 51.2848C30.6155 49.4759 29.5889 46.9826 27.0467 45.7115C26.7533 45.5648 26.46 45.467 26.1667 45.3204C29.2955 41.6048 35.4067 39.2093 37.3622 38.6226L37.6067 38.5248C39.3178 38.0359 39.3178 38.0359 39.8067 39.2581C41.1755 42.8759 43.6689 44.9293 47.0422 45.2226C50.8067 45.5648 53.8867 42.5337 54.4733 39.4537C55.1089 35.9337 53.3489 32.707 50.0244 31.2893C46.7 29.8226 42.6911 31.0448 40.7844 34.1737C40.5889 34.5159 40.6867 34.9559 41.0289 35.2004C41.3711 35.3959 41.8111 35.2981 42.0555 34.9559C43.5711 32.4626 46.7489 31.4848 49.4378 32.6581C52.1755 33.8315 53.5933 36.3248 53.0555 39.2093C52.6644 41.2626 50.3667 44.0981 47.1889 43.8048C43.6689 43.4626 41.9578 40.8715 41.1755 38.7693C40.2467 36.227 38.9267 36.6181 37.2155 37.107L36.9711 37.1559C34.82 37.7915 27.9267 40.5293 24.7 44.7826C22.94 44.4404 21.18 44.6848 19.6644 45.5159C17.5622 46.6404 16.2422 48.7426 15.9 51.3337C15.4111 55.7826 18.6867 59.0093 21.6689 60.427C22.3533 60.7693 22.94 60.9648 23.4289 61.1604C24.7978 61.6493 25.58 61.9426 26.6555 63.8981C32.7178 74.8981 41.3711 80.667 51.7355 80.667C52.0289 80.667 52.2733 80.667 52.5667 80.667C64.1533 80.3248 67.0867 71.3293 67.38 70.3026C67.6733 69.3248 67.8689 68.347 67.38 67.6626C66.8911 66.9293 66.0111 66.8315 64.8378 66.6848L64.4955 66.6359C62.2466 66.3915 58.4333 64.9737 57.5044 63.1159C57.3089 62.7248 57.1133 62.1381 57.4067 61.7959C57.7 61.4537 58.3844 61.307 58.8733 61.4537C60.0955 61.8448 63.86 62.9693 66.1578 62.8226C67.0378 62.7737 68.26 62.5781 68.8955 61.6493C69.6778 60.5737 69.4333 59.0581 68.7 56.4181C68.5533 55.9293 68.4067 55.4893 68.26 55.0004C70.2155 54.6093 71.9266 54.1204 72.5622 53.827C73.7355 53.5826 75.1044 52.4581 74.7622 49.7693ZM61.9044 20.6315C59.8022 19.6048 58.58 18.187 58.5311 16.7204C58.5311 15.9381 58.8733 15.2048 59.46 14.9115C59.9 14.7159 60.2911 14.5693 60.6822 14.5693C61.1222 14.5693 61.5622 14.667 62.0022 14.9115C63.42 15.6448 65.0333 17.7959 66.3533 20.9737C64.5933 21.267 62.8333 21.0715 61.9044 20.6315ZM68.3089 39.4048C67.5266 40.8226 66.1578 41.7026 64.4467 41.947C62.54 42.1915 60.5844 41.5559 59.3133 40.2848C57.6511 38.6226 57.26 35.9337 58.3355 33.7337C59.2644 31.827 60.9267 30.8004 63.0289 30.8004C63.2733 30.8004 63.5178 30.8004 63.7622 30.8493C67.0866 31.2404 68.3578 33.7337 69.1889 36.2759C69.14 37.4004 68.8466 38.4759 68.3089 39.4048ZM62.0022 54.0715C61.3178 53.5826 60.9755 53.0448 61.22 52.6048C61.3666 52.2626 61.8555 51.9693 62.4911 51.9693C62.7355 51.9693 62.98 52.0181 63.2733 52.067C64.4466 52.4093 65.3755 53.0448 66.1089 54.1693C64.2022 54.4137 62.5889 54.4626 62.0022 54.0715ZM25.2867 46.6893C25.6289 46.787 26.02 46.9337 26.3622 47.1293C28.2689 48.0581 29.0511 49.867 28.8555 51.1381C28.7578 51.6759 28.4644 52.3604 27.4867 52.507C26.1667 52.7026 25.4333 51.9693 25.0911 51.3337C24.4067 50.307 24.26 48.4981 25.2867 46.6893Z" fill="#0A0A2D"/>
</svg>
