<svg width="56" height="56" viewBox="0 0 56 56" fill="none" xmlns="http://www.w3.org/2000/svg">
<path d="M21.7102 8.71004L20.2902 7.29004L11.0002 16.59L8.07016 13.66L6.66016 15.07L11.0002 19.41L21.7102 8.71004Z" fill="#15E0AF"/>
<path d="M43 37C41.8133 37 40.6533 37.3519 39.6666 38.0112C38.6799 38.6705 37.9109 39.6075 37.4567 40.7039C37.0026 41.8003 36.8838 43.0067 37.1153 44.1705C37.3468 45.3344 37.9182 46.4035 38.7574 47.2426C39.5965 48.0818 40.6656 48.6532 41.8295 48.8847C42.9933 49.1162 44.1997 48.9974 45.2961 48.5433C46.3925 48.0892 47.3295 47.3201 47.9888 46.3334C48.6481 45.3467 49 44.1867 49 43C49 41.4087 48.3679 39.8826 47.2426 38.7574C46.1174 37.6321 44.5913 37 43 37ZM43 47C42.2089 47 41.4355 46.7654 40.7777 46.3259C40.1199 45.8864 39.6072 45.2616 39.3045 44.5307C39.0017 43.7998 38.9225 42.9956 39.0769 42.2196C39.2312 41.4437 39.6122 40.731 40.1716 40.1716C40.731 39.6122 41.4437 39.2312 42.2196 39.0769C42.9956 38.9225 43.7998 39.0017 44.5307 39.3045C45.2616 39.6072 45.8864 40.1199 46.3259 40.7777C46.7654 41.4355 47 42.2089 47 43C47 44.0609 46.5786 45.0783 45.8284 45.8284C45.0783 46.5786 44.0609 47 43 47Z" fill="#15E0AF"/>
<path d="M42.79 12.1999C44.45 15.0099 46.71 17.8399 48.67 19.0699L49.73 17.3699C47.26 15.8299 43.93 10.8299 42.83 7.71988C42.7613 7.52978 42.6367 7.36495 42.4724 7.24713C42.3082 7.12931 42.1121 7.06402 41.91 7.05988C41.7075 7.05484 41.5082 7.11142 41.3386 7.22214C41.1689 7.33285 41.0369 7.49248 40.96 7.67988C39.57 11.1299 35.5 15.2499 31.5 17.2499L32.39 18.9999C35.6936 17.2594 38.5695 14.807 40.81 11.8199C40.38 20.3999 38.08 24.8699 32.87 27.7199C30.64 28.9399 28.59 30.1099 26.78 31.2299C25.9266 30.0544 24.7826 29.1206 23.46 28.5199C21.16 27.4099 18.55 27.7799 15.92 29.5899C10.92 33.0499 5.99002 42.1499 6.76002 50.8099L8.76002 50.6399C8.08002 42.9399 12.51 34.3899 17.07 31.2399C18.46 30.2399 20.55 29.3299 22.6 30.3199C23.5905 30.7666 24.4534 31.4542 25.11 32.3199C20.92 35.0799 18.28 37.5899 17.89 40.0399C17.7895 40.6525 17.838 41.2804 18.0311 41.8704C18.2243 42.4604 18.5566 42.9953 19 43.4299C19.413 43.8472 19.9438 44.1284 20.5211 44.2356C21.0984 44.3428 21.6947 44.2711 22.23 44.0299C24.78 43.0899 27.76 39.3499 27.95 35.4899C27.9926 34.6726 27.8945 33.854 27.66 33.0699C29.66 31.8299 31.79 30.6199 33.83 29.4999C39.61 26.3399 42.28 21.3299 42.79 12.1999ZM21.54 42.1999C20.79 42.4699 20.54 42.1999 20.46 42.1099C20.2286 41.8994 20.0528 41.6349 19.9481 41.3401C19.8434 41.0453 19.8132 40.7292 19.86 40.4199C20.14 38.6299 22.63 36.4199 25.86 34.2699C25.9488 34.6367 25.9958 35.0125 26 35.3899C25.8 38.3399 23.46 41.4499 21.54 42.1499V42.1999Z" fill="#15E0AF"/>
</svg>
