<svg width="24" height="24" viewBox="0 0 24 24" fill="none" xmlns="http://www.w3.org/2000/svg">
<g id="block_FILL1_wght500_GRAD0_opsz24 1">
<path id="Vector" d="M11.9999 22.2034C10.5887 22.2034 9.26276 21.9349 8.02218 21.398C6.7816 20.861 5.70135 20.1326 4.78143 19.2127C3.8615 18.2927 3.13405 17.2115 2.59908 15.9689C2.06411 14.7263 1.79663 13.3994 1.79663 11.9882C1.79663 10.577 2.06411 9.25206 2.59908 8.01347C3.13405 6.77488 3.8615 5.69661 4.78143 4.77867C5.70135 3.86074 6.7816 3.13429 8.02218 2.59932C9.26276 2.06436 10.5887 1.79688 11.9999 1.79688C13.4111 1.79688 14.737 2.06436 15.9776 2.59932C17.2182 3.13429 18.2985 3.86074 19.2184 4.77867C20.1383 5.69661 20.8658 6.77488 21.4007 8.01347C21.9357 9.25206 22.2032 10.577 22.2032 11.9882C22.2032 13.3994 21.9357 14.7263 21.4007 15.9689C20.8658 17.2115 20.1383 18.2927 19.2184 19.2127C18.2985 20.1326 17.2182 20.861 15.9776 21.398C14.737 21.9349 13.4111 22.2034 11.9999 22.2034ZM11.9999 19.9284C14.2093 19.9284 16.0831 19.1584 17.6211 17.6184C19.1591 16.0783 19.9282 14.2016 19.9282 11.9882C19.9282 11.1241 19.7923 10.2893 19.5206 9.48385C19.2488 8.67842 18.8519 7.93367 18.3298 7.2496L7.25536 18.3181C7.93144 18.8482 8.67419 19.2491 9.48361 19.5208C10.293 19.7925 11.1318 19.9284 11.9999 19.9284ZM5.66403 16.7268L16.7325 5.65232C16.0485 5.13421 15.3047 4.74127 14.5013 4.47352C13.6978 4.20577 12.864 4.0719 11.9999 4.0719C9.79049 4.0719 7.91676 4.83893 6.37871 6.37298C4.84067 7.90704 4.07166 9.77878 4.07166 11.9882C4.07166 12.8523 4.20752 13.6871 4.47926 14.4925C4.75099 15.298 5.14591 16.0427 5.66403 16.7268Z" fill="currentColor"/>
</g>
</svg>
