<svg width="16" height="16" viewBox="0 0 16 16" fill="none" xmlns="http://www.w3.org/2000/svg">
<path d="M7.59999 7.53301H8.66666V8.49967C8.66666 8.61171 8.71388 8.6925 8.80833 8.74204C8.90277 8.79157 8.99533 8.77101 9.08599 8.68034L10.6167 7.14967C10.7055 7.06079 10.75 6.94412 10.75 6.79967C10.75 6.65523 10.7055 6.53856 10.6167 6.44967L9.08599 4.91901C8.99533 4.82834 8.90277 4.80777 8.80833 4.85731C8.71388 4.90685 8.66666 4.98764 8.66666 5.09967V6.06634H7.19999C6.7111 6.06634 6.29999 6.23301 5.96666 6.56634C5.63333 6.89967 5.46666 7.31079 5.46666 7.79967V8.59967C5.46666 8.80745 5.5366 8.98162 5.67648 9.12217C5.81636 9.26273 5.9897 9.33301 6.19648 9.33301C6.40326 9.33301 6.57777 9.26273 6.71999 9.12217C6.86221 8.98162 6.93333 8.80745 6.93333 8.59967V8.19967C6.93333 8.01745 6.99888 7.86079 7.12999 7.72967C7.2611 7.59856 7.41777 7.53301 7.59999 7.53301ZM1.01666 14.4163C0.808881 14.4163 0.634714 14.3464 0.494159 14.2065C0.353603 14.0666 0.283325 13.8933 0.283325 13.6865C0.283325 13.4845 0.353603 13.3139 0.494159 13.1749C0.634714 13.0359 0.808881 12.9663 1.01666 12.9663H14.9833C15.1911 12.9663 15.3653 13.0347 15.5058 13.1715C15.6464 13.3082 15.7167 13.4776 15.7167 13.6798C15.7167 13.8819 15.6464 14.0552 15.5058 14.1997C15.3653 14.3441 15.1911 14.4163 14.9833 14.4163H1.01666ZM2.99999 12.1663C2.44777 12.1663 1.98194 11.9766 1.60249 11.5972C1.22305 11.2177 1.03333 10.7519 1.03333 10.1997V3.79967C1.03333 3.24745 1.22305 2.78162 1.60249 2.40217C1.98194 2.02273 2.44777 1.83301 2.99999 1.83301H13C13.5522 1.83301 14.018 2.02273 14.3975 2.40217C14.7769 2.78162 14.9667 3.24745 14.9667 3.79967V10.1997C14.9667 10.7519 14.7769 11.2177 14.3975 11.5972C14.018 11.9766 13.5522 12.1663 13 12.1663H2.99999ZM2.99999 10.1997H13V3.79967H2.99999V10.1997Z" fill="white"/>
</svg>
