<svg width="56" height="56" viewBox="0 0 56 56" fill="none" xmlns="http://www.w3.org/2000/svg">
<rect width="56" height="56" rx="10" fill="#0A0A2D"/>
<path d="M40.5006 23.2856C39.7863 22.7856 38.8577 22.5713 38.0006 22.7856C36.7863 22.9999 36.2863 23.9999 35.9291 24.7856C35.9291 24.5713 36.0006 24.4285 36.0006 24.2142C36.072 23.4999 36.2148 22.7142 36.2863 21.857C38.7863 21.4999 40.4291 20.857 41.2863 19.9285C41.9291 19.2856 42.1434 18.4285 42.072 17.5713C42.0006 16.9285 41.6434 15.9285 40.2863 15.2142C39.2148 14.6428 37.572 14.2856 35.6434 14.2856H35.572C34.1434 11.2142 30.6434 9.92847 25.072 10.6428C19.4291 11.357 15.2863 14.2856 15.7148 17.357C16.1434 20.7856 22.0006 21.7856 26.7863 21.9999C30.0006 22.1428 32.7148 22.1428 34.8577 21.9999C34.7863 22.7142 34.7148 23.357 34.6434 23.9999C34.572 24.6428 34.5006 25.2142 34.4291 25.7856C34.2148 25.6428 34.0006 25.4285 33.7148 25.1428C33.072 24.4999 32.2148 23.6428 30.9291 23.9285C29.9291 24.1428 29.1434 24.7142 28.6434 25.4999C24.3577 27.2142 23.2148 26.0713 21.9291 24.7856C21.0006 23.857 19.9291 22.7856 17.7863 22.7856C15.572 22.7856 13.7148 25.0713 13.7148 26.857C13.7148 27.857 14.2148 28.857 14.572 29.7142C14.7148 29.9999 14.7863 30.2142 14.9291 30.4285C15.6434 32.2142 15.6434 33.2856 15.6434 36.4999C15.6434 41.4285 19.7148 45.4285 25.1434 45.7856C25.3577 45.7856 25.6434 45.7856 25.8577 45.7856C28.7148 45.7856 31.4291 44.7856 33.3577 42.9999C34.6434 41.7856 35.4291 40.2856 35.7148 38.7142C37.5006 38.857 39.2863 38.4999 40.2148 37.2856C41.9291 35.1428 40.072 33.357 38.4291 31.7142C37.1434 30.4285 35.7148 29.0713 35.7148 27.4999V27.4285C35.9291 27.5713 36.2148 27.7856 36.5006 28.0713C37.0006 28.5713 37.7148 29.2856 38.7148 29.2856C38.8577 29.2856 39.0006 29.2856 39.1434 29.2142C40.9291 28.857 42.1434 27.1428 41.7863 25.357C41.7148 24.5713 41.2148 23.7856 40.5006 23.2856ZM39.6434 16.4999C40.2863 16.857 40.6434 17.2856 40.7148 17.7142C40.7863 18.2142 40.6434 18.5713 40.2863 18.9285C39.7863 19.4999 38.6434 20.0713 36.4291 20.357C36.5006 18.7856 36.4291 17.1428 36.072 15.6428C37.572 15.7856 38.8577 15.9999 39.6434 16.4999ZM26.8577 20.6428C21.072 20.357 17.3577 19.0713 17.072 17.2142C16.8577 15.2856 20.072 12.7142 25.2148 12.0713C26.1434 11.9285 27.072 11.9285 27.8577 11.9285C30.9291 11.9285 32.9291 12.7856 34.0006 14.4285C31.3577 14.6428 28.2863 15.4999 25.2863 16.9999L25.9291 18.2856C28.9291 16.7856 32.0006 15.9999 34.572 15.7856C35.0006 17.2142 35.0006 18.9285 34.9291 20.6428C33.0006 20.7856 30.3577 20.7856 26.8577 20.6428ZM31.1434 25.2856C31.2148 25.2856 31.2863 25.2856 31.3577 25.2856C31.7863 25.2856 32.1434 25.6428 32.7148 26.1428C33.0006 26.4285 33.2863 26.7142 33.6434 26.9999C33.4291 27.357 33.2148 27.7142 33.072 28.0713C32.7148 28.857 32.5006 29.2856 31.9291 29.4285C31.3577 29.4999 30.8577 29.4285 30.3577 29.0713C29.9291 28.7856 29.572 28.2856 29.5006 27.7142C29.2863 26.5713 30.0006 25.4999 31.1434 25.2856ZM34.3577 36.9999C33.072 36.6428 32.072 35.9999 32.0006 35.4285C31.9291 35.0713 32.0006 34.7856 32.2148 34.5713C32.4291 34.2856 32.7863 34.1428 33.2863 34.1428C34.0006 34.1428 34.1434 34.4285 34.2863 35.4999C34.3577 35.7856 34.3577 36.4285 34.3577 36.9999ZM37.4291 32.7142C39.2863 34.4999 39.9291 35.2856 39.072 36.357C38.4291 37.1428 37.072 37.357 35.7148 37.2856V37.2142C35.7148 36.357 35.7148 35.6428 35.6434 35.2856C35.5006 34.357 35.2148 32.7142 33.2148 32.7142C32.3577 32.7142 31.572 33.0713 31.072 33.6428C30.572 34.2142 30.3577 34.9285 30.5006 35.7142C30.7148 36.9285 31.9291 37.9285 33.8577 38.4285C33.9291 38.4285 34.072 38.4999 34.1434 38.4999C33.9291 39.7856 33.2863 40.9999 32.2148 41.9999C30.4291 43.6428 27.7863 44.5713 25.072 44.3571C20.4291 44.0713 16.8577 40.6428 16.8577 36.4999C16.8577 33.2856 16.8577 31.9285 16.0006 29.857C15.9291 29.5713 15.7863 29.2856 15.6434 28.9999C15.2863 28.2856 14.9291 27.4999 14.9291 26.7856C14.9291 25.6428 16.2148 24.1428 17.572 24.1428C19.1434 24.1428 19.8577 24.857 20.7148 25.7142C22.072 27.0713 23.572 28.5713 27.8577 27.1428C27.8577 27.4285 27.8577 27.7142 27.9291 27.9999C28.072 28.9285 28.6434 29.7142 29.3577 30.2142C29.9291 30.6428 30.6434 30.857 31.3577 30.857C31.572 30.857 31.7863 30.857 32.0006 30.7856C33.3577 30.5713 33.7863 29.4999 34.2148 28.6428C34.2148 28.5713 34.2863 28.4999 34.2863 28.4285C34.8577 30.1428 36.2148 31.4999 37.4291 32.7142ZM39.0006 27.857C38.5006 27.9285 38.2148 27.7142 37.6434 27.0713C37.4291 26.857 37.1434 26.5713 36.7863 26.357C37.0006 25.9999 37.1434 25.6428 37.2863 25.357C37.6434 24.5713 37.7863 24.2142 38.2863 24.1428C39.2863 23.9285 40.2863 24.6428 40.5006 25.6428C40.6434 26.7142 40.0006 27.6428 39.0006 27.857Z" fill="#15E0AF"/>
</svg>
