<svg width="17" height="16" viewBox="0 0 17 16" fill="none" xmlns="http://www.w3.org/2000/svg">
<path d="M1.5 4C1.5 2.34315 2.84315 1 4.5 1H7.5C8.05228 1 8.5 1.44772 8.5 2C8.5 2.55228 8.05228 3 7.5 3H4.5C3.94772 3 3.5 3.44772 3.5 4V12C3.5 12.5523 3.94772 13 4.5 13H7.5C8.05228 13 8.5 13.4477 8.5 14C8.5 14.5523 8.05228 15 7.5 15H4.5C2.84315 15 1.5 13.6569 1.5 12V4Z" fill="#0A0A2D"/>
<path d="M11.3492 12.2593C10.9299 11.8998 10.8813 11.2685 11.2407 10.8492L12.8258 9H6.5C5.94772 9 5.5 8.55228 5.5 8C5.5 7.44772 5.94772 7 6.5 7H12.8258L11.2407 5.1508C10.8813 4.73148 10.9299 4.10018 11.3492 3.74076C11.7685 3.38133 12.3998 3.4299 12.7593 3.84922L15.7593 7.34922C16.0802 7.72371 16.0802 8.27631 15.7593 8.6508L12.7593 12.1508C12.3998 12.5701 11.7685 12.6187 11.3492 12.2593Z" fill="#0A0A2D"/>
</svg>
