<svg width="24" height="24" viewBox="0 0 24 24" fill="none" xmlns="http://www.w3.org/2000/svg">
<path fill-rule="evenodd" clip-rule="evenodd" d="M12 24C18.6274 24 24 18.6274 24 12C24 5.37258 18.6274 0 12 0C5.37258 0 0 5.37258 0 12C0 18.6274 5.37258 24 12 24ZM10.6667 18.3445C11.0333 18.7142 11.4763 18.8991 11.9954 18.8991C12.5146 18.8991 12.959 18.7158 13.3288 18.3491C13.6985 17.9824 13.8833 17.5395 13.8833 17.0203C13.8833 16.5012 13.7 16.0567 13.3333 15.687C12.9667 15.3173 12.5237 15.1324 12.0046 15.1324C11.4854 15.1324 11.041 15.3158 10.6712 15.6824C10.3015 16.0491 10.1167 16.492 10.1167 17.0112C10.1167 17.5304 10.3 17.9748 10.6667 18.3445ZM10.8583 13.3909C11.175 13.7075 11.5556 13.8658 12.0002 13.8658C12.4447 13.8658 12.8253 13.7075 13.1418 13.3909C13.4584 13.0743 13.6167 12.6937 13.6167 12.2491V6.84909C13.6167 6.4045 13.4583 6.02391 13.1417 5.70732C12.825 5.39072 12.4444 5.23242 11.9999 5.23242C11.5553 5.23242 11.1748 5.39072 10.8582 5.70732C10.5416 6.02391 10.3833 6.4045 10.3833 6.84909V12.2491C10.3833 12.6937 10.5417 13.0743 10.8583 13.3909Z" fill="#42425A"/>
</svg>
