<svg width="16" height="16" viewBox="0 0 16 16" fill="none" xmlns="http://www.w3.org/2000/svg">
<path d="M7.99999 14.9665C7.04444 14.9665 6.14444 14.7832 5.29999 14.4165C4.45555 14.0499 3.71388 13.5471 3.07499 12.9082C2.4361 12.2693 1.9361 11.5249 1.57499 10.6749C1.21388 9.82487 1.03333 8.92209 1.03333 7.96654C1.03333 6.99987 1.21388 6.09987 1.57499 5.26654C1.9361 4.4332 2.4361 3.69987 3.07499 3.06654C3.71388 2.4332 4.45555 1.93598 5.29999 1.57487C6.14444 1.21376 7.04444 1.0332 7.99999 1.0332C8.96666 1.0332 9.86944 1.21376 10.7083 1.57487C11.5472 1.93598 12.2861 2.4332 12.925 3.06654C13.5639 3.69987 14.0639 4.4332 14.425 5.26654C14.7861 6.09987 14.9667 6.99987 14.9667 7.96654C14.9667 8.92209 14.7861 9.82487 14.425 10.6749C14.0639 11.5249 13.5639 12.2693 12.925 12.9082C12.2861 13.5471 11.5472 14.0499 10.7083 14.4165C9.86944 14.7832 8.96666 14.9665 7.99999 14.9665ZM7.99999 12.9999C9.37777 12.9999 10.5555 12.5082 11.5333 11.5249C12.5111 10.5415 13 9.35543 13 7.96654C13 7.45543 12.9278 6.96654 12.7833 6.49987C12.6389 6.0332 12.4278 5.59987 12.15 5.19987L5.21666 12.1165C5.59444 12.4165 6.02221 12.6388 6.49999 12.7832C6.97777 12.9276 7.47777 12.9999 7.99999 12.9999ZM3.83333 10.7332L10.75 3.79987C10.35 3.5332 9.91944 3.3332 9.45833 3.19987C8.99721 3.06654 8.5111 2.99987 7.99999 2.99987C6.62221 2.99987 5.44444 3.4832 4.46666 4.44987C3.48888 5.41654 2.99999 6.58876 2.99999 7.96654C2.99999 8.47765 3.07221 8.96654 3.21666 9.4332C3.3611 9.89987 3.56666 10.3332 3.83333 10.7332Z" fill="currentColor"/>
</svg>
