<svg width="49" height="48" viewBox="0 0 49 48" fill="none" xmlns="http://www.w3.org/2000/svg">
<g clip-path="url(#clip0_166_3780)">
<path d="M37.95 48H11.05C5.2 48 0.5 43.3 0.5 37.45V10.55C0.5 4.7 5.2 0 11.05 0H37.95C43.8 0 48.5 4.7 48.5 10.55V37.45C48.5 43.3 43.8 48 37.95 48Z" fill="#0A0A2D"/>
<path d="M36.0713 8.57031H30.5611C28.4121 8.57031 26.7039 10.2785 26.7039 12.4275V28.9581C26.7039 32.9254 23.508 36.1213 19.5407 36.1213C15.5733 36.1213 12.3774 32.9254 12.3774 28.9581V12.4275C12.3774 12.0968 12.5978 11.8764 12.9284 11.8764H18.4386C18.7692 11.8764 18.9897 12.0968 18.9897 12.4275V28.9581C18.9897 30.556 19.3754 32.0989 20.0366 33.4764C20.1468 33.6968 20.4223 33.807 20.6978 33.7519C21.5244 33.5866 22.2407 33.1458 22.8468 32.5948C23.0121 32.4295 23.0672 32.154 22.957 31.9336C22.5162 31.0519 22.2958 30.0601 22.2958 28.9581V12.4275C22.2958 10.2785 20.5876 8.57031 18.4386 8.57031H12.9284C10.7795 8.57031 9.07129 10.2785 9.07129 12.4275V28.9581C9.07129 34.7438 13.755 39.4275 19.5407 39.4275C25.3264 39.4275 30.0101 34.7438 30.0101 28.9581V12.4275C30.0101 12.0968 30.2305 11.8764 30.5611 11.8764H36.0713C36.4019 11.8764 36.6223 12.0968 36.6223 12.4275V28.9581C36.6223 32.6499 33.8121 35.6805 30.2305 36.0662C30.0652 36.0662 29.955 36.1764 29.8448 36.2866C29.2937 37.0581 28.6876 37.7744 27.9713 38.3805C27.5856 38.7111 27.806 39.3173 28.3019 39.3724C28.6876 39.4275 29.0733 39.4275 29.459 39.4275C35.2448 39.4275 39.9284 34.7438 39.9284 28.9581V12.4275C39.9284 10.2785 38.2203 8.57031 36.0713 8.57031Z" fill="#15E0AF"/>
</g>
<defs>
<clipPath id="clip0_166_3780">
<rect width="48" height="48" fill="white" transform="translate(0.5)"/>
</clipPath>
</defs>
</svg>
