<svg width="24" height="24" viewBox="0 0 24 24" fill="none" xmlns="http://www.w3.org/2000/svg">
<path d="M2 11.9999C2 11.4476 2.44772 10.9999 3 10.9999H21C21.5523 10.9999 22 11.4476 22 11.9999C22 12.5522 21.5523 12.9999 21 12.9999H3C2.44772 12.9999 2 12.5522 2 11.9999Z" fill="currentColor"/>
<path d="M2 6C2 5.44772 2.44772 5 3 5H16C16.5523 5 17 5.44772 17 6C17 6.55228 16.5523 7 16 7H3C2.44772 7 2 6.55228 2 6Z" fill="currentColor"/>
<path d="M2 17.9999C2 17.4476 2.44772 16.9999 3 16.9999H16C16.5523 16.9999 17 17.4476 17 17.9999C17 18.5522 16.5523 18.9999 16 18.9999H3C2.44772 18.9999 2 18.5522 2 17.9999Z" fill="currentColor"/>
</svg>
