<svg width="56" height="56" viewBox="0 0 56 56" fill="none" xmlns="http://www.w3.org/2000/svg">
<path d="M44.41 19H45C45 15.287 43.525 11.726 40.8995 9.1005C38.274 6.475 34.713 5 31 5H25C21.287 5 17.726 6.475 15.1005 9.1005C12.475 11.726 11 15.287 11 19C9 19 6 20.6 6 23L7 47.17C7 47.9206 7.29816 48.6404 7.82889 49.1711C8.35962 49.7018 9.07944 50 9.83 50H46.17C46.9137 50.0001 47.6275 49.7074 48.1571 49.1853C48.6867 48.6632 48.9895 47.9536 49 47.21L50 23.59C50 21.05 46.94 19 44.41 19ZM25 7H31C34.1826 7 37.2348 8.26428 39.4853 10.5147C41.7357 12.7652 43 15.8174 43 19C39 19 37.17 23.52 36.44 28.88C33.6546 28.3624 30.8323 28.0681 28 28C25.1174 28.073 22.2451 28.3739 19.41 28.9C19.3 25.51 18.75 22.15 17.11 20.37C16.7214 19.9305 16.2421 19.5805 15.7052 19.3439C15.1684 19.1074 14.5866 18.9901 14 19H13C13 15.8174 14.2643 12.7652 16.5147 10.5147C18.7652 8.26428 21.8174 7 25 7ZM38.18 31.4C40.292 32.0491 42.0633 33.5042 43.11 35.45C43.2581 35.8765 43.308 36.3309 43.2561 36.7793C43.2041 37.2277 43.0517 37.6587 42.81 38.04C42.6134 38.3676 42.33 38.6345 41.9911 38.811C41.6523 38.9875 41.2711 39.0668 40.89 39.04C40.0918 38.9647 39.3512 38.5915 38.8157 37.9948C38.2801 37.3982 37.9889 36.6217 38 35.82C38 34.65 38.05 33.08 38.18 31.4ZM47 47.17C46.9974 47.3893 46.9091 47.5989 46.754 47.754C46.5989 47.9091 46.3893 47.9974 46.17 48H9.83C9.7175 47.9974 9.60663 47.9725 9.50383 47.9268C9.40102 47.881 9.30832 47.8153 9.23111 47.7334C9.1539 47.6516 9.09371 47.5552 9.05404 47.4499C9.01437 47.3446 8.996 47.2325 9 47.12L8 23C8 22 9.76 21 11 21H14C14.3105 20.9915 14.619 21.0526 14.9028 21.179C15.1866 21.3053 15.4385 21.4936 15.64 21.73C16.97 23.17 17.38 26.3 17.43 29.47C14.8 30.39 12.43 31.6 11.05 35.68C9.87 39.21 12 41.4 13.68 42C14.2241 42.2058 14.8098 42.2778 15.3876 42.2099C15.9653 42.142 16.5184 41.9363 17 41.61C18.1066 40.7392 18.8252 39.4672 19 38.07C19 37.76 19.05 37.37 19.09 36.92C19.22 35.37 19.4 33.22 19.43 30.92C22.2565 30.3782 25.1229 30.0705 28 30C30.7587 30.072 33.5073 30.3629 36.22 30.87C36.07 32.51 36.01 34.19 36 35.81C35.999 37.124 36.4955 38.3897 37.3897 39.3525C38.2839 40.3154 39.5095 40.904 40.82 41C41.5464 41.0513 42.2731 40.9033 42.9216 40.572C43.5701 40.2407 44.1158 39.7387 44.5 39.12C44.9305 38.4469 45.1909 37.6792 45.2588 36.8831C45.3268 36.087 45.2002 35.2863 44.89 34.55C44.2181 33.2871 43.2948 32.1751 42.1769 31.2825C41.0591 30.3899 39.7703 29.7357 38.39 29.36C38.93 25.17 40.18 21 43 21H44.41C46 21 48 22.28 48 23.54L47 47.17ZM17.41 31.61C17.36 33.61 17.2 35.48 17.1 36.76C17.1 37.21 17.02 37.61 17 37.93C16.8654 38.7165 16.4496 39.4273 15.83 39.93C15.604 40.0644 15.3494 40.1435 15.087 40.1609C14.8246 40.1782 14.5618 40.1334 14.32 40.03C13.66 39.81 12.14 38.72 12.95 36.3C13.2385 35.206 13.7985 34.2026 14.5782 33.3827C15.3579 32.5628 16.3319 31.9531 17.41 31.61Z" fill="#15E0AF"/>
</svg>
