<svg width="56" height="56" viewBox="0 0 56 56" fill="none" xmlns="http://www.w3.org/2000/svg">
<path d="M45.5 21.4C44.5 20.7 43.2 20.4 42 20.7C40.3 21 39.6 22.4 39.1 23.5C39.1 23.2 39.2 23 39.2 22.7C39.3 21.7 39.5 20.6 39.6 19.4C43.1 18.9 45.4 18 46.6 16.7C47.5 15.8 47.8 14.6 47.7 13.4C47.6 12.5 47.1 11.1 45.2 10.1C43.7 9.30001 41.4 8.80001 38.7 8.80001H38.6C36.6 4.50001 31.7 2.70001 23.9 3.70001C16 4.70001 10.2 8.80001 10.8 13.1C11.4 17.9 19.6 19.3 26.3 19.6C30.8 19.8 34.6 19.8 37.6 19.6C37.5 20.6 37.4 21.5 37.3 22.4C37.2 23.3 37.1 24.1 37 24.9C36.7 24.7 36.4 24.4 36 24C35.1 23.1 33.9 21.9 32.1 22.3C30.7 22.6 29.6 23.4 28.9 24.5C22.9 26.9 21.3 25.3 19.5 23.5C18.2 22.2 16.7 20.7 13.7 20.7C10.6 20.7 8 23.9 8 26.4C8 27.8 8.7 29.2 9.2 30.4C9.4 30.8 9.5 31.1 9.7 31.4C10.7 33.9 10.7 35.4 10.7 39.9C10.7 46.8 16.4 52.4 24 52.9C24.3 52.9 24.7 52.9 25 52.9C29 52.9 32.8 51.5 35.5 49C37.3 47.3 38.4 45.2 38.8 43C41.3 43.2 43.8 42.7 45.1 41C47.5 38 44.9 35.5 42.6 33.2C40.8 31.4 38.8 29.5 38.8 27.3V27.2C39.1 27.4 39.5 27.7 39.9 28.1C40.6 28.8 41.6 29.8 43 29.8C43.2 29.8 43.4 29.8 43.6 29.7C46.1 29.2 47.8 26.8 47.3 24.3C47.2 23.2 46.5 22.1 45.5 21.4ZM44.3 11.9C45.2 12.4 45.7 13 45.8 13.6C45.9 14.3 45.7 14.8 45.2 15.3C44.5 16.1 42.9 16.9 39.8 17.3C39.9 15.1 39.8 12.8 39.3 10.7C41.4 10.9 43.2 11.2 44.3 11.9ZM26.4 17.7C18.3 17.3 13.1 15.5 12.7 12.9C12.4 10.2 16.9 6.60001 24.1 5.70001C25.4 5.50001 26.7 5.50001 27.8 5.50001C32.1 5.50001 34.9 6.70001 36.4 9.00001C32.7 9.30001 28.4 10.5 24.2 12.6L25.1 14.4C29.3 12.3 33.6 11.2 37.2 10.9C37.8 12.9 37.8 15.3 37.7 17.7C35 17.9 31.3 17.9 26.4 17.7ZM32.4 24.2C32.5 24.2 32.6 24.2 32.7 24.2C33.3 24.2 33.8 24.7 34.6 25.4C35 25.8 35.4 26.2 35.9 26.6C35.6 27.1 35.3 27.6 35.1 28.1C34.6 29.2 34.3 29.8 33.5 30C32.7 30.1 32 30 31.3 29.5C30.7 29.1 30.2 28.4 30.1 27.6C29.8 26 30.8 24.5 32.4 24.2ZM36.9 40.6C35.1 40.1 33.7 39.2 33.6 38.4C33.5 37.9 33.6 37.5 33.9 37.2C34.2 36.8 34.7 36.6 35.4 36.6C36.4 36.6 36.6 37 36.8 38.5C36.9 38.9 36.9 39.8 36.9 40.6ZM41.2 34.6C43.8 37.1 44.7 38.2 43.5 39.7C42.6 40.8 40.7 41.1 38.8 41V40.9C38.8 39.7 38.8 38.7 38.7 38.2C38.5 36.9 38.1 34.6 35.3 34.6C34.1 34.6 33 35.1 32.3 35.9C31.6 36.7 31.3 37.7 31.5 38.8C31.8 40.5 33.5 41.9 36.2 42.6C36.3 42.6 36.5 42.7 36.6 42.7C36.3 44.5 35.4 46.2 33.9 47.6C31.4 49.9 27.7 51.2 23.9 50.9C17.4 50.5 12.4 45.7 12.4 39.9C12.4 35.4 12.4 33.5 11.2 30.6C11.1 30.2 10.9 29.8 10.7 29.4C10.2 28.4 9.7 27.3 9.7 26.3C9.7 24.7 11.5 22.6 13.4 22.6C15.6 22.6 16.6 23.6 17.8 24.8C19.7 26.7 21.8 28.8 27.8 26.8C27.8 27.2 27.8 27.6 27.9 28C28.1 29.3 28.9 30.4 29.9 31.1C30.7 31.7 31.7 32 32.7 32C33 32 33.3 32 33.6 31.9C35.5 31.6 36.1 30.1 36.7 28.9C36.7 28.8 36.8 28.7 36.8 28.6C37.6 31 39.5 32.9 41.2 34.6ZM43.4 27.8C42.7 27.9 42.3 27.6 41.5 26.7C41.2 26.4 40.8 26 40.3 25.7C40.6 25.2 40.8 24.7 41 24.3C41.5 23.2 41.7 22.7 42.4 22.6C43.8 22.3 45.2 23.3 45.5 24.7C45.7 26.2 44.8 27.5 43.4 27.8Z" fill="#15E0AF"/>
</svg>
