<svg width="14" height="15" viewBox="0 0 14 15" fill="none" xmlns="http://www.w3.org/2000/svg">
    <path d="M11.1667 9.58565V13.3357M6.37501 13.3357H1.81808C1.34766 13.3357 0.977508 12.9454 1.07125 12.4844C1.33004 11.2117 2.17527 8.96065 4.91667 8.96065C5.47873 8.96065 5.96108 9.00757 6.37501 9.16899M13.0417 11.4607H9.29167M9.29167 5.83565C10.5573 5.83565 11.375 4.80964 11.375 3.54399C11.375 2.27833 10.5573 1.25232 9.29167 1.25232M7.20834 3.54399C7.20834 4.80964 6.18233 5.83565 4.91667 5.83565C3.65102 5.83565 2.62501 4.80964 2.62501 3.54399C2.62501 2.27833 3.65102 1.25232 4.91667 1.25232C6.18233 1.25232 7.20834 2.27833 7.20834 3.54399Z" stroke="#9BDEBA" stroke-width="1.5" stroke-linecap="round" stroke-linejoin="round"/>
</svg>
