
<svg width="427" height="225" viewBox="0 0 407 224" fill="none" xmlns="http://www.w3.org/2000/svg">
    <path d="M-1.39876e-06 208.25C-6.26248e-07 217.087 7.16344 224.25 16 224.25L391 224.25C399.837 224.25 407 217.087 407 208.25L407 0.249995L16 0.250029C7.16344 0.25003 -1.89565e-05 7.41347 -1.81839e-05 16.25L-1.39876e-06 208.25Z" fill="#323232"/>
    <path d="M29.028 31.65V28.53H30.54C31.74 28.53 32.196 29.154 32.196 30.09C32.196 31.026 31.74 31.65 30.54 31.65H29.028ZM37.596 30.09C37.596 26.658 35.412 24.258 31.14 24.258H23.7V41.25H29.028V35.85H31.14C35.412 35.85 37.596 33.234 37.596 30.09ZM39.2859 41.25H44.6139V24.258H39.2859V41.25ZM57.9883 24.258V32.946L52.3483 24.258H47.0203V41.25H52.3483V32.706L57.9883 41.25H63.3163V24.258H57.9883ZM69.9714 24.258V32.946L64.3314 24.258H59.0034V41.25H64.3314V32.706L69.9714 41.25H75.2994V24.258H69.9714ZM81.9546 24.258V32.946L76.3146 24.258H70.9866V41.25H76.3146V32.706L81.9546 41.25H87.2826V24.258H81.9546ZM93.9377 24.258V32.946L88.2977 24.258H82.9697V41.25H88.2977V32.706L93.9377 41.25H99.2657V24.258H93.9377ZM105.921 24.258V32.946L100.281 24.258H94.9528V41.25H100.281V32.706L105.921 41.25H111.249V24.258H105.921ZM117.904 24.258V32.946L112.264 24.258H106.936V41.25H112.264V32.706L117.904 41.25H123.232V24.258H117.904ZM127.389 34.506H131.949L132.573 23.13H126.765L127.389 34.506ZM132.717 38.826C132.717 37.338 131.541 36.162 129.669 36.162C127.773 36.162 126.597 37.338 126.597 38.826C126.597 40.29 127.773 41.442 129.669 41.442C131.541 41.442 132.717 40.29 132.717 38.826Z" fill="#9BDEBA"/>
    <mask id="path-8-outside-1_1362_6168" x="212.962" y="167.65" width="12" height="17" fill="black">
        <rect fill="white" x="212.962" y="167.65" width="12" height="17"/>
        <path d="M222.78 173.218L222.782 173.219C223.156 173.641 223.449 174.159 223.663 174.77L223.664 174.772L223.664 174.775C223.864 175.39 223.962 176.098 223.962 176.896L223.962 183.341C223.962 183.512 223.823 183.65 223.652 183.65L222.133 183.65C221.962 183.65 221.823 183.512 221.823 183.341L221.823 177.117C221.823 175.988 221.591 175.208 221.168 174.732C220.748 174.26 220.091 174.005 219.154 174.005C218.159 174.005 217.402 174.339 216.857 174.993L216.857 174.993C216.291 175.67 215.998 176.577 215.998 177.736L215.998 183.341C215.998 183.512 215.859 183.65 215.688 183.65L214.169 183.65C213.998 183.65 213.86 183.512 213.86 183.341L213.86 168.807C213.86 168.216 214.338 167.737 214.929 167.737L215.289 167.737C215.681 167.737 215.998 168.055 215.998 168.446L215.998 173.573C215.998 173.616 216.015 173.656 216.045 173.686C216.117 173.758 216.236 173.745 216.295 173.663C216.589 173.248 216.934 172.898 217.33 172.613C217.948 172.17 218.724 171.955 219.641 171.955C220.269 171.955 220.855 172.062 221.397 172.279C221.928 172.482 222.389 172.795 222.779 173.216L222.78 173.218Z"/>
    </mask>
    <mask id="path-10-outside-2_1362_6168" x="200.708" y="170.943" width="11" height="14" fill="black">
        <rect fill="white" x="200.708" y="170.943" width="11" height="14"/>
        <path fill-rule="evenodd" clip-rule="evenodd" d="M207.322 176.855L207.323 176.855C208.625 176.96 209.643 177.276 210.351 177.826C211.09 178.372 211.451 179.176 211.451 180.202V180.335C211.451 180.895 211.334 181.407 211.096 181.866C210.876 182.307 210.561 182.685 210.155 182.997C209.761 183.312 209.279 183.544 208.713 183.697C208.161 183.865 207.559 183.948 206.908 183.948C206.036 183.948 205.274 183.836 204.627 183.604L204.624 183.603L204.621 183.602C203.997 183.359 203.466 183.045 203.032 182.657L203.029 182.654L203.026 182.652C202.61 182.251 202.292 181.801 202.073 181.303L202.073 181.302L202.073 181.3C201.87 180.824 201.749 180.344 201.709 179.863C201.696 179.709 201.799 179.574 201.944 179.539L203.38 179.189C203.566 179.144 203.742 179.276 203.763 179.457C203.851 180.196 204.149 180.787 204.656 181.242C205.184 181.702 205.898 181.943 206.82 181.943C207.606 181.943 208.212 181.792 208.655 181.511C209.1 181.223 209.312 180.837 209.312 180.335C209.312 179.78 209.101 179.413 208.69 179.189C208.244 178.946 207.493 178.778 206.408 178.705L206.407 178.705C205.118 178.615 204.101 178.314 203.379 177.78C202.64 177.234 202.277 176.438 202.277 175.424V175.291C202.277 174.745 202.394 174.259 202.636 173.84C202.872 173.416 203.187 173.062 203.58 172.779L203.581 172.778L203.583 172.776C203.986 172.497 204.435 172.289 204.928 172.15C205.419 172.012 205.932 171.943 206.466 171.943C207.207 171.943 207.866 172.049 208.439 172.266C209.003 172.464 209.483 172.734 209.874 173.077C210.263 173.404 210.562 173.788 210.766 174.228C210.965 174.626 211.099 175.026 211.168 175.43C211.195 175.592 211.09 175.742 210.936 175.779L209.505 176.127C209.321 176.172 209.148 176.044 209.123 175.866C209.037 175.262 208.779 174.797 208.351 174.457L208.349 174.456L208.348 174.455C207.907 174.095 207.316 173.905 206.554 173.905C206.261 173.905 205.976 173.94 205.697 174.009L205.694 174.01L205.69 174.011C205.43 174.066 205.201 174.154 205.001 174.274C204.806 174.391 204.653 174.539 204.538 174.717L204.536 174.72L204.534 174.723C204.428 174.875 204.372 175.062 204.372 175.291C204.372 175.752 204.557 176.091 204.938 176.333C205.349 176.584 206.13 176.767 207.322 176.855L207.322 176.855Z"/>
    </mask>
    <mask id="path-13-outside-3_1362_6168" x="193.498" y="167.957" width="7" height="17" fill="black">
        <rect fill="white" x="193.498" y="167.957" width="7" height="17"/>
        <path d="M200.382 175.222V176.269C200.382 176.442 200.244 176.573 200.084 176.582C199.8 176.597 199.428 176.682 199.134 176.854C198.844 177.024 198.657 177.26 198.657 177.582V181.992C198.657 182.542 198.477 183.008 198.111 183.375C197.758 183.744 197.297 183.924 196.747 183.924H194.808C194.637 183.924 194.498 183.785 194.498 183.614V182.228C194.498 182.057 194.637 181.918 194.808 181.918H196.128C196.289 181.918 196.374 181.874 196.422 181.82C196.474 181.763 196.519 181.655 196.519 181.461V177.604C196.519 177.23 196.654 176.88 196.851 176.561C197.03 176.269 197.266 175.993 197.512 175.736C197.001 175.206 196.519 174.59 196.519 173.888V171.42C196.519 171.225 196.474 171.118 196.422 171.06C196.374 171.007 196.289 170.963 196.128 170.963H194.808C194.637 170.963 194.498 170.824 194.498 170.653V169.267C194.498 169.096 194.637 168.957 194.808 168.957H196.747C197.297 168.957 197.758 169.137 198.111 169.506C198.477 169.873 198.657 170.339 198.657 170.889V173.91C198.657 174.231 198.844 174.467 199.134 174.637C199.428 174.809 199.8 174.894 200.084 174.91C200.244 174.919 200.382 175.049 200.382 175.222Z"/>
    </mask>
    <mask id="path-15-outside-4_1362_6168" x="173.192" y="171.256" width="12" height="18" fill="black">
        <rect fill="white" x="173.192" y="171.256" width="12" height="18"/>
        <path d="M175.374 182.689L175.373 182.687C174.998 182.266 174.705 181.747 174.492 181.136L174.491 181.134L174.49 181.132C174.29 180.517 174.192 179.808 174.192 179.01V172.566C174.192 172.395 174.331 172.256 174.502 172.256H176.021C176.192 172.256 176.331 172.395 176.331 172.566V178.789C176.331 179.918 176.564 180.698 176.987 181.174C177.406 181.646 178.063 181.901 179 181.901C179.995 181.901 180.752 181.568 181.297 180.913L181.297 180.913C181.863 180.237 182.156 179.329 182.156 178.17V172.566C182.156 172.395 182.295 172.256 182.466 172.256H183.985C184.156 172.256 184.295 172.395 184.295 172.566V186.494C184.295 187.044 184.115 187.511 183.749 187.877C183.396 188.247 182.935 188.426 182.385 188.426H178.135C177.964 188.426 177.825 188.288 177.825 188.117V186.73C177.825 186.559 177.964 186.421 178.135 186.421H181.765C181.927 186.421 182.012 186.377 182.06 186.323C182.112 186.265 182.156 186.158 182.156 185.963V182.333C182.156 182.291 182.139 182.25 182.109 182.22C182.038 182.148 181.918 182.161 181.86 182.244C181.566 182.658 181.221 183.008 180.824 183.293C180.206 183.737 179.431 183.951 178.514 183.951C177.885 183.951 177.299 183.844 176.757 183.627C176.226 183.424 175.765 183.111 175.376 182.69L175.374 182.689Z"/>
    </mask>
    <mask id="path-17-outside-5_1362_6168" x="185.091" y="163.277" width="7" height="21" fill="black">
        <rect fill="white" x="185.091" y="163.277" width="7" height="21"/>
        <path d="M186.091 176.228V175.181C186.091 175.008 186.229 174.877 186.389 174.868C186.674 174.853 187.045 174.768 187.339 174.596C187.629 174.426 187.816 174.19 187.816 173.868V166.209C187.816 165.66 187.996 165.193 188.362 164.826C188.715 164.457 189.177 164.277 189.726 164.277H191.666C191.837 164.277 191.975 164.416 191.975 164.587V165.973C191.975 166.144 191.837 166.283 191.666 166.283H190.346C190.184 166.283 190.099 166.327 190.051 166.381C189.999 166.438 189.955 166.546 189.955 166.74V173.846C189.955 174.549 189.473 175.165 188.961 175.695C189.208 175.952 189.443 176.228 189.623 176.519C189.819 176.839 189.955 177.189 189.955 177.563V181.48C189.955 181.674 189.999 181.781 190.051 181.839C190.099 181.893 190.184 181.937 190.346 181.937H191.666C191.837 181.937 191.975 182.075 191.975 182.246V183.633C191.975 183.804 191.837 183.942 191.666 183.942H189.726C189.177 183.942 188.715 183.763 188.362 183.394C187.996 183.027 187.816 182.56 187.816 182.01V177.541C187.816 177.219 187.629 176.983 187.339 176.813C187.045 176.641 186.674 176.556 186.389 176.54C186.229 176.532 186.091 176.401 186.091 176.228Z"/>
    </mask>
    <mask id="path-19-outside-6_1362_6168" x="164.935" y="166.744" width="8" height="17" fill="black">
        <rect fill="white" x="164.935" y="166.744" width="8" height="17"/>
        <path d="M166.458 183.094L166.456 183.092C166.105 182.724 165.935 182.258 165.935 181.71V168.054C165.935 167.883 166.073 167.744 166.244 167.744H167.763C167.934 167.744 168.073 167.883 168.073 168.054V172.257H172.011C172.182 172.257 172.32 172.396 172.32 172.567V173.953C172.32 174.124 172.182 174.263 172.011 174.263H168.073V181.18C168.073 181.374 168.117 181.481 168.169 181.539C168.218 181.593 168.303 181.637 168.464 181.637H171.48C171.651 181.637 171.789 181.775 171.789 181.946V183.333C171.789 183.504 171.651 183.642 171.48 183.642H167.844C167.294 183.642 166.827 183.462 166.46 183.095L166.458 183.094Z"/>
    </mask>
    <mask id="path-21-outside-7_1362_6168" x="152.889" y="170.947" width="11" height="14" fill="black">
        <rect fill="white" x="152.889" y="170.947" width="11" height="14"/>
        <path d="M159.503 176.859L159.504 176.859C160.806 176.964 161.824 177.28 162.532 177.829C163.27 178.376 163.631 179.18 163.631 180.206V180.339C163.631 180.899 163.514 181.411 163.277 181.87C163.056 182.311 162.741 182.689 162.336 183.001C161.942 183.316 161.459 183.547 160.894 183.701C160.342 183.869 159.739 183.952 159.089 183.952C158.217 183.952 157.455 183.839 156.807 183.608L156.804 183.607L156.802 183.606C156.178 183.363 155.647 183.048 155.213 182.661L155.21 182.658L155.207 182.656C154.791 182.255 154.472 181.805 154.254 181.306L154.254 181.305L154.253 181.304C154.051 180.828 153.929 180.348 153.89 179.867C153.877 179.713 153.98 179.578 154.124 179.543L155.561 179.193C155.747 179.148 155.922 179.28 155.944 179.461C156.031 180.2 156.33 180.791 156.837 181.246C157.365 181.706 158.079 181.946 159 181.946C159.787 181.946 160.393 181.796 160.836 181.515C161.281 181.226 161.493 180.841 161.493 180.339C161.493 179.784 161.282 179.417 160.87 179.193C160.425 178.95 159.673 178.782 158.588 178.709L158.588 178.709C157.299 178.619 156.282 178.318 155.559 177.784C154.821 177.238 154.458 176.442 154.458 175.428V175.295C154.458 174.749 154.575 174.263 154.817 173.844C155.053 173.42 155.368 173.066 155.761 172.783L155.762 172.781L155.764 172.78C156.167 172.501 156.616 172.293 157.108 172.154C157.599 172.016 158.112 171.947 158.646 171.947C159.387 171.947 160.046 172.053 160.62 172.269C161.184 172.468 161.664 172.738 162.055 173.081C162.444 173.408 162.742 173.792 162.947 174.232C163.146 174.63 163.28 175.03 163.348 175.433C163.376 175.596 163.271 175.746 163.117 175.783L161.686 176.131C161.501 176.176 161.329 176.048 161.304 175.87C161.218 175.266 160.959 174.801 160.531 174.461L160.53 174.46L160.529 174.459C160.088 174.099 159.497 173.909 158.735 173.909C158.442 173.909 158.156 173.944 157.878 174.013L157.874 174.014L157.87 174.015C157.61 174.07 157.382 174.158 157.182 174.277C156.987 174.395 156.833 174.542 156.719 174.721L156.717 174.724L156.715 174.727C156.609 174.879 156.552 175.066 156.552 175.295C156.552 175.756 156.738 176.095 157.119 176.337C157.53 176.588 158.311 176.771 159.502 176.859L159.503 176.859Z"/>
    </mask>
    <path d="M28.892 94.25H31.688V85.478H27.62V87.974H28.892V94.25Z" fill="#F4F3EF"/>
    <path d="M104.836 94.13H111.04V91.982H108.292C109.684 91.106 111.004 89.654 111.004 87.914C111.004 86.522 110.224 85.286 108.04 85.286C106.396 85.286 104.884 86.186 104.8 88.514H107.38C107.332 87.806 107.572 87.518 107.86 87.518C108.136 87.518 108.316 87.734 108.316 88.118C108.316 89.378 106.528 90.854 104.836 92.126V94.13Z" fill="#F4F3EF"/>
    <path d="M341.04 88.226H343.632C343.632 87.878 343.692 87.482 344.076 87.482C344.304 87.482 344.52 87.638 344.52 88.07C344.52 88.742 343.92 88.73 343.704 88.718H343.272V90.866H343.716C344.448 90.866 344.688 91.118 344.688 91.55C344.688 91.91 344.472 92.138 344.184 92.138C343.68 92.138 343.5 91.826 343.536 91.262H340.944C340.98 93.47 342.336 94.334 344.304 94.334C346.152 94.334 347.268 93.29 347.268 91.742C347.268 90.638 346.656 90.05 345.828 89.738V89.69C346.344 89.522 347.112 88.982 347.112 87.734C347.112 86.366 346.08 85.286 344.136 85.286C342.18 85.286 341.088 86.318 341.04 88.226Z" fill="#F4F3EF"/>
    <path d="M33.124 48.242L28.484 55.314H28.004L27.172 59.25H25.06L25.892 55.314H25.412L23.652 48.05H25.892L27.108 53.394H27.396L30.82 48.05H33.124V48.242ZM41.2249 54.29C41.2249 55.0367 41.1182 55.73 40.9049 56.37C40.6915 56.9993 40.3769 57.5433 39.9609 58.002C39.5449 58.4607 39.0222 58.8233 38.3929 59.09C37.7742 59.346 37.0542 59.474 36.2329 59.474C35.7635 59.474 35.3209 59.4047 34.9049 59.266C34.4995 59.1273 34.1422 58.9247 33.8329 58.658C33.5235 58.3807 33.2782 58.0447 33.0969 57.65C32.9155 57.2553 32.8249 56.8073 32.8249 56.306C32.8249 55.4847 32.9529 54.754 33.2089 54.114C33.4649 53.4633 33.8115 52.914 34.2489 52.466C34.6969 52.018 35.2195 51.6767 35.8169 51.442C36.4249 51.2073 37.0755 51.09 37.7689 51.09C38.2702 51.09 38.7342 51.17 39.1609 51.33C39.5875 51.4793 39.9502 51.6927 40.2489 51.97C40.5582 52.2473 40.7982 52.5833 40.9689 52.978C41.1395 53.3727 41.2249 53.81 41.2249 54.29ZM36.5369 57.586C36.9209 57.5753 37.2729 57.49 37.5929 57.33C37.9235 57.17 38.2009 56.962 38.4249 56.706C38.6595 56.4393 38.8409 56.13 38.9689 55.778C39.0969 55.426 39.1609 55.0527 39.1609 54.658C39.1609 54.1033 39.0115 53.6873 38.7129 53.41C38.4142 53.122 38.0142 52.978 37.5129 52.978C37.1289 52.978 36.7769 53.0633 36.4569 53.234C36.1369 53.394 35.8595 53.6127 35.6249 53.89C35.3902 54.1567 35.2089 54.466 35.0809 54.818C34.9529 55.17 34.8889 55.538 34.8889 55.922C34.8889 56.466 35.0382 56.882 35.3369 57.17C35.6355 57.4473 36.0355 57.586 36.5369 57.586ZM45.6618 51.314L44.6698 55.922C44.6271 56.1033 44.6058 56.2793 44.6058 56.45C44.6058 56.8553 44.7178 57.1593 44.9418 57.362C45.1658 57.554 45.4644 57.65 45.8378 57.65C46.4031 57.65 46.8351 57.4687 47.1338 57.106C47.4431 56.7327 47.6724 56.21 47.8218 55.538L48.7178 51.314H50.7338L49.4218 57.362L49.5978 57.458L50.1737 57.042L51.1818 58.514L50.4298 59.058C50.2271 59.2073 50.0138 59.314 49.7898 59.378C49.5764 59.442 49.3631 59.474 49.1498 59.474C48.7124 59.474 48.3284 59.3513 47.9978 59.106C47.6671 58.85 47.4804 58.482 47.4378 58.002H47.1498C46.9151 58.546 46.5951 58.93 46.1898 59.154C45.7951 59.3673 45.3471 59.474 44.8458 59.474C44.1524 59.474 43.5871 59.266 43.1497 58.85C42.7124 58.4233 42.4938 57.8313 42.4938 57.074C42.4938 56.8073 42.5258 56.5193 42.5898 56.21L43.6458 51.314H45.6618ZM62.0715 59.25L64.5035 47.826H66.5195L65.1595 54.226H65.5435L68.7595 51.09L70.0075 52.434L67.0635 55.186V55.474L68.3435 57.586H68.5355L69.4155 56.978L70.3915 58.386L69.6715 58.93C69.4048 59.1327 69.1435 59.2713 68.8875 59.346C68.6422 59.4313 68.4022 59.474 68.1675 59.474C67.8262 59.474 67.5168 59.394 67.2395 59.234C66.9622 59.0633 66.7328 58.8233 66.5515 58.514L65.1115 56.146H64.7435L64.0875 59.25H62.0715ZM77.5484 54.642C77.591 54.4393 77.6124 54.2687 77.6124 54.13C77.6124 53.746 77.5004 53.4473 77.2764 53.234C77.0524 53.0207 76.7484 52.914 76.3644 52.914C75.8844 52.914 75.4737 53.0847 75.1324 53.426C74.791 53.7673 74.5617 54.226 74.4444 54.802L73.5004 59.25H71.4844L73.1644 51.314H75.1004L74.8284 52.594H75.1164C75.3724 52.0607 75.7084 51.6767 76.1244 51.442C76.551 51.2073 77.0204 51.09 77.5324 51.09C78.2044 51.09 78.7377 51.2927 79.1324 51.698C79.5377 52.1033 79.7404 52.674 79.7404 53.41C79.7404 53.5807 79.7297 53.7407 79.7084 53.89C79.687 54.0287 79.6604 54.1833 79.6284 54.354L78.9884 57.346L79.1484 57.458L79.8364 56.978L80.8444 58.482L79.9804 59.058C79.575 59.3353 79.143 59.474 78.6844 59.474C78.4497 59.474 78.2257 59.4313 78.0124 59.346C77.799 59.2713 77.6124 59.1647 77.4524 59.026C77.2924 58.8767 77.1644 58.7007 77.0684 58.498C76.9724 58.2847 76.9244 58.0447 76.9244 57.778C76.9244 57.6393 76.9404 57.4793 76.9724 57.298L77.5484 54.642ZM90.2093 54.29C90.2093 55.0367 90.1026 55.73 89.8893 56.37C89.6759 56.9993 89.3613 57.5433 88.9453 58.002C88.5293 58.4607 88.0066 58.8233 87.3773 59.09C86.7586 59.346 86.0386 59.474 85.2173 59.474C84.7479 59.474 84.3053 59.4047 83.8893 59.266C83.4839 59.1273 83.1266 58.9247 82.8173 58.658C82.5079 58.3807 82.2626 58.0447 82.0813 57.65C81.8999 57.2553 81.8092 56.8073 81.8092 56.306C81.8092 55.4847 81.9373 54.754 82.1933 54.114C82.4493 53.4633 82.7959 52.914 83.2333 52.466C83.6813 52.018 84.2039 51.6767 84.8013 51.442C85.4093 51.2073 86.0599 51.09 86.7533 51.09C87.2546 51.09 87.7186 51.17 88.1453 51.33C88.5719 51.4793 88.9346 51.6927 89.2333 51.97C89.5426 52.2473 89.7826 52.5833 89.9533 52.978C90.1239 53.3727 90.2093 53.81 90.2093 54.29ZM85.5213 57.586C85.9053 57.5753 86.2573 57.49 86.5773 57.33C86.9079 57.17 87.1853 56.962 87.4093 56.706C87.6439 56.4393 87.8253 56.13 87.9533 55.778C88.0813 55.426 88.1453 55.0527 88.1453 54.658C88.1453 54.1033 87.9959 53.6873 87.6973 53.41C87.3986 53.122 86.9986 52.978 86.4973 52.978C86.1133 52.978 85.7613 53.0633 85.4413 53.234C85.1213 53.394 84.8439 53.6127 84.6093 53.89C84.3746 54.1567 84.1933 54.466 84.0653 54.818C83.9373 55.17 83.8733 55.538 83.8733 55.922C83.8733 56.466 84.0226 56.882 84.3213 57.17C84.6199 57.4473 85.0199 57.586 85.5213 57.586ZM93.3981 57.234L93.2221 58.098H93.5101L93.6861 57.33L95.3021 51.314H98.5021L97.6701 57.33L97.5101 58.098H97.7981L97.9901 57.234L99.6061 51.122L101.254 51.522L99.1261 59.25H95.9101L96.8541 52.274H96.5661L94.7261 59.25H91.5901L92.5021 51.314H94.1821L93.3981 57.234ZM114.16 53.234H111.92V51.314H114.576L115.312 47.826H117.328L116.592 51.314H119.344V53.234H116.176L115.28 57.346L115.44 57.458L117.584 55.986L118.592 57.49L116.272 59.058C115.867 59.3353 115.435 59.474 114.976 59.474C114.741 59.474 114.517 59.4313 114.304 59.346C114.091 59.2713 113.904 59.1593 113.744 59.01C113.584 58.8607 113.456 58.6793 113.36 58.466C113.264 58.2527 113.216 58.0127 113.216 57.746C113.216 57.6607 113.221 57.586 113.232 57.522C113.243 57.4473 113.259 57.3513 113.28 57.234L114.16 53.234ZM126.629 54.642C126.65 54.5247 126.666 54.434 126.677 54.37C126.687 54.2953 126.693 54.2153 126.693 54.13C126.693 53.746 126.581 53.4473 126.357 53.234C126.133 53.0207 125.829 52.914 125.445 52.914C124.901 52.914 124.453 53.106 124.101 53.49C123.759 53.874 123.519 54.386 123.381 55.026L122.485 59.25H120.469L122.901 47.826H124.917L123.941 52.402H124.229C124.773 51.5273 125.551 51.09 126.565 51.09C127.226 51.09 127.765 51.2873 128.181 51.682C128.607 52.0767 128.821 52.6527 128.821 53.41C128.821 53.5593 128.81 53.714 128.789 53.874C128.767 54.0233 128.741 54.1833 128.709 54.354L128.069 57.346L128.229 57.458L129.253 56.754L130.261 58.258L129.061 59.058C128.655 59.3353 128.223 59.474 127.765 59.474C127.53 59.474 127.306 59.4313 127.093 59.346C126.879 59.2713 126.693 59.1593 126.533 59.01C126.373 58.8607 126.245 58.6793 126.149 58.466C126.053 58.2527 126.005 58.0127 126.005 57.746C126.005 57.6073 126.026 57.4367 126.069 57.234L126.629 54.642ZM132.906 55.938C132.884 56.0233 132.874 56.114 132.874 56.21C132.874 56.594 133.018 56.914 133.306 57.17C133.604 57.426 133.994 57.554 134.474 57.554C134.975 57.554 135.375 57.4633 135.674 57.282C135.972 57.1007 136.202 56.8873 136.362 56.642L137.962 57.65C137.834 57.8633 137.663 58.0767 137.45 58.29C137.247 58.5033 136.991 58.7007 136.682 58.882C136.383 59.0527 136.026 59.1913 135.61 59.298C135.204 59.4153 134.73 59.474 134.186 59.474C133.695 59.474 133.242 59.3993 132.826 59.25C132.42 59.09 132.068 58.8767 131.77 58.61C131.482 58.3327 131.252 58.0073 131.082 57.634C130.922 57.25 130.842 56.8287 130.842 56.37C130.842 55.6447 130.948 54.962 131.162 54.322C131.386 53.682 131.706 53.122 132.122 52.642C132.538 52.162 133.05 51.7833 133.658 51.506C134.266 51.2287 134.964 51.09 135.754 51.09C136.308 51.09 136.788 51.1807 137.194 51.362C137.61 51.5327 137.951 51.7673 138.218 52.066C138.484 52.354 138.682 52.6847 138.81 53.058C138.948 53.4313 139.018 53.8153 139.018 54.21C139.018 54.338 139.007 54.4713 138.986 54.61C138.975 54.738 138.948 54.9087 138.906 55.122L138.73 55.938H132.906ZM135.434 52.914C134.932 52.914 134.495 53.042 134.122 53.298C133.759 53.5433 133.487 53.8473 133.306 54.21H137.05C137.05 53.8047 136.922 53.49 136.666 53.266C136.42 53.0313 136.01 52.914 135.434 52.914ZM155.011 52.914C154.894 52.914 154.771 52.93 154.643 52.962C154.526 52.9833 154.414 53.0207 154.307 53.074C154.201 53.1273 154.11 53.202 154.035 53.298C153.971 53.3833 153.939 53.49 153.939 53.618C153.939 53.842 154.067 54.0073 154.323 54.114C154.579 54.2207 155.017 54.3113 155.635 54.386C156.329 54.4713 156.889 54.6847 157.315 55.026C157.742 55.3567 157.955 55.8367 157.955 56.466C157.955 57.4047 157.625 58.1407 156.963 58.674C156.313 59.2073 155.406 59.474 154.243 59.474C153.657 59.474 153.15 59.3887 152.723 59.218C152.307 59.0473 151.961 58.834 151.683 58.578C151.417 58.322 151.214 58.0393 151.075 57.73C150.937 57.4207 150.862 57.1273 150.851 56.85L152.835 56.37C152.867 56.722 153.017 57.026 153.283 57.282C153.55 57.5273 153.955 57.65 154.499 57.65C154.873 57.65 155.198 57.5913 155.475 57.474C155.753 57.3567 155.891 57.1487 155.891 56.85C155.891 56.626 155.785 56.45 155.571 56.322C155.358 56.1833 154.963 56.0873 154.387 56.034C153.619 55.97 153.006 55.7513 152.547 55.378C152.099 55.0047 151.875 54.5087 151.875 53.89C151.875 53.442 151.966 53.042 152.147 52.69C152.339 52.338 152.59 52.0447 152.899 51.81C153.209 51.5753 153.566 51.3993 153.971 51.282C154.387 51.154 154.819 51.09 155.267 51.09C155.822 51.09 156.286 51.1647 156.659 51.314C157.033 51.4633 157.337 51.65 157.571 51.874C157.806 52.098 157.977 52.3433 158.083 52.61C158.201 52.866 158.275 53.106 158.307 53.33L156.355 53.842C156.313 53.554 156.179 53.33 155.955 53.17C155.731 52.9993 155.417 52.914 155.011 52.914ZM165.816 54.642C165.838 54.5247 165.854 54.434 165.864 54.37C165.875 54.2953 165.88 54.2153 165.88 54.13C165.88 53.746 165.768 53.4473 165.544 53.234C165.32 53.0207 165.016 52.914 164.632 52.914C164.088 52.914 163.64 53.106 163.288 53.49C162.947 53.874 162.707 54.386 162.568 55.026L161.672 59.25H159.656L162.088 47.826H164.104L163.128 52.402H163.416C163.96 51.5273 164.739 51.09 165.752 51.09C166.414 51.09 166.952 51.2873 167.368 51.682C167.795 52.0767 168.008 52.6527 168.008 53.41C168.008 53.5593 167.998 53.714 167.976 53.874C167.955 54.0233 167.928 54.1833 167.896 54.354L167.256 57.346L167.416 57.458L168.44 56.754L169.448 58.258L168.248 59.058C167.843 59.3353 167.411 59.474 166.952 59.474C166.718 59.474 166.494 59.4313 166.28 59.346C166.067 59.2713 165.88 59.1593 165.72 59.01C165.56 58.8607 165.432 58.6793 165.336 58.466C165.24 58.2527 165.192 58.0127 165.192 57.746C165.192 57.6073 165.214 57.4367 165.256 57.234L165.816 54.642ZM172.941 53.234H170.701V51.314H173.357L174.093 47.826H176.109L175.373 51.314H178.125V53.234H174.957L174.061 57.346L174.221 57.458L176.365 55.986L177.373 57.49L175.053 59.058C174.648 59.3353 174.216 59.474 173.757 59.474C173.522 59.474 173.298 59.4313 173.085 59.346C172.872 59.2713 172.685 59.1593 172.525 59.01C172.365 58.8607 172.237 58.6793 172.141 58.466C172.045 58.2527 171.997 58.0127 171.997 57.746C171.997 57.6607 172.002 57.586 172.013 57.522C172.024 57.4473 172.04 57.3513 172.061 57.234L172.941 53.234ZM185.33 59.058C185.117 59.2073 184.898 59.314 184.674 59.378C184.45 59.442 184.231 59.474 184.018 59.474C183.783 59.474 183.559 59.4313 183.346 59.346C183.133 59.2713 182.946 59.1647 182.786 59.026C182.626 58.8767 182.498 58.7007 182.402 58.498C182.317 58.2847 182.274 58.05 182.274 57.794C182.274 57.5913 182.295 57.4047 182.338 57.234L183.298 53.218L183.138 53.106L180.994 54.578L179.986 53.074L182.306 51.506C182.519 51.3567 182.738 51.25 182.962 51.186C183.186 51.122 183.405 51.09 183.618 51.09C183.853 51.09 184.077 51.1327 184.29 51.218C184.503 51.2927 184.69 51.4047 184.85 51.554C185.01 51.6927 185.133 51.8687 185.218 52.082C185.314 52.2847 185.362 52.514 185.362 52.77C185.362 52.9727 185.341 53.1593 185.298 53.33L184.338 57.346L184.498 57.458L186.642 55.986L187.65 57.49L185.33 59.058ZM186.722 48.962C186.722 49.1753 186.679 49.378 186.594 49.57C186.519 49.7513 186.413 49.9113 186.274 50.05C186.135 50.178 185.97 50.2847 185.778 50.37C185.597 50.4447 185.405 50.482 185.202 50.482C184.989 50.482 184.791 50.4447 184.61 50.37C184.429 50.2847 184.269 50.178 184.13 50.05C183.991 49.9113 183.879 49.7513 183.794 49.57C183.719 49.378 183.682 49.1753 183.682 48.962C183.682 48.7487 183.719 48.5513 183.794 48.37C183.879 48.178 183.991 48.018 184.13 47.89C184.269 47.7513 184.429 47.6447 184.61 47.57C184.791 47.4847 184.989 47.442 185.202 47.442C185.405 47.442 185.597 47.4847 185.778 47.57C185.97 47.6447 186.135 47.7513 186.274 47.89C186.413 48.018 186.519 48.178 186.594 48.37C186.679 48.5513 186.722 48.7487 186.722 48.962ZM197.591 56.338C197.292 57.2873 196.759 58.05 195.991 58.626C195.234 59.1913 194.215 59.474 192.935 59.474C192.466 59.474 192.023 59.3993 191.607 59.25C191.191 59.1007 190.828 58.8767 190.519 58.578C190.21 58.2793 189.964 57.9113 189.783 57.474C189.612 57.026 189.527 56.5087 189.527 55.922C189.527 55.2607 189.639 54.6367 189.863 54.05C190.098 53.4633 190.434 52.9513 190.871 52.514C191.308 52.0767 191.836 51.73 192.455 51.474C193.074 51.218 193.778 51.09 194.567 51.09C195.143 51.09 195.65 51.1753 196.087 51.346C196.524 51.5167 196.887 51.7513 197.175 52.05C197.463 52.338 197.682 52.6793 197.831 53.074C197.98 53.4687 198.055 53.8847 198.055 54.322L196.007 54.722C196.007 54.178 195.868 53.7567 195.591 53.458C195.324 53.1593 194.887 53.01 194.279 53.01C193.895 53.01 193.538 53.0847 193.207 53.234C192.887 53.3727 192.604 53.57 192.359 53.826C192.124 54.0713 191.938 54.3647 191.799 54.706C191.671 55.0367 191.607 55.394 191.607 55.778C191.607 56.386 191.767 56.834 192.087 57.122C192.407 57.41 192.812 57.554 193.303 57.554C193.975 57.554 194.498 57.4047 194.871 57.106C195.244 56.8073 195.527 56.386 195.719 55.842L197.591 56.338ZM199.228 59.25L201.66 47.826H203.676L202.316 54.226H202.7L205.916 51.09L207.164 52.434L204.22 55.186V55.474L205.5 57.586H205.692L206.572 56.978L207.548 58.386L206.828 58.93C206.561 59.1327 206.3 59.2713 206.044 59.346C205.798 59.4313 205.558 59.474 205.324 59.474C204.982 59.474 204.673 59.394 204.396 59.234C204.118 59.0633 203.889 58.8233 203.708 58.514L202.268 56.146H201.9L201.244 59.25H199.228ZM215.057 57.954C215.057 58.1673 215.014 58.37 214.929 58.562C214.854 58.7433 214.747 58.9033 214.609 59.042C214.47 59.17 214.305 59.2713 214.113 59.346C213.931 59.4313 213.739 59.474 213.537 59.474C213.323 59.474 213.126 59.4313 212.945 59.346C212.763 59.2713 212.603 59.17 212.465 59.042C212.326 58.9033 212.214 58.7433 212.129 58.562C212.054 58.37 212.017 58.1673 212.017 57.954C212.017 57.7407 212.054 57.5433 212.129 57.362C212.214 57.17 212.326 57.01 212.465 56.882C212.603 56.7433 212.763 56.6367 212.945 56.562C213.126 56.4767 213.323 56.434 213.537 56.434C213.739 56.434 213.931 56.4767 214.113 56.562C214.305 56.6367 214.47 56.7433 214.609 56.882C214.747 57.01 214.854 57.17 214.929 57.362C215.014 57.5433 215.057 57.7407 215.057 57.954ZM224.854 57.954C224.854 58.1673 224.811 58.37 224.726 58.562C224.651 58.7433 224.544 58.9033 224.406 59.042C224.267 59.17 224.102 59.2713 223.91 59.346C223.728 59.4313 223.536 59.474 223.334 59.474C223.12 59.474 222.923 59.4313 222.742 59.346C222.56 59.2713 222.4 59.17 222.262 59.042C222.123 58.9033 222.011 58.7433 221.926 58.562C221.851 58.37 221.814 58.1673 221.814 57.954C221.814 57.7407 221.851 57.5433 221.926 57.362C222.011 57.17 222.123 57.01 222.262 56.882C222.4 56.7433 222.56 56.6367 222.742 56.562C222.923 56.4767 223.12 56.434 223.334 56.434C223.536 56.434 223.728 56.4767 223.91 56.562C224.102 56.6367 224.267 56.7433 224.406 56.882C224.544 57.01 224.651 57.17 224.726 57.362C224.811 57.5433 224.854 57.7407 224.854 57.954ZM234.65 57.954C234.65 58.1673 234.608 58.37 234.522 58.562C234.448 58.7433 234.341 58.9033 234.202 59.042C234.064 59.17 233.898 59.2713 233.706 59.346C233.525 59.4313 233.333 59.474 233.13 59.474C232.917 59.474 232.72 59.4313 232.538 59.346C232.357 59.2713 232.197 59.17 232.058 59.042C231.92 58.9033 231.808 58.7433 231.722 58.562C231.648 58.37 231.61 58.1673 231.61 57.954C231.61 57.7407 231.648 57.5433 231.722 57.362C231.808 57.17 231.92 57.01 232.058 56.882C232.197 56.7433 232.357 56.6367 232.538 56.562C232.72 56.4767 232.917 56.434 233.13 56.434C233.333 56.434 233.525 56.4767 233.706 56.562C233.898 56.6367 234.064 56.7433 234.202 56.882C234.341 57.01 234.448 57.17 234.522 57.362C234.608 57.5433 234.65 57.7407 234.65 57.954Z" fill="#FDFFB0"/>
    <path d="M346.28 104.43C346.28 104.803 346.19 105.153 346.01 105.48C345.837 105.807 345.56 106.07 345.18 106.27C344.807 106.47 344.333 106.57 343.76 106.57H342.59V109.25H341.19V102.27H343.76C344.3 102.27 344.76 102.363 345.14 102.55C345.52 102.737 345.803 102.993 345.99 103.32C346.183 103.647 346.28 104.017 346.28 104.43ZM343.7 105.44C344.087 105.44 344.373 105.353 344.56 105.18C344.747 105 344.84 104.75 344.84 104.43C344.84 103.75 344.46 103.41 343.7 103.41H342.59V105.44H343.7ZM347.984 103.05C347.737 103.05 347.531 102.973 347.364 102.82C347.204 102.66 347.124 102.463 347.124 102.23C347.124 101.997 347.204 101.803 347.364 101.65C347.531 101.49 347.737 101.41 347.984 101.41C348.231 101.41 348.434 101.49 348.594 101.65C348.761 101.803 348.844 101.997 348.844 102.23C348.844 102.463 348.761 102.66 348.594 102.82C348.434 102.973 348.231 103.05 347.984 103.05ZM348.674 103.71V109.25H347.274V103.71H348.674ZM353.127 103.63C353.787 103.63 354.321 103.84 354.727 104.26C355.134 104.673 355.337 105.253 355.337 106V109.25H353.937V106.19C353.937 105.75 353.827 105.413 353.607 105.18C353.387 104.94 353.087 104.82 352.707 104.82C352.321 104.82 352.014 104.94 351.787 105.18C351.567 105.413 351.457 105.75 351.457 106.19V109.25H350.057V103.71H351.457V104.4C351.644 104.16 351.881 103.973 352.167 103.84C352.461 103.7 352.781 103.63 353.127 103.63ZM360.431 102.27V106.59C360.431 107.063 360.555 107.427 360.801 107.68C361.048 107.927 361.395 108.05 361.841 108.05C362.295 108.05 362.645 107.927 362.891 107.68C363.138 107.427 363.261 107.063 363.261 106.59V102.27H364.671V106.58C364.671 107.173 364.541 107.677 364.281 108.09C364.028 108.497 363.685 108.803 363.251 109.01C362.825 109.217 362.348 109.32 361.821 109.32C361.301 109.32 360.828 109.217 360.401 109.01C359.981 108.803 359.648 108.497 359.401 108.09C359.155 107.677 359.031 107.173 359.031 106.58V102.27H360.431ZM368.144 109.34C367.691 109.34 367.284 109.26 366.924 109.1C366.564 108.933 366.277 108.71 366.064 108.43C365.857 108.15 365.744 107.84 365.724 107.5H367.134C367.161 107.713 367.264 107.89 367.444 108.03C367.631 108.17 367.861 108.24 368.134 108.24C368.401 108.24 368.607 108.187 368.754 108.08C368.907 107.973 368.984 107.837 368.984 107.67C368.984 107.49 368.891 107.357 368.704 107.27C368.524 107.177 368.234 107.077 367.834 106.97C367.421 106.87 367.081 106.767 366.814 106.66C366.554 106.553 366.327 106.39 366.134 106.17C365.947 105.95 365.854 105.653 365.854 105.28C365.854 104.973 365.941 104.693 366.114 104.44C366.294 104.187 366.547 103.987 366.874 103.84C367.207 103.693 367.597 103.62 368.044 103.62C368.704 103.62 369.231 103.787 369.624 104.12C370.017 104.447 370.234 104.89 370.274 105.45H368.934C368.914 105.23 368.821 105.057 368.654 104.93C368.494 104.797 368.277 104.73 368.004 104.73C367.751 104.73 367.554 104.777 367.414 104.87C367.281 104.963 367.214 105.093 367.214 105.26C367.214 105.447 367.307 105.59 367.494 105.69C367.681 105.783 367.971 105.88 368.364 105.98C368.764 106.08 369.094 106.183 369.354 106.29C369.614 106.397 369.837 106.563 370.024 106.79C370.217 107.01 370.317 107.303 370.324 107.67C370.324 107.99 370.234 108.277 370.054 108.53C369.881 108.783 369.627 108.983 369.294 109.13C368.967 109.27 368.584 109.34 368.144 109.34ZM373.283 102.15L373.123 106.98H371.943L371.773 102.15H373.283ZM372.563 109.32C372.31 109.32 372.1 109.243 371.933 109.09C371.773 108.93 371.693 108.733 371.693 108.5C371.693 108.267 371.773 108.073 371.933 107.92C372.1 107.76 372.31 107.68 372.563 107.68C372.81 107.68 373.013 107.76 373.173 107.92C373.333 108.073 373.413 108.267 373.413 108.5C373.413 108.733 373.333 108.93 373.173 109.09C373.013 109.243 372.81 109.32 372.563 109.32Z" fill="#F4F3EF"/>
    <path d="M109.5 102.27V103.4H106.59V105.19H108.82V106.3H106.59V109.25H105.19V102.27H109.5ZM111.203 103.05C110.956 103.05 110.749 102.973 110.583 102.82C110.423 102.66 110.343 102.463 110.343 102.23C110.343 101.997 110.423 101.803 110.583 101.65C110.749 101.49 110.956 101.41 111.203 101.41C111.449 101.41 111.653 101.49 111.813 101.65C111.979 101.803 112.063 101.997 112.063 102.23C112.063 102.463 111.979 102.66 111.813 102.82C111.653 102.973 111.449 103.05 111.203 103.05ZM111.893 103.71V109.25H110.493V103.71H111.893ZM116.346 103.63C117.006 103.63 117.539 103.84 117.946 104.26C118.353 104.673 118.556 105.253 118.556 106V109.25H117.156V106.19C117.156 105.75 117.046 105.413 116.826 105.18C116.606 104.94 116.306 104.82 115.926 104.82C115.539 104.82 115.233 104.94 115.006 105.18C114.786 105.413 114.676 105.75 114.676 106.19V109.25H113.276V103.71H114.676V104.4C114.863 104.16 115.099 103.973 115.386 103.84C115.679 103.7 115.999 103.63 116.346 103.63ZM119.527 106.46C119.527 105.9 119.637 105.403 119.857 104.97C120.084 104.537 120.391 104.203 120.777 103.97C121.164 103.737 121.594 103.62 122.067 103.62C122.427 103.62 122.771 103.7 123.097 103.86C123.424 104.013 123.684 104.22 123.877 104.48V101.85H125.297V109.25H123.877V108.43C123.704 108.703 123.461 108.923 123.147 109.09C122.834 109.257 122.471 109.34 122.057 109.34C121.591 109.34 121.164 109.22 120.777 108.98C120.391 108.74 120.084 108.403 119.857 107.97C119.637 107.53 119.527 107.027 119.527 106.46ZM123.887 106.48C123.887 106.14 123.821 105.85 123.687 105.61C123.554 105.363 123.374 105.177 123.147 105.05C122.921 104.917 122.677 104.85 122.417 104.85C122.157 104.85 121.917 104.913 121.697 105.04C121.477 105.167 121.297 105.353 121.157 105.6C121.024 105.84 120.957 106.127 120.957 106.46C120.957 106.793 121.024 107.087 121.157 107.34C121.297 107.587 121.477 107.777 121.697 107.91C121.924 108.043 122.164 108.11 122.417 108.11C122.677 108.11 122.921 108.047 123.147 107.92C123.374 107.787 123.554 107.6 123.687 107.36C123.821 107.113 123.887 106.82 123.887 106.48ZM131.167 109.34C130.714 109.34 130.307 109.26 129.947 109.1C129.587 108.933 129.301 108.71 129.087 108.43C128.881 108.15 128.767 107.84 128.747 107.5H130.157C130.184 107.713 130.287 107.89 130.467 108.03C130.654 108.17 130.884 108.24 131.157 108.24C131.424 108.24 131.631 108.187 131.777 108.08C131.931 107.973 132.007 107.837 132.007 107.67C132.007 107.49 131.914 107.357 131.727 107.27C131.547 107.177 131.257 107.077 130.857 106.97C130.444 106.87 130.104 106.767 129.837 106.66C129.577 106.553 129.351 106.39 129.157 106.17C128.971 105.95 128.877 105.653 128.877 105.28C128.877 104.973 128.964 104.693 129.137 104.44C129.317 104.187 129.571 103.987 129.897 103.84C130.231 103.693 130.621 103.62 131.067 103.62C131.727 103.62 132.254 103.787 132.647 104.12C133.041 104.447 133.257 104.89 133.297 105.45H131.957C131.937 105.23 131.844 105.057 131.677 104.93C131.517 104.797 131.301 104.73 131.027 104.73C130.774 104.73 130.577 104.777 130.437 104.87C130.304 104.963 130.237 105.093 130.237 105.26C130.237 105.447 130.331 105.59 130.517 105.69C130.704 105.783 130.994 105.88 131.387 105.98C131.787 106.08 132.117 106.183 132.377 106.29C132.637 106.397 132.861 106.563 133.047 106.79C133.241 107.01 133.341 107.303 133.347 107.67C133.347 107.99 133.257 108.277 133.077 108.53C132.904 108.783 132.651 108.983 132.317 109.13C131.991 109.27 131.607 109.34 131.167 109.34ZM136.127 104.86V107.54C136.127 107.727 136.17 107.863 136.257 107.95C136.35 108.03 136.503 108.07 136.717 108.07H137.367V109.25H136.487C135.307 109.25 134.717 108.677 134.717 107.53V104.86H134.057V103.71H134.717V102.34H136.127V103.71H137.367V104.86H136.127ZM143.674 103.71L140.244 111.87H138.754L139.954 109.11L137.734 103.71H139.304L140.734 107.58L142.184 103.71H143.674ZM145.828 101.85V109.25H144.428V101.85H145.828ZM147.921 103.05C147.675 103.05 147.468 102.973 147.301 102.82C147.141 102.66 147.061 102.463 147.061 102.23C147.061 101.997 147.141 101.803 147.301 101.65C147.468 101.49 147.675 101.41 147.921 101.41C148.168 101.41 148.371 101.49 148.531 101.65C148.698 101.803 148.781 101.997 148.781 102.23C148.781 102.463 148.698 102.66 148.531 102.82C148.371 102.973 148.168 103.05 147.921 103.05ZM148.611 103.71V109.25H147.211V103.71H148.611ZM152.115 109.34C151.661 109.34 151.255 109.26 150.895 109.1C150.535 108.933 150.248 108.71 150.035 108.43C149.828 108.15 149.715 107.84 149.695 107.5H151.105C151.131 107.713 151.235 107.89 151.415 108.03C151.601 108.17 151.831 108.24 152.105 108.24C152.371 108.24 152.578 108.187 152.725 108.08C152.878 107.973 152.955 107.837 152.955 107.67C152.955 107.49 152.861 107.357 152.675 107.27C152.495 107.177 152.205 107.077 151.805 106.97C151.391 106.87 151.051 106.767 150.785 106.66C150.525 106.553 150.298 106.39 150.105 106.17C149.918 105.95 149.825 105.653 149.825 105.28C149.825 104.973 149.911 104.693 150.085 104.44C150.265 104.187 150.518 103.987 150.845 103.84C151.178 103.693 151.568 103.62 152.015 103.62C152.675 103.62 153.201 103.787 153.595 104.12C153.988 104.447 154.205 104.89 154.245 105.45H152.905C152.885 105.23 152.791 105.057 152.625 104.93C152.465 104.797 152.248 104.73 151.975 104.73C151.721 104.73 151.525 104.777 151.385 104.87C151.251 104.963 151.185 105.093 151.185 105.26C151.185 105.447 151.278 105.59 151.465 105.69C151.651 105.783 151.941 105.88 152.335 105.98C152.735 106.08 153.065 106.183 153.325 106.29C153.585 106.397 153.808 106.563 153.995 106.79C154.188 107.01 154.288 107.303 154.295 107.67C154.295 107.99 154.205 108.277 154.025 108.53C153.851 108.783 153.598 108.983 153.265 109.13C152.938 109.27 152.555 109.34 152.115 109.34ZM158.564 103.63C158.984 103.63 159.357 103.723 159.684 103.91C160.011 104.09 160.264 104.36 160.444 104.72C160.631 105.073 160.724 105.5 160.724 106V109.25H159.324V106.19C159.324 105.75 159.214 105.413 158.994 105.18C158.774 104.94 158.474 104.82 158.094 104.82C157.707 104.82 157.401 104.94 157.174 105.18C156.954 105.413 156.844 105.75 156.844 106.19V109.25H155.444V101.85H156.844V104.4C157.024 104.16 157.264 103.973 157.564 103.84C157.864 103.7 158.197 103.63 158.564 103.63ZM107.65 119.34C107.117 119.34 106.637 119.223 106.21 118.99C105.783 118.75 105.447 118.413 105.2 117.98C104.96 117.547 104.84 117.047 104.84 116.48C104.84 115.913 104.963 115.413 105.21 114.98C105.463 114.547 105.807 114.213 106.24 113.98C106.673 113.74 107.157 113.62 107.69 113.62C108.223 113.62 108.707 113.74 109.14 113.98C109.573 114.213 109.913 114.547 110.16 114.98C110.413 115.413 110.54 115.913 110.54 116.48C110.54 117.047 110.41 117.547 110.15 117.98C109.897 118.413 109.55 118.75 109.11 118.99C108.677 119.223 108.19 119.34 107.65 119.34ZM107.65 118.12C107.903 118.12 108.14 118.06 108.36 117.94C108.587 117.813 108.767 117.627 108.9 117.38C109.033 117.133 109.1 116.833 109.1 116.48C109.1 115.953 108.96 115.55 108.68 115.27C108.407 114.983 108.07 114.84 107.67 114.84C107.27 114.84 106.933 114.983 106.66 115.27C106.393 115.55 106.26 115.953 106.26 116.48C106.26 117.007 106.39 117.413 106.65 117.7C106.917 117.98 107.25 118.12 107.65 118.12ZM114.637 113.63C115.297 113.63 115.83 113.84 116.237 114.26C116.644 114.673 116.847 115.253 116.847 116V119.25H115.447V116.19C115.447 115.75 115.337 115.413 115.117 115.18C114.897 114.94 114.597 114.82 114.217 114.82C113.83 114.82 113.524 114.94 113.297 115.18C113.077 115.413 112.967 115.75 112.967 116.19V119.25H111.567V113.71H112.967V114.4C113.154 114.16 113.39 113.973 113.677 113.84C113.97 113.7 114.29 113.63 114.637 113.63ZM122.191 114.86V117.54C122.191 117.727 122.234 117.863 122.321 117.95C122.414 118.03 122.568 118.07 122.781 118.07H123.431V119.25H122.551C121.371 119.25 120.781 118.677 120.781 117.53V114.86H120.121V113.71H120.781V112.34H122.191V113.71H123.431V114.86H122.191ZM127.558 113.63C127.978 113.63 128.351 113.723 128.678 113.91C129.005 114.09 129.258 114.36 129.438 114.72C129.625 115.073 129.718 115.5 129.718 116V119.25H128.318V116.19C128.318 115.75 128.208 115.413 127.988 115.18C127.768 114.94 127.468 114.82 127.088 114.82C126.701 114.82 126.395 114.94 126.168 115.18C125.948 115.413 125.838 115.75 125.838 116.19V119.25H124.438V111.85H125.838V114.4C126.018 114.16 126.258 113.973 126.558 113.84C126.858 113.7 127.191 113.63 127.558 113.63ZM136.199 116.36C136.199 116.56 136.186 116.74 136.159 116.9H132.109C132.143 117.3 132.283 117.613 132.529 117.84C132.776 118.067 133.079 118.18 133.439 118.18C133.959 118.18 134.329 117.957 134.549 117.51H136.059C135.899 118.043 135.593 118.483 135.139 118.83C134.686 119.17 134.129 119.34 133.469 119.34C132.936 119.34 132.456 119.223 132.029 118.99C131.609 118.75 131.279 118.413 131.039 117.98C130.806 117.547 130.689 117.047 130.689 116.48C130.689 115.907 130.806 115.403 131.039 114.97C131.273 114.537 131.599 114.203 132.019 113.97C132.439 113.737 132.923 113.62 133.469 113.62C133.996 113.62 134.466 113.733 134.879 113.96C135.299 114.187 135.623 114.51 135.849 114.93C136.083 115.343 136.199 115.82 136.199 116.36ZM134.749 115.96C134.743 115.6 134.613 115.313 134.359 115.1C134.106 114.88 133.796 114.77 133.429 114.77C133.083 114.77 132.789 114.877 132.549 115.09C132.316 115.297 132.173 115.587 132.119 115.96H134.749ZM141.004 111.85V119.25H139.604V111.85H141.004ZM143.097 113.05C142.851 113.05 142.644 112.973 142.477 112.82C142.317 112.66 142.237 112.463 142.237 112.23C142.237 111.997 142.317 111.803 142.477 111.65C142.644 111.49 142.851 111.41 143.097 111.41C143.344 111.41 143.547 111.49 143.707 111.65C143.874 111.803 143.957 111.997 143.957 112.23C143.957 112.463 143.874 112.66 143.707 112.82C143.547 112.973 143.344 113.05 143.097 113.05ZM143.787 113.71V119.25H142.387V113.71H143.787ZM147.29 119.34C146.837 119.34 146.43 119.26 146.07 119.1C145.71 118.933 145.424 118.71 145.21 118.43C145.004 118.15 144.89 117.84 144.87 117.5H146.28C146.307 117.713 146.41 117.89 146.59 118.03C146.777 118.17 147.007 118.24 147.28 118.24C147.547 118.24 147.754 118.187 147.9 118.08C148.054 117.973 148.13 117.837 148.13 117.67C148.13 117.49 148.037 117.357 147.85 117.27C147.67 117.177 147.38 117.077 146.98 116.97C146.567 116.87 146.227 116.767 145.96 116.66C145.7 116.553 145.474 116.39 145.28 116.17C145.094 115.95 145 115.653 145 115.28C145 114.973 145.087 114.693 145.26 114.44C145.44 114.187 145.694 113.987 146.02 113.84C146.354 113.693 146.744 113.62 147.19 113.62C147.85 113.62 148.377 113.787 148.77 114.12C149.164 114.447 149.38 114.89 149.42 115.45H148.08C148.06 115.23 147.967 115.057 147.8 114.93C147.64 114.797 147.424 114.73 147.15 114.73C146.897 114.73 146.7 114.777 146.56 114.87C146.427 114.963 146.36 115.093 146.36 115.26C146.36 115.447 146.454 115.59 146.64 115.69C146.827 115.783 147.117 115.88 147.51 115.98C147.91 116.08 148.24 116.183 148.5 116.29C148.76 116.397 148.984 116.563 149.17 116.79C149.364 117.01 149.464 117.303 149.47 117.67C149.47 117.99 149.38 118.277 149.2 118.53C149.027 118.783 148.774 118.983 148.44 119.13C148.114 119.27 147.73 119.34 147.29 119.34ZM152.25 114.86V117.54C152.25 117.727 152.293 117.863 152.38 117.95C152.473 118.03 152.626 118.07 152.84 118.07H153.49V119.25H152.61C151.43 119.25 150.84 118.677 150.84 117.53V114.86H150.18V113.71H150.84V112.34H152.25V113.71H153.49V114.86H152.25Z" fill="#F4F3EF"/>
    <path d="M31.43 109.32C30.7767 109.32 30.1767 109.167 29.63 108.86C29.0833 108.553 28.65 108.13 28.33 107.59C28.01 107.043 27.85 106.427 27.85 105.74C27.85 105.06 28.01 104.45 28.33 103.91C28.65 103.363 29.0833 102.937 29.63 102.63C30.1767 102.323 30.7767 102.17 31.43 102.17C32.09 102.17 32.69 102.323 33.23 102.63C33.7767 102.937 34.2067 103.363 34.52 103.91C34.84 104.45 35 105.06 35 105.74C35 106.427 34.84 107.043 34.52 107.59C34.2067 108.13 33.7767 108.553 33.23 108.86C32.6833 109.167 32.0833 109.32 31.43 109.32ZM31.43 108.07C31.85 108.07 32.22 107.977 32.54 107.79C32.86 107.597 33.11 107.323 33.29 106.97C33.47 106.617 33.56 106.207 33.56 105.74C33.56 105.273 33.47 104.867 33.29 104.52C33.11 104.167 32.86 103.897 32.54 103.71C32.22 103.523 31.85 103.43 31.43 103.43C31.01 103.43 30.6367 103.523 30.31 103.71C29.99 103.897 29.74 104.167 29.56 104.52C29.38 104.867 29.29 105.273 29.29 105.74C29.29 106.207 29.38 106.617 29.56 106.97C29.74 107.323 29.99 107.597 30.31 107.79C30.6367 107.977 31.01 108.07 31.43 108.07ZM37.4416 104.51C37.6216 104.257 37.8682 104.047 38.1816 103.88C38.5016 103.707 38.8649 103.62 39.2716 103.62C39.7449 103.62 40.1716 103.737 40.5516 103.97C40.9382 104.203 41.2416 104.537 41.4616 104.97C41.6882 105.397 41.8016 105.893 41.8016 106.46C41.8016 107.027 41.6882 107.53 41.4616 107.97C41.2416 108.403 40.9382 108.74 40.5516 108.98C40.1716 109.22 39.7449 109.34 39.2716 109.34C38.8649 109.34 38.5049 109.257 38.1916 109.09C37.8849 108.923 37.6349 108.713 37.4416 108.46V111.89H36.0416V103.71H37.4416V104.51ZM40.3716 106.46C40.3716 106.127 40.3016 105.84 40.1616 105.6C40.0282 105.353 39.8482 105.167 39.6216 105.04C39.4016 104.913 39.1616 104.85 38.9016 104.85C38.6482 104.85 38.4082 104.917 38.1816 105.05C37.9616 105.177 37.7816 105.363 37.6416 105.61C37.5082 105.857 37.4416 106.147 37.4416 106.48C37.4416 106.813 37.5082 107.103 37.6416 107.35C37.7816 107.597 37.9616 107.787 38.1816 107.92C38.4082 108.047 38.6482 108.11 38.9016 108.11C39.1616 108.11 39.4016 108.043 39.6216 107.91C39.8482 107.777 40.0282 107.587 40.1616 107.34C40.3016 107.093 40.3716 106.8 40.3716 106.46ZM47.9689 106.36C47.9689 106.56 47.9556 106.74 47.9289 106.9H43.8789C43.9122 107.3 44.0522 107.613 44.2989 107.84C44.5456 108.067 44.8489 108.18 45.2089 108.18C45.7289 108.18 46.0989 107.957 46.3189 107.51H47.8289C47.6689 108.043 47.3622 108.483 46.9089 108.83C46.4556 109.17 45.8989 109.34 45.2389 109.34C44.7056 109.34 44.2256 109.223 43.7989 108.99C43.3789 108.75 43.0489 108.413 42.8089 107.98C42.5756 107.547 42.4589 107.047 42.4589 106.48C42.4589 105.907 42.5756 105.403 42.8089 104.97C43.0422 104.537 43.3689 104.203 43.7889 103.97C44.2089 103.737 44.6922 103.62 45.2389 103.62C45.7656 103.62 46.2356 103.733 46.6489 103.96C47.0689 104.187 47.3922 104.51 47.6189 104.93C47.8522 105.343 47.9689 105.82 47.9689 106.36ZM46.5189 105.96C46.5122 105.6 46.3822 105.313 46.1289 105.1C45.8756 104.88 45.5656 104.77 45.1989 104.77C44.8522 104.77 44.5589 104.877 44.3189 105.09C44.0856 105.297 43.9422 105.587 43.8889 105.96H46.5189ZM52.0608 103.63C52.7208 103.63 53.2541 103.84 53.6608 104.26C54.0674 104.673 54.2708 105.253 54.2708 106V109.25H52.8708V106.19C52.8708 105.75 52.7608 105.413 52.5408 105.18C52.3208 104.94 52.0208 104.82 51.6408 104.82C51.2541 104.82 50.9474 104.94 50.7208 105.18C50.5008 105.413 50.3908 105.75 50.3908 106.19V109.25H48.9908V103.71H50.3908V104.4C50.5774 104.16 50.8141 103.973 51.1008 103.84C51.3941 103.7 51.7141 103.63 52.0608 103.63ZM29.59 113.4V115.15H31.94V116.26H29.59V118.11H32.24V119.25H28.19V112.26H32.24V113.4H29.59ZM36.5723 119.25L35.4323 117.53L34.4223 119.25H32.9223L34.7323 116.47L32.9023 113.71H34.4823L35.6123 115.42L36.6323 113.71H38.1323L36.3123 116.47L38.1523 119.25H36.5723ZM40.5427 114.86V117.54C40.5427 117.727 40.586 117.863 40.6727 117.95C40.766 118.03 40.9193 118.07 41.1327 118.07H41.7827V119.25H40.9027C39.7227 119.25 39.1327 118.677 39.1327 117.53V114.86H38.4727V113.71H39.1327V112.34H40.5427V113.71H41.7827V114.86H40.5427ZM47.9396 116.36C47.9396 116.56 47.9263 116.74 47.8996 116.9H43.8496C43.8829 117.3 44.0229 117.613 44.2696 117.84C44.5163 118.067 44.8196 118.18 45.1796 118.18C45.6996 118.18 46.0696 117.957 46.2896 117.51H47.7996C47.6396 118.043 47.3329 118.483 46.8796 118.83C46.4263 119.17 45.8696 119.34 45.2096 119.34C44.6763 119.34 44.1963 119.223 43.7696 118.99C43.3496 118.75 43.0196 118.413 42.7796 117.98C42.5463 117.547 42.4296 117.047 42.4296 116.48C42.4296 115.907 42.5463 115.403 42.7796 114.97C43.0129 114.537 43.3396 114.203 43.7596 113.97C44.1796 113.737 44.6629 113.62 45.2096 113.62C45.7363 113.62 46.2063 113.733 46.6196 113.96C47.0396 114.187 47.3629 114.51 47.5896 114.93C47.8229 115.343 47.9396 115.82 47.9396 116.36ZM46.4896 115.96C46.4829 115.6 46.3529 115.313 46.0996 115.1C45.8463 114.88 45.5363 114.77 45.1696 114.77C44.8229 114.77 44.5296 114.877 44.2896 115.09C44.0563 115.297 43.9129 115.587 43.8596 115.96H46.4896ZM52.0315 113.63C52.6915 113.63 53.2248 113.84 53.6315 114.26C54.0382 114.673 54.2415 115.253 54.2415 116V119.25H52.8415V116.19C52.8415 115.75 52.7315 115.413 52.5115 115.18C52.2915 114.94 51.9915 114.82 51.6115 114.82C51.2248 114.82 50.9182 114.94 50.6915 115.18C50.4715 115.413 50.3615 115.75 50.3615 116.19V119.25H48.9615V113.71H50.3615V114.4C50.5482 114.16 50.7848 113.973 51.0715 113.84C51.3648 113.7 51.6848 113.63 52.0315 113.63ZM57.6928 119.34C57.2395 119.34 56.8328 119.26 56.4728 119.1C56.1128 118.933 55.8261 118.71 55.6128 118.43C55.4061 118.15 55.2928 117.84 55.2728 117.5H56.6828C56.7095 117.713 56.8128 117.89 56.9928 118.03C57.1795 118.17 57.4095 118.24 57.6828 118.24C57.9495 118.24 58.1561 118.187 58.3028 118.08C58.4561 117.973 58.5328 117.837 58.5328 117.67C58.5328 117.49 58.4395 117.357 58.2528 117.27C58.0728 117.177 57.7828 117.077 57.3828 116.97C56.9695 116.87 56.6295 116.767 56.3628 116.66C56.1028 116.553 55.8761 116.39 55.6828 116.17C55.4961 115.95 55.4028 115.653 55.4028 115.28C55.4028 114.973 55.4895 114.693 55.6628 114.44C55.8428 114.187 56.0961 113.987 56.4228 113.84C56.7561 113.693 57.1461 113.62 57.5928 113.62C58.2528 113.62 58.7795 113.787 59.1728 114.12C59.5661 114.447 59.7828 114.89 59.8228 115.45H58.4828C58.4628 115.23 58.3695 115.057 58.2028 114.93C58.0428 114.797 57.8261 114.73 57.5528 114.73C57.2995 114.73 57.1028 114.777 56.9628 114.87C56.8295 114.963 56.7628 115.093 56.7628 115.26C56.7628 115.447 56.8561 115.59 57.0428 115.69C57.2295 115.783 57.5195 115.88 57.9128 115.98C58.3128 116.08 58.6428 116.183 58.9028 116.29C59.1628 116.397 59.3861 116.563 59.5728 116.79C59.7661 117.01 59.8661 117.303 59.8728 117.67C59.8728 117.99 59.7828 118.277 59.6028 118.53C59.4295 118.783 59.1761 118.983 58.8428 119.13C58.5161 119.27 58.1328 119.34 57.6928 119.34ZM61.732 113.05C61.4854 113.05 61.2787 112.973 61.112 112.82C60.952 112.66 60.872 112.463 60.872 112.23C60.872 111.997 60.952 111.803 61.112 111.65C61.2787 111.49 61.4854 111.41 61.732 111.41C61.9787 111.41 62.182 111.49 62.342 111.65C62.5087 111.803 62.592 111.997 62.592 112.23C62.592 112.463 62.5087 112.66 62.342 112.82C62.182 112.973 61.9787 113.05 61.732 113.05ZM62.422 113.71V119.25H61.022V113.71H62.422ZM66.2652 119.34C65.7319 119.34 65.2519 119.223 64.8252 118.99C64.3986 118.75 64.0619 118.413 63.8152 117.98C63.5752 117.547 63.4552 117.047 63.4552 116.48C63.4552 115.913 63.5786 115.413 63.8252 114.98C64.0786 114.547 64.4219 114.213 64.8552 113.98C65.2886 113.74 65.7719 113.62 66.3052 113.62C66.8386 113.62 67.3219 113.74 67.7552 113.98C68.1886 114.213 68.5286 114.547 68.7752 114.98C69.0286 115.413 69.1552 115.913 69.1552 116.48C69.1552 117.047 69.0252 117.547 68.7652 117.98C68.5119 118.413 68.1652 118.75 67.7252 118.99C67.2919 119.223 66.8052 119.34 66.2652 119.34ZM66.2652 118.12C66.5186 118.12 66.7552 118.06 66.9752 117.94C67.2019 117.813 67.3819 117.627 67.5152 117.38C67.6486 117.133 67.7152 116.833 67.7152 116.48C67.7152 115.953 67.5752 115.55 67.2952 115.27C67.0219 114.983 66.6852 114.84 66.2852 114.84C65.8852 114.84 65.5486 114.983 65.2752 115.27C65.0086 115.55 64.8752 115.953 64.8752 116.48C64.8752 117.007 65.0052 117.413 65.2652 117.7C65.5319 117.98 65.8652 118.12 66.2652 118.12ZM73.2522 113.63C73.9122 113.63 74.4455 113.84 74.8522 114.26C75.2589 114.673 75.4622 115.253 75.4622 116V119.25H74.0622V116.19C74.0622 115.75 73.9522 115.413 73.7322 115.18C73.5122 114.94 73.2122 114.82 72.8322 114.82C72.4455 114.82 72.1389 114.94 71.9122 115.18C71.6922 115.413 71.5822 115.75 71.5822 116.19V119.25H70.1822V113.71H71.5822V114.4C71.7689 114.16 72.0055 113.973 72.2922 113.84C72.5855 113.7 72.9055 113.63 73.2522 113.63ZM78.9135 119.34C78.4602 119.34 78.0535 119.26 77.6935 119.1C77.3335 118.933 77.0468 118.71 76.8335 118.43C76.6268 118.15 76.5135 117.84 76.4935 117.5H77.9035C77.9302 117.713 78.0335 117.89 78.2135 118.03C78.4002 118.17 78.6302 118.24 78.9035 118.24C79.1702 118.24 79.3768 118.187 79.5235 118.08C79.6768 117.973 79.7535 117.837 79.7535 117.67C79.7535 117.49 79.6602 117.357 79.4735 117.27C79.2935 117.177 79.0035 117.077 78.6035 116.97C78.1902 116.87 77.8502 116.767 77.5835 116.66C77.3235 116.553 77.0968 116.39 76.9035 116.17C76.7168 115.95 76.6235 115.653 76.6235 115.28C76.6235 114.973 76.7102 114.693 76.8835 114.44C77.0635 114.187 77.3168 113.987 77.6435 113.84C77.9768 113.693 78.3668 113.62 78.8135 113.62C79.4735 113.62 80.0002 113.787 80.3935 114.12C80.7868 114.447 81.0035 114.89 81.0435 115.45H79.7035C79.6835 115.23 79.5902 115.057 79.4235 114.93C79.2635 114.797 79.0468 114.73 78.7735 114.73C78.5202 114.73 78.3235 114.777 78.1835 114.87C78.0502 114.963 77.9835 115.093 77.9835 115.26C77.9835 115.447 78.0768 115.59 78.2635 115.69C78.4502 115.783 78.7402 115.88 79.1335 115.98C79.5335 116.08 79.8635 116.183 80.1235 116.29C80.3835 116.397 80.6068 116.563 80.7935 116.79C80.9868 117.01 81.0868 117.303 81.0935 117.67C81.0935 117.99 81.0035 118.277 80.8235 118.53C80.6502 118.783 80.3968 118.983 80.0635 119.13C79.7368 119.27 79.3535 119.34 78.9135 119.34Z" fill="#F4F3EF"/>
    <rect x="43.5" y="90.25" width="55" height="1" fill="#161616"/>
    <rect x="119.5" y="90.25" width="211" height="1" fill="#161616"/>
    <defs>
        <clipPath id="clip0_1362_6168">
            <rect x="104.5" y="157.25" width="37" height="37" rx="6.9375" fill="white"/>
        </clipPath>
        <clipPath id="clip1_1362_6168">
            <rect width="25" height="25" fill="white" transform="translate(34.5 162.25)"/>
        </clipPath>
    </defs>
</svg>
