<svg width="226" height="44" viewBox="0 0 226 44" fill="none" xmlns="http://www.w3.org/2000/svg">
<g filter="url(#filter0_d_1465_65514)">
<rect x="8" y="4" width="216" height="36" rx="6" fill="white"/>
</g>
<path d="M54.368 27L55.136 24.84H58.784L59.564 27H60.8L57.62 18.324H56.312L53.144 27H54.368ZM56.816 20.196C56.876 20.016 56.936 19.812 56.96 19.692C56.984 19.824 57.044 20.028 57.104 20.196L58.436 23.82H55.496L56.816 20.196ZM63.8907 27.144C64.8267 27.144 65.6187 26.736 66.0027 25.932L66.0987 27H67.1067V18.168H65.9907V22.08C65.5947 21.36 64.8387 20.964 63.9387 20.964C62.1987 20.964 61.1547 22.284 61.1547 24.084C61.1547 25.872 62.1867 27.144 63.8907 27.144ZM64.1187 26.124C62.9667 26.124 62.2947 25.26 62.2947 24.048C62.2947 22.848 62.9667 21.984 64.1187 21.984C65.2707 21.984 65.9787 22.848 65.9787 24.048C65.9787 25.272 65.2707 26.124 64.1187 26.124ZM71.086 27.144C72.022 27.144 72.814 26.736 73.198 25.932L73.294 27H74.302V18.168H73.186V22.08C72.79 21.36 72.034 20.964 71.134 20.964C69.394 20.964 68.35 22.284 68.35 24.084C68.35 25.872 69.382 27.144 71.086 27.144ZM71.314 26.124C70.162 26.124 69.49 25.26 69.49 24.048C69.49 22.848 70.162 21.984 71.314 21.984C72.466 21.984 73.174 22.848 73.174 24.048C73.174 25.272 72.466 26.124 71.314 26.124ZM80.8665 27V22.08H82.0185V21.132H80.8665V19.296H79.7385V21.132H78.5865V22.08H79.7385V27H80.8665ZM82.5883 24.06C82.5883 25.872 83.8843 27.144 85.6483 27.144C87.4003 27.144 88.6963 25.872 88.6963 24.06C88.6963 22.248 87.4003 20.976 85.6483 20.976C83.8843 20.976 82.5883 22.248 82.5883 24.06ZM83.7283 24.06C83.7283 22.836 84.5083 21.984 85.6483 21.984C86.7763 21.984 87.5683 22.836 87.5683 24.06C87.5683 25.284 86.7763 26.136 85.6483 26.136C84.5083 26.136 83.7283 25.284 83.7283 24.06ZM97.0182 27.132C98.9742 27.132 100.522 25.98 100.894 24.252H99.6462C99.3222 25.32 98.3142 26.004 97.0422 26.004C95.2902 26.004 94.1382 24.684 94.1382 22.656C94.1382 20.628 95.2902 19.308 97.0422 19.308C98.3022 19.308 99.2742 19.992 99.5982 21.12H100.858C100.534 19.344 99.0342 18.18 97.0782 18.18C94.5942 18.18 92.9022 19.992 92.9022 22.668C92.9022 25.356 94.5462 27.132 97.0182 27.132ZM103.214 26.988V23.796C103.214 22.788 103.802 21.996 104.894 21.996C105.734 21.996 106.298 22.476 106.298 23.664V27H107.426V23.412C107.426 21.912 106.706 20.964 105.206 20.964C104.294 20.964 103.586 21.396 103.214 22.032V18.168H102.086V26.988H103.214ZM112.348 21.084C112.12 21.036 111.952 21.012 111.748 21.012C110.944 21.012 110.356 21.42 110.116 22.032L110.044 21.144H108.988V27H110.116V23.892C110.116 22.764 110.776 22.116 111.844 22.116H112.348V21.084ZM112.811 24.06C112.811 25.872 114.107 27.144 115.871 27.144C117.623 27.144 118.919 25.872 118.919 24.06C118.919 22.248 117.623 20.976 115.871 20.976C114.107 20.976 112.811 22.248 112.811 24.06ZM113.951 24.06C113.951 22.836 114.731 21.984 115.871 21.984C116.999 21.984 117.791 22.836 117.791 24.06C117.791 25.284 116.999 26.136 115.871 26.136C114.731 26.136 113.951 25.284 113.951 24.06ZM121.296 27V23.52C121.296 22.584 121.86 21.996 122.712 21.996C123.504 21.996 124.008 22.5 124.008 23.424V27H125.124V23.52C125.124 22.584 125.688 21.984 126.54 21.984C127.332 21.984 127.848 22.512 127.848 23.436V27H128.952V23.16C128.952 21.804 128.136 20.964 126.792 20.964C125.88 20.964 125.172 21.42 124.896 22.152C124.596 21.42 123.948 20.964 123.036 20.964C122.208 20.964 121.584 21.348 121.284 21.9L121.176 21.132H120.168V27H121.296ZM133.047 27.144C134.499 27.144 135.483 26.436 135.771 25.176H134.715C134.523 25.848 133.947 26.208 133.071 26.208C131.955 26.208 131.307 25.524 131.223 24.288L135.759 24.276V23.856C135.759 22.116 134.667 20.964 132.999 20.964C131.295 20.964 130.131 22.236 130.131 24.072C130.131 25.896 131.319 27.144 133.047 27.144ZM132.999 21.912C133.995 21.912 134.631 22.56 134.631 23.532H131.247C131.391 22.5 132.015 21.912 132.999 21.912ZM138.348 26.532C138.348 25.872 137.94 25.452 137.436 25.452C136.956 25.452 136.632 25.8 136.632 26.28C136.632 26.724 136.968 27.012 137.364 27.012C137.508 27.012 137.604 26.988 137.688 26.94C137.688 27.312 137.34 27.636 136.848 27.72V28.224C137.7 28.116 138.348 27.396 138.348 26.532ZM144.622 18.324H143.446V27H144.622V18.324ZM148.109 27V22.08H149.261V21.132H148.109V19.296H146.981V21.132H145.829V22.08H146.981V27H148.109ZM151.857 19.2C151.857 18.552 151.473 18.156 150.993 18.156C150.513 18.156 150.201 18.492 150.201 18.948C150.201 19.416 150.513 19.68 150.873 19.68C151.017 19.68 151.125 19.656 151.209 19.608C151.209 19.992 150.873 20.304 150.405 20.388V20.892C151.245 20.784 151.857 20.076 151.857 19.2ZM152.348 25.296C152.348 26.412 153.224 27.144 154.604 27.144C155.996 27.144 156.956 26.436 156.956 25.32C156.956 24.444 156.464 23.988 155.468 23.748L154.436 23.496C153.86 23.352 153.572 23.088 153.572 22.692C153.572 22.152 153.968 21.84 154.676 21.84C155.36 21.84 155.756 22.212 155.78 22.8H156.86C156.836 21.684 155.996 20.964 154.712 20.964C153.416 20.964 152.504 21.648 152.504 22.728C152.504 23.592 152.996 24.108 154.04 24.36L155.072 24.6C155.684 24.756 155.876 24.996 155.876 25.392C155.876 25.932 155.42 26.256 154.628 26.256C153.884 26.256 153.428 25.896 153.428 25.296H152.348ZM166.264 23.316V22.248H162.856V19.404H166.912V18.324H161.68V27H162.856V23.316H166.264ZM171.141 21.084C170.913 21.036 170.745 21.012 170.541 21.012C169.737 21.012 169.149 21.42 168.909 22.032L168.837 21.144H167.781V27H168.909V23.892C168.909 22.764 169.569 22.116 170.637 22.116H171.141V21.084ZM174.52 27.144C175.972 27.144 176.956 26.436 177.244 25.176H176.188C175.996 25.848 175.42 26.208 174.544 26.208C173.428 26.208 172.78 25.524 172.696 24.288L177.232 24.276V23.856C177.232 22.116 176.14 20.964 174.472 20.964C172.768 20.964 171.604 22.236 171.604 24.072C171.604 25.896 172.792 27.144 174.52 27.144ZM174.472 21.912C175.468 21.912 176.104 22.56 176.104 23.532H172.72C172.864 22.5 173.488 21.912 174.472 21.912ZM181.024 27.144C182.476 27.144 183.46 26.436 183.748 25.176H182.692C182.5 25.848 181.924 26.208 181.048 26.208C179.932 26.208 179.284 25.524 179.2 24.288L183.736 24.276V23.856C183.736 22.116 182.644 20.964 180.976 20.964C179.272 20.964 178.108 22.236 178.108 24.072C178.108 25.896 179.296 27.144 181.024 27.144ZM180.976 21.912C181.972 21.912 182.608 22.56 182.608 23.532H179.224C179.368 22.5 179.992 21.912 180.976 21.912Z" fill="#313233"/>
<circle cx="22" cy="22" r="22" fill="#FAFAFA"/>
<g filter="url(#filter1_d_1465_65514)">
<circle cx="22" cy="22" r="18" fill="white"/>
</g>
<g clip-path="url(#clip0_1465_65514)">
<path fill-rule="evenodd" clip-rule="evenodd" d="M14.4141 15.4839C19.0628 10.0735 27.6823 11.1415 30.9046 17.4613C28.6363 17.4622 25.0843 17.4607 23.1605 17.4613C21.7652 17.4618 20.8644 17.4301 19.8888 17.9437C18.7418 18.5474 17.8764 19.6665 17.5744 20.981L14.4141 15.4839Z" fill="#EA4335"/>
<path fill-rule="evenodd" clip-rule="evenodd" d="M18.6738 21.9997C18.6738 23.8333 20.1648 25.325 21.9974 25.325C23.83 25.325 25.3209 23.8333 25.3209 21.9997C25.3209 20.1661 23.83 18.6743 21.9974 18.6743C20.1648 18.6743 18.6738 20.1661 18.6738 21.9997Z" fill="#4285F4"/>
<path fill-rule="evenodd" clip-rule="evenodd" d="M23.2865 26.3524C21.4211 26.9067 19.2381 26.2919 18.0423 24.2279C17.1295 22.6523 14.7179 18.451 13.6217 16.5406C9.78256 22.4248 13.0914 30.4434 20.061 31.812L23.2865 26.3524Z" fill="#34A853"/>
<path fill-rule="evenodd" clip-rule="evenodd" d="M25.0834 18.6743C26.6371 20.1193 26.9756 22.4593 25.9232 24.2736C25.1302 25.6406 22.5996 29.9119 21.373 31.9802C28.554 32.4228 33.7888 25.3849 31.4243 18.6743H25.0834Z" fill="#FBBC05"/>
</g>
<defs>
<filter id="filter0_d_1465_65514" x="6" y="3" width="220" height="40" filterUnits="userSpaceOnUse" color-interpolation-filters="sRGB">
<feFlood flood-opacity="0" result="BackgroundImageFix"/>
<feColorMatrix in="SourceAlpha" type="matrix" values="0 0 0 0 0 0 0 0 0 0 0 0 0 0 0 0 0 0 127 0" result="hardAlpha"/>
<feOffset dy="1"/>
<feGaussianBlur stdDeviation="1"/>
<feComposite in2="hardAlpha" operator="out"/>
<feColorMatrix type="matrix" values="0 0 0 0 0 0 0 0 0 0 0 0 0 0 0 0 0 0 0.1 0"/>
<feBlend mode="normal" in2="BackgroundImageFix" result="effect1_dropShadow_1465_65514"/>
<feBlend mode="normal" in="SourceGraphic" in2="effect1_dropShadow_1465_65514" result="shape"/>
</filter>
<filter id="filter1_d_1465_65514" x="2" y="3" width="40" height="40" filterUnits="userSpaceOnUse" color-interpolation-filters="sRGB">
<feFlood flood-opacity="0" result="BackgroundImageFix"/>
<feColorMatrix in="SourceAlpha" type="matrix" values="0 0 0 0 0 0 0 0 0 0 0 0 0 0 0 0 0 0 127 0" result="hardAlpha"/>
<feOffset dy="1"/>
<feGaussianBlur stdDeviation="1"/>
<feComposite in2="hardAlpha" operator="out"/>
<feColorMatrix type="matrix" values="0 0 0 0 0 0 0 0 0 0 0 0 0 0 0 0 0 0 0.1 0"/>
<feBlend mode="normal" in2="BackgroundImageFix" result="effect1_dropShadow_1465_65514"/>
<feBlend mode="normal" in="SourceGraphic" in2="effect1_dropShadow_1465_65514" result="shape"/>
</filter>
<clipPath id="clip0_1465_65514">
<rect width="20" height="20" fill="white" transform="translate(12 12)"/>
</clipPath>
</defs>
</svg>
