<svg width="228" height="48" viewBox="0 0 228 48" fill="none" xmlns="http://www.w3.org/2000/svg">
<rect x="0.25" y="0.25" width="227.5" height="47.5" rx="5.75" fill="white"/>
<circle cx="26" cy="24" r="16" fill="#F3F9FF"/>
<path d="M21 23V27.6837C21 28.4121 21.5593 29 22.2523 29H29.7477C30.4407 29 31 28.4121 31 27.6837V23.1022" stroke="#1F76CC" stroke-width="1.4" stroke-linecap="round" stroke-linejoin="round"/>
<path d="M23.9726 21.6667C23.9726 22.405 23.0677 23 21.953 23C21.5596 23 21.199 22.9284 20.8908 22.8017C20.2154 22.5262 19.881 21.8705 20.0384 21.2534L20.4187 19.7438C20.5236 19.314 21.0875 19 21.7498 19H30.2475C30.9032 19 31.4671 19.314 31.5786 19.7438L31.9589 21.2369C31.9589 21.2424 31.9654 21.2479 31.9589 21.2479C32.1228 21.865 31.7884 22.5207 31.1065 22.7961C30.7983 22.9229 30.4311 22.9945 30.0442 22.9945C28.923 22.9945 28.0247 22.3994 28.0247 21.6612" stroke="#1F76CC" stroke-width="1.4" stroke-linecap="round" stroke-linejoin="round"/>
<path d="M28 22C28 22.5537 27.1039 23 26 23C24.8896 23 24 22.5537 24 22" stroke="#1F76CC" stroke-width="1.4" stroke-linecap="round" stroke-linejoin="round"/>
<path d="M24 22V19" stroke="#1F76CC" stroke-width="1.4" stroke-linecap="round" stroke-linejoin="round"/>
<path d="M28 22V19" stroke="#1F76CC" stroke-width="1.4" stroke-linecap="round" stroke-linejoin="round"/>
<path d="M55.376 29.154C52.492 29.154 50.574 27.082 50.574 23.946C50.574 20.824 52.548 18.71 55.446 18.71C57.728 18.71 59.478 20.068 59.856 22.14H58.386C58.008 20.824 56.874 20.026 55.404 20.026C53.36 20.026 52.016 21.566 52.016 23.932C52.016 26.298 53.36 27.838 55.404 27.838C56.888 27.838 58.064 27.04 58.442 25.794H59.898C59.464 27.81 57.658 29.154 55.376 29.154ZM60.9083 25.57C60.9083 23.456 62.4203 21.972 64.4783 21.972C66.5223 21.972 68.0343 23.456 68.0343 25.57C68.0343 27.684 66.5223 29.168 64.4783 29.168C62.4203 29.168 60.9083 27.684 60.9083 25.57ZM62.2383 25.57C62.2383 26.998 63.1483 27.992 64.4783 27.992C65.7943 27.992 66.7183 26.998 66.7183 25.57C66.7183 24.142 65.7943 23.148 64.4783 23.148C63.1483 23.148 62.2383 24.142 62.2383 25.57ZM70.8071 29H69.4911V22.154H70.6811L70.8211 23.204C71.2551 22.42 72.1231 21.958 73.0891 21.958C74.8951 21.958 75.7211 23.064 75.7211 24.814V29H74.4051V25.108C74.4051 23.722 73.7611 23.162 72.7531 23.162C71.5211 23.162 70.8071 24.044 70.8071 25.374V29ZM78.8598 29H77.5438V22.154H78.7338L78.8738 23.204C79.3078 22.42 80.1758 21.958 81.1418 21.958C82.9478 21.958 83.7738 23.064 83.7738 24.814V29H82.4578V25.108C82.4578 23.722 81.8138 23.162 80.8058 23.162C79.5738 23.162 78.8598 24.044 78.8598 25.374V29ZM88.5505 29.168C86.5345 29.168 85.1485 27.712 85.1485 25.584C85.1485 23.442 86.5065 21.958 88.4945 21.958C90.4405 21.958 91.7145 23.302 91.7145 25.332V25.822L86.4225 25.836C86.5205 27.278 87.2765 28.076 88.5785 28.076C89.6005 28.076 90.2725 27.656 90.4965 26.872H91.7285C91.3925 28.342 90.2445 29.168 88.5505 29.168ZM88.4945 23.064C87.3465 23.064 86.6185 23.75 86.4505 24.954H90.3985C90.3985 23.82 89.6565 23.064 88.4945 23.064ZM92.7364 25.584C92.7364 23.442 94.0944 21.958 96.0964 21.958C97.8184 21.958 99.0224 22.938 99.2604 24.464H97.9444C97.7204 23.596 97.0204 23.134 96.1384 23.134C94.8924 23.134 94.0384 24.086 94.0384 25.57C94.0384 27.04 94.8364 27.992 96.0824 27.992C97.0204 27.992 97.7204 27.502 97.9584 26.69H99.2744C99.0084 28.174 97.7344 29.168 96.0824 29.168C94.0664 29.168 92.7364 27.74 92.7364 25.584ZM102.595 29H101.279V23.26H99.9349V22.154H101.279V20.012H102.595V22.154H103.939V23.26H102.595V29ZM108.29 32.066V30.988H109.172C109.802 30.988 110.306 30.89 110.628 30.022L110.866 29.364L108.108 22.154H109.494L111.482 27.67L113.512 22.154H114.87L111.636 30.54C111.174 31.716 110.488 32.206 109.438 32.206C109.004 32.206 108.64 32.15 108.29 32.066ZM115.213 25.57C115.213 23.456 116.725 21.972 118.783 21.972C120.827 21.972 122.339 23.456 122.339 25.57C122.339 27.684 120.827 29.168 118.783 29.168C116.725 29.168 115.213 27.684 115.213 25.57ZM116.543 25.57C116.543 26.998 117.453 27.992 118.783 27.992C120.099 27.992 121.023 26.998 121.023 25.57C121.023 24.142 120.099 23.148 118.783 23.148C117.453 23.148 116.543 24.142 116.543 25.57ZM128.364 22.154H129.666V29H128.49L128.35 27.964C127.958 28.678 127.048 29.168 126.04 29.168C124.444 29.168 123.548 28.09 123.548 26.41V22.154H124.864V25.976C124.864 27.446 125.494 28.006 126.502 28.006C127.706 28.006 128.364 27.236 128.364 25.766V22.154ZM135.495 22.098V23.302H134.907C133.661 23.302 132.891 24.058 132.891 25.374V29H131.575V22.168H132.807L132.891 23.204C133.171 22.49 133.857 22.014 134.795 22.014C135.033 22.014 135.229 22.042 135.495 22.098ZM139.997 27.012H141.257C141.257 27.712 141.789 28.132 142.657 28.132C143.581 28.132 144.113 27.754 144.113 27.124C144.113 26.662 143.889 26.382 143.175 26.2L141.971 25.92C140.753 25.626 140.179 25.024 140.179 24.016C140.179 22.756 141.243 21.958 142.755 21.958C144.253 21.958 145.233 22.798 145.261 24.1H144.001C143.973 23.414 143.511 22.98 142.713 22.98C141.887 22.98 141.425 23.344 141.425 23.974C141.425 24.436 141.761 24.744 142.433 24.912L143.637 25.206C144.799 25.486 145.373 26.018 145.373 27.04C145.373 28.342 144.253 29.168 142.629 29.168C141.019 29.168 139.997 28.314 139.997 27.012ZM148.149 28.986H146.833V18.696H148.149V23.204C148.583 22.462 149.409 21.958 150.473 21.958C152.223 21.958 153.063 23.064 153.063 24.814V29H151.747V25.108C151.747 23.722 151.089 23.162 150.109 23.162C148.835 23.162 148.149 24.086 148.149 25.262V28.986ZM154.438 25.57C154.438 23.456 155.95 21.972 158.008 21.972C160.052 21.972 161.564 23.456 161.564 25.57C161.564 27.684 160.052 29.168 158.008 29.168C155.95 29.168 154.438 27.684 154.438 25.57ZM155.768 25.57C155.768 26.998 156.678 27.992 158.008 27.992C159.324 27.992 160.248 26.998 160.248 25.57C160.248 24.142 159.324 23.148 158.008 23.148C156.678 23.148 155.768 24.142 155.768 25.57ZM163.02 32.066V22.154H164.21L164.308 23.386C164.77 22.448 165.694 21.958 166.786 21.958C168.746 21.958 169.964 23.428 169.964 25.528C169.964 27.614 168.816 29.182 166.786 29.182C165.694 29.182 164.784 28.72 164.336 27.88V32.066H163.02ZM164.35 25.584C164.35 26.984 165.162 27.992 166.506 27.992C167.85 27.992 168.648 26.984 168.648 25.584C168.648 24.17 167.85 23.162 166.506 23.162C165.162 23.162 164.35 24.156 164.35 25.584Z" fill="#1F76CC"/>
<path d="M209 19.5V28.5" stroke="#1F76CC" stroke-width="1.5" stroke-linecap="round" stroke-linejoin="round"/>
<path d="M204.5 24H213.5" stroke="#1F76CC" stroke-width="1.5" stroke-linecap="round" stroke-linejoin="round"/>
<rect x="0.25" y="0.25" width="227.5" height="47.5" rx="5.75" stroke="#1F76CC" stroke-width="0.5"/>
</svg>
