<svg width="24" height="24" viewBox="0 0 24 24" fill="none" xmlns="http://www.w3.org/2000/svg">
<path d="M5.75 19V16.25C5.75 15.1454 6.64543 14.25 7.75 14.25H12M15.25 8C15.25 9.79493 13.7949 11.25 12 11.25C10.2051 11.25 8.75 9.79493 8.75 8C8.75 6.20507 10.2051 4.75 12 4.75C13.7949 4.75 15.25 6.20507 15.25 8Z" stroke="#646566" stroke-width="1.5" stroke-linecap="round" stroke-linejoin="round"/>
<path d="M14.3215 14.8375L14.3216 14.8374C14.6883 14.4524 15.3033 14.4547 15.667 14.8426C15.667 14.8427 15.667 14.8427 15.667 14.8427L16.1351 15.342C16.2296 15.4429 16.3617 15.5001 16.4999 15.5001C16.6381 15.5001 16.7701 15.4429 16.8647 15.3421L17.3329 14.8427C17.6966 14.4548 18.3115 14.4523 18.6783 14.8374L18.6784 14.8375C19.0248 15.2012 19.0179 15.7749 18.6627 16.1302C18.6626 16.1303 18.6626 16.1303 18.6626 16.1303L16.4999 18.2929L14.3373 16.1303C13.982 15.775 13.975 15.2013 14.3215 14.8375Z" fill="#646566" stroke="#646566" stroke-linecap="round" stroke-linejoin="round"/>
</svg>
