<svg width="18" height="18" viewBox="0 0 18 18" fill="none" xmlns="http://www.w3.org/2000/svg">
<path d="M13.6875 3.9375H4.3125V14.0625H13.6875V3.9375Z" stroke="#505152" stroke-width="1.5" stroke-linecap="round" stroke-linejoin="round"/>
<path d="M4.5 6.75L13.5 6.75" stroke="#505152" stroke-width="1.5" stroke-linecap="round" stroke-linejoin="round"/>
<mask id="path-3-inside-1_2333_10710" fill="white">
<path d="M7.5 10.125C7.91421 10.125 8.25 9.78921 8.25 9.375C8.25 8.96079 7.91421 8.625 7.5 8.625C7.08579 8.625 6.75 8.96079 6.75 9.375C6.75 9.78921 7.08579 10.125 7.5 10.125Z"/>
</mask>
<path d="M7.5 10.125C7.91421 10.125 8.25 9.78921 8.25 9.375C8.25 8.96079 7.91421 8.625 7.5 8.625C7.08579 8.625 6.75 8.96079 6.75 9.375C6.75 9.78921 7.08579 10.125 7.5 10.125Z" fill="#505152"/>
<path d="M6.75 9.375C6.75 8.96079 7.08579 8.625 7.5 8.625V11.625C8.74264 11.625 9.75 10.6176 9.75 9.375H6.75ZM7.5 8.625C7.91421 8.625 8.25 8.96079 8.25 9.375H5.25C5.25 10.6176 6.25736 11.625 7.5 11.625V8.625ZM8.25 9.375C8.25 9.78921 7.91421 10.125 7.5 10.125V7.125C6.25736 7.125 5.25 8.13236 5.25 9.375H8.25ZM7.5 10.125C7.08579 10.125 6.75 9.78921 6.75 9.375H9.75C9.75 8.13236 8.74264 7.125 7.5 7.125V10.125Z" fill="#505152" mask="url(#path-3-inside-1_2333_10710)"/>
<mask id="path-5-inside-2_2333_10710" fill="white">
<path d="M7.5 12.375C7.91421 12.375 8.25 12.0392 8.25 11.625C8.25 11.2108 7.91421 10.875 7.5 10.875C7.08579 10.875 6.75 11.2108 6.75 11.625C6.75 12.0392 7.08579 12.375 7.5 12.375Z"/>
</mask>
<path d="M7.5 12.375C7.91421 12.375 8.25 12.0392 8.25 11.625C8.25 11.2108 7.91421 10.875 7.5 10.875C7.08579 10.875 6.75 11.2108 6.75 11.625C6.75 12.0392 7.08579 12.375 7.5 12.375Z" fill="#505152"/>
<path d="M6.75 11.625C6.75 11.2108 7.08579 10.875 7.5 10.875V13.875C8.74264 13.875 9.75 12.8676 9.75 11.625H6.75ZM7.5 10.875C7.91421 10.875 8.25 11.2108 8.25 11.625H5.25C5.25 12.8676 6.25736 13.875 7.5 13.875V10.875ZM8.25 11.625C8.25 12.0392 7.91421 12.375 7.5 12.375V9.375C6.25736 9.375 5.25 10.3824 5.25 11.625H8.25ZM7.5 12.375C7.08579 12.375 6.75 12.0392 6.75 11.625H9.75C9.75 10.3824 8.74264 9.375 7.5 9.375V12.375Z" fill="#505152" mask="url(#path-5-inside-2_2333_10710)"/>
<path d="M10.5 10.125C10.9142 10.125 11.25 9.78921 11.25 9.375C11.25 8.96079 10.9142 8.625 10.5 8.625C10.0858 8.625 9.75 8.96079 9.75 9.375C9.75 9.78921 10.0858 10.125 10.5 10.125Z" fill="#505152"/>
<path d="M10.5 12.375C10.9142 12.375 11.25 12.0392 11.25 11.625C11.25 11.2108 10.9142 10.875 10.5 10.875C10.0858 10.875 9.75 11.2108 9.75 11.625C9.75 12.0392 10.0858 12.375 10.5 12.375Z" fill="#505152"/>
</svg>
