<svg width="24" height="24" viewBox="0 0 24 24" fill="none" xmlns="http://www.w3.org/2000/svg">
<path d="M12 10.25C13.2426 10.25 14.25 9.24264 14.25 8C14.25 6.75736 13.2426 5.75 12 5.75C10.7574 5.75 9.75 6.75736 9.75 8C9.75 9.24264 10.7574 10.25 12 10.25Z" stroke="#646566" stroke-width="1.5" stroke-linecap="round" stroke-linejoin="round"/>
<path d="M15.5 10.25C16.7426 10.25 17.75 9.24264 17.75 8C17.75 6.75736 16.7426 5.75 15.5 5.75" stroke="#646566" stroke-width="1.5" stroke-linecap="round" stroke-linejoin="round"/>
<path d="M8.5 10.25C7.25736 10.25 6.25 9.24264 6.25 8C6.25 6.75736 7.25736 5.75 8.5 5.75" stroke="#646566" stroke-width="1.5" stroke-linecap="round" stroke-linejoin="round"/>
<path d="M7.75 19V15.25C7.75 14.1454 8.64543 13.25 9.75 13.25H14.25C15.3546 13.25 16.25 14.1454 16.25 15.25V19" stroke="#646566" stroke-width="1.5" stroke-linecap="round" stroke-linejoin="round"/>
<path d="M17.5 13.25H17.75C18.8546 13.25 19.75 14.1454 19.75 15.25V18" stroke="#646566" stroke-width="1.5" stroke-linecap="round" stroke-linejoin="round"/>
<path d="M6.5 13.25H6.25C5.14543 13.25 4.25 14.1454 4.25 15.25V18" stroke="#646566" stroke-width="1.5" stroke-linecap="round" stroke-linejoin="round"/>
</svg>
