<svg width="20" height="20" viewBox="0 0 20 20" fill="none" xmlns="http://www.w3.org/2000/svg">
<path d="M8.54169 12.5C8.54169 13.5355 7.70222 14.375 6.66669 14.375C5.63115 14.375 4.79169 13.5355 4.79169 12.5C4.79169 11.4645 5.63115 10.625 6.66669 10.625C7.70222 10.625 8.54169 11.4645 8.54169 12.5Z" stroke="#505152" stroke-width="1.5" stroke-linecap="round" stroke-linejoin="round"/>
<path d="M8.54169 12.5H16.6667" stroke="#505152" stroke-width="1.5" stroke-linecap="round" stroke-linejoin="round"/>
<path d="M12.2917 7.5C12.2917 8.5355 13.1312 9.375 14.1667 9.375C15.2022 9.375 16.0417 8.5355 16.0417 7.5C16.0417 6.46447 15.2022 5.625 14.1667 5.625C13.1312 5.625 12.2917 6.46447 12.2917 7.5Z" stroke="#505152" stroke-width="1.5" stroke-linecap="round" stroke-linejoin="round"/>
<path d="M12.2917 7.5H4.16669" stroke="#505152" stroke-width="1.5" stroke-linecap="round" stroke-linejoin="round"/>
</svg>
