<svg width="16" height="16" viewBox="0 0 16 16" fill="none" xmlns="http://www.w3.org/2000/svg">
<g clip-path="url(#clip0_1975_50930)">
<path fill-rule="evenodd" clip-rule="evenodd" d="M3.34545 8.0004C3.34545 7.49231 3.43163 7.0052 3.58545 6.54831L0.893087 4.53516C0.36836 5.57836 0.0727234 6.75382 0.0727234 8.0004C0.0727234 9.24591 0.367996 10.4207 0.891996 11.4632L3.58291 9.44609C3.43054 8.99133 3.34545 8.506 3.34545 8.0004Z" fill="#FBBC05"/>
<path fill-rule="evenodd" clip-rule="evenodd" d="M8.07273 3.37773C9.20001 3.37773 10.2182 3.76885 11.0182 4.40885L13.3455 2.13329C11.9273 0.924401 10.1091 0.177734 8.07273 0.177734C4.91128 0.177734 2.19419 1.94805 0.893097 4.53471L3.58546 6.54787C4.20582 4.70396 5.97419 3.37773 8.07273 3.37773Z" fill="#EB4335"/>
<path fill-rule="evenodd" clip-rule="evenodd" d="M8.07273 12.6223C5.97419 12.6223 4.20582 11.2961 3.58546 9.45215L0.893097 11.4649C2.19419 14.052 4.91128 15.8223 8.07273 15.8223C10.024 15.8223 11.8869 15.1439 13.2851 13.8728L10.7295 11.9382C10.0084 12.383 9.10037 12.6223 8.07273 12.6223Z" fill="#34A853"/>
<path fill-rule="evenodd" clip-rule="evenodd" d="M15.7091 8.00035C15.7091 7.53812 15.6364 7.04035 15.5273 6.57812H8.07272V9.60035H12.3636C12.1491 10.6307 11.5651 11.4229 10.7294 11.9385L13.2851 13.8731C14.7538 12.5383 15.7091 10.55 15.7091 8.00035Z" fill="#4285F4"/>
</g>
<defs>
<clipPath id="clip0_1975_50930">
<rect width="16" height="16" fill="white"/>
</clipPath>
</defs>
</svg>
