<svg width="20" height="20" viewBox="0 0 20 20" fill="none" xmlns="http://www.w3.org/2000/svg">
<mask id="path-1-inside-1_782_2543" fill="white">
<path d="M17.5 10.1833C17.5 5.60833 13.95 2.5 9.99996 2.5C6.09163 2.5 2.49996 5.54167 2.49996 10.2333C1.99996 10.5167 1.66663 11.05 1.66663 11.6667V13.3333C1.66663 14.25 2.41663 15 3.33329 15H4.16663V9.91667C4.16663 6.69167 6.77496 4.08333 9.99996 4.08333C13.225 4.08333 15.8333 6.69167 15.8333 9.91667V15.8333H9.16663V17.5H15.8333C16.75 17.5 17.5 16.75 17.5 15.8333V14.8167C17.9916 14.5583 18.3333 14.05 18.3333 13.45V11.5333C18.3333 10.95 17.9916 10.4417 17.5 10.1833Z"/>
</mask>
<path d="M17.5 10.1833C17.5 5.60833 13.95 2.5 9.99996 2.5C6.09163 2.5 2.49996 5.54167 2.49996 10.2333C1.99996 10.5167 1.66663 11.05 1.66663 11.6667V13.3333C1.66663 14.25 2.41663 15 3.33329 15H4.16663V9.91667C4.16663 6.69167 6.77496 4.08333 9.99996 4.08333C13.225 4.08333 15.8333 6.69167 15.8333 9.91667V15.8333H9.16663V17.5H15.8333C16.75 17.5 17.5 16.75 17.5 15.8333V14.8167C17.9916 14.5583 18.3333 14.05 18.3333 13.45V11.5333C18.3333 10.95 17.9916 10.4417 17.5 10.1833Z" fill="#313233"/>
<path d="M17.5 10.1833H13.5V12.6002L15.6394 13.7243L17.5 10.1833ZM2.49996 10.2333L4.47201 13.7134L6.49996 12.5642V10.2333H2.49996ZM4.16663 15V19H8.16663V15H4.16663ZM15.8333 15.8333V19.8333H19.8333V15.8333H15.8333ZM9.16663 15.8333V11.8333H5.16663V15.8333H9.16663ZM9.16663 17.5H5.16663V21.5H9.16663V17.5ZM17.5 14.8167L15.6394 11.2757L13.5 12.3998V14.8167H17.5ZM21.5 10.1833C21.5 3.31052 16.0694 -1.5 9.99996 -1.5V6.5C11.8306 6.5 13.5 7.90615 13.5 10.1833H21.5ZM9.99996 -1.5C3.99249 -1.5 -1.50004 3.2241 -1.50004 10.2333H6.49996C6.49996 7.85923 8.19076 6.5 9.99996 6.5V-1.5ZM0.527909 6.75324C-1.18327 7.72291 -2.33337 9.56163 -2.33337 11.6667H5.66663C5.66663 12.5384 5.18319 13.3104 4.47201 13.7134L0.527909 6.75324ZM-2.33337 11.6667V13.3333H5.66663V11.6667H-2.33337ZM-2.33337 13.3333C-2.33337 16.4591 0.207487 19 3.33329 19V11C4.62576 11 5.66663 12.0409 5.66663 13.3333H-2.33337ZM3.33329 19H4.16663V11H3.33329V19ZM8.16663 15V9.91667H0.166626V15H8.16663ZM8.16663 9.91667C8.16663 8.90081 8.9841 8.08333 9.99996 8.08333V0.0833335C4.56582 0.0833335 0.166626 4.48253 0.166626 9.91667H8.16663ZM9.99996 8.08333C11.0158 8.08333 11.8333 8.90081 11.8333 9.91667H19.8333C19.8333 4.48253 15.4341 0.0833335 9.99996 0.0833335V8.08333ZM11.8333 9.91667V15.8333H19.8333V9.91667H11.8333ZM15.8333 11.8333H9.16663V19.8333H15.8333V11.8333ZM5.16663 15.8333V17.5H13.1666V15.8333H5.16663ZM9.16663 21.5H15.8333V13.5H9.16663V21.5ZM15.8333 21.5C18.9591 21.5 21.5 18.9591 21.5 15.8333H13.5C13.5 14.5409 14.5408 13.5 15.8333 13.5V21.5ZM21.5 15.8333V14.8167H13.5V15.8333H21.5ZM19.3605 18.3576C21.0767 17.4559 22.3333 15.6362 22.3333 13.45H14.3333C14.3333 12.4638 14.9066 11.6608 15.6394 11.2757L19.3605 18.3576ZM22.3333 13.45V11.5333H14.3333V13.45H22.3333ZM22.3333 11.5333C22.3333 9.33944 21.0538 7.53207 19.3605 6.64236L15.6394 13.7243C14.9295 13.3513 14.3333 12.5606 14.3333 11.5333H22.3333Z" fill="#313233" mask="url(#path-1-inside-1_782_2543)"/>
<path d="M7.49996 11.6667C7.9602 11.6667 8.33329 11.2936 8.33329 10.8333C8.33329 10.3731 7.9602 10 7.49996 10C7.03972 10 6.66663 10.3731 6.66663 10.8333C6.66663 11.2936 7.03972 11.6667 7.49996 11.6667Z" fill="#313233"/>
<path d="M12.5 11.6667C12.9602 11.6667 13.3333 11.2936 13.3333 10.8333C13.3333 10.3731 12.9602 10 12.5 10C12.0397 10 11.6666 10.3731 11.6666 10.8333C11.6666 11.2936 12.0397 11.6667 12.5 11.6667Z" fill="#313233"/>
<path d="M15 9.19167C14.6 6.81667 12.5333 5 10.0417 5C7.51668 5 4.80002 7.09167 5.01668 10.375C7.07502 9.53333 8.62501 7.7 9.06668 5.46667C10.1583 7.65833 12.4 9.16667 15 9.19167Z" fill="#313233"/>
</svg>
