<svg width="16" height="16" viewBox="0 0 16 16" fill="none" xmlns="http://www.w3.org/2000/svg">
<path d="M11.3333 7C11.8856 7 12.3333 7.44773 12.3333 8C12.3333 8.55227 11.8856 9 11.3333 9C10.7811 9 10.3333 8.55227 10.3333 8C10.3333 7.44773 10.7811 7 11.3333 7Z" fill="#8B8B8C"/>
<path d="M8 7C8.55227 7 9 7.44773 9 8C9 8.55227 8.55227 9 8 9C7.44773 9 7 8.55227 7 8C7 7.44773 7.44773 7 8 7Z" fill="#8B8B8C"/>
<path d="M4.66667 7C5.21895 7 5.66667 7.44773 5.66667 8C5.66667 8.55227 5.21895 9 4.66667 9C4.11438 9 3.66667 8.55227 3.66667 8C3.66667 7.44773 4.11438 7 4.66667 7Z" fill="#8B8B8C"/>
</svg>
