<svg width="24" height="24" viewBox="0 0 24 24" fill="none" xmlns="http://www.w3.org/2000/svg"><path d="M7.2 2.40039C6.56348 2.40039 5.95303 2.65325 5.50295 3.10333C5.05286 3.55342 4.8 4.16387 4.8 4.80039V19.2004C4.8 19.8369 5.05286 20.4474 5.50295 20.8974C5.95303 21.3475 6.56348 21.6004 7.2 21.6004H12.3084C12.0028 21.2302 11.7384 20.8279 11.52 20.4004H7.2C6.88174 20.4004 6.57652 20.274 6.35148 20.0489C6.12643 19.8239 6 19.5187 6 19.2004H11.0484C10.7275 18.0699 10.7142 16.8743 11.0099 15.737C11.3056 14.5997 11.8996 13.5619 12.7306 12.731C13.5615 11.9 14.5993 11.306 15.7366 11.0103C16.8739 10.7146 18.0695 10.7279 19.2 11.0488V4.80039C19.2 4.16387 18.9471 3.55342 18.4971 3.10333C18.047 2.65325 17.4365 2.40039 16.8 2.40039H7.2ZM8.1 5.40039H15.9C16.1387 5.40039 16.3676 5.49521 16.5364 5.66399C16.7052 5.83278 16.8 6.0617 16.8 6.30039C16.8 6.53909 16.7052 6.768 16.5364 6.93679C16.3676 7.10557 16.1387 7.20039 15.9 7.20039H8.1C7.86131 7.20039 7.63239 7.10557 7.46361 6.93679C7.29482 6.768 7.2 6.53909 7.2 6.30039C7.2 6.0617 7.29482 5.83278 7.46361 5.66399C7.63239 5.49521 7.86131 5.40039 8.1 5.40039ZM22.8 17.4004C22.8 18.8326 22.2311 20.2061 21.2184 21.2188C20.2057 22.2315 18.8322 22.8004 17.4 22.8004C15.9678 22.8004 14.5943 22.2315 13.5816 21.2188C12.5689 20.2061 12 18.8326 12 17.4004C12 15.9682 12.5689 14.5947 13.5816 13.582C14.5943 12.5693 15.9678 12.0004 17.4 12.0004C18.8322 12.0004 20.2057 12.5693 21.2184 13.582C22.2311 14.5947 22.8 15.9682 22.8 17.4004ZM16.824 15.0412C16.7462 14.9878 16.6558 14.9556 16.5617 14.9478C16.4676 14.94 16.3731 14.9569 16.2876 14.9968C16.2178 15.0275 16.1546 15.0715 16.1016 15.1264C15.9898 15.2409 15.9274 15.3947 15.9276 15.5548V19.2448C15.9269 19.3243 15.9419 19.4032 15.9717 19.477C16.0016 19.5507 16.0457 19.6178 16.1016 19.6744C16.1564 19.7289 16.2201 19.7735 16.29 19.8064C16.4118 19.8622 16.5499 19.8707 16.6776 19.8304C16.7329 19.8122 16.7854 19.7863 16.8336 19.7536L19.5888 17.8732C19.6726 17.818 19.7402 17.7413 19.7844 17.6512C19.83 17.5604 19.8534 17.4601 19.8528 17.3586C19.8522 17.257 19.8275 17.157 19.7808 17.0668C19.7339 16.978 19.6649 16.9028 19.5804 16.8484L16.824 15.0412Z" fill="gray"></path></svg>