<svg width="20" height="20" viewBox="0 0 20 20" fill="none" xmlns="http://www.w3.org/2000/svg">
<path d="M13.4667 15.8333C13.4667 15.907 13.407 15.9667 13.3333 15.9667C13.2597 15.9667 13.2 15.907 13.2 15.8333C13.2 15.7597 13.2597 15.7 13.3333 15.7C13.407 15.7 13.4667 15.7597 13.4667 15.8333Z" fill="#646566" stroke="#646566" stroke-width="1.4" stroke-linecap="round" stroke-linejoin="round"/>
<path d="M7.63334 15.8333C7.63334 15.907 7.57364 15.9667 7.50001 15.9667C7.42637 15.9667 7.36667 15.907 7.36667 15.8333C7.36667 15.7597 7.42637 15.7 7.50001 15.7C7.57364 15.7 7.63334 15.7597 7.63334 15.8333Z" fill="#646566" stroke="#646566" stroke-width="1.4" stroke-linecap="round" stroke-linejoin="round"/>
<path d="M7.29169 13.1247H13.75L15.4167 6.45801H5.51392L7.29169 13.1247Z" stroke="#646566" stroke-width="1.4" stroke-linecap="round" stroke-linejoin="round"/>
<path d="M2.5 3.95801H4.84722L5.51389 6.45801" stroke="#646566" stroke-width="1.4" stroke-linecap="round" stroke-linejoin="round"/>
</svg>
