<svg width="16" height="16" viewBox="0 0 16 16" fill="none" xmlns="http://www.w3.org/2000/svg">
<path d="M9.59335 6.38672L6.34668 9.63339" stroke="#646566" stroke-width="1.2" stroke-linecap="round" stroke-linejoin="round"/>
<path d="M6.28645 5.94669C6.28645 6.13447 6.13422 6.28669 5.94645 6.28669C5.75867 6.28669 5.60645 6.13446 5.60645 5.94669C5.60645 5.75892 5.75867 5.60669 5.94645 5.60669C6.13422 5.60669 6.28645 5.75891 6.28645 5.94669Z" fill="#646566" stroke="#646566"/>
<path d="M10.0529 10.8934C10.5168 10.8934 10.8929 10.5173 10.8929 10.0534C10.8929 9.58945 10.5168 9.21338 10.0529 9.21338C9.58896 9.21338 9.21289 9.58945 9.21289 10.0534C9.21289 10.5173 9.58896 10.8934 10.0529 10.8934Z" fill="#646566"/>
<path d="M7.99967 14.1666C11.4054 14.1666 14.1663 11.4057 14.1663 7.99992C14.1663 4.59417 11.4054 1.83325 7.99967 1.83325C4.59392 1.83325 1.83301 4.59417 1.83301 7.99992C1.83301 11.4057 4.59392 14.1666 7.99967 14.1666Z" stroke="#646566" stroke-width="1.5" stroke-linecap="round" stroke-linejoin="round"/>
</svg>
