<svg width="20" height="20" viewBox="0 0 20 20" fill="none" xmlns="http://www.w3.org/2000/svg">
<path d="M16.0416 9.99999C16.0416 13.3367 13.3367 16.0417 9.99992 16.0417C6.6632 16.0417 3.95825 13.3367 3.95825 9.99999C3.95825 6.66328 6.6632 3.95833 9.99992 3.95833C13.3367 3.95833 16.0416 6.66328 16.0416 9.99999Z" stroke="#646566" stroke-width="1.4" stroke-linecap="round" stroke-linejoin="round"/>
<path d="M12.7084 10C12.7084 11.4958 11.4958 12.7083 10.0001 12.7083C8.50433 12.7083 7.29175 11.4958 7.29175 10C7.29175 8.50426 8.50433 7.29167 10.0001 7.29167C11.4958 7.29167 12.7084 8.50426 12.7084 10Z" stroke="#646566" stroke-width="1.4" stroke-linecap="round" stroke-linejoin="round"/>
<path d="M8.08504 8.08491L5.72803 5.72789" stroke="#646566" stroke-width="1.4" stroke-linecap="round" stroke-linejoin="round"/>
<path d="M11.915 8.08491L14.272 5.72789" stroke="#646566" stroke-width="1.4" stroke-linecap="round" stroke-linejoin="round"/>
<path d="M8.08504 11.9151L5.72803 14.2721" stroke="#646566" stroke-width="1.4" stroke-linecap="round" stroke-linejoin="round"/>
<path d="M11.915 11.9151L14.272 14.2721" stroke="#646566" stroke-width="1.4" stroke-linecap="round" stroke-linejoin="round"/>
</svg>
