<svg width="24" height="24" viewBox="0 0 24 24" fill="none" xmlns="http://www.w3.org/2000/svg">
<mask id="path-1-inside-1_18_32" fill="white">
<path d="M12 4C12 4 5.74555 3.99997 4.18555 4.41797C3.32455 4.64797 2.64797 5.32555 2.41797 6.18555C1.99997 7.74555 2 12 2 12C2 12 1.99997 16.2545 2.41797 17.8145C2.64797 18.6755 3.32555 19.352 4.18555 19.582C5.74555 20 12 20 12 20C12 20 18.2545 20 19.8145 19.582C20.6745 19.352 21.352 18.6745 21.582 17.8145C22 16.2545 22 12 22 12C22 12 22 7.74555 21.582 6.18555C21.352 5.32555 20.6745 4.64797 19.8145 4.41797C18.2545 3.99997 12 4 12 4ZM12 6C14.882 6 18.4909 6.13361 19.2969 6.34961C19.4659 6.39461 19.6044 6.53312 19.6504 6.70312C19.8914 7.60113 20 10.342 20 12C20 13.658 19.8914 16.3979 19.6504 17.2969C19.6054 17.4659 19.4669 17.6044 19.2969 17.6504C18.4919 17.8664 14.882 18 12 18C9.119 18 5.51012 17.8664 4.70312 17.6504C4.53413 17.6054 4.39561 17.4669 4.34961 17.2969C4.10861 16.3989 4 13.658 4 12C4 10.342 4.10861 7.60117 4.34961 6.70117C4.39461 6.53317 4.53312 6.39461 4.70312 6.34961C5.50813 6.13361 9.118 6 12 6ZM10 8.53516V15.4648L16 12L10 8.53516Z"/>
</mask>
<path d="M12 4C12 4 5.74555 3.99997 4.18555 4.41797C3.32455 4.64797 2.64797 5.32555 2.41797 6.18555C1.99997 7.74555 2 12 2 12C2 12 1.99997 16.2545 2.41797 17.8145C2.64797 18.6755 3.32555 19.352 4.18555 19.582C5.74555 20 12 20 12 20C12 20 18.2545 20 19.8145 19.582C20.6745 19.352 21.352 18.6745 21.582 17.8145C22 16.2545 22 12 22 12C22 12 22 7.74555 21.582 6.18555C21.352 5.32555 20.6745 4.64797 19.8145 4.41797C18.2545 3.99997 12 4 12 4ZM12 6C14.882 6 18.4909 6.13361 19.2969 6.34961C19.4659 6.39461 19.6044 6.53312 19.6504 6.70312C19.8914 7.60113 20 10.342 20 12C20 13.658 19.8914 16.3979 19.6504 17.2969C19.6054 17.4659 19.4669 17.6044 19.2969 17.6504C18.4919 17.8664 14.882 18 12 18C9.119 18 5.51012 17.8664 4.70312 17.6504C4.53413 17.6054 4.39561 17.4669 4.34961 17.2969C4.10861 16.3989 4 13.658 4 12C4 10.342 4.10861 7.60117 4.34961 6.70117C4.39461 6.53317 4.53312 6.39461 4.70312 6.34961C5.50813 6.13361 9.118 6 12 6ZM10 8.53516V15.4648L16 12L10 8.53516Z" fill="#646566"/>
<path d="M12 4L12 8H12L12 4ZM4.18555 4.41797L5.21787 8.28246L5.22082 8.28167L4.18555 4.41797ZM2.41797 6.18555L6.28167 7.22082L6.28216 7.21899L2.41797 6.18555ZM2 12L6 12V12L2 12ZM2.41797 17.8145L6.28246 16.7821L6.28167 16.7792L2.41797 17.8145ZM4.18555 19.582L5.22082 15.7183L5.21899 15.7178L4.18555 19.582ZM12 20L12 16H12L12 20ZM19.8145 19.582L18.781 15.7178L18.7792 15.7183L19.8145 19.582ZM21.582 17.8145L17.7183 16.7792L17.7178 16.781L21.582 17.8145ZM22 12L18 12V12L22 12ZM21.582 6.18555L17.7178 7.21899L17.7183 7.22082L21.582 6.18555ZM19.8145 4.41797L18.7792 8.28167L18.781 8.28216L19.8145 4.41797ZM19.2969 6.34961L18.2614 10.2133L18.2676 10.2149L19.2969 6.34961ZM19.6504 6.70312L23.5137 5.66631L23.5115 5.65834L19.6504 6.70312ZM19.6504 17.2969L15.7868 16.2611L15.7851 16.2676L19.6504 17.2969ZM19.2969 17.6504L20.3335 21.5137L20.3417 21.5115L19.2969 17.6504ZM4.70312 17.6504L5.73735 13.7864L5.73235 13.7851L4.70312 17.6504ZM4.34961 17.2969L0.486309 18.3337L0.488465 18.3417L4.34961 17.2969ZM4.34961 6.70117L0.485817 5.66623L0.485741 5.66651L4.34961 6.70117ZM4.70312 6.34961L5.7267 10.2165L5.73975 10.213L4.70312 6.34961ZM10 8.53516L12.0003 5.07124L6 1.60621V8.53516H10ZM10 15.4648H6V22.3938L12.0003 18.9288L10 15.4648ZM16 12L18.0003 15.4639L23.9987 12L18.0003 8.53608L16 12ZM12 4C12 0 11.9999 0 11.9997 0C11.9996 0 11.9994 0 11.9992 0C11.9988 0 11.9984 2.38419e-07 11.9978 2.38419e-07C11.9967 7.15256e-07 11.9952 1.19209e-06 11.9934 2.14577e-06C11.9896 4.05312e-06 11.9844 7.86781e-06 11.9777 1.50204e-05C11.9644 2.93255e-05 11.9452 5.6982e-05 11.9206 0.000111341C11.8713 0.00022006 11.8 0.000434875 11.7095 0.000859022C11.5285 0.00170684 11.27 0.00339437 10.9556 0.00675488C10.3285 0.0134587 9.47121 0.0268996 8.559 0.0539982C7.6532 0.0809062 6.66101 0.122186 5.77365 0.186918C4.99875 0.243448 3.956 0.338371 3.15027 0.554265L5.22082 8.28167C5.19509 8.28857 5.51915 8.22674 6.35571 8.16572C7.07981 8.11289 7.94373 8.0758 8.79655 8.05047C9.64295 8.02533 10.4468 8.01265 11.0411 8.0063C11.3375 8.00313 11.5798 8.00155 11.7469 8.00077C11.8305 8.00038 11.8951 8.00019 11.9382 8.00009C11.9597 8.00004 11.9759 8.00002 11.9863 8.00001C11.9915 8 11.9953 8 11.9976 8C11.9987 8 11.9995 8 11.9999 8C12.0001 8 12.0002 8 12.0002 8C12.0002 8 12.0002 8 12.0002 8C12.0001 8 12 8 12 4ZM3.15322 0.553476C0.907783 1.1533 -0.847109 2.91193 -1.44622 5.1521L6.28216 7.21899C6.14305 7.73916 5.74131 8.14263 5.21787 8.28246L3.15322 0.553476ZM-1.44573 5.15027C-1.78947 6.4331 -1.89578 8.34241 -1.94432 9.51189C-1.97228 10.1854 -1.9861 10.8022 -1.993 11.2492C-1.99646 11.4736 -1.99821 11.6574 -1.99909 11.7868C-1.99953 11.8516 -1.99976 11.9029 -1.99988 11.9389C-1.99994 11.957 -1.99997 11.9712 -1.99998 11.9815C-1.99999 11.9866 -1.99999 11.9907 -2 11.9938C-2 11.9954 -2 11.9967 -2 11.9977C-2 11.9982 -2 11.9987 -2 11.9991C-2 11.9993 -2 11.9995 -2 11.9996C-2 11.9998 -2 12 2 12C6 12 6 12.0001 6 12.0003C6 12.0003 6 12.0005 6 12.0005C6 12.0007 6 12.0007 6 12.0007C6 12.0007 6 12.0005 6 12C6 11.999 6 11.997 6.00001 11.994C6.00002 11.9881 6.00004 11.9783 6.00008 11.9648C6.00017 11.9377 6.00035 11.8961 6.00072 11.8415C6.00147 11.7321 6.00298 11.5714 6.00605 11.3726C6.01221 10.9731 6.02451 10.4288 6.04879 9.84366C6.07331 9.25295 6.10881 8.65199 6.15836 8.13077C6.18305 7.87109 6.20924 7.65265 6.2354 7.47895C6.26328 7.29378 6.28259 7.21739 6.28167 7.22082L-1.44573 5.15027ZM2 12C-2 12 -2 12.0002 -2 12.0004C-2 12.0005 -2 12.0007 -2 12.0009C-2 12.0013 -2 12.0018 -2 12.0023C-2 12.0033 -2 12.0046 -2 12.0062C-1.99999 12.0093 -1.99999 12.0134 -1.99998 12.0185C-1.99997 12.0288 -1.99994 12.043 -1.99988 12.0611C-1.99976 12.0971 -1.99953 12.1484 -1.99909 12.2132C-1.99821 12.3426 -1.99646 12.5264 -1.993 12.7508C-1.9861 13.1978 -1.97228 13.8146 -1.94432 14.4881C-1.89578 15.6576 -1.78947 17.5669 -1.44573 18.8497L6.28167 16.7792C6.28259 16.7826 6.26328 16.7062 6.2354 16.5211C6.20924 16.3474 6.18305 16.1289 6.15836 15.8692C6.10881 15.348 6.07331 14.747 6.04879 14.1563C6.02451 13.5712 6.01221 13.0269 6.00605 12.6274C6.00298 12.4286 6.00147 12.2679 6.00072 12.1585C6.00035 12.1039 6.00017 12.0623 6.00008 12.0352C6.00004 12.0217 6.00002 12.0119 6.00001 12.006C6 12.003 6 12.001 6 12C6 11.9995 6 11.9993 6 11.9993C6 11.9993 6 11.9993 6 11.9995C6 11.9995 6 11.9997 6 11.9997C6 11.9999 6 12 2 12ZM-1.44652 18.8468C-0.846697 21.0922 0.91193 22.8471 3.1521 23.4462L5.21899 15.7178C5.73916 15.857 6.14263 16.2587 6.28246 16.7821L-1.44652 18.8468ZM3.15027 23.4457C3.956 23.6616 4.99875 23.7566 5.77365 23.8131C6.66101 23.8778 7.6532 23.9191 8.559 23.946C9.47121 23.9731 10.3285 23.9865 10.9556 23.9932C11.27 23.9966 11.5285 23.9983 11.7095 23.9991C11.8 23.9996 11.8713 23.9998 11.9206 23.9999C11.9452 23.9999 11.9644 24 11.9777 24C11.9844 24 11.9896 24 11.9934 24C11.9952 24 11.9967 24 11.9978 24C11.9984 24 11.9988 24 11.9992 24C11.9994 24 11.9996 24 11.9997 24C11.9999 24 12 24 12 20C12 16 12.0001 16 12.0002 16C12.0002 16 12.0002 16 12.0002 16C12.0002 16 12.0001 16 11.9999 16C11.9995 16 11.9987 16 11.9976 16C11.9953 16 11.9915 16 11.9863 16C11.9759 16 11.9597 16 11.9382 15.9999C11.8951 15.9998 11.8305 15.9996 11.7469 15.9992C11.5798 15.9984 11.3375 15.9969 11.0411 15.9937C10.4468 15.9873 9.64295 15.9747 8.79655 15.9495C7.94373 15.9242 7.07981 15.8871 6.35571 15.8343C5.51915 15.7733 5.19509 15.7114 5.22082 15.7183L3.15027 23.4457ZM12 20C12 24 12.0001 24 12.0003 24C12.0004 24 12.0006 24 12.0008 24C12.0012 24 12.0016 24 12.0022 24C12.0033 24 12.0048 24 12.0066 24C12.0104 24 12.0156 24 12.0223 24C12.0356 24 12.0548 23.9999 12.0794 23.9999C12.1287 23.9998 12.2 23.9996 12.2905 23.9991C12.4715 23.9983 12.73 23.9966 13.0444 23.9932C13.6715 23.9865 14.5288 23.9731 15.441 23.946C16.3468 23.9191 17.339 23.8778 18.2263 23.8131C19.0012 23.7566 20.044 23.6616 20.8497 23.4457L18.7792 15.7183C18.8049 15.7114 18.4809 15.7733 17.6443 15.8343C16.9202 15.8871 16.0563 15.9242 15.2035 15.9495C14.3571 15.9747 13.5532 15.9873 12.9589 15.9937C12.6625 15.9969 12.4202 15.9984 12.2531 15.9992C12.1695 15.9996 12.1049 15.9998 12.0618 15.9999C12.0403 16 12.0241 16 12.0137 16C12.0085 16 12.0047 16 12.0024 16C12.0013 16 12.0005 16 12.0001 16C11.9999 16 11.9998 16 11.9998 16C11.9998 16 11.9998 16 11.9998 16C11.9999 16 12 16 12 20ZM20.8479 23.4462C23.0898 22.8467 24.8467 21.0898 25.4462 18.8479L17.7178 16.781C17.8574 16.2592 18.2592 15.8574 18.781 15.7178L20.8479 23.4462ZM25.4457 18.8497C25.7895 17.5669 25.8958 15.6576 25.9443 14.4881C25.9723 13.8146 25.9861 13.1979 25.993 12.7508C25.9965 12.5264 25.9982 12.3426 25.9991 12.2132C25.9995 12.1484 25.9998 12.0971 25.9999 12.0611C25.9999 12.043 26 12.0288 26 12.0185C26 12.0134 26 12.0093 26 12.0062C26 12.0046 26 12.0033 26 12.0023C26 12.0018 26 12.0013 26 12.0009C26 12.0007 26 12.0005 26 12.0004C26 12.0002 26 12 22 12C18 12 18 11.9999 18 11.9997C18 11.9997 18 11.9995 18 11.9995C18 11.9993 18 11.9993 18 11.9993C18 11.9993 18 11.9995 18 12C18 12.001 18 12.003 18 12.006C18 12.0119 18 12.0217 17.9999 12.0352C17.9998 12.0623 17.9997 12.1039 17.9993 12.1585C17.9985 12.2679 17.997 12.4286 17.9939 12.6274C17.9878 13.0269 17.9755 13.5712 17.9512 14.1563C17.9267 14.747 17.8912 15.348 17.8416 15.8692C17.8169 16.1289 17.7908 16.3474 17.7646 16.5211C17.7367 16.7062 17.7174 16.7826 17.7183 16.7792L25.4457 18.8497ZM22 12C26 12 26 11.9998 26 11.9996C26 11.9995 26 11.9993 26 11.9991C26 11.9987 26 11.9982 26 11.9977C26 11.9967 26 11.9954 26 11.9938C26 11.9907 26 11.9866 26 11.9815C26 11.9712 25.9999 11.957 25.9999 11.9389C25.9998 11.9029 25.9995 11.8516 25.9991 11.7868C25.9982 11.6574 25.9965 11.4736 25.993 11.2492C25.9861 10.8022 25.9723 10.1854 25.9443 9.51189C25.8958 8.34241 25.7895 6.4331 25.4457 5.15027L17.7183 7.22082C17.7174 7.21739 17.7367 7.29378 17.7646 7.47895C17.7908 7.65265 17.8169 7.87109 17.8416 8.13077C17.8912 8.65199 17.9267 9.25295 17.9512 9.84366C17.9755 10.4288 17.9878 10.9731 17.9939 11.3726C17.997 11.5714 17.9985 11.7321 17.9993 11.8415C17.9997 11.8961 17.9998 11.9377 17.9999 11.9648C18 11.9783 18 11.9881 18 11.994C18 11.997 18 11.999 18 12C18 12.0005 18 12.0007 18 12.0007C18 12.0007 18 12.0007 18 12.0005C18 12.0005 18 12.0003 18 12.0003C18 12.0001 18 12 22 12ZM25.4462 5.1521C24.8467 2.91025 23.0898 1.15334 20.8479 0.553776L18.781 8.28216C18.2592 8.1426 17.8574 7.74084 17.7178 7.21899L25.4462 5.1521ZM20.8497 0.554265C20.044 0.338371 19.0012 0.243448 18.2263 0.186918C17.339 0.122186 16.3468 0.0809062 15.441 0.0539982C14.5288 0.0268996 13.6715 0.0134587 13.0444 0.00675488C12.73 0.00339437 12.4715 0.00170684 12.2905 0.000859022C12.2 0.000434875 12.1287 0.00022006 12.0794 0.000111341C12.0548 5.6982e-05 12.0356 2.93255e-05 12.0223 1.50204e-05C12.0156 7.86781e-06 12.0104 4.05312e-06 12.0066 2.14577e-06C12.0048 1.19209e-06 12.0033 7.15256e-07 12.0022 2.38419e-07C12.0016 2.38419e-07 12.0012 0 12.0008 0C12.0006 0 12.0004 0 12.0003 0C12.0001 0 12 0 12 4C12 8 11.9999 8 11.9998 8C11.9998 8 11.9998 8 11.9998 8C11.9998 8 11.9999 8 12.0001 8C12.0005 8 12.0013 8 12.0024 8C12.0047 8 12.0085 8 12.0137 8.00001C12.0241 8.00002 12.0403 8.00004 12.0618 8.00009C12.1049 8.00019 12.1695 8.00038 12.2531 8.00077C12.4202 8.00155 12.6625 8.00313 12.9589 8.0063C13.5532 8.01265 14.3571 8.02533 15.2035 8.05047C16.0563 8.0758 16.9202 8.11289 17.6443 8.16572C18.4809 8.22674 18.8049 8.28857 18.7792 8.28167L20.8497 0.554265ZM12 10C13.3881 10 14.9514 10.0324 16.2499 10.0899C16.9012 10.1187 17.4574 10.1527 17.8778 10.189C18.4084 10.2348 18.4482 10.2633 18.2615 10.2133L20.3323 2.48595C19.7425 2.32789 19.029 2.25867 18.5662 2.21869C17.9932 2.1692 17.3159 2.12927 16.604 2.09773C15.176 2.03445 13.4939 2 12 2V10ZM18.2676 10.2149C17.045 9.88937 16.1129 8.94414 15.7892 7.74791L23.5115 5.65834C23.0958 4.12211 21.8868 2.89985 20.3261 2.48429L18.2676 10.2149ZM15.7871 7.73993C15.7625 7.64819 15.7893 7.72943 15.8297 8.10485C15.8642 8.4248 15.8957 8.83178 15.9221 9.29423C15.9748 10.2189 16 11.2425 16 12H24C24 11.0995 23.9709 9.9237 23.9091 8.8389C23.8562 7.91134 23.7594 6.58172 23.5137 5.66632L15.7871 7.73993ZM16 12C16 12.7575 15.9748 13.7809 15.9221 14.7054C15.8957 15.1677 15.8642 15.5747 15.8297 15.8948C15.7893 16.2701 15.7625 16.352 15.7868 16.2611L23.514 18.3326C23.7593 17.4174 23.8562 16.0887 23.9091 15.1608C23.9709 14.0761 24 12.9005 24 12H16ZM15.7851 16.2676C16.1106 15.045 17.0559 14.1129 18.2521 13.7892L20.3417 21.5115C21.8779 21.0958 23.1001 19.8868 23.5157 18.3261L15.7851 16.2676ZM18.2603 13.787C18.448 13.7367 18.4091 13.7651 17.8782 13.811C17.4579 13.8473 16.9017 13.8813 16.2503 13.9101C14.9517 13.9676 13.3881 14 12 14V22C13.4939 22 15.1762 21.9655 16.6044 21.9023C17.3163 21.8707 17.9936 21.8308 18.5666 21.7813C19.029 21.7414 19.7432 21.6721 20.3335 21.5137L18.2603 13.787ZM12 14C10.6125 14 9.04933 13.9676 7.75087 13.9101C7.09951 13.8813 6.54326 13.8473 6.12269 13.811C5.59226 13.7652 5.55152 13.7367 5.73735 13.7864L3.6689 21.5144C4.25823 21.6721 4.97122 21.7413 5.43446 21.7813C6.00755 21.8308 6.68489 21.8707 7.39675 21.9023C8.82473 21.9655 10.5065 22 12 22V14ZM5.73235 13.7851C6.95502 14.1106 7.88707 15.0559 8.21075 16.2521L0.488465 18.3417C0.904152 19.8779 2.11323 21.1001 3.6739 21.5157L5.73235 13.7851ZM8.2129 16.2601C8.23752 16.3518 8.21074 16.2706 8.1703 15.8952C8.13584 15.5752 8.10431 15.1682 8.07795 14.7058C8.02523 13.7811 8 12.7575 8 12H0C0 12.9005 0.0290709 14.0763 0.0909138 15.1611C0.143793 16.0887 0.240645 17.4183 0.486317 18.3337L8.2129 16.2601ZM8 12C8 11.2425 8.02523 10.2189 8.07795 9.29395C8.10431 8.83138 8.13585 8.42411 8.17033 8.10376C8.21075 7.72832 8.23761 7.6457 8.21348 7.73583L0.485741 5.66651C0.240712 6.58156 0.143837 7.91011 0.0909107 8.83873C0.0290715 9.92372 0 11.0995 0 12H8ZM8.2134 7.73612C7.88675 8.95561 6.93968 9.89535 5.7267 10.2164L3.67955 2.48279C2.12657 2.89387 0.902468 4.11073 0.485817 5.66623L8.2134 7.73612ZM5.73975 10.213C5.55198 10.2633 5.5909 10.2349 6.12182 10.189C6.54214 10.1527 7.0983 10.1187 7.74973 10.0899C9.0483 10.0324 10.6119 10 12 10V2C10.5061 2 8.82376 2.03445 7.39564 2.09772C6.68373 2.12927 6.00636 2.1692 5.43336 2.2187C4.97096 2.25864 4.25677 2.32788 3.6665 2.48627L5.73975 10.213ZM6 8.53516V15.4648H14V8.53516H6ZM12.0003 18.9288L18.0003 15.4639L13.9997 8.53608L7.99968 12.0009L12.0003 18.9288ZM18.0003 8.53608L12.0003 5.07124L7.99968 11.9991L13.9997 15.4639L18.0003 8.53608Z" fill="#646566" mask="url(#path-1-inside-1_18_32)"/>
</svg>
