<svg width="21" height="21" viewBox="0 0 21 21" fill="none" xmlns="http://www.w3.org/2000/svg">
<path d="M3.83447 0C1.71034 0 0 1.71034 0 3.83447V17.1655C0 19.2897 1.71034 21 3.83447 21H11.0598V12.7903H8.88892V9.83457H11.0598V7.30932C11.0598 5.32535 12.3425 3.50372 15.2972 3.50372C16.4935 3.50372 17.3782 3.61857 17.3782 3.61857L17.3086 6.37877C17.3086 6.37877 16.4064 6.37024 15.4219 6.37024C14.3564 6.37024 14.1855 6.86118 14.1855 7.67619V9.83459H17.3932L17.2535 12.7903H14.1855V21H17.1655C19.2897 21 21 19.2897 21 17.1656V3.8345C21 1.71037 19.2897 2.1e-05 17.1655 2.1e-05H3.83445L3.83447 0Z" fill="white"/>
</svg>
