<svg width="26" height="25" viewBox="0 0 26 25" fill="none" xmlns="http://www.w3.org/2000/svg">
<path d="M1.62508 1.26875C0.877123 2.03242 0.416748 3.07642 0.416748 4.22917V17.5208C0.416748 18.6425 0.86232 19.7182 1.65544 20.5113C2.44856 21.3044 3.52427 21.75 4.64592 21.75H13.1212C13.1828 21.4455 13.2952 21.1458 13.4595 20.8607L14.3416 19.3333H4.64592C4.16521 19.3333 3.70419 19.1424 3.36428 18.8025C3.02437 18.4626 2.83341 18.0015 2.83341 17.5208V6.04167H19.7501V7.55692C20.5231 7.27745 21.3492 7.17625 22.1667 7.26088V4.22917C22.1667 3.07642 21.7064 2.03242 20.9584 1.26875V1.20834H20.898C20.1081 0.432448 19.0448 -0.00158281 17.9376 4.3376e-06H4.64592C3.49316 4.3376e-06 2.44916 0.460379 1.6855 1.20834H1.62508V1.26875ZM21.2146 8.45834C21.6019 8.42258 21.9922 8.44047 22.3746 8.5115L20.3796 11.9649C20.2801 12.1254 20.2138 12.3043 20.1848 12.4909C20.1557 12.6776 20.1644 12.8681 20.2104 13.0513C20.2564 13.2345 20.3387 13.4066 20.4525 13.5573C20.5663 13.7081 20.7092 13.8345 20.8727 13.929C21.0362 14.0234 21.2171 14.0841 21.4045 14.1074C21.592 14.1306 21.7822 14.116 21.9638 14.0643C22.1455 14.0126 22.3149 13.925 22.4621 13.8066C22.6092 13.6882 22.7311 13.5414 22.8205 13.375L24.8154 9.92042C25.3619 10.5596 25.7055 11.3471 25.8023 12.1825C25.8991 13.0178 25.7448 13.8631 25.359 14.6103C24.9732 15.3575 24.3734 15.9728 23.6363 16.3776C22.8992 16.7824 22.0582 16.9583 21.2206 16.8828L17.5582 23.2266C17.3245 23.6315 16.9396 23.927 16.4881 24.0481C16.0366 24.1693 15.5555 24.1061 15.1506 23.8724C14.7456 23.6388 14.4501 23.2539 14.329 22.8024C14.2079 22.3509 14.2711 21.8698 14.5047 21.4648L18.1611 15.1332C17.7273 14.5276 17.461 13.8183 17.3894 13.0768C17.3177 12.3353 17.4432 11.5881 17.7531 10.9107C18.063 10.2333 18.5463 9.64974 19.1541 9.21911C19.762 8.78848 20.4727 8.52604 21.2146 8.45834ZM10.4483 8.75196C10.5289 8.83962 10.5914 8.94229 10.6323 9.05411C10.6731 9.16593 10.6916 9.2847 10.6865 9.40365C10.6815 9.52259 10.653 9.63938 10.6028 9.74733C10.5526 9.85528 10.4817 9.95228 10.394 10.0328L7.49758 12.6875L10.394 15.3422C10.5712 15.5047 10.6766 15.7309 10.687 15.9711C10.6974 16.2113 10.612 16.4458 10.4495 16.623C10.2871 16.8003 10.0608 16.9057 9.82063 16.9161C9.58043 16.9265 9.34593 16.8411 9.16871 16.6786L5.54371 13.3557C5.45104 13.2708 5.37704 13.1676 5.32642 13.0525C5.2758 12.9375 5.24965 12.8132 5.24965 12.6875C5.24965 12.5618 5.2758 12.4375 5.32642 12.3225C5.37704 12.2074 5.45104 12.1042 5.54371 12.0193L9.16871 8.69638C9.25644 8.61589 9.35917 8.55348 9.47103 8.51272C9.58289 8.47195 9.70169 8.45362 9.82064 8.45878C9.93959 8.46394 10.0564 8.49249 10.1643 8.5428C10.2722 8.5931 10.3691 8.66418 10.4495 8.75196H10.4483ZM14.019 16.6786L16.4598 14.4408C16.0668 13.3022 16.0634 12.0653 16.4501 10.9245L14.019 8.69638C13.9312 8.61593 13.8285 8.55355 13.7166 8.5128C13.6048 8.47206 13.486 8.45374 13.367 8.4589C13.2481 8.46406 13.1313 8.4926 13.0234 8.54288C12.9155 8.59317 12.8186 8.66421 12.7381 8.75196C12.6577 8.83971 12.5953 8.94245 12.5545 9.05431C12.5138 9.16617 12.4955 9.28496 12.5006 9.40389C12.5058 9.52283 12.5343 9.63958 12.5846 9.74749C12.6349 9.8554 12.706 9.95235 12.7937 10.0328L15.6901 12.6875L12.7937 15.3422C12.6165 15.5047 12.5111 15.7309 12.5006 15.9711C12.4902 16.2113 12.5756 16.4458 12.7381 16.623C12.9006 16.8003 13.1268 16.9057 13.367 16.9161C13.6072 16.9265 13.8417 16.8411 14.019 16.6786Z" fill="white"/>
</svg>
