<svg width="28" height="19" viewBox="0 0 28 19" fill="none" xmlns="http://www.w3.org/2000/svg">
<path d="M26.6953 3.39149C26.5409 2.84081 26.2402 2.34225 25.8251 1.94882C25.3983 1.54328 24.8752 1.25319 24.3052 1.10593C22.1719 0.543627 13.6249 0.543628 13.6249 0.543628C10.0617 0.503088 6.49944 0.681391 2.95815 1.07753C2.38811 1.23567 1.86599 1.53224 1.43822 1.94087C1.01792 2.34527 0.713477 2.84396 0.554442 3.39036C0.172409 5.44844 -0.0132091 7.53816 9.07475e-05 9.63136C-0.0135408 11.7227 0.171622 13.8117 0.554442 15.8724C0.710069 16.4165 1.01337 16.9129 1.43482 17.3139C1.85626 17.7149 2.38108 18.0046 2.95815 18.1579C5.11989 18.7191 13.6249 18.7191 13.6249 18.7191C17.1926 18.7597 20.7594 18.5814 24.3052 18.1852C24.8752 18.0379 25.3983 17.7478 25.8251 17.3423C26.2401 16.9489 26.5404 16.4503 26.6942 15.8996C27.0862 13.8423 27.2768 11.7517 27.2633 9.65748C27.2928 7.55436 27.1024 5.45391 26.6953 3.39036V3.39149ZM10.9076 13.5209V5.74294L18.0188 9.63249L10.9076 13.5209Z" fill="white"/>
</svg>
